<svg width="200" height="51" viewBox="0 0 200 51" fill="none" xmlns="http://www.w3.org/2000/svg">
<path d="M13.1456 26.7127C8.5084 26.6658 4.31532 27.7546 0.0154932 29.4071C0.0154932 27.2636 -0.044286 25.2439 0.0710024 23.2327C0.0923521 22.8911 0.805432 22.4641 1.27939 22.2933C4.7295 21.0465 8.26928 20.1712 11.9585 20.0772C13.3206 20.0431 14.687 20.073 16.0448 20.1712C16.8433 20.2267 17.3045 20.0004 17.629 19.2531C18.7136 16.768 19.8494 14.3043 20.9723 11.8149C22.2277 14.6117 23.4873 17.4256 24.905 20.5854C27.2321 17.0157 29.5165 13.8559 31.4294 10.487C33.3552 7.10091 34.9094 3.50562 36.6259 0C37.3988 1.76775 38.082 3.71912 39.0683 5.50822C41.0923 9.18891 43.0992 12.9038 45.4562 16.3709C47.5741 19.4837 49.4229 22.5794 49.4656 26.6615C52.0532 26.1833 54.4956 25.7306 57.2028 25.2311C57.2028 26.3327 57.2199 27.5753 57.1985 28.8178C57.143 32.2594 57.7579 31.5079 54.3462 32.4387C52.8901 32.8358 51.3273 33.0792 49.8243 33.0237C47.8004 32.9511 46.5706 33.8777 45.4818 35.765C47.5484 35.607 49.4528 35.5472 51.3359 35.2953C53.2574 35.0391 55.1532 34.5993 57.19 34.215C57.19 36.1237 57.2455 38.075 57.1387 40.0179C57.1216 40.368 56.4811 40.8291 56.0413 40.9829C53.1591 41.9991 50.1318 42.1229 47.1214 42.2724C42.5782 42.4944 38.1546 41.7344 33.7822 40.5174C33.2911 41.7643 32.9026 42.9684 32.3517 44.0999C30.5626 47.7806 27.4584 49.749 23.5172 50.1931C20.0799 50.5817 16.6341 50.5048 13.5341 48.4809C10.0328 46.1922 8.49986 42.8616 8.17961 38.8436C8.11557 38.0409 8.15827 37.2253 8.14546 36.4183C8.14546 36.3841 8.09848 36.3457 7.88072 36.0255C5.37853 36.7343 2.76533 37.473 0.0154932 38.2501C0.0154932 36.2817 -0.0272062 34.3346 0.0539226 32.396C0.0667324 32.0672 0.557775 31.5762 0.91218 31.478C3.978 30.6624 7.031 29.6846 10.1566 29.2448C11.8688 29.0014 12.3428 28.0193 13.1456 26.7127ZM20.84 17.9935C20.7717 18.1216 20.6308 18.3266 20.5411 18.5529C18.6837 23.237 16.3907 27.6649 13.2779 31.6616C10.9679 34.6292 10.242 38.0195 11.429 41.6148C13.7348 48.609 21.805 49.2708 26.361 46.7131C30.8786 44.181 32.4414 38.0665 29.8453 33.5617C28.8717 31.8751 27.5438 30.3891 26.583 28.694C24.6061 25.1926 22.77 21.6059 20.84 17.9935Z" fill="#BCBCBC"/>
<path d="M108.865 32.8275C108.861 36.252 107.217 39.0104 104.569 40.0181C101.35 41.2478 97.622 40.475 95.6109 38.2162C93.0233 35.3083 93.1172 27.9085 97.2932 25.7778C102.05 23.3482 109.057 25.2654 108.865 32.8275ZM96.8193 32.7165C97.1481 33.8395 97.3786 34.9966 97.827 36.0727C98.5785 37.8746 100.107 38.2461 101.922 38.1521C103.506 38.071 104.467 37.1957 105.047 35.9061C105.978 33.8438 105.965 31.7002 105.094 29.5994C104.082 27.1613 100.995 26.3372 98.9201 27.9939C97.4512 29.1682 97.0072 30.8292 96.8193 32.7165Z" fill="#BCBCBC"/>
<path d="M72.9633 32.4642C73.1426 32.5624 73.2707 32.6478 73.4116 32.7033C75.2861 33.4377 75.9651 34.5009 75.8455 36.5249C75.7473 38.1859 74.6457 39.7273 72.9505 39.9408C70.6447 40.2354 68.2963 40.2226 65.9649 40.2781C65.7258 40.2824 65.2646 39.8511 65.2646 39.6163C65.2219 34.8126 65.2347 30.0089 65.2347 24.9405C67.7198 25.0558 70.0896 25.0515 72.4253 25.3163C73.9539 25.4913 75.0983 26.435 75.3374 28.1003C75.632 30.1541 75.1196 31.0807 73.2366 32.1226C73.1384 32.1781 73.0871 32.3062 72.9633 32.4642ZM68.198 33.4889C68.198 34.4924 68.198 35.2055 68.198 35.9185C68.198 38.2286 68.4799 38.4591 70.7429 37.9553C71.029 37.8912 71.3194 37.8058 71.5841 37.682C72.4253 37.302 72.9548 36.6828 72.8864 35.7093C72.8181 34.7486 72.4509 33.9415 71.3962 33.775C70.4141 33.6256 69.415 33.5957 68.198 33.4889ZM68.2194 27.3402C68.2194 28.5529 68.1895 29.5179 68.2408 30.4786C68.2536 30.7092 68.5311 31.1277 68.672 31.1234C69.6327 31.085 70.6533 31.1277 71.5158 30.7903C71.9599 30.6153 72.3527 29.7058 72.3356 29.1421C72.3185 28.6468 71.7891 27.8996 71.3236 27.7459C70.4013 27.4427 69.3723 27.4683 68.2194 27.3402Z" fill="#BCBCBC"/>
<path d="M128.558 27.4471C126.427 27.4471 124.505 27.1866 122.691 27.5154C120.616 27.8911 119.241 29.9065 119.1 31.9775C118.912 34.7358 119.928 36.9647 122.101 37.7547C123.246 38.1689 124.599 38.0194 125.863 38.0749C126.021 38.0835 126.324 37.7632 126.333 37.5839C126.38 36.5634 126.435 35.5343 126.295 34.5309C126.26 34.2918 125.522 34.1039 125.082 33.9758C124.531 33.8135 123.827 33.8989 123.438 33.5787C123.173 33.3609 123.212 32.5881 123.357 32.1397C123.438 31.8878 124.006 31.6786 124.369 31.6615C125.603 31.606 126.841 31.6615 128.075 31.6316C128.81 31.6145 129.181 31.8664 129.172 32.6564C129.151 34.7871 129.198 36.9178 129.134 39.0442C129.125 39.3773 128.75 39.9025 128.447 39.9879C126.038 40.6796 123.575 40.8333 121.141 40.1757C116.986 39.0527 115.526 35.7094 116.034 31.5462C116.726 25.88 121.427 24.3514 126.072 24.8936C126.367 24.9278 126.657 25.0004 126.952 25.026C128.976 25.1968 129.305 25.7946 128.558 27.4471Z" fill="#BCBCBC"/>
<path d="M137.593 25.0988C137.883 25.0818 138.212 25.0433 138.545 25.0433C141.137 25.0391 143.725 25.0391 146.398 25.0391C146.398 25.8546 146.398 26.5549 146.398 27.3833C144.514 27.3833 142.657 27.3833 140.693 27.3833C140.693 28.6685 140.693 29.8299 140.693 31.1195C142.384 31.1195 144.07 31.1195 145.872 31.1195C145.872 31.9734 145.872 32.6993 145.872 33.6003C144.472 33.6003 143.122 33.6344 141.769 33.5875C140.923 33.5576 140.501 33.7882 140.565 34.7318C140.633 35.7822 140.582 36.8369 140.582 38.0752C142.281 38.0752 143.844 38.1051 145.407 38.0624C146.188 38.041 146.585 38.2246 146.577 39.1085C146.568 39.9668 146.295 40.3468 145.394 40.334C143.093 40.2998 140.791 40.3212 138.49 40.3212C137.9 40.3212 137.409 40.2827 137.414 39.4544C137.448 34.7703 137.443 30.0861 137.456 25.402C137.461 25.3294 137.525 25.2526 137.593 25.0988Z" fill="#BCBCBC"/>
<path d="M162.845 27.5624C161.76 27.4257 160.804 27.2421 159.839 27.1952C158.737 27.1396 157.789 27.5197 157.486 28.6982C157.192 29.8596 157.755 30.5983 159.169 31.1448C159.843 31.4053 160.518 31.6658 161.176 31.9561C163.268 32.887 164.335 34.5096 164.117 36.4097C163.861 38.6429 162.555 40.0776 160.142 40.4063C158.81 40.5899 157.427 40.432 156.069 40.3807C154.865 40.338 154.301 39.736 154.566 38.4891C154.634 38.1689 154.621 37.8358 154.638 37.648C156.039 37.8145 157.358 38.0152 158.682 38.1134C159.805 38.1988 160.608 37.5925 160.881 36.542C161.154 35.4916 160.381 34.8682 159.561 34.4541C158.579 33.9545 157.512 33.6171 156.526 33.1218C154.711 32.2081 154.006 30.7008 154.305 28.553C154.553 26.7724 155.753 25.3121 157.555 25.0858C159.13 24.8894 160.749 25.0132 162.345 25.1072C162.619 25.1242 163.029 25.6836 163.071 26.0295C163.135 26.5461 162.926 27.0927 162.845 27.5624Z" fill="#BCBCBC"/>
<path d="M170.254 27.4297C170.254 26.5928 170.254 25.8925 170.254 25.1154C174.157 25.1154 178.008 25.1154 181.962 25.1154C181.962 25.8328 181.962 26.533 181.962 27.4126C180.604 27.4126 179.234 27.4126 177.731 27.4126C177.731 31.7808 177.731 35.9739 177.731 40.2481C176.727 40.2481 175.852 40.2481 174.767 40.2481C174.767 39.8083 174.767 39.3599 174.767 38.9158C174.767 35.5127 174.737 32.1053 174.789 28.7022C174.801 27.6987 174.49 27.3315 173.478 27.4084C172.461 27.4895 171.432 27.4297 170.254 27.4297Z" fill="#BCBCBC"/>
<path d="M199.964 25.7386C200.383 28.7575 197.095 32.1691 193.713 32.0709C190.139 31.9727 187.304 29.2357 187.321 25.6746C187.338 22.2116 190.216 19.3892 193.704 19.3892C197.223 19.3977 200.272 22.5788 199.964 25.7386ZM193.632 30.9138C196.348 30.9223 198.547 28.655 198.568 25.8155C198.594 22.8948 196.446 20.6189 193.64 20.5891C190.984 20.5592 188.764 22.9034 188.76 25.7386C188.751 28.5653 190.955 30.9052 193.632 30.9138Z" fill="#BCBCBC"/>
<path d="M86.247 40.218C83.1812 40.6065 83.1812 40.6065 83.1812 37.6816C83.1812 33.9839 83.1812 30.2861 83.1812 26.5926C83.1812 26.1357 83.1812 25.6746 83.1812 25.1323C84.2614 25.1323 85.2094 25.1323 86.247 25.1323C86.247 30.1495 86.247 35.141 86.247 40.218Z" fill="#BCBCBC"/>
<path d="M191.232 29.1335C191.232 26.8405 191.232 24.6074 191.232 22.2247C192.509 22.2247 193.773 22.0283 194.93 22.3016C195.579 22.4553 196.352 23.2965 196.527 23.9711C196.813 25.0771 196.1 25.8841 194.738 26.1744C195.327 27.2078 195.856 28.1386 196.39 29.0652C196.313 29.1762 196.241 29.2872 196.164 29.3982C195.703 29.0865 195.165 28.8431 194.797 28.446C194.4 28.019 194.195 27.4255 193.845 26.9473C193.602 26.6185 193.256 26.3623 192.957 26.0762C192.846 26.1232 192.739 26.1659 192.628 26.2129C192.581 27.1565 192.539 28.1002 192.487 29.1335C192.065 29.1335 191.676 29.1335 191.232 29.1335ZM193.884 22.8353C193.807 22.9293 193.73 23.0232 193.653 23.1172C192.79 22.9677 192.526 23.3349 192.517 24.1676C192.509 25.0386 192.876 25.3076 193.662 25.2393C194.4 25.1753 195.301 25.0984 195.165 24.1462C195.096 23.6552 194.336 23.2666 193.884 22.8353Z" fill="#BCBCBC"/>
</svg>
