<svg width="200" height="33" viewBox="0 0 200 33" fill="none" xmlns="http://www.w3.org/2000/svg">
<path d="M66.4951 13.5352C66.9541 13.5352 67.3614 13.5352 67.7687 13.5352C75.1367 13.5352 82.5016 13.5352 89.8696 13.5352C92.1462 13.5352 92.7572 14.1552 92.7602 16.4501C92.7602 18.6143 92.7602 20.7785 92.7541 22.9427C92.748 24.7208 91.9851 25.4868 90.1918 25.5233C89.6021 25.5355 89.0154 25.5263 88.1826 25.5263C89.8057 28.0218 91.286 30.2955 92.8392 32.6785C92.5049 32.7271 92.2678 32.7879 92.0337 32.7879C89.3012 32.794 86.5655 32.7697 83.8329 32.8092C83.1095 32.8213 82.6505 32.6116 82.2341 32.0067C81.0061 30.2255 79.7082 28.493 78.4468 26.7361C77.4923 25.4078 77.4954 25.4048 75.6808 25.6388C75.6808 27.9489 75.6808 30.2833 75.6808 32.7028C72.5621 32.7028 69.5833 32.7028 66.5012 32.7028C66.4951 26.3531 66.4951 20.0095 66.4951 13.5352ZM75.6321 22.6661C78.155 22.6661 80.5015 22.6995 82.842 22.6266C83.146 22.6174 83.6688 22.0673 83.6901 21.7451C83.7843 20.2739 83.7843 18.7906 83.6901 17.3194C83.6688 17.0003 83.1217 16.4684 82.7995 16.4592C80.6444 16.3802 78.4833 16.3954 76.3252 16.444C76.0911 16.4501 75.6686 16.8513 75.6625 17.0793C75.6078 18.8848 75.6321 20.6964 75.6321 22.6661Z" fill="#BCBCBC"/>
<path d="M95.5748 32.6962C95.5748 32.1856 95.5748 31.6992 95.5748 31.2159C95.5748 26.3951 95.5718 21.5713 95.5718 16.7505C95.5718 14.2733 96.2891 13.5407 98.7238 13.5377C105.52 13.5346 112.317 13.5316 119.113 13.5346C121.01 13.5346 121.898 14.1547 121.931 16.0301C122.028 21.5622 121.968 27.1003 121.968 32.7145C118.967 32.7145 116.028 32.7145 112.904 32.7145C112.904 30.3497 112.904 27.9879 112.904 25.5319C110.296 25.5319 107.87 25.5076 105.447 25.5714C105.213 25.5775 104.809 26.1398 104.8 26.4529C104.742 28.4985 104.77 30.5472 104.77 32.6932C101.718 32.6962 98.7421 32.6962 95.5748 32.6962ZM104.776 22.7051C107.375 22.7051 109.87 22.7203 112.362 22.6747C112.548 22.6716 112.873 22.2461 112.879 22.009C112.925 20.4528 112.949 18.8934 112.858 17.3402C112.84 17.015 112.317 16.4648 112.01 16.4557C109.925 16.3767 107.83 16.3736 105.745 16.4527C105.411 16.4648 104.836 17.0028 104.821 17.322C104.727 19.0545 104.776 20.7962 104.776 22.7051Z" fill="#BCBCBC"/>
<path d="M161.26 26.7054C164.224 26.7054 167.057 26.7054 170.066 26.7054C170.066 27.441 170.109 28.1857 170.054 28.9273C169.993 29.7207 170.327 30.0581 171.09 30.0581C173.634 30.055 176.179 30.049 178.726 30.0611C179.507 30.0642 179.805 29.7146 179.771 28.9395C179.729 27.9152 179.708 26.8847 179.771 25.8634C179.838 24.7783 179.252 24.602 178.364 24.605C174.148 24.6233 169.932 24.6111 165.716 24.6111C165.412 24.6111 165.108 24.6142 164.804 24.6111C162.014 24.5838 161.303 23.8725 161.303 21.1004C161.303 19.5046 161.294 17.9088 161.306 16.3131C161.318 14.7446 161.99 13.9361 163.54 13.6534C164.02 13.5653 164.519 13.5349 165.011 13.5349C171.771 13.5288 178.534 13.5288 185.294 13.5318C187.978 13.5318 188.635 14.2005 188.635 16.9088C188.635 17.8116 188.635 18.7174 188.635 19.6961C185.671 19.6961 182.805 19.6961 179.762 19.6961C179.762 18.9849 179.738 18.2766 179.768 17.5745C179.805 16.8085 179.446 16.4134 178.711 16.4103C176.166 16.3951 173.619 16.3678 171.078 16.4529C170.741 16.465 170.2 17.0456 170.139 17.4225C169.999 18.3131 170.087 19.2371 170.09 20.149C170.093 21.5715 170.239 21.7387 171.641 21.7418C176.008 21.7509 180.376 21.7448 184.744 21.757C185.273 21.757 185.808 21.7934 186.328 21.8907C187.845 22.1764 188.477 22.8056 188.541 24.3284C188.62 26.2616 188.62 28.2039 188.553 30.1371C188.504 31.5748 187.793 32.3317 186.358 32.6448C185.772 32.7724 185.155 32.815 184.553 32.815C177.869 32.8241 171.182 32.8211 164.497 32.818C162.157 32.818 161.288 31.9396 161.266 29.5748C161.254 28.6751 161.26 27.7632 161.26 26.7054Z" fill="#BCBCBC"/>
<path d="M8.74929 32.736C5.84648 32.736 3.09261 32.736 0.247559 32.736C0.247559 26.362 0.247559 20.0153 0.247559 13.5957C0.60319 13.5744 0.934506 13.541 1.26278 13.541C8.62467 13.538 15.9866 13.538 23.3484 13.541C25.3211 13.541 26.0841 14.3039 26.0962 16.304C26.1084 18.5442 26.1023 20.7813 26.0993 23.0215C26.0993 24.8027 25.4093 25.52 23.6372 25.5231C19.0839 25.5352 14.5306 25.5626 9.97728 25.5048C8.94382 25.4927 8.6885 25.8209 8.72497 26.7997C8.80096 28.7298 8.74929 30.666 8.74929 32.736ZM8.75537 22.6628C11.4484 22.6628 13.9835 22.6902 16.5185 22.6233C16.7708 22.6172 17.1993 22.0549 17.2145 21.7327C17.2905 20.295 17.2389 18.8481 17.2541 17.4073C17.2601 16.7599 17.0139 16.4134 16.3239 16.4164C14.0473 16.4256 11.7676 16.3952 9.49095 16.4468C9.2417 16.4529 8.79488 16.8967 8.7888 17.149C8.72801 18.9211 8.75537 20.7053 8.75537 22.6628Z" fill="#BCBCBC"/>
<path d="M41.2119 32.675C41.2119 26.3223 41.2119 19.9999 41.2119 13.5955C48.7379 13.5955 56.2366 13.5955 63.8204 13.5955C63.8204 14.477 63.8204 15.3646 63.8204 16.3768C59.1546 16.3768 54.504 16.3768 49.7744 16.3768C49.7744 18.1154 49.7744 19.7294 49.7744 21.4954C53.7563 21.4954 57.7169 21.4954 61.7504 21.4954C61.7504 22.4955 61.7504 23.3496 61.7504 24.3344C57.7898 24.3344 53.8262 24.3344 49.7805 24.3344C49.7805 26.2524 49.7805 28.0427 49.7805 29.9272C54.4706 29.9272 59.0938 29.9272 63.8113 29.9272C63.8113 30.8695 63.8113 31.7176 63.8113 32.675C56.3217 32.675 48.7987 32.675 41.2119 32.675Z" fill="#BCBCBC"/>
<path d="M147.114 29.9C147.114 30.9578 147.114 31.7876 147.114 32.7056C139.731 32.7056 132.384 32.7056 124.938 32.7056C124.938 26.365 124.938 20.0153 124.938 13.6017C127.883 13.6017 130.792 13.6017 133.84 13.6017C133.84 19.0031 133.84 24.3741 133.84 29.9C138.315 29.9 142.658 29.9 147.114 29.9Z" fill="#BCBCBC"/>
<path d="M99.9732 8.98182C132.834 8.98182 165.692 8.98182 198.553 8.98182C198.705 8.98182 198.872 8.93927 199.006 8.99094C199.346 9.11556 199.669 9.28274 200 9.43168C199.672 9.57758 199.353 9.82075 199.012 9.85114C198.298 9.91498 197.571 9.86938 196.848 9.86938C131.697 9.86938 66.5499 9.86938 1.39934 9.86938C1.17138 9.86938 0.928208 9.91801 0.718477 9.85418C0.505705 9.79035 0.32637 9.61406 0.131836 9.48639C0.32333 9.31922 0.490507 9.08213 0.715437 9.00006C0.952525 8.91495 1.24129 8.98182 1.50573 8.98182C34.3302 8.98182 67.1517 8.98182 99.9732 8.98182Z" fill="#BCBCBC"/>
<path d="M29.1846 13.5742C32.1603 13.5742 35.0662 13.5742 38.0602 13.5742C38.0602 19.927 38.0602 26.2736 38.0602 32.6963C35.13 32.6963 32.1998 32.6963 29.1846 32.6963C29.1846 26.3405 29.1846 20.0242 29.1846 13.5742Z" fill="#BCBCBC"/>
<path d="M149.321 13.5831C152.294 13.5831 155.202 13.5831 158.209 13.5831C158.209 19.9298 158.209 26.2795 158.209 32.7112C155.297 32.7112 152.357 32.7112 149.321 32.7112C149.321 26.401 149.321 20.0513 149.321 13.5831Z" fill="#BCBCBC"/>
<path d="M191.666 13.5689C194.419 13.5689 197.1 13.5689 199.879 13.5689C199.906 13.9306 199.954 14.2589 199.954 14.5872C199.961 20.2864 199.942 25.9826 199.976 31.6818C199.982 32.5116 199.781 32.8156 198.903 32.7943C196.52 32.7396 194.134 32.7761 191.666 32.7761C191.666 26.3443 191.666 20.0219 191.666 13.5689Z" fill="#BCBCBC"/>
<path d="M8.15637 6.17606C6.11681 7.14873 4.00126 7.20953 1.93433 6.23078C-0.503416 5.07573 -0.679712 2.30363 1.64861 0.935814C3.81888 -0.340814 6.15328 -0.255705 8.3965 0.853745C8.84636 1.07563 9.13816 1.61668 9.50595 2.00879C9.42084 2.14253 9.33573 2.27627 9.25063 2.41001C8.77341 2.19724 8.19589 2.08782 7.83722 1.74738C6.53019 0.510271 3.43589 0.513311 2.19878 1.82641C1.17748 2.91155 1.23827 4.37663 2.34772 5.34018C3.57875 6.41011 6.47548 6.46483 7.68828 5.39793C8.00135 5.12133 8.18069 4.69579 8.56064 4.1365C7.27185 4.1365 6.23535 4.1365 5.19581 4.1365C5.13806 4.03315 5.07727 3.92981 5.01952 3.82646C5.22013 3.64713 5.4177 3.32189 5.6244 3.31581C6.90406 3.26718 8.18373 3.2915 9.62146 3.2915C9.62146 4.33711 9.63665 5.27027 9.60626 6.20646C9.60018 6.38884 9.35093 6.73535 9.31446 6.72319C8.95275 6.59249 8.61231 6.40403 8.15637 6.17606Z" fill="#BCBCBC"/>
<path d="M11.6213 0.28813C13.6974 0.28813 15.591 0.28509 17.4816 0.294209C17.6671 0.294209 17.8585 0.345882 18.0379 0.397555C18.8343 0.622485 19.7127 0.959879 19.6337 1.88999C19.579 2.51311 18.9741 3.08759 18.7157 3.51921C19.0805 4.4706 19.4847 5.52534 19.9103 6.64087C18.8434 6.89012 18.2142 6.85972 18.2172 5.63173C18.2203 4.55571 17.5698 3.97515 16.4725 3.96603C15.3448 3.95691 14.2171 3.96299 12.9527 3.96299C12.9527 4.76848 13.0104 5.44631 12.9223 6.1059C12.8919 6.34603 12.4937 6.72598 12.2961 6.7047C12.0499 6.68039 11.6517 6.31259 11.6456 6.08463C11.597 4.19704 11.6213 2.30338 11.6213 0.28813ZM13.0256 3.3034C14.5241 3.22437 15.9497 3.21221 17.3509 3.03592C17.6883 2.99336 18.1929 2.428 18.199 2.09365C18.2051 1.77145 17.6975 1.19393 17.3631 1.15441C15.9345 0.984196 14.4846 0.968998 13.0226 0.896048C13.0256 1.80185 13.0256 2.46144 13.0256 3.3034Z" fill="#BCBCBC"/>
<path d="M55.2879 7.14477C54.1298 6.74354 52.835 6.50645 51.7681 5.8803C49.9747 4.82252 49.9595 2.50635 51.5827 1.19629C53.3487 -0.226236 57.1785 -0.314384 58.9932 1.02607C60.9507 2.46988 60.8443 5.00794 58.677 6.12043C57.7044 6.61892 56.5493 6.77698 55.2879 7.14477ZM55.3791 6.22377C55.9749 6.11739 56.5098 6.08395 57.0083 5.92285C58.0904 5.57026 58.8564 4.89851 58.9385 3.67052C59.0144 2.51547 58.4673 1.46378 57.212 1.20237C56.0144 0.953125 54.683 0.998718 53.4733 1.23885C52.4094 1.45162 51.7924 2.39389 51.8228 3.54285C51.8532 4.74349 52.5796 5.49731 53.6678 5.87422C54.2301 6.07179 54.8411 6.12043 55.3791 6.22377Z" fill="#BCBCBC"/>
<path d="M28.6646 0.288528C29.0689 0.288528 29.4336 0.288528 29.9078 0.288528C29.9078 1.7992 30.0537 3.2886 29.8409 4.72329C29.7467 5.3616 29.0385 6.1519 28.4123 6.42546C26.7254 7.16104 24.9168 7.06377 23.1751 6.51361C22.093 6.17317 21.5094 5.4072 21.552 4.1944C21.5976 2.91473 21.5611 1.63203 21.5611 0.297647C22.0687 0.297647 22.4304 0.297647 22.9411 0.297647C22.9411 1.58947 22.9806 2.83266 22.9289 4.07282C22.8833 5.19746 23.473 5.80538 24.47 5.99384C25.2025 6.13366 25.9867 6.17013 26.7284 6.07895C28.0628 5.91481 28.5187 5.30081 28.5278 3.92388C28.5339 2.82355 28.543 1.72017 28.5552 0.619844C28.5582 0.552973 28.6008 0.483062 28.6646 0.288528Z" fill="#BCBCBC"/>
<path d="M33.4975 4.10265C33.4975 5.03276 33.4975 5.82001 33.4975 6.63158C32.5005 6.92034 32.0172 6.7714 32.0658 5.6346C32.1388 3.90203 32.0841 2.16035 32.0841 0.415624C34.2209 0.415624 36.2453 0.333555 38.2605 0.452099C39.1724 0.506812 39.8441 1.12385 39.832 2.20898C39.8229 3.25156 39.1633 3.72878 38.2909 3.87772C37.3304 4.03881 36.3395 4.04793 35.3608 4.09657C34.8015 4.12696 34.2361 4.10265 33.4975 4.10265ZM33.5613 3.40354C34.9565 3.33667 36.2392 3.35187 37.4915 3.16645C37.8623 3.11174 38.3426 2.51902 38.4034 2.11475C38.4429 1.84119 37.8745 1.24239 37.5158 1.18768C36.2301 0.990107 34.92 0.96579 33.5613 0.871562C33.5613 1.76216 33.5613 2.46735 33.5613 3.40354Z" fill="#BCBCBC"/>
<path d="M42.9473 4.19975C42.9473 5.05388 42.9473 5.83809 42.9473 6.67702C42.4549 6.67702 42.0628 6.67702 41.6099 6.67702C41.6099 4.53107 41.6099 2.46111 41.6099 0.369872C43.6312 0.369872 45.5917 0.284764 47.5431 0.406347C48.4733 0.4641 49.2696 1.00819 49.2666 2.16931C49.2635 3.32739 48.4976 3.81373 47.5371 3.92315C46.0781 4.09033 44.6008 4.10857 42.9473 4.19975ZM43.0111 3.40338C44.4124 3.33347 45.6981 3.33651 46.9565 3.16021C47.3152 3.11158 47.838 2.54926 47.8532 2.20578C47.8684 1.86839 47.3699 1.25135 47.0295 1.19968C45.7163 0.999067 44.3728 0.971711 43.0111 0.877484C43.0111 1.81064 43.0111 2.48847 43.0111 3.40338Z" fill="#BCBCBC"/>
</svg>
