<svg width="200" height="25" viewBox="0 0 200 25" fill="none" xmlns="http://www.w3.org/2000/svg">
<path d="M0.212287 24.0102C0.15184 23.2999 0.0460559 22.635 0.0385 21.9776C0.030944 15.4946 0.0838358 9.00398 0.000720068 2.52095C-0.0219479 0.707515 0.484303 0.0123652 2.41108 0.00480926C9.14345 -0.0254146 9.15101 -0.0934182 11.8636 6.03448C13.3219 9.32889 14.7651 12.6233 16.435 16.4164C17.1301 14.9279 17.6439 13.8851 18.1124 12.8197C19.7445 9.09465 21.2935 5.33177 23.054 1.67468C23.4091 0.941751 24.5123 0.193709 25.3284 0.125705C27.7009 -0.0783065 30.1037 0.0501451 32.6199 0.0501451C32.6199 8.19549 32.6199 16.0008 32.6199 23.9799C30.9878 23.9799 29.3784 23.9799 27.5574 23.9799C27.5574 18.0636 27.5574 12.2153 27.5574 6.36694C27.3911 6.3065 27.2249 6.24605 27.0662 6.1856C26.764 6.69185 26.4164 7.16788 26.1671 7.6968C23.9305 12.5553 21.641 17.3911 19.5178 22.2949C18.868 23.791 17.9991 24.1915 16.4501 24.2066C14.8255 24.2217 13.8811 23.8364 13.1859 22.2269C10.8964 16.9302 8.41808 11.709 6.01528 6.45761C5.81127 6.48028 5.61481 6.50295 5.41836 6.52562C5.41836 12.3135 5.41836 18.1014 5.41836 24.0102C3.46891 24.0102 1.91994 24.0102 0.212287 24.0102Z" fill="#BCBCBC"/>
<path d="M118.667 14.8603C122.339 17.2102 123.087 19.3939 121.947 24.0484C120.337 24.0484 118.697 24.0484 116.854 24.0484C116.733 22.7034 116.778 21.3433 116.446 20.0815C116.257 19.3636 115.479 18.2756 114.919 18.2529C111.33 18.0867 107.734 18.1698 103.933 18.1698C103.933 20.1948 103.933 21.9705 103.933 23.9501C101.976 23.9501 100.231 23.9501 98.2132 23.9501C98.2132 22.1896 98.2132 20.4819 98.2132 18.7667C98.2132 13.1904 98.2585 7.6141 98.183 2.03779C98.1678 0.564374 98.6514 0.0278992 100.117 0.0430112C105.399 0.095903 110.681 -0.0249926 115.955 0.095903C120.647 0.209243 122.287 1.9849 122.423 6.63182C122.438 7.08518 122.423 7.53854 122.438 7.9919C122.559 10.9765 122.234 13.7571 118.667 14.8603ZM109.698 12.5028C109.698 12.4953 109.698 12.4877 109.698 12.4802C111.285 12.4802 112.864 12.5104 114.451 12.4726C116.884 12.4197 116.808 10.5685 116.884 8.91373C116.96 7.20608 116.635 5.6571 114.443 5.63443C111.429 5.59665 108.414 5.64955 105.399 5.60421C104.19 5.5891 103.91 6.1558 103.842 7.25897C103.525 12.5104 103.502 12.5104 108.799 12.5104C109.101 12.5028 109.396 12.5028 109.698 12.5028Z" fill="#BCBCBC"/>
<path d="M42.6769 9.82796C47.4372 9.82796 52.0992 9.82796 56.935 9.82796C56.935 11.2787 56.935 12.5859 56.935 14.286C54.5171 14.286 52.137 14.286 49.7644 14.286C48.1852 14.286 46.5985 14.2784 45.0193 14.286C42.5636 14.3011 41.4302 15.9559 42.4956 18.2075C42.7071 18.6609 43.697 18.948 44.3317 18.9631C48.0266 19.0311 51.7139 18.9934 55.4087 19.0009C56.2172 19.0009 57.0333 19.0765 57.9702 19.1294C57.9702 20.7841 57.9702 22.2651 57.9702 23.9425C57.4564 24.0105 56.8897 24.139 56.3155 24.1465C50.5125 24.1617 44.7095 24.1088 38.9065 24.1843C37.3651 24.207 36.7757 23.7687 36.7908 22.1669C36.8588 15.4647 36.8437 8.76257 36.7984 2.06042C36.7908 0.624784 37.2895 0.0354172 38.7629 0.0505292C44.5659 0.0958651 50.3689 0.133645 56.1719 0.0354172C58.3556 -0.00236266 58.1365 1.31238 58.1062 2.68757C58.076 4.00231 58.4765 5.45305 56.2172 5.36994C52.7566 5.24149 49.2884 5.33971 45.8202 5.33971C41.9742 5.33216 41.8609 5.46817 42.6769 9.82796Z" fill="#BCBCBC"/>
<path d="M147.766 5.38521C142.355 5.38521 137.263 5.38521 132.072 5.38521C132.072 6.97196 132.072 8.22625 132.072 9.71478C136.877 9.71478 141.592 9.71478 146.541 9.71478C146.541 11.3015 146.541 12.6616 146.541 14.2937C142.907 14.2937 139.378 14.2937 135.85 14.2937C131.618 14.2937 131.618 14.2937 132.193 18.9557C137.27 18.9557 142.423 18.9557 147.66 18.9557C147.66 20.8296 147.66 22.3106 147.66 24.1543C144.192 24.1543 140.746 24.1543 137.308 24.1543C133.847 24.1543 130.394 24.1543 126.851 24.1543C126.722 23.6404 126.563 23.2929 126.563 22.9453C126.541 15.9334 126.563 8.9214 126.518 1.90946C126.511 0.541825 127.047 0.0431304 128.384 0.0506864C134.271 0.0884663 140.157 0.0809103 146.043 0.0582424C147.252 0.0506864 147.879 0.443597 147.773 1.76589C147.698 2.79351 147.766 3.84379 147.766 5.38521Z" fill="#BCBCBC"/>
<path d="M80.3436 15.336C82.2099 15.336 83.7816 15.336 85.3532 15.336C86.9702 20.6025 84.6883 24.0556 79.3538 24.2067C75.5153 24.3125 71.6694 24.2672 67.8309 24.116C63.9094 23.9649 61.8541 22.3857 61.6501 18.6228C61.4083 14.0666 61.6048 9.45744 62.0581 4.91629C62.3679 1.81834 64.0529 0.428042 67.234 0.261811C71.5862 0.0275753 75.9687 -0.0404285 80.3134 0.186251C83.6909 0.360038 84.8545 1.78812 85.323 5.15053C85.459 6.11014 85.5195 7.08486 85.6101 8.0218C82.5726 9.02675 81.4392 8.6565 79.724 6.54839C79.2782 6.00435 78.3262 5.64167 77.5857 5.60389C75.1829 5.49055 72.765 5.551 70.3546 5.56611C68.3598 5.57366 67.2264 6.57105 67.1735 8.58094C67.1131 10.9082 67.1055 13.2505 67.1887 15.5778C67.2491 17.4139 68.2843 18.5624 70.1355 18.6606C72.6139 18.7815 75.1073 18.8042 77.5857 18.7362C79.5351 18.6682 80.2756 17.3081 80.3436 15.336Z" fill="#BCBCBC"/>
<path d="M200 24.1466C198.768 24.1466 197.93 24.0483 197.121 24.1692C194.854 24.5092 193.328 23.8141 192.844 21.4264C192.565 20.0739 191.673 19.6961 190.359 19.7188C187.268 19.7868 184.17 19.6659 181.087 19.7943C180.347 19.8245 179.123 20.3837 178.987 20.9202C178.201 24.0483 176.085 24.5244 173.373 24.1541C172.859 24.0861 172.33 24.1466 171.521 24.1466C171.733 23.4363 171.839 22.8847 172.058 22.386C175.065 15.5705 178.118 8.77014 181.087 1.93953C181.669 0.602126 182.41 0.01276 183.951 0.005204C189.55 -0.0250199 189.558 -0.0854675 191.779 4.97704C194.227 10.5609 196.653 16.1523 199.078 21.7438C199.373 22.4238 199.607 23.1265 200 24.1466ZM190.117 14.9812C188.621 11.4827 187.306 8.38478 185.719 4.66724C184.125 8.47546 182.825 11.5885 181.397 14.9812C184.442 14.9812 187.026 14.9812 190.117 14.9812Z" fill="#BCBCBC"/>
<path d="M156.817 18.3657C161.351 18.3657 165.545 18.3657 169.912 18.3657C169.912 20.3378 169.912 22.0908 169.912 23.9949C163.709 23.9949 157.581 23.9949 151.181 23.9949C151.181 21.5845 151.181 19.2724 151.181 16.9602C151.181 11.9884 151.226 7.02413 151.158 2.0523C151.135 0.616663 151.566 -0.0860428 153.062 0.0424088C153.584 0.0877447 154.12 0.0953006 154.641 0.0348528C156.273 -0.138935 156.901 0.465544 156.855 2.19586C156.742 6.63878 156.817 11.0817 156.817 15.5246C156.817 16.3482 156.817 17.1718 156.817 18.3657Z" fill="#BCBCBC"/>
<path d="M87.4463 18.4949C87.4463 16.5455 87.4463 14.6943 87.4463 12.5559C88.9197 12.5559 90.3251 12.5559 91.7305 12.5559C93.1586 12.5559 94.5867 12.5559 96.249 12.5559C96.249 14.5507 96.249 16.4397 96.249 18.4949C93.3853 18.4949 90.5594 18.4949 87.4463 18.4949Z" fill="#BCBCBC"/>
</svg>
