<svg width="200" height="43" viewBox="0 0 200 43" fill="none" xmlns="http://www.w3.org/2000/svg">
<path d="M6.11797 6.68335C5.93736 7.25227 5.87866 7.89796 5.55808 8.37206C0.649974 15.6913 1.05183 25.9907 6.88105 32.7545C14.5615 41.6677 28.3873 41.9025 35.6614 32.1495C39.689 26.7492 39.829 19.4661 36.1626 13.8265C31.7015 6.96781 22.3188 4.89079 15.722 9.95692C8.98065 15.1314 9.1432 25.0154 16.0832 29.3952C20.9281 32.4475 27.6332 30.4698 29.5974 25.2818C31.1416 21.2045 29.2181 16.4454 24.5448 15.8042C22.7703 15.5604 21.2396 16.1338 20.1108 17.5787C19.2664 18.6579 18.9278 19.9312 19.6186 21.1232C19.9934 21.7734 20.8287 22.2881 21.5692 22.55C21.9169 22.6719 22.5265 22.0398 22.7658 21.8953C22.3413 20.9606 21.6957 20.2382 21.8311 19.7144C22.1517 18.4908 23.285 18.3734 24.4003 18.5585C26.9695 18.983 28.0938 22.55 26.4322 24.9702C23.705 28.9391 17.7222 28.4108 15.2162 23.9859C12.3174 18.8656 15.6136 12.1513 21.6234 10.9322C28.3286 9.56861 34.9254 14.9418 35.0247 21.8185C35.088 26.4286 33.3044 30.1492 29.5838 32.8223C23.3979 37.2608 15.5413 36.0146 10.6423 30.8401C2.18968 21.9088 6.65077 6.94524 18.7382 3.57233C29.8773 0.465819 41.1249 8.16436 42.7413 19.6377C44.3804 31.269 35.0834 41.0897 24.8518 42.4443C17.1352 43.4648 10.6648 41.0672 5.45874 35.396C-1.12453 28.2257 -1.80633 17.0414 3.7023 9.01775C4.18543 8.31336 4.72727 7.6451 5.31425 7.02651C5.50841 6.81881 5.91478 6.81429 6.22182 6.71496C6.21731 6.71044 6.11797 6.68335 6.11797 6.68335Z" fill="#BCBCBC"/>
<path d="M148.412 8.85948C148.412 9.37422 148.412 9.88897 148.412 10.4037C148.412 14.1333 148.371 17.8675 148.426 21.5971C148.444 22.6943 148.168 23.1232 146.99 23.0871C144.258 23.0013 144.254 23.06 144.258 20.3147C144.258 15.3118 144.281 10.3044 144.24 5.30145C144.231 4.36679 144.466 4.00105 145.455 4.04169C147.089 4.11393 148.733 4.10942 150.367 4.03717C151.311 3.99653 151.848 4.35776 152.336 5.13438C154.855 9.1304 157.425 13.0948 159.98 17.0682C160.247 17.4837 160.531 17.881 161.105 18.2648C161.136 17.8133 161.19 17.3572 161.195 16.9057C161.204 13.0858 161.24 9.26134 161.177 5.44142C161.159 4.34873 161.497 4.03717 162.567 4.04169C165.349 4.05523 165.349 4.00557 165.349 6.72827C165.349 11.686 165.322 16.6483 165.371 21.6061C165.385 22.7214 165.082 23.1684 163.922 23.0781C162.748 22.9878 161.538 22.9246 160.378 23.0871C158.562 23.3445 157.61 22.5317 156.716 21.0417C154.35 17.1134 151.808 13.2845 149.333 9.41486C149.175 9.16652 148.995 8.92721 148.823 8.6879C148.688 8.7466 148.552 8.8053 148.412 8.85948Z" fill="#BCBCBC"/>
<path d="M178.276 23.3631C176.506 23.2818 174.718 23.3405 172.971 23.0876C170.167 22.6812 168.645 21.0287 168.6 18.2111C168.541 14.8518 168.627 11.4834 168.853 8.13304C169.029 5.52773 170.501 4.19121 173.12 4.1009C176.66 3.97899 180.231 3.74419 183.744 4.0422C187.898 4.39891 189.081 5.67673 189.312 9.83981C189.483 12.9463 189.253 16.107 188.896 19.209C188.607 21.7195 187.203 22.7896 184.683 23.0334C183.6 23.1373 182.512 23.2231 181.423 23.2637C180.376 23.3044 179.328 23.2728 178.281 23.2728C178.276 23.2998 178.276 23.3314 178.276 23.3631ZM178.75 18.8433V18.8478C179.342 18.8478 179.933 18.8478 180.525 18.8478C181.116 18.8478 181.708 18.8658 182.299 18.8342C184.002 18.753 184.855 18.0079 184.927 16.3463C185.004 14.5312 184.999 12.707 184.927 10.8874C184.859 9.15349 184.142 8.37686 182.403 8.30462C180.087 8.20528 177.766 8.22786 175.445 8.29559C174.348 8.3272 173.192 8.77421 173.133 10.0024C173.011 12.3909 173.084 14.7931 173.219 17.1816C173.287 18.3692 174.203 18.8388 175.341 18.8433C176.479 18.8478 177.617 18.8433 178.75 18.8433Z" fill="#BCBCBC"/>
<path d="M56.5037 3.71626C58.1834 3.82914 59.9714 3.79302 61.7008 4.10006C63.7191 4.46128 65.2001 6.98984 64.7983 9.00816C64.7666 9.17071 64.6673 9.44614 64.577 9.45518C63.7688 9.53193 62.956 9.59515 62.1478 9.59063C61.3892 9.58612 60.5178 9.90219 60.2153 8.66952C60.1159 8.27217 59.3258 7.79807 58.8426 7.78904C56.6663 7.73937 54.4809 7.80259 52.3045 7.90192C51.2705 7.95159 50.5887 8.51148 50.6519 9.65385C50.7151 10.8594 51.3969 11.4645 52.589 11.469C54.8195 11.478 57.0501 11.4374 59.2761 11.4825C60.2694 11.5006 61.2718 11.6044 62.2471 11.7986C64.0126 12.1508 65.1279 13.3383 65.2949 15.3386C65.4214 16.8602 65.3401 18.4315 65.0918 19.9396C64.7847 21.7954 63.6107 22.9062 61.7369 22.9604C57.6551 23.0823 53.5688 23.1184 49.487 22.9784C47.1797 22.8971 45.4864 19.6687 46.4843 17.5962C46.5836 17.3885 46.9765 17.244 47.2474 17.2169C47.8795 17.1627 48.5207 17.235 49.1574 17.1898C50.0017 17.1311 50.5616 17.244 50.8415 18.2554C50.9725 18.725 51.8078 19.2804 52.3497 19.3075C54.5712 19.4159 56.8062 19.3933 59.0323 19.3075C60.5042 19.2488 60.9558 18.6889 60.9151 17.375C60.8745 16.1423 60.2875 15.6456 58.8562 15.6095C55.9032 15.5282 52.9502 15.4379 49.9972 15.3386C48.173 15.2799 46.8184 14.3904 46.5882 12.6249C46.3443 10.7646 46.3443 8.82755 46.5701 6.96274C46.7688 5.30112 48.3582 4.2581 50.4261 4.082C52.4174 3.92848 54.4131 3.84721 56.5037 3.71626Z" fill="#BCBCBC"/>
<path d="M89.8627 4.09094C95.1771 4.09094 100.27 4.00515 105.359 4.13158C107.544 4.18576 108.872 5.86093 109.039 8.31272C109.12 9.53636 109.098 10.769 109.035 11.9972C108.958 13.4466 108.366 14.6115 106.948 15.2256C106.628 15.3656 106.334 15.5597 105.82 15.8442C106.398 16.0835 106.79 16.2415 107.174 16.4131C108.168 16.8511 108.795 17.5555 108.822 18.6978C108.849 19.7905 108.867 20.8832 108.908 21.9714C108.94 22.7932 108.547 23.0506 107.748 23.0822C104.605 23.2086 104.605 23.2312 104.361 20.084C104.248 18.6437 103.779 18.147 102.334 18.1289C100.013 18.0928 97.6922 18.1425 95.3713 18.1109C94.5134 18.0973 94.0799 18.4089 94.1161 19.2939C94.1296 19.6099 94.1115 19.9305 94.1115 20.2511C94.098 23.177 93.5471 23.633 90.6032 23.037C90.3187 22.9783 89.8943 22.5494 89.8943 22.2875C89.8536 16.2731 89.8627 10.2723 89.8627 4.09094ZM98.8074 8.32175C98.8074 8.31272 98.8074 8.29917 98.8074 8.29014C97.6289 8.29014 96.4459 8.31272 95.2675 8.28111C94.4863 8.26305 94.0664 8.53397 94.0935 9.37381C94.1296 10.5071 94.0664 11.6495 94.1793 12.7738C94.2154 13.1395 94.6805 13.7536 94.9559 13.7581C97.7192 13.7897 100.483 13.731 103.246 13.6633C104.199 13.6407 104.573 12.986 104.623 12.1191C104.655 11.6224 104.65 11.1212 104.641 10.62C104.623 8.9584 104.181 8.44366 102.483 8.33981C101.264 8.25854 100.031 8.32175 98.8074 8.32175Z" fill="#BCBCBC"/>
<path d="M68.555 13.5775C68.555 10.8051 68.5821 8.0282 68.5415 5.25583C68.5279 4.37986 68.7989 4.04122 69.7064 4.05025C73.8469 4.0954 77.9829 4.05476 82.1234 4.10443C85.0403 4.14055 86.5936 5.40483 86.8419 8.29912C87.0315 10.4935 86.8961 12.7512 86.6297 14.9456C86.3768 17.0407 85.108 18.0431 82.9994 18.1063C80.1819 18.1876 77.3598 18.1876 74.5423 18.165C73.4315 18.156 72.7768 18.4585 72.989 19.7092C73.0026 19.7995 72.9935 19.8898 72.989 19.9801C72.9845 23.2718 72.6639 23.5653 69.3407 22.9918C69.0291 22.9376 68.6047 22.2784 68.5957 21.8946C68.5279 19.1267 68.5596 16.3499 68.555 13.5775ZM72.9845 13.9206C75.626 13.9206 78.0732 13.9658 80.5115 13.9026C81.9744 13.8665 82.4982 13.1801 82.6291 11.4688C82.7691 9.65822 82.2544 8.61519 80.8411 8.50231C78.457 8.31718 76.0504 8.33524 73.6528 8.33524C73.427 8.33524 73.0252 8.83192 73.0116 9.10735C72.9529 10.6471 72.9845 12.1777 72.9845 13.9206Z" fill="#BCBCBC"/>
<path d="M119.122 23.055C119.898 21.2805 120.575 19.7137 121.271 18.1514C123.172 13.8845 125.113 9.6356 126.96 5.34609C127.394 4.3437 127.953 3.91023 129.019 4.05924C129.421 4.11794 129.85 4.14503 130.243 4.05924C132.934 3.49483 134.23 4.68686 135.205 7.19735C137.205 12.3538 139.58 17.3612 141.797 22.4319C141.847 22.5493 141.842 22.6938 141.892 23.0369C140.474 23.0369 139.084 23.1453 137.729 22.9737C137.3 22.9195 136.849 22.1565 136.614 21.6282C135.706 19.5602 135.738 19.5466 133.48 19.5511C131.159 19.5557 128.843 19.5647 126.522 19.5602C125.845 19.5602 125.28 19.6144 125.104 20.4632C124.653 22.6847 123.235 23.4388 121.068 23.0731C120.512 22.9737 119.925 23.055 119.122 23.055ZM134.162 15.7764C132.988 13.0672 131.882 10.5161 130.776 7.96946C130.649 7.98753 130.523 8.00559 130.396 8.02365C129.299 10.5703 128.206 13.1124 127.059 15.7764C129.52 15.7764 131.724 15.7764 134.162 15.7764Z" fill="#BCBCBC"/>
<path d="M46.7598 26.654C47.3062 26.6044 47.8525 26.505 48.3943 26.505C84.7197 26.496 121.045 26.5005 157.37 26.5005C167.43 26.5005 177.491 26.5005 187.551 26.5005C187.916 26.5005 188.287 26.4644 188.639 26.5366C188.797 26.5682 189.018 26.8166 189.023 26.9701C189.027 27.101 188.774 27.3268 188.607 27.3539C188.255 27.4171 187.88 27.3765 187.519 27.3765C141.59 27.3765 95.6602 27.381 49.7309 27.381C48.742 27.381 47.7487 27.381 46.7598 27.381C46.7553 27.1372 46.7598 26.8979 46.7598 26.654Z" fill="#BCBCBC"/>
<path d="M140.998 42.0602C139.955 42.0602 138.899 42.1685 137.869 42.0376C135.95 41.7983 135.052 40.9314 134.993 39.0304C134.93 36.9534 135.11 34.8674 135.241 32.7858C135.305 31.7654 135.937 30.9707 136.921 30.9165C139.49 30.7765 142.073 30.7494 144.642 30.8126C146.191 30.8533 147.08 31.9911 147.207 33.3818C147.383 35.3144 147.41 37.3011 147.157 39.2201C146.868 41.3964 146.042 41.9473 143.726 42.1008C142.822 42.1595 141.906 42.1098 140.998 42.1098C140.998 42.0963 140.998 42.0782 140.998 42.0602ZM140.998 39.5994C141.635 39.5994 142.267 39.5858 142.904 39.6039C144.213 39.6445 144.832 39.0259 144.796 37.712C144.769 36.7141 144.796 35.7162 144.773 34.7183C144.751 33.7385 144.213 33.2012 143.251 33.147C142.348 33.0974 141.436 33.1154 140.529 33.1154C137.68 33.1109 137.508 33.278 137.481 36.0684C137.449 39.5994 137.449 39.5994 140.998 39.5994Z" fill="#BCBCBC"/>
<path d="M117.239 30.6044C117.966 30.6044 118.693 30.5954 119.424 30.6044C122.183 30.6406 123.334 31.5662 123.479 34.2618C123.578 36.1086 123.361 37.9734 123.203 39.8246C123.113 40.8722 122.467 41.7346 121.429 41.7933C118.814 41.9468 116.187 41.9874 113.568 41.9152C112.145 41.8746 111.337 40.8225 111.265 39.4769C111.152 37.4406 111.107 35.3771 111.274 33.3497C111.437 31.4036 112.416 30.6902 114.511 30.5999C115.419 30.5593 116.331 30.5954 117.239 30.5954C117.239 30.5999 117.239 30.5999 117.239 30.6044ZM117.261 39.6169C117.261 39.6124 117.261 39.6124 117.261 39.6079C117.808 39.6079 118.354 39.6169 118.9 39.6079C120.53 39.5673 121.009 39.0977 121.027 37.4902C121.036 36.6278 121.054 35.7609 121.004 34.8985C120.941 33.7922 120.381 33.1194 119.203 33.1104C117.884 33.1014 116.566 33.0743 115.247 33.1149C114.371 33.1375 113.798 33.58 113.717 34.5237C113.663 35.1107 113.55 35.6931 113.532 36.2846C113.432 39.1338 113.911 39.626 116.719 39.6214C116.896 39.6169 117.076 39.6169 117.261 39.6169Z" fill="#BCBCBC"/>
<path d="M158.07 37.5857C157.199 37.5857 156.372 37.685 155.591 37.5406C155.221 37.4728 154.946 36.931 154.625 36.6014C154.937 36.3305 155.239 35.8428 155.564 35.8202C156.923 35.7299 158.291 35.7209 159.651 35.8247C160.012 35.8518 160.617 36.3801 160.626 36.6872C160.653 37.9469 160.621 39.2383 160.368 40.4664C160.165 41.4508 159.398 42.1236 158.3 42.1371C156.165 42.1597 154.024 42.2229 151.893 42.11C150.015 42.0107 148.94 40.7825 148.9 38.8951C148.864 37.3058 148.841 35.7119 148.913 34.1225C149.013 31.91 149.803 30.876 151.835 30.6999C153.817 30.5283 155.84 30.5374 157.822 30.7135C159.899 30.8986 160.079 31.2553 160.644 34.1315C159.66 34.2896 158.711 34.7682 157.93 33.5897C157.75 33.3143 157.23 33.1517 156.86 33.1382C155.496 33.084 154.119 33.0072 152.778 33.1788C152.286 33.242 151.586 33.9058 151.496 34.3889C151.293 35.4816 151.437 36.6375 151.392 37.7618C151.333 39.1615 152.124 39.744 153.37 39.8208C154.413 39.884 155.465 39.9066 156.503 39.8117C157.61 39.6989 158.382 39.1706 158.07 37.5857Z" fill="#BCBCBC"/>
<path d="M99.2589 33.508C99.2589 36.294 99.2589 39.0844 99.2589 41.8387C97.2 42.2496 96.9968 42.1096 96.9923 40.3261C96.9787 37.5086 97.0103 34.6865 96.9697 31.869C96.9561 30.9479 97.2541 30.6815 98.2069 30.5731C100.352 30.3293 101.774 30.9479 102.745 32.9978C103.616 34.831 104.853 36.4881 105.951 38.2129C106.163 38.5471 106.456 38.8315 106.935 39.3959C107.012 38.7412 107.088 38.3755 107.088 38.0098C107.102 35.9192 107.115 33.8286 107.084 31.7335C107.07 30.9434 107.296 30.5731 108.168 30.5912C109.003 30.6092 109.396 30.8169 109.382 31.7516C109.342 34.7497 109.351 37.7524 109.396 40.755C109.409 41.7168 108.998 41.9155 108.104 42.0193C106.091 42.2541 104.718 41.7258 103.711 39.7978C102.546 37.5673 101.029 35.5173 99.6653 33.3906C99.5344 33.4268 99.3989 33.4674 99.2589 33.508Z" fill="#BCBCBC"/>
<path d="M188.774 33.9012C187.736 33.9103 186.801 34.1812 186.047 33.1201C185.799 32.7724 184.864 32.8808 184.241 32.8537C183.424 32.8176 182.57 32.7182 181.794 32.9033C181.288 33.0207 180.895 33.5942 180.448 33.9644C180.899 34.3798 181.315 35.1023 181.807 35.161C183.198 35.328 184.625 35.2558 186.033 35.2152C188.873 35.1249 189.564 36.7233 189.33 39.315C189.149 41.2972 188.598 41.7623 186.53 41.9384C184.629 42.101 182.715 42.1281 180.805 42.101C178.637 42.0648 177.947 41.1844 178.204 38.9267C179.157 38.71 180.114 38.3262 180.787 39.5498C180.909 39.7756 181.41 39.8794 181.739 39.8885C182.967 39.9201 184.196 39.884 185.428 39.884C186.2 39.884 186.815 39.6492 186.824 38.7597C186.833 37.8431 186.246 37.5044 185.401 37.4773C183.627 37.4186 181.857 37.3554 180.082 37.2606C179.689 37.238 179.197 37.2064 178.94 36.9716C177.536 35.7028 177.992 33.987 178.222 32.4925C178.317 31.8603 179.396 31.0024 180.105 30.9121C182.304 30.6457 184.548 30.6006 186.769 30.6593C188.3 30.6999 188.923 31.8152 188.774 33.9012Z" fill="#BCBCBC"/>
<path d="M116.738 22.9926C115.225 22.9926 113.925 22.9926 112.525 22.9926C112.489 22.6133 112.43 22.2656 112.43 21.9224C112.412 16.3325 112.421 10.7381 112.371 5.14821C112.362 4.29031 112.638 4.06454 113.459 4.04648C116.751 3.97424 116.747 3.94714 116.747 7.29296C116.742 11.9753 116.742 16.6576 116.742 21.34C116.738 21.8321 116.738 22.3243 116.738 22.9926Z" fill="#BCBCBC"/>
<path d="M68.4469 37.2611C66.8123 37.2611 65.1462 37.2611 63.4801 37.2611C61.3488 37.2611 61.3308 37.2881 61.692 39.7806C63.7735 39.7806 65.8912 39.8032 68.0134 39.7715C68.8894 39.758 69.3725 40.1147 69.1377 40.9726C69.0338 41.3609 68.5552 41.9118 68.2256 41.9253C65.4577 42.0427 62.6854 42.0427 59.9175 42.1014C59.1815 42.115 59.0054 41.7538 59.0099 41.09C59.0325 37.9564 59.037 34.8183 59.0099 31.6847C59.0009 30.8358 59.3531 30.592 60.1568 30.601C62.7937 30.6371 65.4307 30.6597 68.0631 30.601C69.1693 30.5739 69.1738 31.17 69.1874 31.9737C69.2009 32.8406 68.8397 33.0348 68.0314 33.0122C65.9454 32.9535 63.8593 32.9941 61.6559 32.9941C61.6559 33.8024 61.6559 34.448 61.6559 35.3421C63.3898 35.3421 65.1417 35.4008 66.8891 35.324C68.5959 35.2427 68.772 35.3827 68.4469 37.2611Z" fill="#BCBCBC"/>
<path d="M81.568 34.3841C80.6333 34.4473 79.6039 34.9214 79.0756 33.5533C78.9898 33.3366 78.5563 33.1424 78.2764 33.1379C76.9127 33.1018 75.5401 33.034 74.1946 33.1966C73.7475 33.2508 73.0973 33.9326 73.0386 34.3931C72.8806 35.6348 72.9438 36.9081 73.0025 38.1679C73.0477 39.1567 73.6934 39.5947 74.6461 39.6038C75.7388 39.6128 76.836 39.6941 77.9151 39.5676C78.4118 39.5089 79.1117 39.1432 79.2788 38.7368C79.7348 37.6125 80.6198 37.897 81.3197 38.0595C81.5815 38.1227 81.7621 39.0077 81.7802 39.5225C81.8299 40.8861 81.2068 41.884 79.7664 41.9201C77.3327 41.9788 74.8809 42.0059 72.4652 41.7666C71.806 41.7034 70.8307 40.7281 70.7042 40.0417C70.2617 37.6035 70.0947 35.1156 70.7223 32.6457C71.07 31.2731 72.0408 30.7042 73.296 30.6455C75.1112 30.5597 76.9308 30.5777 78.7459 30.6229C81.0668 30.6771 82.015 31.9413 81.568 34.3841Z" fill="#BCBCBC"/>
<path d="M169.043 35.4189C171.043 35.4189 173.043 35.3737 175.035 35.464C175.378 35.4776 175.694 36.0736 176.023 36.3987C175.667 36.6832 175.323 37.1934 174.949 37.216C173.359 37.3108 171.765 37.2882 170.172 37.2566C169.246 37.2385 169.025 37.7217 168.993 38.5299C168.957 39.4149 169.341 39.7761 170.194 39.7716C171.743 39.7626 173.292 39.7761 174.836 39.7852C176.737 39.7942 176.782 39.8529 176.394 41.9751C173.382 41.9751 170.348 41.9931 167.313 41.9389C167.079 41.9344 166.654 41.4468 166.65 41.1759C166.605 37.9429 166.6 34.71 166.663 31.4816C166.668 31.1881 167.232 30.6643 167.548 30.6553C170.23 30.5875 172.921 30.6327 175.603 30.6056C176.439 30.5966 176.574 31.03 176.579 31.7254C176.583 32.4478 176.488 32.9852 175.576 32.9716C173.982 32.9535 172.389 32.9716 170.795 32.9852C169.016 32.9987 168.952 33.0709 169.011 34.8409C169.02 35.0848 169.038 35.3331 169.043 35.4189Z" fill="#BCBCBC"/>
<path d="M95.1728 36.3572C95.1728 37.9059 95.1412 39.4547 95.1864 40.9989C95.209 41.762 94.9471 42.1277 94.175 42.0464C93.5293 41.9742 92.7301 42.1187 92.7843 41.0305C92.8249 40.2132 92.7707 39.3914 92.7707 38.5742C92.7707 37.8743 92.5269 37.4679 91.7322 37.486C90.1383 37.5221 88.5444 37.5221 86.955 37.495C86.2055 37.486 85.8669 37.784 85.8804 38.5381C85.8985 39.4005 85.9617 40.2764 85.8443 41.1253C85.7991 41.4639 85.3341 42.0013 85.0541 42.0058C84.4716 42.0148 83.5054 42.3173 83.4918 41.2292C83.4602 37.9104 83.4692 34.5872 83.555 31.2685C83.5596 31.0427 84.3452 30.6454 84.7516 30.6679C85.1354 30.6905 85.7359 31.1014 85.8127 31.4355C85.9752 32.1715 85.8894 32.9707 85.8623 33.7473C85.8353 34.5691 86.0971 35.0161 87.0273 34.989C88.6167 34.9394 90.2151 35.0297 91.8044 34.9303C92.1476 34.9078 92.6623 34.3705 92.7346 34.0002C92.8836 33.2552 92.8159 32.4605 92.7752 31.6884C92.7301 30.8395 93.1094 30.5957 93.9176 30.6002C94.7303 30.6047 95.2135 30.7492 95.1773 31.7155C95.1232 33.2597 95.1638 34.8084 95.1638 36.3572C95.1683 36.3572 95.1683 36.3572 95.1728 36.3572Z" fill="#BCBCBC"/>
<path d="M53.9078 41.817C51.7044 42.2189 51.5599 42.1015 51.5554 40.0696C51.5508 38.25 51.5102 36.4303 51.5644 34.6107C51.5915 33.6263 51.2393 33.1612 50.2369 33.2109C49.7402 33.2335 49.23 33.1522 48.7378 33.2199C47.4781 33.3825 47.171 32.7774 47.2433 31.6396C47.2929 30.872 47.5593 30.6056 48.3134 30.6101C51.2709 30.6327 54.2284 30.6372 57.1814 30.6056C58.0664 30.5966 58.2605 31.0391 58.2334 31.7976C58.2109 32.5065 58.2831 33.229 57.2401 33.1929C57.1949 33.1929 57.1498 33.1974 57.1046 33.1974C53.8898 33.4276 53.8943 33.4276 53.9078 36.7012C53.9123 38.417 53.9078 40.1328 53.9078 41.817Z" fill="#BCBCBC"/>
<path d="M134.071 42.024C131.295 42.024 128.581 42.0511 125.872 41.9789C125.614 41.9698 125.163 41.3422 125.158 40.9945C125.104 37.8609 125.154 34.7273 125.122 31.5937C125.113 30.6681 125.605 30.5597 126.332 30.5868C127.032 30.6139 127.696 30.5191 127.664 31.5982C127.606 33.6392 127.646 35.6846 127.646 37.73C127.646 38.2222 127.646 38.7098 127.646 39.4774C129.163 39.4774 130.559 39.518 131.949 39.4684C134.356 39.3871 134.356 39.3645 134.071 42.024Z" fill="#BCBCBC"/>
<path d="M164.631 36.3619C164.631 37.861 164.622 39.3601 164.636 40.8592C164.64 41.5635 164.577 42.1866 163.633 42.0693C162.947 41.9835 162.193 42.1054 162.225 40.9224C162.306 37.8836 162.27 34.8358 162.229 31.7925C162.22 30.9301 162.482 30.6005 163.394 30.5824C164.392 30.5598 164.654 30.9617 164.627 31.8692C164.582 33.3683 164.613 34.8674 164.613 36.3665C164.622 36.3619 164.627 36.3619 164.631 36.3619Z" fill="#BCBCBC"/>
<path d="M196.839 8.59767C195.624 9.55039 193.795 9.33817 192.337 8.07841C190.811 6.75995 190.332 4.6468 191.136 2.77297C191.881 1.0391 193.75 -0.143901 195.579 0.0141337C195.886 0.0412253 196.175 0.294081 196.477 0.438569L196.464 0.425024C196.148 0.411478 195.832 0.388901 195.516 0.379871C193.502 0.339233 191.705 1.68027 191.303 3.51799C190.824 5.70338 191.678 7.65849 193.696 8.38997C194.662 8.73764 195.809 8.57961 196.875 8.65185L196.839 8.59767Z" fill="#BCBCBC"/>
<path d="M196.464 0.420811C196.464 0.420811 196.477 0.429841 196.477 0.434357C197.268 0.82267 198.22 1.0394 198.812 1.62187C200.817 3.60408 200.18 7.25693 197.688 8.56636C197.462 8.68376 197.123 8.59345 196.834 8.59797L196.87 8.64764C197.493 8.14193 198.247 7.73104 198.717 7.10793C200.487 4.74644 199.525 1.97858 196.464 0.420811Z" fill="#BCBCBC"/>
<path d="M6.11816 6.68381L6.22202 6.71542C6.32135 6.37677 6.32135 5.93427 6.5426 5.71754C7.47275 4.82352 8.46611 3.99722 9.62202 3.34251C8.39386 4.4036 7.94233 6.2368 6.11816 6.68381Z" fill="#BCBCBC"/>
<path d="M196.085 4.87295C196.486 5.60442 196.852 6.27268 197.218 6.94094C197.141 6.99061 197.064 7.04479 196.988 7.09446C196.428 6.25462 195.872 5.41478 195.489 4.83683C195.927 4.22275 196.477 3.74864 196.572 3.19778C196.622 2.91332 195.913 2.32182 195.448 2.16378C194.735 1.92447 194.256 2.22248 194.306 3.1436C194.373 4.39433 194.324 5.64957 194.324 6.90031C194.202 6.90482 194.08 6.90482 193.958 6.90934C193.958 5.33351 193.71 3.69898 194.039 2.19539C194.288 1.05754 195.525 1.78902 196.238 1.97866C197.146 2.21797 197.286 3.05329 196.929 3.86604C196.78 4.21372 196.423 4.48012 196.085 4.87295Z" fill="#BCBCBC"/>
</svg>
