<svg width="200" height="65" viewBox="0 0 200 65" fill="none" xmlns="http://www.w3.org/2000/svg">
<path d="M61.8043 34.5855C64.3785 34.5855 66.7032 34.5855 69.1309 34.5855C69.1309 44.2289 69.1309 53.8524 69.1309 63.6106C68.7467 63.6304 68.327 63.666 67.9111 63.666C65.1429 63.67 62.3707 63.6224 59.6024 63.6937C58.5965 63.7215 58.0658 63.3571 57.5431 62.5254C53.5986 56.2801 49.5948 50.0663 45.6107 43.8447C45.4642 43.619 45.3058 43.4012 44.8701 43.219C44.8701 46.5813 44.8701 49.9396 44.8701 53.3019C44.8701 56.6959 44.8701 60.0938 44.8701 63.5789C42.4108 63.5789 40.0584 63.5789 37.6069 63.5789C37.6069 53.9712 37.6069 44.3477 37.6069 34.6093C37.9673 34.5895 38.3435 34.5539 38.7237 34.5539C41.5712 34.5499 44.4226 34.5855 47.2701 34.5301C48.0898 34.5143 48.5413 34.7954 48.969 35.4687C52.9214 41.7101 56.9055 47.9357 60.8856 54.1613C61.1153 54.5217 61.3568 54.8741 61.8083 55.5474C61.8043 48.3595 61.8043 41.5279 61.8043 34.5855Z" fill="#BCBCBC"/>
<path d="M161.204 64.3673C159.371 64.0782 157.22 63.9436 155.192 63.3733C149.177 61.6902 147.304 57.1517 147.957 51.7498C148.464 47.5638 151.018 44.9936 154.935 43.8055C159.264 42.4907 163.671 42.4827 168.016 43.7065C173.279 45.1876 175.75 48.8786 175.485 54.5656C175.263 59.2625 172.218 62.6208 167.137 63.607C165.291 63.9713 163.394 64.098 161.204 64.3673ZM167.402 53.4132C167.351 52.8231 167.343 52.2251 167.24 51.6469C166.681 48.6014 164.539 46.847 161.509 46.9341C158.404 47.0212 156.491 48.7955 156.099 51.9518C156.056 52.3043 156.016 52.6607 155.992 53.0132C155.715 57.4131 158.091 59.8764 162.404 59.6784C165.37 59.5397 167.362 57.025 167.402 53.4132Z" fill="#BCBCBC"/>
<path d="M98.1405 55.3296C92.1248 55.3296 86.2874 55.3296 80.4499 55.3296C80.5212 57.7691 82.0182 59.4918 84.3627 59.9394C87.222 60.4859 89.1744 59.6186 90.1605 57.3374C92.6278 57.3374 95.107 57.3374 97.6336 57.3374C97.5109 59.3334 96.6871 60.9571 95.0396 61.9235C93.701 62.7076 92.2001 63.3135 90.6952 63.6779C87.5903 64.4303 84.4141 64.3868 81.2776 63.8244C74.6085 62.6284 71.2976 57.4048 72.957 50.7871C73.8877 47.0644 76.3589 44.8031 79.9153 43.6942C83.4201 42.6012 87.0042 42.4982 90.5645 43.3814C94.8416 44.4427 97.5227 47.6664 97.9346 52.0623C98.0376 53.1078 98.0693 54.1613 98.1405 55.3296ZM90.3348 51.1396C90.3546 48.5179 88.3744 46.9654 85.1943 47.0327C82.3746 47.0922 80.4697 48.7674 80.5806 51.1396C83.828 51.1396 87.0834 51.1396 90.3348 51.1396Z" fill="#BCBCBC"/>
<path d="M118.152 43.5122C120.761 43.5122 123.268 43.5122 125.91 43.5122C125.91 50.2487 125.91 56.902 125.91 63.6068C123.439 63.6068 120.928 63.6068 118.318 63.6068C118.239 62.6286 118.159 61.7019 118.072 60.6286C117.72 60.9138 117.451 61.1157 117.193 61.3336C113.954 64.0583 110.219 64.7434 106.188 63.8325C102.98 63.1078 100.853 60.7078 100.619 57.4129C100.398 54.2684 100.441 51.1002 100.39 47.9438C100.366 46.4904 100.386 45.0409 100.386 43.4528C102.908 43.4528 105.304 43.4291 107.704 43.5003C107.898 43.5043 108.227 44.1815 108.231 44.5498C108.275 47.6705 108.255 50.7952 108.255 53.9159C108.255 54.2328 108.255 54.5496 108.255 54.8624C108.271 58.003 109.407 59.4762 111.954 59.6623C115.395 59.9118 117.629 58.4505 117.902 55.3654C118.183 52.1892 118.084 48.9814 118.144 45.7854C118.163 45.0449 118.152 44.3003 118.152 43.5122Z" fill="#BCBCBC"/>
<path d="M199.468 49.511C197.037 49.511 194.597 49.511 192.154 49.511C191.385 47.1745 188.712 46.1171 186.482 47.3408C186.067 47.5705 185.607 48.1606 185.607 48.5883C185.607 49.0081 186.078 49.6853 186.482 49.812C188.166 50.3387 189.9 50.711 191.619 51.1229C193.112 51.4793 194.629 51.7684 196.11 52.1684C198.062 52.6951 199.615 53.7327 199.908 55.9109C200.233 58.3069 199.741 60.4811 197.726 62.0691C196.043 63.3958 194.007 63.9582 191.975 64.0018C188.835 64.0691 185.647 64.0255 182.554 63.5384C179.136 63.0038 177.223 60.485 177.326 57.4198C179.79 57.4198 182.257 57.4198 184.748 57.4198C185.833 59.8553 188.118 60.7662 190.728 59.7682C191.552 59.4514 192.217 58.988 192.241 58.0098C192.264 57.0356 191.54 56.5564 190.779 56.3703C189.061 55.9544 187.294 55.7129 185.56 55.3525C184.209 55.0713 182.859 54.7743 181.54 54.3862C179.635 53.8238 178.431 52.5644 178.13 50.5526C177.813 48.4299 178.126 46.3864 179.988 45.1468C181.322 44.2557 182.934 43.5587 184.51 43.2934C188.312 42.6518 192.158 42.6716 195.849 44.0181C198.446 44.9567 199.745 47.0121 199.468 49.511Z" fill="#BCBCBC"/>
<path d="M138.068 47.0043C140.044 43.8519 143.105 43.147 146.614 43.1589C146.614 45.3291 146.614 47.4716 146.614 49.6221C145.83 49.6221 145.054 49.6181 144.277 49.6221C140.428 49.6379 138.115 51.9824 138.052 56.0021C138.012 58.4892 138.044 60.9762 138.044 63.5623C135.478 63.5623 132.971 63.5623 130.278 63.5623C130.278 56.9367 130.278 50.2874 130.278 43.4559C132.5 43.4559 134.856 43.4361 137.208 43.4955C137.394 43.4995 137.692 44.0539 137.715 44.3707C137.787 45.2182 137.739 46.0736 137.739 46.9251C137.854 46.9528 137.961 46.9766 138.068 47.0043Z" fill="#BCBCBC"/>
<path d="M185.52 25.2466C185.52 25.7733 185.52 26.1218 185.52 26.6129C184.91 26.6129 184.328 26.6129 183.746 26.6129C183.203 26.6129 182.661 26.6129 182.146 26.6129C181.857 28.3752 181.872 28.399 183.385 28.4029C184.288 28.4069 185.191 28.4029 186.154 28.4029C186.185 28.8623 186.205 29.2029 186.237 29.6425C182.958 29.6425 179.734 29.6425 176.407 29.6425C176.384 29.2979 176.364 28.9257 176.332 28.4346C177.702 28.4346 178.993 28.4346 180.419 28.4346C180.451 27.8049 180.475 27.2861 180.506 26.6129C179.607 26.6129 178.827 26.5851 178.051 26.6208C177.302 26.6564 176.942 26.3753 176.962 25.603C176.985 24.7396 176.966 23.8763 176.966 22.807C178.391 22.807 179.718 22.807 181.045 22.807C181.639 22.807 182.245 22.8823 182.819 22.7793C183.223 22.708 183.587 22.3991 183.971 22.1971C183.603 22.0229 183.239 21.71 182.867 21.6981C180.934 21.6467 179.001 21.6744 177.025 21.6744C177.025 21.2189 177.025 20.8784 177.025 20.4625C179.865 20.4625 182.649 20.4625 185.496 20.4625C185.496 21.6348 185.496 22.7635 185.496 24.0664C183.698 24.0664 181.932 24.0664 180.17 24.0664C179.853 24.0664 179.512 23.9991 179.227 24.0902C178.954 24.1812 178.732 24.4387 178.49 24.6248C178.748 24.8307 179.001 25.203 179.267 25.2149C180.966 25.2703 182.669 25.2426 184.367 25.2426C184.712 25.2466 185.061 25.2466 185.52 25.2466Z" fill="#BCBCBC"/>
<path d="M31.0133 56.6087C32.9737 56.5968 34.3677 57.9869 34.3637 59.9512C34.3598 61.8482 32.843 63.365 30.9895 63.3254C29.144 63.2858 27.7263 61.8403 27.7183 59.9869C27.7065 57.9909 29.045 56.6206 31.0133 56.6087Z" fill="#BCBCBC"/>
<path d="M22.4156 57.0243C22.4156 58.8263 20.9701 60.2559 19.1761 60.2242C17.3939 60.1926 16.0831 58.8342 16.0791 57.0243C16.0791 55.1907 17.485 53.7848 19.2949 53.8125C21.0057 53.8402 22.4156 55.2897 22.4156 57.0243Z" fill="#BCBCBC"/>
<path d="M7.10502 50.1451C7.0971 48.4105 8.32083 47.1471 10.0396 47.1273C11.8019 47.1075 13.1484 48.4184 13.1326 50.1411C13.1167 51.7886 11.7504 53.147 10.099 53.147C8.42776 53.147 7.1169 51.8322 7.10502 50.1451Z" fill="#BCBCBC"/>
<path d="M7.30269 40.8264C7.30665 42.4977 6.17797 43.658 4.5384 43.6659C2.91468 43.6739 1.66719 42.4739 1.65927 40.8898C1.64739 39.2581 2.81964 38.0819 4.479 38.0621C6.18193 38.0463 7.29873 39.1393 7.30269 40.8264Z" fill="#BCBCBC"/>
<path d="M159.382 20.4074C159.382 20.8549 159.382 21.1955 159.382 21.6747C158.253 21.6747 157.129 21.6747 155.762 21.6747C156.594 23.3657 158.095 23.0568 159.378 23.4846C159.398 23.7776 159.422 24.1538 159.473 24.9142C157.794 24.4944 156.281 24.1142 154.78 23.738C153.398 24.0984 151.909 24.4826 150.297 24.9023C150.297 24.2291 150.297 23.8529 150.297 23.4846C151.529 23.0806 153.046 23.3935 153.925 21.7183C152.594 21.7183 151.481 21.7183 150.341 21.7183C150.23 21.0094 150.024 20.4153 150.931 20.4114C153.731 20.3995 156.527 20.4074 159.382 20.4074Z" fill="#BCBCBC"/>
<path d="M80.3628 40.1536C79.1549 40.2407 77.9906 40.3556 76.8262 40.3912C76.454 40.4031 76.0342 40.2724 75.7055 40.0863C74.256 39.2705 73.6897 36.7874 74.5055 34.9815C75.2144 33.4092 76.9451 32.7281 78.7113 33.3775C79.6024 33.7063 80.244 34.3003 80.3865 35.7102C79.6816 35.3735 79.1787 35.1399 78.6876 34.8943C78.3787 34.7399 78.0975 34.4864 77.7728 34.4231C76.9451 34.2528 76.3114 34.5934 75.8916 35.326C75.3847 36.2171 75.3728 38.0071 76.0777 38.5616C76.5965 38.9695 77.4163 39.1952 78.0777 39.1477C78.5292 39.116 78.9331 38.4705 79.3648 38.0903C78.7193 37.4448 77.3767 38.2527 77.7331 36.724C78.5648 36.724 79.4123 36.724 80.3707 36.724C80.3628 37.8329 80.3628 38.9536 80.3628 40.1536Z" fill="#BCBCBC"/>
<path d="M174.419 25.6423C174.447 26.0462 174.475 26.3868 174.502 26.8185C173.833 26.8739 173.227 26.9254 172.502 26.9888C172.502 28.0422 172.502 29.0481 172.502 30.1451C171.932 30.1451 171.485 30.1451 170.926 30.1451C170.926 29.1234 170.926 28.1135 170.926 27.0006C169.976 27.0006 169.14 27.0006 168.162 27.0006C168.162 28.0343 168.162 29.0402 168.162 30.1412C167.592 30.1412 167.152 30.1412 166.57 30.1412C166.57 29.456 166.514 28.7907 166.582 28.1373C166.689 27.1393 166.289 26.7551 165.315 26.8937C165.128 26.9214 164.93 26.8739 164.665 26.8581C164.665 26.4502 164.665 26.0819 164.665 25.6383C167.909 25.6423 171.085 25.6423 174.419 25.6423Z" fill="#BCBCBC"/>
<path d="M2.74457 33.4885C1.17629 33.5043 0.0159248 32.4034 8.36484e-05 30.8866C-0.0117972 29.4331 1.24362 28.1619 2.69309 28.1658C4.13859 28.1698 5.31084 29.3262 5.34252 30.7836C5.37817 32.3756 4.32473 33.4687 2.74457 33.4885Z" fill="#BCBCBC"/>
<path d="M166.483 35.6709C165.841 35.2987 165.422 35.0017 164.958 34.8036C164.483 34.6017 163.96 34.3957 163.461 34.4037C163.192 34.4076 162.748 34.8353 162.717 35.1046C162.689 35.3541 163.065 35.77 163.358 35.8967C163.929 36.1462 164.566 36.2531 165.176 36.4076C166.23 36.6769 166.832 37.2907 166.74 38.4352C166.657 39.4926 165.936 40.2292 164.847 40.3877C162.792 40.6847 161.576 40.0708 161.287 38.5818C161.275 38.5144 161.319 38.4352 161.398 38.0788C161.885 38.3204 162.305 38.5461 162.741 38.7402C163.184 38.9382 163.663 39.2748 164.095 39.2273C164.546 39.1798 164.962 38.756 165.39 38.4946C165.053 38.1739 164.764 37.7541 164.364 37.556C163.845 37.3026 163.236 37.2234 162.665 37.0689C161.735 36.8155 161.307 36.2096 161.327 35.2393C161.346 34.2452 161.814 33.6393 162.744 33.2908C164.19 32.7681 166.455 33.3859 166.483 35.6709Z" fill="#BCBCBC"/>
<path d="M28.7002 51.5197C28.7082 49.9514 29.7022 48.9653 31.2784 48.9613C32.8269 48.9534 34.0308 50.1019 34.015 51.5751C34.0031 53.0642 32.7833 54.1929 31.2269 54.1612C29.7062 54.1295 28.6923 53.0761 28.7002 51.5197Z" fill="#BCBCBC"/>
<path d="M152.559 35.4801C152.559 36.6959 152.531 38.0345 152.567 39.3731C152.594 40.4582 152.226 41.2067 151.109 41.4879C149.644 41.8602 148.555 41.5156 147.751 40.1414C148.579 40.3156 149.173 40.4543 149.775 40.5651C150.428 40.684 151.034 40.676 151.264 39.7374C151.058 39.7374 150.923 39.7058 150.812 39.7414C149.743 40.1058 148.784 40.0661 148.127 38.9929C147.533 38.0187 147.612 36.3633 148.404 35.6821C148.816 35.3296 149.446 35.0603 149.981 35.0524C150.773 35.0485 151.569 35.3059 152.559 35.4801ZM151.763 37.591C151.006 36.9375 150.559 36.5534 150.115 36.1732C149.767 36.6326 149.149 37.088 149.145 37.5474C149.141 37.9751 149.735 38.6523 150.179 38.7553C150.507 38.8305 151.01 38.1731 151.763 37.591Z" fill="#BCBCBC"/>
<path d="M22.954 51.9673C21.4728 51.9871 20.4075 50.9575 20.3956 49.4922C20.3837 48.0585 21.4886 46.9378 22.9144 46.9496C24.2925 46.9576 25.3856 48.0189 25.4371 49.3971C25.4885 50.8307 24.4113 51.9475 22.954 51.9673Z" fill="#BCBCBC"/>
<path d="M90.0215 33.3931C90.4215 33.3931 90.7621 33.3931 91.2135 33.3931C91.2135 34.0782 91.2135 34.7356 91.2135 35.2624C92.0967 35.2624 92.9323 35.0683 93.6135 35.3059C94.7065 35.6901 95.1144 37.793 94.5283 39.2147C94.0412 40.3989 93.2135 40.6325 91.6888 40.2088C91.2096 40.0741 90.6353 40.2959 90.0215 40.3593C90.0215 37.9831 90.0215 35.7138 90.0215 33.3931ZM91.2254 37.7098C91.2135 38.6128 91.4036 39.3969 92.362 39.3811C93.2412 39.3692 93.4392 38.5534 93.463 37.8326C93.4868 37.0524 93.2571 36.2089 92.3383 36.193C91.4036 36.1772 91.1977 36.9811 91.2254 37.7098Z" fill="#BCBCBC"/>
<path d="M4.36032 23.3108C2.9267 23.2989 1.8891 22.2652 1.90098 20.8593C1.91286 19.4653 2.97422 18.4277 4.39201 18.4198C5.82167 18.4119 6.9068 19.4415 6.93056 20.8197C6.95036 22.2534 5.8494 23.3187 4.36032 23.3108Z" fill="#BCBCBC"/>
<path d="M159.747 25.8771C159.747 26.2969 159.747 26.6375 159.747 27.1444C158.697 27.1444 157.683 27.188 156.678 27.1325C155.846 27.085 155.537 27.39 155.612 28.2137C155.672 28.8751 155.624 29.5444 155.624 30.2493C155.082 30.2493 154.626 30.2493 154.06 30.2493C154.06 29.481 154.02 28.78 154.072 28.083C154.123 27.3464 153.806 27.1127 153.105 27.1405C152.088 27.1761 151.066 27.1484 149.965 27.1484C149.965 26.7048 149.965 26.3365 149.965 25.8811C153.2 25.8771 156.404 25.8771 159.747 25.8771Z" fill="#BCBCBC"/>
<path d="M197.453 24.0632C197.421 24.6137 197.401 24.9938 197.373 25.4612C195.627 25.2829 194.17 24.7285 193.037 23.3147C191.865 24.6374 190.407 25.374 188.546 25.4414C188.546 24.9938 188.546 24.582 188.546 24.0632C190.708 23.8097 192.035 22.6177 192.213 20.3445C192.776 20.3445 193.239 20.3445 193.809 20.3445C193.924 22.586 195.215 23.7543 197.453 24.0632Z" fill="#BCBCBC"/>
<path d="M18.8232 44.5017C18.8589 45.7214 17.6826 46.9452 16.4431 46.9768C15.1599 47.0085 14.0233 45.9076 13.9996 44.6046C13.9718 43.2581 15.0015 42.1849 16.3361 42.1611C17.647 42.1413 18.7876 43.2146 18.8232 44.5017Z" fill="#BCBCBC"/>
<path d="M122.77 33.3931C123.146 33.3772 123.482 33.3614 123.914 33.3416C123.966 34.0584 124.013 34.7119 124.065 35.4366C124.449 35.294 124.762 35.1435 125.094 35.0604C126.112 34.8148 127.09 35.4406 127.142 36.4504C127.205 37.7019 127.158 38.9613 127.158 40.2246C126.286 40.5058 125.89 40.3078 125.954 39.4048C125.997 38.8147 125.997 38.2167 125.95 37.6306C125.898 36.9851 125.969 36.1297 125.003 36.1613C124.144 36.1891 123.993 36.9019 123.993 37.6306C123.993 38.49 123.993 39.3494 123.993 40.284C123.53 40.3078 123.193 40.3236 122.77 40.3434C122.77 37.9989 122.77 35.7297 122.77 33.3931Z" fill="#BCBCBC"/>
<path d="M11.7581 12.008C11.7819 13.3703 10.875 14.3089 9.50076 14.3327C8.12257 14.3564 7.1523 13.4416 7.1325 12.107C7.11666 10.8516 8.17406 9.72684 9.40175 9.6912C10.6215 9.65159 11.7383 10.7526 11.7581 12.008Z" fill="#BCBCBC"/>
<path d="M190.371 40.4149C188.799 40.407 187.912 39.4367 187.92 37.7496C187.928 36.0467 188.946 34.9655 190.494 35.013C191.936 35.0566 192.914 36.2011 192.894 37.8169C192.878 39.4961 191.975 40.4228 190.371 40.4149ZM189.255 37.7971C189.326 38.5694 189.433 39.3575 190.474 39.306C191.433 39.2585 191.508 38.5179 191.528 37.7734C191.548 36.9496 191.338 36.1655 190.395 36.1655C189.437 36.1655 189.298 37.0051 189.255 37.7971Z" fill="#BCBCBC"/>
<path d="M14.6374 37.9999C14.6215 39.3068 13.7106 40.1583 12.3602 40.1345C11.0335 40.1108 10.1583 39.2118 10.1781 37.8891C10.1979 36.5901 11.1285 35.7109 12.4632 35.7347C13.778 35.7624 14.6532 36.6732 14.6374 37.9999Z" fill="#BCBCBC"/>
<path d="M99.6413 40.1731C98.8057 40.2641 97.8434 40.4107 96.877 40.4622C96.0889 40.5057 95.483 40.177 95.3563 39.3018C95.2256 38.4147 95.5107 37.7335 96.3979 37.4206C96.7266 37.3058 97.1107 37.3335 97.4434 37.2266C97.7562 37.1236 98.0493 36.9454 98.3146 36.7514C98.3463 36.7276 98.1483 36.2246 98.0414 36.2167C97.681 36.193 97.2929 36.2405 96.9483 36.3593C96.4929 36.5177 96.0691 36.7672 95.4553 37.0603C95.8355 35.4167 96.6394 34.8583 98.0018 35.0207C99.3008 35.1752 99.6413 35.6068 99.6453 37.1117C99.6413 38.1573 99.6413 39.2028 99.6413 40.1731ZM98.1523 37.7375C97.6533 38.1097 97.1543 38.486 96.6553 38.8582C96.8612 39.0879 97.0751 39.5196 97.277 39.5156C98.1404 39.484 98.4651 38.9137 98.1523 37.7375Z" fill="#BCBCBC"/>
<path d="M174.087 22.6687C174.087 23.1716 174.087 23.5439 174.087 24.0231C171.251 24.0231 168.459 24.0429 165.667 23.9914C165.426 23.9875 165.018 23.5439 164.99 23.2786C164.903 22.3875 164.958 21.4846 164.958 20.4945C165.517 20.4945 165.96 20.4945 166.459 20.4945C166.499 21.2271 166.538 21.8806 166.582 22.6647C169.089 22.6687 171.556 22.6687 174.087 22.6687Z" fill="#BCBCBC"/>
<path d="M172.479 37.7934C172.475 39.4646 171.572 40.4191 169.992 40.4151C168.4 40.4111 167.537 39.4844 167.533 37.7736C167.529 36.0786 168.547 34.9736 170.071 35.0172C171.552 35.0568 172.483 36.13 172.479 37.7934ZM168.863 37.8053C168.907 38.5062 168.97 39.3102 170.012 39.3102C170.962 39.3102 171.133 38.5736 171.152 37.829C171.172 37.0409 171.014 36.2132 170.055 36.1697C169.081 36.1261 168.891 36.9181 168.863 37.8053Z" fill="#BCBCBC"/>
<path d="M138.595 37.7411C138.603 39.4599 137.747 40.4064 136.171 40.4143C134.583 40.4222 133.652 39.4757 133.633 37.8282C133.613 36.1807 134.658 35.0045 136.147 35.0125C137.64 35.0164 138.587 36.0699 138.595 37.7411ZM134.975 37.7451C135.015 38.4777 135.098 39.2777 136.12 39.3015C137.153 39.3252 137.308 38.4936 137.32 37.7411C137.328 37.0164 137.102 36.2085 136.223 36.1649C135.276 36.1213 134.999 36.8619 134.975 37.7451Z" fill="#BCBCBC"/>
<path d="M147.125 37.753C147.125 39.4955 146.298 40.4064 144.706 40.4143C143.133 40.4222 142.207 39.4638 142.187 37.8124C142.167 36.1293 143.181 35.0045 144.706 35.0125C146.167 35.0204 147.125 36.1055 147.125 37.753ZM145.783 37.7371C145.791 36.9174 145.612 36.1253 144.63 36.1649C143.676 36.2045 143.502 37.0362 143.525 37.8203C143.545 38.553 143.704 39.3015 144.658 39.3094C145.723 39.3173 145.771 38.5213 145.783 37.7371Z" fill="#BCBCBC"/>
<path d="M86.6435 40.4146C85.0871 40.4146 84.1367 39.4245 84.1169 37.7889C84.101 36.1494 85.1743 34.989 86.6871 35.0128C88.1168 35.0365 89.1583 36.2048 89.1504 37.7771C89.1425 39.4325 88.2079 40.4146 86.6435 40.4146ZM88.0178 37.4721C87.5703 37.0246 87.1544 36.2523 86.6673 36.2009C85.6337 36.0979 85.4753 37.0444 85.4871 37.8563C85.4951 38.5968 85.697 39.3374 86.6554 39.3057C87.6811 39.278 87.7445 38.478 88.0178 37.4721Z" fill="#BCBCBC"/>
<path d="M113.336 38.0506C113.696 39.508 114.14 39.6981 115.09 39.1476C115.478 38.9219 115.966 38.8664 116.536 38.6961C116.005 40.2605 115.082 40.7159 113.577 40.3595C112.378 40.0743 111.728 38.6328 112.037 36.9298C112.267 35.6705 113.356 34.8586 114.615 35.017C115.962 35.1833 116.647 36.1774 116.583 38.0466C115.546 38.0506 114.504 38.0506 113.336 38.0506ZM115.205 37.1595C115.253 37.0486 115.3 36.9378 115.348 36.8269C114.979 36.5932 114.611 36.1853 114.239 36.1774C113.93 36.1695 113.609 36.6328 113.292 36.8902C113.352 36.9813 113.407 37.0685 113.467 37.1595C114.045 37.1595 114.627 37.1595 115.205 37.1595Z" fill="#BCBCBC"/>
<path d="M177.508 35.1399C177.508 35.9993 177.493 36.8587 177.512 37.7181C177.528 38.4072 177.39 39.2903 178.443 39.2943C179.528 39.2983 179.469 38.4072 179.481 37.6547C179.497 36.831 179.485 36.0072 179.485 35.0805C179.924 35.0568 180.289 35.037 180.712 35.0132C180.712 36.7835 180.712 38.4666 180.712 40.1656C179.667 40.2487 178.629 40.4586 177.627 40.3477C177.164 40.2962 176.471 39.6705 176.4 39.219C176.209 38.027 176.249 36.7835 176.316 35.5677C176.332 35.3142 176.863 35.0885 177.156 34.8508C177.279 34.9459 177.394 35.0449 177.508 35.1399Z" fill="#BCBCBC"/>
<path d="M198.158 40.2915C197.726 40.2915 197.425 40.2915 197.045 40.2915C197.017 39.9984 196.966 39.6974 196.958 39.3925C196.942 38.7232 197.053 38.0301 196.918 37.3886C196.819 36.9371 196.451 36.252 196.114 36.1965C195.366 36.0737 195.037 36.7034 195.021 37.4163C195.001 38.3549 195.017 39.2935 195.017 40.2835C194.554 40.2835 194.217 40.2835 193.797 40.2835C193.797 38.6123 193.797 36.9767 193.797 35.4084C194.72 35.2738 195.611 35.052 196.502 35.0361C197.409 35.0163 198.13 35.4441 198.154 36.4896C198.181 37.7093 198.158 38.9291 198.158 40.2915Z" fill="#BCBCBC"/>
<path d="M129.553 40.2361C128.575 40.5133 128.226 40.2361 128.25 39.3688C128.29 38.0381 128.262 36.7035 128.262 35.4402C129.288 35.2857 130.171 35.06 131.062 35.0362C132.052 35.0125 132.721 35.5748 132.765 36.6124C132.816 37.7886 132.777 38.9688 132.777 40.2678C132.349 40.2915 131.989 40.3113 131.478 40.339C131.478 39.2579 131.565 38.2678 131.438 37.3094C131.383 36.8896 130.892 36.5253 130.599 36.1372C130.25 36.5055 129.668 36.8381 129.605 37.254C129.45 38.2124 129.553 39.2104 129.553 40.2361Z" fill="#BCBCBC"/>
<path d="M155.687 38.1495C155.909 37.4445 156.202 36.7475 156.336 36.0267C156.503 35.1317 156.923 34.7991 157.972 35.1317C157.251 37.0287 156.622 38.9653 155.754 40.787C155.509 41.3019 154.558 41.4761 153.933 41.8088C153.802 41.6424 153.671 41.4722 153.541 41.3058C153.754 41.0603 154.016 40.8385 154.178 40.5573C154.372 40.2207 154.677 39.7732 154.586 39.4762C154.142 38.0148 153.588 36.5851 153.042 35.0644C153.548 35.0644 153.964 35.0644 154.428 35.0644C154.768 36.1099 155.105 37.1515 155.441 38.1891C155.525 38.1772 155.604 38.1653 155.687 38.1495Z" fill="#BCBCBC"/>
<path d="M19.3344 5.51258C19.3384 6.75611 18.4275 7.63529 17.1602 7.61549C15.9246 7.59569 15.1167 6.76403 15.1167 5.51654C15.1167 4.28092 15.9444 3.4255 17.1602 3.40174C18.4275 3.37402 19.3305 4.2532 19.3344 5.51258Z" fill="#BCBCBC"/>
<path d="M109.209 40.3197C108.84 40.2999 108.5 40.2801 108.013 40.2484C108.013 38.7039 107.961 37.2228 108.033 35.7416C108.076 34.803 107.842 34.3238 106.813 34.4625C106.025 34.5654 105.835 34.1654 106.116 33.4011C107.85 33.4011 109.605 33.4011 111.419 33.4011C111.419 33.7298 111.419 34.0268 111.419 34.3199C111.351 34.3595 111.284 34.4308 111.217 34.4347C109.379 34.5615 109.383 34.5615 109.379 36.4109C109.375 37.5911 109.363 38.7713 109.351 39.9514C109.347 40.0267 109.296 40.098 109.209 40.3197Z" fill="#BCBCBC"/>
<path d="M33.5875 44.6918C33.5954 45.9235 32.7479 46.767 31.5202 46.7512C30.3757 46.7353 29.4846 45.8839 29.4529 44.7671C29.4212 43.6225 30.3559 42.6483 31.5044 42.6325C32.7004 42.6166 33.5796 43.4879 33.5875 44.6918Z" fill="#BCBCBC"/>
<path d="M197.963 29.694C194.589 29.694 191.366 29.694 188.047 29.694C188.027 29.2861 188.007 28.9178 187.979 28.4108C191.168 28.4108 194.272 28.399 197.377 28.4188C198.328 28.4227 197.963 29.0999 197.963 29.694Z" fill="#BCBCBC"/>
<path d="M121.688 37.2108C121.114 36.9098 120.718 36.6326 120.279 36.498C119.894 36.3831 119.352 36.2603 119.067 36.4385C118.397 36.8623 118.358 38.688 119.007 39.1117C119.288 39.2979 119.847 39.1751 120.235 39.0523C120.686 38.9098 121.086 38.6128 121.681 38.292C121.483 39.9791 120.73 40.5691 119.32 40.4622C117.887 40.3553 117.197 39.4405 117.245 37.7177C117.292 36.0148 118.14 35.0366 119.578 35.0128C120.813 34.993 121.57 35.6623 121.688 37.2108Z" fill="#BCBCBC"/>
<path d="M27.8729 43.3572C27.853 44.4146 26.9422 45.3057 25.8967 45.2938C24.7759 45.2819 23.9165 44.3552 23.9601 43.2107C24.0036 42.1018 24.8353 41.3533 25.9838 41.385C27.1125 41.4167 27.8927 42.2285 27.8729 43.3572Z" fill="#BCBCBC"/>
<path d="M24.8434 1.9604C24.8553 0.847558 25.6949 -0.00786603 26.7681 5.45581e-05C27.7701 0.00797515 28.7681 0.970327 28.7879 1.94852C28.8077 3.0376 27.877 3.91283 26.7166 3.89699C25.5206 3.87718 24.8315 3.16433 24.8434 1.9604Z" fill="#BCBCBC"/>
<path d="M12.9901 30.8779C12.9663 31.9433 12.1426 32.7551 11.0971 32.7432C9.98819 32.7314 9.18425 31.8759 9.21989 30.7512C9.25553 29.67 10.0238 28.981 11.1723 29.0008C12.305 29.0206 13.0139 29.7532 12.9901 30.8779Z" fill="#BCBCBC"/>
<path d="M173.528 33.3496C174.008 33.3496 174.427 33.3496 174.914 33.3496C174.914 35.6664 174.914 37.9356 174.914 40.2643C174.415 40.2643 174 40.2643 173.528 40.2643C173.528 37.9356 173.528 35.6624 173.528 33.3496Z" fill="#BCBCBC"/>
<path d="M21.4969 41.8008C20.388 41.7849 19.6514 41.0206 19.691 39.9236C19.7266 38.9058 20.5028 38.1494 21.5167 38.1375C22.582 38.1296 23.374 38.9256 23.3661 39.9988C23.3622 41.1156 22.6335 41.8166 21.4969 41.8008Z" fill="#BCBCBC"/>
<path d="M182.384 33.7775C182.495 33.7775 182.835 33.7775 182.891 33.7775C183.358 34.3755 183.734 34.7834 184.011 35.2507C184.118 35.429 184.087 35.825 183.952 35.9834C183.113 36.9774 183.101 38.6487 183.901 39.5556C184.027 39.6982 183.916 40.3199 183.766 40.3872C182.918 40.7754 182.083 40.2447 182.035 39.318C181.996 38.5734 182.071 37.821 182 37.0804C181.964 36.7121 181.683 36.3755 181.576 36.0111C181.501 35.7577 181.437 35.4369 181.528 35.2111C181.699 34.7874 181.988 34.4151 182.384 33.7775Z" fill="#BCBCBC"/>
<path d="M12.3364 25.516C11.3106 25.5081 10.5067 24.7517 10.475 23.7735C10.4433 22.7438 11.2552 21.9478 12.3443 21.9399C13.4611 21.9319 14.17 22.6567 14.1462 23.7735C14.1264 24.8071 13.3779 25.5239 12.3364 25.516Z" fill="#BCBCBC"/>
<path d="M38.7199 1.96794C38.708 2.91445 37.8209 3.80552 36.9061 3.78571C35.9398 3.76195 35.124 2.91445 35.1319 1.94022C35.1398 0.938262 35.9358 0.150162 36.9338 0.158083C37.9358 0.162043 38.7318 0.973904 38.7199 1.96794Z" fill="#BCBCBC"/>
<path d="M20.5578 35.6035C20.5459 36.6371 19.8885 37.2787 18.839 37.2747C17.841 37.2708 17.1084 36.5658 17.0925 35.5995C17.0767 34.5817 17.8608 33.8253 18.8984 33.8491C19.9083 33.8728 20.5697 34.5738 20.5578 35.6035Z" fill="#BCBCBC"/>
<path d="M101.126 33.3416C101.577 33.3416 101.926 33.3416 102.354 33.3416C102.354 35.6425 102.354 37.9039 102.354 40.2404C101.946 40.2404 101.573 40.2404 101.126 40.2404C101.126 37.9633 101.126 35.698 101.126 33.3416Z" fill="#BCBCBC"/>
<path d="M81.7329 33.3531C82.1487 33.3531 82.4933 33.3531 82.9289 33.3531C82.9289 35.6224 82.9289 37.8916 82.9289 40.2361C82.5448 40.2361 82.1765 40.2361 81.7329 40.2361C81.7329 37.9629 81.7329 35.7333 81.7329 33.3531Z" fill="#BCBCBC"/>
<path d="M141.007 40.2365C140.607 40.2365 140.238 40.2365 139.811 40.2365C139.811 37.9554 139.811 35.7218 139.811 33.3813C140.179 33.3535 140.547 33.3298 141.007 33.2981C141.007 35.6386 141.007 37.896 141.007 40.2365Z" fill="#BCBCBC"/>
<path d="M17.6312 17.4409C17.6312 18.3993 16.9818 19.0329 15.9838 19.0448C14.9184 19.0607 14.2373 18.4231 14.2412 17.4132C14.2452 16.4073 14.9382 15.7697 15.9956 15.7934C16.9422 15.8211 17.6312 16.5102 17.6312 17.4409Z" fill="#BCBCBC"/>
<path d="M46.4661 6.9264C45.5394 6.91056 44.8859 6.27295 44.878 5.38188C44.8701 4.5027 45.6502 3.7344 46.5413 3.75024C47.4918 3.76608 48.1096 4.45121 48.0739 5.44921C48.0423 6.37988 47.4284 6.9462 46.4661 6.9264Z" fill="#BCBCBC"/>
<path d="M22.954 12.6092C22.958 13.6983 22.4748 14.2092 21.5283 14.2567C20.5858 14.3042 19.9244 13.6824 19.9204 12.7795C19.9165 11.8369 20.5264 11.2429 21.4887 11.2667C22.4431 11.2904 22.9263 11.7973 22.954 12.6092Z" fill="#BCBCBC"/>
<path d="M185.433 35.2983C185.92 35.2983 186.261 35.2983 186.665 35.2983C186.665 36.9537 186.665 38.5536 186.665 40.1774C185.797 40.5021 185.389 40.312 185.421 39.3299C185.465 37.9992 185.433 36.6646 185.433 35.2983Z" fill="#BCBCBC"/>
<path d="M148.194 20.2654C148.935 20.8991 148.967 29.7543 148.194 30.5186C148.194 27.0534 148.194 23.7149 148.194 20.2654Z" fill="#BCBCBC"/>
<path d="M161.766 20.3636C161.766 23.6982 161.766 27.0288 161.766 30.3634C161.683 30.399 161.6 30.4347 161.517 30.4703C161.394 30.2683 161.168 30.0664 161.168 29.8644C161.144 26.8664 161.148 23.8685 161.164 20.8705C161.164 20.6725 161.335 20.4706 161.426 20.2725C161.54 20.3082 161.655 20.3359 161.766 20.3636Z" fill="#BCBCBC"/>
<path d="M18.7602 24.6014C19.6513 24.641 20.1899 25.1439 20.2295 25.9796C20.2691 26.8469 19.6711 27.4053 18.8473 27.4369C18.0117 27.4647 17.4097 26.9221 17.3899 26.0588C17.3662 25.2073 17.8889 24.7004 18.7602 24.6014Z" fill="#BCBCBC"/>
<path d="M55.7449 11.9721C55.6736 12.7404 55.2102 13.2434 54.335 13.279C53.5113 13.3147 52.8697 12.5979 52.9291 11.7543C52.9925 10.8514 53.5628 10.4316 54.3984 10.4039C55.1746 10.3761 55.7647 11.0692 55.7449 11.9721Z" fill="#BCBCBC"/>
<path d="M26.8232 10.2844C26.8945 9.3933 27.3658 8.91807 28.249 8.90223C29.0925 8.88639 29.5757 9.32202 29.6034 10.1695C29.6311 11.0487 29.2034 11.5952 28.2965 11.619C27.4094 11.6428 26.9539 11.1279 26.8232 10.2844Z" fill="#BCBCBC"/>
<path d="M30.3677 39.825C30.4192 38.5934 30.839 38.1181 31.6865 38.1023C32.526 38.0865 33.0409 38.5458 33.0686 39.3617C33.0963 40.1854 32.53 40.7755 31.7657 40.6923C31.2191 40.629 30.7241 40.0587 30.3677 39.825Z" fill="#BCBCBC"/>
<path d="M22.6765 22.0666C22.2092 22.3993 21.7815 22.9141 21.2666 23.025C20.5379 23.1795 19.9716 22.7438 19.936 21.9122C19.9003 21.0567 20.3716 20.4825 21.1953 20.5934C21.7141 20.6607 22.1735 21.1716 22.6607 21.4845C22.6646 21.6785 22.6686 21.8726 22.6765 22.0666Z" fill="#BCBCBC"/>
<path d="M59.3133 19.3661C60.2677 19.382 60.6954 19.8136 60.6915 20.6136C60.6875 21.3463 60.3073 21.7938 59.543 21.8373C58.7193 21.8809 58.2559 21.4255 58.2242 20.6572C58.1925 19.8849 58.644 19.4255 59.3133 19.3661Z" fill="#BCBCBC"/>
<path d="M28.4946 37.1165C28.8312 37.5838 29.3896 38.0194 29.4569 38.5224C29.5559 39.2471 28.9777 39.8966 28.2372 39.7303C27.7223 39.6154 27.0491 39.0016 26.9738 38.5263C26.9105 38.1184 27.5956 37.5917 27.9481 37.1204C28.1342 37.1204 28.3164 37.1204 28.4946 37.1165Z" fill="#BCBCBC"/>
<path d="M36.9102 9.91344C36.6963 11.0223 36.2488 11.5728 35.4805 11.3867C34.9974 11.2679 34.3796 10.7134 34.2766 10.254C34.1103 9.52137 34.7202 8.91148 35.4607 8.99465C35.9677 9.05405 36.427 9.59265 36.9102 9.91344Z" fill="#BCBCBC"/>
<path d="M19.3264 31.0733C18.8829 31.3862 18.3958 31.996 18.0076 31.9366C17.5681 31.8733 17.0017 31.2634 16.8829 30.7921C16.7047 30.0951 17.2552 29.5288 17.972 29.6357C18.4552 29.707 18.8749 30.1941 19.3264 30.4951C19.3225 30.6891 19.3264 30.8832 19.3264 31.0733Z" fill="#BCBCBC"/>
<path d="M26.6568 18.7044C25.841 19.2509 25.338 19.845 24.9064 19.7975C24.4786 19.7499 23.8252 19.049 23.8252 18.6371C23.8252 18.249 24.5341 17.5837 24.9658 17.5559C25.3974 17.5282 25.8727 18.1381 26.6568 18.7044Z" fill="#BCBCBC"/>
<path d="M24.1973 36.1972C24.6408 35.8922 25.0567 35.4011 25.5359 35.3299C26.2249 35.2309 26.8269 35.7536 26.6487 36.4665C26.5259 36.9457 25.9636 37.5555 25.516 37.6347C25.1398 37.7021 24.6448 37.0843 24.2012 36.7674C24.2012 36.5813 24.2012 36.3912 24.1973 36.1972Z" fill="#BCBCBC"/>
<path d="M41.0961 12.3162C41.5317 12.0628 42.0228 11.5479 42.3871 11.6232C42.8109 11.7103 43.1238 12.3202 43.4841 12.7044C43.0881 13.0568 42.7198 13.6509 42.2881 13.6944C41.9159 13.734 41.4763 13.1558 41.0684 12.8548C41.0802 12.6727 41.0882 12.4945 41.0961 12.3162Z" fill="#BCBCBC"/>
<path d="M24.1935 32.4944C24.4549 32.9379 24.9539 33.4132 24.9064 33.8211C24.8628 34.2052 24.1737 34.8468 23.8846 34.7913C23.4609 34.7082 22.9064 34.13 22.851 33.7062C22.8035 33.334 23.3619 32.8785 23.651 32.4627C23.8331 32.4746 24.0153 32.4825 24.1935 32.4944Z" fill="#BCBCBC"/>
<path d="M29.5085 15.4687C29.9956 16.2054 30.4946 16.6251 30.451 16.9737C30.3995 17.3657 29.9124 17.9043 29.5203 17.9994C28.8471 18.1617 28.36 17.6509 28.4748 16.9697C28.5501 16.5499 28.9897 16.1935 29.5085 15.4687Z" fill="#BCBCBC"/>
<path d="M61.258 32.0944C60.763 31.3578 60.3313 30.9895 60.2719 30.5658C60.1729 29.8648 60.6917 29.3935 61.361 29.5876C61.7491 29.6985 62.2243 30.2489 62.256 30.6331C62.2837 30.9895 61.7689 31.3856 61.258 32.0944Z" fill="#BCBCBC"/>
<path d="M47.9713 15.8292C48.3951 16.55 48.8386 16.9737 48.7832 17.3103C48.7238 17.6707 48.1891 17.9519 47.8604 18.2687C47.5595 17.9242 47.0486 17.5955 47.0209 17.2311C46.9971 16.8905 47.4842 16.5104 47.9713 15.8292Z" fill="#BCBCBC"/>
<path d="M34.2802 18.3762C33.8604 17.6396 33.4605 17.2475 33.4882 16.8911C33.5119 16.5901 34.0941 16.0555 34.3159 16.107C34.6802 16.1901 35.1634 16.6416 35.203 16.9862C35.2426 17.299 34.7713 17.6792 34.2802 18.3762Z" fill="#BCBCBC"/>
<path d="M25.1482 27.7813C24.5462 28.213 24.1977 28.6526 23.865 28.6407C23.5601 28.6288 23.0492 28.1417 23.0373 27.8486C23.0254 27.5635 23.5126 27.0487 23.8175 27.017C24.1462 26.9853 24.5224 27.3972 25.1482 27.7813Z" fill="#BCBCBC"/>
<path d="M38.9576 17.35C39.3299 17.9598 39.7141 18.3083 39.7022 18.645C39.6903 18.9222 39.2111 19.1796 38.9378 19.4489C38.6527 19.1519 38.1973 18.8866 38.1299 18.546C38.0824 18.2885 38.5299 17.9361 38.9576 17.35Z" fill="#BCBCBC"/>
<path d="M25.3298 26.3753C24.9536 25.8843 24.5259 25.5714 24.5338 25.2665C24.5417 24.9615 24.9813 24.6685 25.2308 24.3714C25.5437 24.6566 26.0308 24.8982 26.114 25.2387C26.1734 25.4843 25.7021 25.8605 25.3298 26.3753Z" fill="#BCBCBC"/>
<path d="M51.5394 22.2408C51.9592 22.8744 52.3196 23.1873 52.3196 23.4962C52.3196 23.7536 51.8563 24.2447 51.6582 24.2169C51.3414 24.1734 50.8979 23.817 50.8385 23.5279C50.783 23.2546 51.1593 22.8942 51.5394 22.2408Z" fill="#BCBCBC"/>
<path d="M28.6367 23.2748C28.1694 23.5955 27.8684 23.9599 27.6189 23.9282C27.3377 23.8926 27.104 23.4965 26.8506 23.2589C27.1001 22.9975 27.3298 22.5659 27.607 22.5342C27.8565 22.5065 28.1614 22.9104 28.6367 23.2748Z" fill="#BCBCBC"/>
<path d="M24.3638 30.696C23.8965 31.0881 23.6193 31.496 23.3619 31.4881C23.0886 31.4762 22.8312 31.0643 22.5698 30.8307C22.8035 30.5732 23.0094 30.1614 23.2866 30.1099C23.5361 30.0584 23.8609 30.403 24.3638 30.696Z" fill="#BCBCBC"/>
<path d="M42.6801 20.72C43.0009 21.1635 43.3336 21.4249 43.3138 21.6586C43.294 21.9041 42.9415 22.1259 42.7316 22.3596C42.4861 22.1259 42.1178 21.9279 42.0346 21.6467C41.9831 21.4645 42.3554 21.1635 42.6801 20.72Z" fill="#BCBCBC"/>
<path d="M53.8404 30.6722C53.3612 30.9811 53.0761 31.3098 52.8543 31.2741C52.6127 31.2345 52.2681 30.8543 52.2642 30.6167C52.2602 30.4108 52.6602 30.0623 52.9058 30.0346C53.1275 30.0148 53.385 30.3474 53.8404 30.6722Z" fill="#BCBCBC"/>
<path d="M30.4468 21.2864C30.7597 21.7022 31.1122 21.9636 31.1003 22.2131C31.0924 22.4309 30.6805 22.7834 30.4389 22.7913C30.2251 22.7992 29.829 22.419 29.8211 22.1973C29.8092 21.9478 30.1458 21.6903 30.4468 21.2864Z" fill="#BCBCBC"/>
<path d="M186.661 34.4037C185.477 34.5185 185.477 34.5185 185.532 33.4334C186.296 33.2393 186.906 33.1918 186.661 34.4037Z" fill="#BCBCBC"/>
<path d="M45.9594 25.9354C45.5713 26.2285 45.2465 26.577 45.1515 26.5215C44.902 26.375 44.6723 26.0819 44.597 25.8007C44.5693 25.6978 44.9772 25.3453 45.1951 25.3374C45.3931 25.3334 45.603 25.6384 45.9594 25.9354Z" fill="#BCBCBC"/>
<path d="M34.3595 22.1664C33.9159 22.4714 33.6862 22.7605 33.4842 22.7407C33.2466 22.7169 33.0367 22.4278 32.8149 22.2535C33.013 22.0516 33.1832 21.7308 33.409 21.6872C33.6149 21.6476 33.8803 21.909 34.3595 22.1664Z" fill="#BCBCBC"/>
</svg>
