<svg width="200" height="52" viewBox="0 0 200 52" fill="none" xmlns="http://www.w3.org/2000/svg">
<path d="M45.6343 28.8443C45.6163 33.9773 43.7707 38.8833 40.1805 43.1584C39.7587 43.6594 39.3947 43.818 38.7134 43.6522C31.3563 41.886 24.0713 39.907 17.3558 36.2879C15.2218 35.138 13.2176 33.7971 11.6929 31.8578C9.74637 29.3886 9.71393 26.8437 11.6424 24.3493C13.4303 22.0387 15.8779 20.568 18.4264 19.2812C24.7309 16.0983 31.4933 14.2382 38.3169 12.5837C38.9585 12.4287 39.3802 12.6125 39.8092 13.1064C43.6518 17.4788 45.6343 22.5506 45.6343 28.8443Z" fill="#BCBCBC"/>
<path d="M36.3846 10.0751C33.4396 10.9726 30.5739 11.7837 27.7478 12.7209C22.7157 14.3862 17.7665 16.2859 13.4229 19.4003C11.891 20.4997 10.4455 21.819 9.25956 23.2789C6.78316 26.3285 6.89491 29.8971 9.31723 32.9935C11.2674 35.4879 13.8339 37.2109 16.5698 38.696C22.6509 42.0051 29.2077 44.0417 35.8475 45.8441C36.1791 45.9342 36.5072 46.0351 36.8748 46.1433C29.8349 52.2964 17.006 53.5364 7.87537 45.5413C-1.63731 37.2109 -2.66104 23.0699 5.50711 13.5283C13.7293 3.92193 27.528 3.30553 36.3846 10.0751Z" fill="#BCBCBC"/>
<path d="M68.437 21.5484C68.5127 17.6554 69.4932 14.1156 72.2688 11.2643C77.6794 5.70593 86.882 7.04686 90.4615 14.0183C92.8982 18.7692 93.0063 23.7833 90.7859 28.6243C88.6699 33.2347 84.9175 35.6426 79.7448 35.4119C74.7632 35.192 71.5947 32.3732 69.6626 27.9791C69.2769 27.0996 69.0102 26.1407 68.8407 25.1927C68.6281 23.9923 68.5668 22.7632 68.437 21.5484ZM72.3481 21.6962C72.6617 23.7508 72.8419 25.8379 73.3177 27.8529C73.88 30.25 75.2246 32.2074 77.4667 33.3825C80.7938 35.1235 84.7949 33.5843 86.6838 29.8643C87.7327 27.7989 88.0283 25.5568 88.1365 23.275C88.277 20.3084 88.1581 17.3706 87.1524 14.5373C86.0746 11.495 83.4144 9.32861 80.6892 9.2421C77.6505 9.14477 74.9542 11.0805 73.7106 14.2454C72.7734 16.6316 72.5607 19.1333 72.3481 21.6962Z" fill="#BCBCBC"/>
<path d="M115.449 7.74948C115.449 10.799 115.449 13.4881 115.449 16.4691C115.117 16.1664 114.793 15.9861 114.634 15.705C114.126 14.7966 113.758 13.8017 113.2 12.933C110.799 9.21297 106.07 8.34425 102.451 10.9072C100.879 12.021 99.6606 13.4304 99.0983 15.2868C97.7754 19.6304 97.5087 24.0101 99.2497 28.2996C101.261 33.2632 106.589 35.253 111.43 32.9785C112.162 32.6324 112.529 32.1314 112.518 31.3023C112.493 28.9953 112.536 26.6919 112.49 24.385C112.446 22.2798 112.097 21.923 110.056 21.5265C109.779 21.4724 109.519 21.3282 109.253 21.2273C109.271 21.1264 109.289 21.0218 109.307 20.9209C112.345 20.9209 115.381 20.9209 118.736 20.9209C118.326 21.2093 118.113 21.476 117.871 21.5048C116.649 21.6598 116.091 22.3988 116.062 23.5451C115.997 26.281 116.001 29.017 115.91 31.7493C115.896 32.2143 115.665 32.9028 115.323 33.0902C110.702 35.5918 105.882 36.4894 100.955 34.1356C96.8923 32.1963 94.6538 28.8043 94.0554 24.3381C93.5976 20.9317 93.9617 17.6479 95.6054 14.5911C98.6117 8.99669 104.264 6.68971 110.345 8.53169C110.896 8.69751 111.448 8.86332 111.992 9.04355C113.001 9.37518 113.903 9.42565 114.476 8.27576C114.566 8.08832 114.905 8.03064 115.449 7.74948Z" fill="#BCBCBC"/>
<path d="M139.799 8.47125C146.128 8.47125 152.458 8.47125 159.08 8.47125C159.08 10.2051 159.087 11.9209 159.066 13.6367C159.062 13.7845 158.853 14.0296 158.712 14.0477C158.55 14.0729 158.316 13.9359 158.197 13.7953C158.096 13.6764 158.121 13.4529 158.078 13.2763C157.397 10.6413 156.69 10.0213 153.961 9.91672C151.91 9.83742 149.852 9.83742 147.801 9.90951C147.394 9.92393 146.666 10.4033 146.658 10.6809C146.575 13.8386 146.608 16.9963 146.608 20.0855C149.149 20.0855 151.593 20.1864 154.019 20.0458C155.421 19.9629 155.659 18.6472 155.991 17.5225C156.113 17.1044 155.904 16.2104 156.939 16.4988C156.939 19.5015 156.939 22.4825 156.939 25.8853C156.539 25.5032 156.2 25.3374 156.157 25.1139C155.547 21.9743 154.646 21.7364 151.525 21.7832C149.975 21.8049 148.428 21.8013 146.878 21.8157C146.817 21.8157 146.756 21.8734 146.575 21.9599C146.575 23.7658 146.575 25.6294 146.575 27.493C146.575 28.9709 146.586 30.4488 146.579 31.9231C146.575 32.7486 146.976 33.2677 147.787 33.2749C149.946 33.3001 152.109 33.3362 154.261 33.2208C157.036 33.0766 158.658 31.3644 159.7 28.9385C159.851 28.5888 160.255 28.3509 160.543 28.0589C160.666 28.1419 160.785 28.2248 160.908 28.3077C160.396 30.384 159.895 32.4602 159.354 34.5293C159.314 34.6843 158.979 34.8573 158.784 34.8573C152.516 34.8573 146.247 34.8393 139.979 34.8177C139.918 34.8177 139.856 34.7492 139.575 34.5834C139.95 34.3959 140.188 34.2121 140.455 34.1472C142.491 33.6678 142.895 33.3362 142.913 31.2419C142.967 24.8292 142.971 18.4129 142.913 12.0002C142.895 10.014 142.408 9.60311 140.476 9.19218C140.195 9.1309 139.946 8.92904 139.683 8.79207C139.716 8.68753 139.755 8.57939 139.799 8.47125Z" fill="#BCBCBC"/>
<path d="M58.5534 34.8783C55.9328 34.8783 53.3086 34.8783 50.688 34.8783C50.1473 34.8783 49.6066 34.9071 49.0695 34.8711C48.9037 34.8603 48.7487 34.6764 48.5901 34.5719C48.7271 34.4421 48.846 34.2511 49.0083 34.197C51.6361 33.3571 51.7226 33.2886 51.7298 30.5563C51.7478 24.5762 51.737 18.5961 51.737 12.616C51.737 12.2915 51.7262 11.9671 51.7009 11.6427C51.5784 10.0711 51.0449 9.50513 49.4733 9.22037C49.138 9.15909 48.8244 8.98606 48.5 8.86351C48.536 8.74816 48.5685 8.6292 48.6045 8.51385C54.9812 8.51385 61.3614 8.51385 67.9291 8.51385C67.9291 10.1936 67.9435 11.841 67.9075 13.4847C67.9039 13.6829 67.6263 13.874 67.4785 14.0686C67.2983 13.892 66.9847 13.7334 66.9558 13.5351C66.5053 10.5505 65.4707 9.98816 61.9814 9.89083C60.2548 9.84037 58.5209 9.91246 56.7943 9.862C55.7562 9.82955 55.3597 10.2909 55.3633 11.2714C55.3741 14.011 55.3705 16.7469 55.3597 19.4864C55.3561 20.0055 55.4858 20.3047 56.077 20.2903C57.9478 20.247 59.8186 20.2218 61.693 20.2001C63.2322 20.1821 64.0685 19.3603 64.3785 17.9076C64.4542 17.5543 64.5083 17.1867 64.6633 16.8694C64.7678 16.6532 65.0346 16.5162 65.2292 16.3432C65.3157 16.3864 65.4022 16.4297 65.4887 16.4729C65.4887 17.9689 65.4887 19.4648 65.4887 20.9607C65.4887 22.4711 65.4887 23.9814 65.4887 25.4882C65.4058 25.5603 65.3229 25.6324 65.24 25.7045C65.0382 25.5062 64.7029 25.3404 64.6525 25.1097C64.0361 22.2764 63.5639 21.7069 60.0133 21.779C58.5101 21.8114 57.007 21.7826 55.3633 21.7826C55.3633 22.709 55.3633 23.5272 55.3633 24.3455C55.3633 26.5083 55.338 28.6675 55.3741 30.8303C55.4137 33.285 55.7237 33.6275 58.0884 34.179C58.3011 34.2295 58.4885 34.3881 58.6868 34.4962C58.6435 34.6224 58.5966 34.7485 58.5534 34.8783Z" fill="#BCBCBC"/>
<path d="M182.982 7.69266C183.105 10.9729 183.217 13.8782 183.325 16.78C183.227 16.8449 183.134 16.9062 183.036 16.971C182.809 16.7115 182.506 16.488 182.369 16.1888C181.977 15.3417 181.735 14.4225 181.288 13.6079C178.368 8.25859 171.545 7.97743 168.189 13.0636C166.105 16.2213 165.759 19.7827 165.961 23.4342C166.08 25.5754 166.585 27.6372 167.702 29.5008C170.525 34.1941 176.249 35.2394 180.809 31.8835C181.616 31.2887 182.344 30.5858 183.177 29.8793C183.361 30.0776 183.566 30.3011 183.761 30.5137C180.546 34.7672 175.73 36.4578 170.694 35.1493C166.231 33.9922 162.681 29.764 162.003 24.8544C161.401 20.4892 161.92 16.3619 164.635 12.7392C167.67 8.68394 172.41 7.08347 177.406 8.35591C178.242 8.56859 179.075 8.8065 179.893 9.08045C180.834 9.39766 181.576 9.21743 182.142 8.36673C182.272 8.16847 182.524 8.04952 182.982 7.69266Z" fill="#BCBCBC"/>
<path d="M138.497 8.48544C138.497 10.5509 138.504 12.5587 138.483 14.5665C138.479 14.7539 138.274 14.9378 138.162 15.1252C137.974 14.9558 137.697 14.8224 137.618 14.6134C137.38 13.9753 137.221 13.3085 137.026 12.6524C136.587 11.1889 135.603 10.2986 134.089 10.1832C132.737 10.0787 131.371 10.1616 129.925 10.1616C129.907 10.4752 129.875 10.8249 129.875 11.1745C129.871 17.5512 129.875 23.9314 129.875 30.308C129.875 30.5964 129.878 30.8848 129.889 31.1731C129.972 33.3792 130.329 33.7865 132.47 34.147C132.787 34.2011 133.097 34.2804 133.397 34.5868C129.896 34.9328 126.411 34.8427 122.929 34.8751C122.896 34.7598 122.864 34.648 122.831 34.5327C123.058 34.4137 123.271 34.2299 123.513 34.1866C125.917 33.7288 126.281 33.3648 126.299 30.8019C126.339 25.1462 126.317 19.4869 126.321 13.8311C126.321 12.6164 126.321 11.398 126.321 9.89486C124.522 10.0679 122.824 10.0679 121.209 10.4356C119.371 10.8501 119.093 12.5911 118.682 14.1267C118.56 14.5881 118.664 15.3199 117.821 15.0928C117.821 12.8903 117.821 10.7167 117.821 8.48544C124.724 8.48544 131.475 8.48544 138.497 8.48544Z" fill="#BCBCBC"/>
<path d="M175.405 42.5958C175.405 44.6324 175.405 46.3915 175.405 48.2335C174.562 48.2335 173.765 48.2335 172.918 48.2335C172.918 45.2632 172.918 42.3651 172.918 39.3444C174.003 39.3444 175.041 39.3011 176.068 39.3732C176.346 39.3948 176.66 39.7265 176.858 39.9896C177.997 41.518 179.104 43.0716 180.336 44.7766C180.336 42.9238 180.336 41.2044 180.336 39.4129C181.241 39.4129 182.016 39.4129 182.874 39.4129C182.874 42.3254 182.874 45.2524 182.874 48.3128C181.843 48.3128 180.841 48.3596 179.846 48.2839C179.565 48.2623 179.251 47.9307 179.057 47.6639C177.874 46.0562 176.721 44.4269 175.405 42.5958Z" fill="#BCBCBC"/>
<path d="M111.152 48.5011C110.514 48.411 109.869 48.3605 109.238 48.2235C107.357 47.8162 106.207 46.6843 105.904 44.7486C105.616 42.903 106.203 41.3639 107.739 40.3437C110.078 38.7865 112.637 38.6712 115.117 39.9076C118.023 41.3603 117.994 45.7904 115.056 47.4557C113.913 48.1046 112.522 48.3136 111.246 48.721C111.214 48.6489 111.185 48.5768 111.152 48.5011ZM108.73 43.8655C108.744 45.621 109.736 46.6411 111.437 46.6555C113.171 46.6699 114.396 45.484 114.4 43.7934C114.404 42.0127 113.387 41.0034 111.585 41.0034C109.75 40.9998 108.716 42.0379 108.73 43.8655Z" fill="#BCBCBC"/>
<path d="M165.028 48.4539C163.103 48.3926 161.254 48.1115 160.215 46.2154C158.777 43.5876 160.082 40.5813 163.059 39.5648C164.599 39.0386 166.163 38.9989 167.731 39.4026C169.479 39.8532 170.687 40.8949 170.99 42.7297C171.296 44.5717 170.766 46.1505 169.209 47.286C167.965 48.1908 166.542 48.4791 165.028 48.4539ZM165.413 41.0031C163.618 41.0067 162.558 42.0268 162.548 43.7606C162.537 45.581 163.532 46.6372 165.269 46.6552C166.992 46.6696 168.218 45.4837 168.229 43.7895C168.236 42.0124 167.212 40.9995 165.413 41.0031Z" fill="#BCBCBC"/>
<path d="M63.207 48.2232C63.207 45.1989 63.207 42.3548 63.207 39.3846C65.4023 39.2981 67.5867 39.0133 69.7206 39.6586C70.6615 39.9433 71.3139 40.603 71.3608 41.706C71.4076 42.7838 70.8705 43.4759 69.9802 43.9517C69.6413 44.1319 69.2773 44.2689 68.8339 44.4672C69.9009 45.7036 70.939 46.9147 72.1466 48.3133C71.0219 48.3133 70.1316 48.3638 69.252 48.2845C68.9565 48.2593 68.6356 47.9565 68.4194 47.7041C67.6371 46.785 66.891 45.8333 65.943 44.6582C65.943 46.0172 65.943 47.0769 65.943 48.2268C64.9697 48.2232 64.101 48.2232 63.207 48.2232ZM65.7663 43.2272C67.5687 43.4362 68.5239 42.9965 68.5599 42.1133C68.5924 41.3419 67.7777 40.7111 66.6531 40.895C65.0058 41.1689 66.3575 42.463 65.7663 43.2272Z" fill="#BCBCBC"/>
<path d="M96.3086 39.3592C98.0929 39.3592 99.7799 39.3376 101.47 39.3737C101.925 39.3845 102.39 39.5395 102.826 39.6981C103.745 40.0369 104.325 40.6894 104.397 41.6951C104.47 42.708 103.947 43.4109 103.107 43.8903C102.736 44.103 102.325 44.2399 101.824 44.4598C102.891 45.6854 103.94 46.8966 105.169 48.3096C104.019 48.3096 103.103 48.3493 102.195 48.2844C101.935 48.2663 101.654 47.9708 101.46 47.7401C100.659 46.7957 99.888 45.8224 98.8715 44.932C98.8715 46.0207 98.8715 47.1129 98.8715 48.2555C97.9523 48.2555 97.1737 48.2555 96.3086 48.2555C96.3086 45.3177 96.3086 42.3908 96.3086 39.3592ZM98.8859 42.3115C98.922 42.6647 98.612 43.4037 99.6681 43.3568C100.8 43.3099 101.654 42.7981 101.568 42.0411C101.449 40.9886 100.569 40.9705 99.7871 40.8696C98.7489 40.7362 98.8499 41.4608 98.8859 42.3115Z" fill="#BCBCBC"/>
<path d="M89.2216 45.5886C89.2216 46.378 89.2216 47.2647 89.2216 48.2344C88.2916 48.2344 87.4517 48.2344 86.5649 48.2344C86.5649 45.2858 86.5649 42.3804 86.5649 39.1939C88.5259 39.3201 90.4544 39.3417 92.354 39.6012C93.457 39.7526 94.3438 40.4555 94.5024 41.7136C94.6646 42.9824 94.1599 44.0998 92.9163 44.6117C91.8133 45.0695 90.5913 45.2425 89.2216 45.5886ZM89.3081 43.6384C90.2273 43.6781 91.0888 43.6529 91.543 42.8346C91.734 42.4886 91.698 41.6595 91.4601 41.5009C90.8761 41.1044 90.1155 40.9674 89.3081 40.6826C89.3081 41.8686 89.3081 42.7157 89.3081 43.6384Z" fill="#BCBCBC"/>
<path d="M127.478 39.3848C129.695 39.3848 131.811 39.3848 133.999 39.3848C133.999 39.911 133.999 40.3941 133.999 40.996C132.759 40.996 131.515 40.996 130.2 40.996C130.2 41.6305 130.2 42.1495 130.2 42.7984C131.342 42.7984 132.51 42.7984 133.768 42.7984C133.768 43.3967 133.768 43.8762 133.768 44.4781C132.622 44.4781 131.454 44.4781 130.203 44.4781C130.203 45.1883 130.203 45.7794 130.203 46.5364C131.458 46.5364 132.723 46.5364 134.035 46.5364C134.035 47.1961 134.035 47.6935 134.035 48.2522C131.847 48.2522 129.702 48.2522 127.482 48.2522C127.478 45.3072 127.478 42.3838 127.478 39.3848Z" fill="#BCBCBC"/>
<path d="M73.7505 39.3741C75.9601 39.3741 78.0436 39.3741 80.2172 39.3741C80.2172 39.9112 80.2172 40.4195 80.2172 41.0287C78.9484 41.0287 77.7012 41.0287 76.3891 41.0287C76.3891 41.645 76.3891 42.1677 76.3891 42.7949C77.5678 42.7949 78.7393 42.7949 80.0334 42.7949C80.0658 43.3717 80.0947 43.8475 80.1271 44.4459C78.8619 44.4459 77.6904 44.4459 76.4215 44.4459C76.4215 45.174 76.4215 45.7904 76.4215 46.5402C77.6687 46.5402 78.9124 46.5402 80.2281 46.5402C80.2281 47.1854 80.2281 47.7009 80.2281 48.2704C78.0617 48.2704 75.9493 48.2704 73.7505 48.2704C73.7505 45.3218 73.7505 42.3984 73.7505 39.3741Z" fill="#BCBCBC"/>
<path d="M144.196 39.5426C144.092 40.1266 143.998 40.642 143.897 41.2043C143.111 41.1503 142.369 41.0457 141.63 41.0566C139.799 41.0854 138.746 42.1235 138.746 43.8285C138.742 45.5552 139.654 46.4816 141.514 46.5537C142.297 46.5825 143.082 46.4744 143.966 46.4239C144.052 46.9213 144.149 47.4692 144.279 48.2046C142.52 48.2046 140.869 48.3668 139.265 48.1649C137.254 47.9126 136.042 46.5753 135.837 44.8306C135.577 42.6246 136.461 40.8691 138.274 39.986C139.744 39.2614 142.142 39.0668 144.196 39.5426Z" fill="#BCBCBC"/>
<path d="M49.4658 48.1797C49.4658 45.2852 49.4658 42.387 49.4658 39.4132C51.5962 39.4132 53.6977 39.4132 55.8821 39.4132C55.8821 39.8926 55.8821 40.3792 55.8821 41.0064C54.6854 41.0064 53.449 41.0064 52.1549 41.0064C52.1549 41.7129 52.1549 42.2753 52.1549 42.9962C53.294 42.9962 54.4583 42.9962 55.6658 42.9962C55.6658 43.609 55.6658 44.0668 55.6658 44.6363C54.5448 44.6363 53.4093 44.6363 52.1693 44.6363C52.1693 45.8403 52.1693 46.9397 52.1693 48.1797C51.2249 48.1797 50.3814 48.1797 49.4658 48.1797Z" fill="#BCBCBC"/>
<path d="M117.688 39.3954C120.463 39.3954 123.185 39.3954 125.975 39.3954C125.975 39.9181 125.975 40.4011 125.975 41.0067C125.088 41.0067 124.205 41.0067 123.188 41.0067C123.188 43.4723 123.188 45.8297 123.188 48.2485C122.244 48.2485 121.433 48.2485 120.496 48.2485C120.496 45.8658 120.496 43.5119 120.496 41.0355C119.49 41.0355 118.61 41.0355 117.688 41.0355C117.688 40.4227 117.688 39.9397 117.688 39.3954Z" fill="#BCBCBC"/>
<path d="M145.404 41.0534C145.404 40.3901 145.404 39.9323 145.404 39.4061C148.169 39.4061 150.89 39.4061 153.687 39.4061C153.687 39.8999 153.687 40.3865 153.687 40.9957C152.833 40.9957 151.95 40.9957 150.944 40.9957C150.944 43.4685 150.944 45.8224 150.944 48.2411C149.975 48.2411 149.135 48.2411 148.201 48.2411C148.201 45.8368 148.201 43.5082 148.201 41.0534C147.235 41.0534 146.355 41.0534 145.404 41.0534Z" fill="#BCBCBC"/>
<path d="M189.035 5.45759C189.038 2.39724 191.482 -0.021484 194.546 0.000143917C197.52 0.0217719 199.978 2.47654 200 5.44317C200.022 8.45306 197.527 10.9547 194.507 10.9583C191.45 10.9619 189.031 8.52876 189.035 5.45759ZM194.55 10.1328C197.044 10.1076 199.16 7.97725 199.164 5.48643C199.167 2.97038 196.958 0.789563 194.445 0.82561C191.879 0.861657 189.802 3.01003 189.853 5.58376C189.9 8.08539 192.041 10.1581 194.55 10.1328Z" fill="#BCBCBC"/>
<path d="M155.151 39.3954C156.092 39.3954 156.899 39.3954 157.782 39.3954C157.782 42.3368 157.782 45.2638 157.782 48.1728C157.728 48.2124 157.703 48.2448 157.671 48.2485C155.151 48.5945 155.151 48.5945 155.151 46.1109C155.151 43.894 155.151 41.6736 155.151 39.3954Z" fill="#BCBCBC"/>
<path d="M57.832 39.3954C58.7008 39.3954 59.5154 39.3954 60.4923 39.3954C60.4923 40.8481 60.4923 42.3044 60.4923 43.7607C60.4923 45.2277 60.4923 46.6948 60.4923 48.2376C59.5731 48.2376 58.7332 48.2376 57.832 48.2376C57.832 45.3143 57.832 42.4233 57.832 39.3954Z" fill="#BCBCBC"/>
<path d="M193.018 5.93676C193.018 6.64688 193.065 7.22002 192.996 7.77513C192.967 8.01304 192.697 8.22211 192.535 8.442C192.394 8.24013 192.135 8.04548 192.131 7.84002C192.099 6.15664 192.113 4.47687 192.113 2.68536C193.14 2.68536 194.096 2.64571 195.044 2.69978C195.815 2.74303 196.431 3.09269 196.568 3.95059C196.702 4.77966 196.302 5.32397 195.599 5.69164C195.473 5.75653 195.343 5.81781 195.227 5.87188C195.793 6.68653 196.352 7.49397 196.911 8.30502C196.824 8.40955 196.738 8.51409 196.651 8.61862C196.28 8.35909 195.851 8.15723 195.556 7.83281C195.08 7.31013 194.748 6.65409 194.243 6.16746C194.027 5.95478 193.537 6.02327 193.018 5.93676ZM193.057 5.46815C194.02 5.16897 194.795 4.9599 195.537 4.66071C195.624 4.62466 195.584 3.86769 195.476 3.83164C194.719 3.57931 193.926 3.43152 193.057 3.22606C193.057 4.04792 193.057 4.54536 193.057 5.46815Z" fill="#BCBCBC"/>
</svg>
