<svg width="200" height="51" viewBox="0 0 200 51" fill="none" xmlns="http://www.w3.org/2000/svg">
<path d="M21.7765 18.2033C22.2363 16.2483 22.6997 14.2969 23.1595 12.3419C24.0139 8.72875 24.8864 5.11925 25.7082 1.49526C25.8567 0.847214 26.0485 0.51776 26.7835 0.532242C28.6914 0.575686 30.603 0.546723 32.6557 0.546723C32.0728 3.17149 31.5262 5.71661 30.9433 8.25449C29.7341 13.5149 28.5104 18.768 27.2867 24.0248C26.8668 25.8278 26.4649 27.6379 25.9689 29.4228C25.8784 29.7486 25.3824 30.1867 25.0674 30.1939C21.8127 30.2518 18.558 30.2301 15.144 30.2301C14.9557 25.0385 15.2707 19.8759 14.9666 14.7349C14.7892 14.7168 14.6154 14.6951 14.438 14.677C12.9718 19.8831 11.5019 25.0892 10.0284 30.3243C6.67596 30.3243 3.38866 30.3243 0 30.3243C0.00724074 20.4225 0.00724074 10.586 0.00724074 0.648093C2.01292 0.648093 4.02585 0.648093 6.17997 0.648093C6.17997 6.63618 6.17997 12.6062 6.17997 18.5725C6.31392 18.5943 6.44426 18.6196 6.57821 18.6413C8.12411 12.6424 9.67 6.64342 11.2231 0.604649C14.5901 0.604649 17.8738 0.604649 21.324 0.604649C21.324 6.48413 21.324 12.3093 21.324 18.1309C21.476 18.1562 21.6281 18.1815 21.7765 18.2033Z" fill="#BCBCBC"/>
<path d="M186.471 29.9983C185.236 25.1868 184.034 20.4912 182.832 15.7956C182.731 15.7956 182.626 15.7992 182.525 15.7992C181.978 18.1162 181.41 20.4333 180.888 22.7539C180.407 24.8972 180.001 27.0585 179.48 29.1909C179.4 29.5204 178.886 29.9621 178.56 29.9729C176.439 30.0417 174.314 30.0091 172.015 30.0091C172.467 27.8985 172.884 25.9 173.329 23.9052C175.005 16.364 176.703 8.82637 178.354 1.2779C178.549 0.380048 178.835 -0.0435354 179.86 0.00352941C181.891 0.097659 183.933 0.0324924 186.054 0.0324924C187.151 4.71001 188.23 9.31874 189.367 14.17C189.555 13.7645 189.686 13.5763 189.733 13.3663C190.689 9.21012 191.619 5.0467 192.618 0.901381C192.701 0.553825 193.252 0.0831775 193.603 0.068696C195.677 -0.0109521 197.759 0.028872 200 0.028872C199.381 2.86724 198.784 5.58976 198.197 8.31589C197.097 13.417 196.01 18.5217 194.903 23.6228C194.501 25.4764 194.081 27.3264 193.599 29.162C193.516 29.4878 193.107 29.9548 192.832 29.9657C190.714 30.0272 188.592 29.9983 186.471 29.9983Z" fill="#BCBCBC"/>
<path d="M141.404 0.260092C143.533 0.260092 145.658 0.256472 147.787 0.260092C149.901 0.263713 151.081 1.701 150.632 3.8334C149.869 7.461 149.05 11.0778 148.243 14.6981C147.428 18.3583 146.56 22.0113 145.792 25.6823C145.198 28.5207 143.247 30.4033 140.177 30.2729C136.191 30.1028 132.19 30.2983 128.201 30.1897C127.241 30.1643 126.22 29.7045 125.373 29.1977C124.631 28.756 124.312 27.9487 124.533 26.9531C126.209 19.4589 127.82 11.9539 129.504 4.45972C130.061 1.98339 132.241 0.310777 134.764 0.263713C135.894 0.24199 137.02 0.260092 138.149 0.260092C139.232 0.260092 140.318 0.260092 141.404 0.260092ZM136.06 23.206V23.2096C136.712 23.2096 137.371 23.1517 138.015 23.2241C139.112 23.3436 139.5 22.8657 139.713 21.8121C140.539 17.7573 141.429 13.717 142.382 9.68753C143.037 6.91795 143.098 6.93243 140.325 6.92519C140.108 6.92519 139.891 6.92519 139.674 6.92519C136.031 6.92519 135.977 6.91071 135.141 10.4514C134.239 14.2745 133.45 18.1266 132.621 21.9678C132.451 22.7498 132.668 23.2386 133.588 23.2096C134.41 23.1843 135.235 23.206 136.06 23.206Z" fill="#BCBCBC"/>
<path d="M169.002 29.9364C166.664 29.9364 164.419 29.9364 162.066 29.9364C162.899 26.0771 163.713 22.3047 164.575 18.3151C162.37 18.3151 160.386 18.2752 158.413 18.3621C158.145 18.373 157.772 18.9957 157.678 19.3903C156.874 22.6993 156.139 26.0264 155.328 29.3355C155.245 29.6794 154.796 30.1826 154.503 30.1935C152.385 30.2659 150.263 30.2333 147.979 30.2333C150.245 20.2085 152.475 10.3321 154.731 0.358032C157.052 0.358032 159.372 0.358032 161.838 0.358032C161.041 3.98926 160.252 7.59153 159.427 11.3676C161.559 11.3676 163.561 11.4074 165.56 11.3205C165.831 11.3096 166.218 10.6978 166.309 10.3068C167.044 7.20777 167.699 4.09063 168.449 0.998837C168.521 0.694726 169.071 0.307347 169.412 0.292865C171.403 0.227699 173.398 0.260282 175.588 0.260282C173.383 10.1837 171.204 20.0094 169.002 29.9364Z" fill="#BCBCBC"/>
<path d="M101.229 30.1649C101.754 27.7936 102.246 25.567 102.764 23.2138C106.033 23.2138 109.328 23.2138 112.622 23.2138C113.404 23.2138 114.219 23.3333 114.957 23.1559C115.522 23.0183 116.319 22.573 116.424 22.1241C116.543 21.6063 116.185 20.7338 115.743 20.3718C113.535 18.5616 111.326 16.7152 108.937 15.1657C104.904 12.5518 104.864 7.76568 106.848 4.29736C108.296 1.76311 110.588 0.488737 113.339 0.394607C118.237 0.22445 123.143 0.347543 128.215 0.347543C127.799 2.43287 127.44 4.41322 126.963 6.36097C126.901 6.61802 126.235 6.88231 125.844 6.88593C122.672 6.93299 119.501 6.91851 116.333 6.92213C115.942 6.92213 115.551 6.92213 115.16 6.93299C114.099 6.96196 112.814 7.00178 112.64 8.21822C112.557 8.80834 113.433 9.69895 114.074 10.2022C116.699 12.2586 119.436 14.1665 122.057 16.2265C124.226 17.9353 124.493 20.379 123.976 22.8445C123.284 26.1499 121.554 28.753 118.172 29.9042C117.647 30.0816 117.079 30.2156 116.532 30.2192C111.71 30.2445 106.888 30.2337 102.069 30.2301C101.852 30.2337 101.642 30.2011 101.229 30.1649Z" fill="#BCBCBC"/>
<path d="M86.9539 0.542743C86.5375 2.57015 86.1139 4.62652 85.6686 6.77702C83.3588 6.77702 81.1106 6.77702 78.7465 6.77702C76.9689 14.626 75.213 22.3989 73.4499 30.1863C71.0315 30.1863 68.7398 30.1863 66.2671 30.1863C67.965 22.3808 69.6449 14.6549 71.3573 6.77702C69.7245 6.77702 68.2619 6.77702 66.6183 6.77702C67.0744 4.6591 67.4835 2.69324 67.9506 0.738243C67.994 0.557224 68.4067 0.350863 68.6493 0.350863C74.6446 0.340002 80.6363 0.354484 86.6317 0.372586C86.7041 0.372586 86.7801 0.448613 86.9539 0.542743Z" fill="#BCBCBC"/>
<path d="M47.999 30.2376C49.6716 22.3995 51.3116 14.6953 52.9878 6.83188C50.5441 6.83188 48.3031 6.83188 45.939 6.83188C46.3734 4.80447 46.7463 2.91102 47.2133 1.04291C47.2857 0.753282 47.7781 0.365902 48.0786 0.365902C53.9364 0.326078 59.7941 0.336939 65.9198 0.336939C65.7207 1.44839 65.5541 2.46934 65.355 3.48666C64.7178 6.74137 64.7142 6.77758 61.369 6.76309C60.4675 6.75947 60.1018 7.02014 59.9027 7.92161C58.3496 15.0031 56.7385 22.07 55.16 29.1478C54.9899 29.919 54.6858 30.3064 53.7879 30.2701C51.9307 30.1833 50.0626 30.2376 47.999 30.2376Z" fill="#BCBCBC"/>
<path d="M71.9369 39.7665C71.9369 43.3398 71.9369 46.8407 71.9369 50.4394C60.4205 50.4394 48.933 50.4394 37.3442 50.4394C37.3442 46.9348 37.3442 43.3977 37.3442 39.7665C48.8244 39.7665 60.3444 39.7665 71.9369 39.7665ZM65.3405 46.8443C65.069 44.9074 64.7975 42.9705 64.5042 40.8852C63.9286 40.8852 63.3602 40.9612 62.8244 40.8707C61.5211 40.6499 61.0214 41.2798 60.6884 42.4492C60.2684 43.9227 59.6348 45.3383 59.0918 46.7755C59.0121 46.7647 58.9325 46.7538 58.8528 46.743C58.6284 44.8061 58.4039 42.8728 58.1831 40.9576C57.4916 40.9576 56.9413 40.9576 56.2245 40.9576C56.5358 43.7453 56.8399 46.4497 57.1513 49.2591C57.669 49.2591 58.1034 49.1976 58.5198 49.27C59.9353 49.5125 60.5906 48.9007 60.949 47.5358C61.3292 46.0841 61.9845 44.7011 62.5167 43.2855C62.6506 43.3036 62.7809 43.3181 62.9149 43.3362C63.0488 44.3789 63.2118 45.4215 63.3131 46.4678C63.5919 49.2953 63.581 49.2591 65.9777 49.2808C66.7742 49.2881 67.1145 49.0274 67.3571 48.278C68.1427 45.8524 69.0116 43.452 69.8407 41.0554C68.3237 40.5521 67.6069 41.0952 67.2087 42.4058L65.3405 46.8443ZM50.8953 48.5857C50.8699 48.7197 50.8482 48.8536 50.8229 48.9876C51.4347 49.1288 52.0466 49.27 52.7055 49.422C53.0784 47.782 53.397 46.3773 53.7192 44.94C52.51 44.94 51.4492 44.94 50.4753 44.94C50.059 45.8198 50.1205 46.428 51.203 46.5004C50.7794 47.5286 50.135 47.9992 49.1575 47.9594C48.1547 47.9196 47.4559 47.4127 47.1084 46.4787C46.692 45.3527 46.6775 44.2811 47.6333 43.3724C48.542 42.5071 49.9033 42.3587 51.127 42.909C51.7569 43.1914 52.4593 43.3217 53.129 43.5172C53.129 42.9054 53.0204 42.6121 52.8286 42.4021C51.7642 41.2581 50.4826 40.5775 48.8932 41.0083C47.1156 41.4934 45.8738 42.6592 45.3054 44.4223C44.7913 46.008 44.9832 47.6082 46.254 48.698C47.4958 49.7623 49.0199 49.3605 50.4246 48.7631C50.5731 48.698 50.736 48.6437 50.8953 48.5857ZM39.7192 49.2084C41.6814 49.4076 41.6742 49.4075 42.0471 47.7639C42.2535 46.8479 42.5105 45.9465 42.6988 45.0269C42.9739 43.6838 43.2056 42.3297 43.459 40.9576C42.7132 40.9576 42.1231 40.9576 41.4678 40.9576C40.885 43.7127 40.3129 46.4171 39.7192 49.2084Z" fill="#BCBCBC"/>
<path d="M98.6371 22.189C98.1049 23.2317 97.58 24.0716 97.2505 24.984C97.0804 25.4582 97.0876 26.1461 97.3121 26.5878C97.8587 27.6594 98.5792 28.6442 99.3865 29.9077C97.7537 29.9077 96.3092 29.9113 94.8683 29.9004C94.7597 29.9004 94.5932 29.8172 94.5461 29.7266C93.7931 28.1807 92.7975 28.9555 91.7874 29.3899C88.7571 30.6897 85.8029 30.7295 83.1021 28.5971C79.9814 26.1352 80.1226 21.1826 83.5474 19.2493C84.4417 18.7461 85.354 18.2718 86.2482 17.7903C84.4489 12.8123 84.8218 10.7849 87.7652 9.35483C90.6216 7.96823 94.633 8.78643 96.0811 11.1578C97.0297 12.7145 97.3338 14.5211 96.2694 16.0634C95.3281 17.4246 93.9596 18.489 92.544 19.9227C93.1414 20.5309 93.8184 21.6967 94.8031 22.0913C95.8422 22.5113 97.1781 22.189 98.6371 22.189ZM84.9557 24.2092C84.9521 25.6139 86.1396 26.8448 87.5262 26.8774C88.9707 26.9136 90.2958 25.632 90.303 24.1947C90.3103 22.8552 89.0033 21.5736 87.6276 21.57C85.9912 21.5663 84.9594 22.5873 84.9557 24.2092ZM92.7613 13.8767C92.7395 12.7906 91.925 11.9289 90.9294 11.9325C89.8686 11.9362 89.0106 12.863 89.0468 13.9636C89.083 15.0388 89.9084 15.8389 90.9547 15.8099C92.0155 15.7846 92.783 14.9592 92.7613 13.8767Z" fill="#BCBCBC"/>
<path d="M37.9416 0.402161C40.436 0.402161 42.7639 0.402161 45.2909 0.402161C44.9217 2.21234 44.5922 3.9284 44.2193 5.62997C42.4888 13.5513 40.7582 21.4727 38.9843 29.3832C38.9082 29.7163 38.4231 30.1869 38.1154 30.1942C35.9576 30.2666 33.7999 30.2304 31.4575 30.2304C33.637 20.2273 35.7839 10.3437 37.9416 0.402161Z" fill="#BCBCBC"/>
<path d="M77.1792 50.1279C77.1792 46.7393 77.1792 43.2891 77.1792 39.7592C77.8997 39.7592 78.573 39.7592 79.3659 39.7592C79.3659 41.9242 79.3659 44.1109 79.3659 46.3012C79.4492 46.3266 79.5288 46.3519 79.6121 46.3772C80.528 44.8241 81.5454 43.318 82.3346 41.6997C83.1383 40.0561 84.1918 39.1691 86.2048 39.8135C85.2128 41.4101 84.2063 43.0393 83.1926 44.6648C82.3962 45.9392 81.4911 47.1592 80.8213 48.4952C80.0646 50.0266 79.0545 50.7832 77.1792 50.1279Z" fill="#BCBCBC"/>
<path d="M146.531 46.9346C146.701 48.3574 147.642 48.8932 148.757 48.3864C149.608 47.999 150.524 47.7673 151.411 47.4632C151.505 47.5971 151.603 47.7347 151.697 47.8687C151.48 48.2379 151.313 48.6579 151.034 48.9729C149.583 50.6093 146.947 50.8446 145.169 49.5268C143.841 48.5421 143.736 45.9173 144.949 44.1035C146.147 42.3114 148.022 41.638 150.129 42.2426C151.418 42.6119 152.58 44.1687 152.414 45.4611C152.305 46.3264 152.066 47.0903 150.817 46.9708C149.405 46.826 147.968 46.9346 146.531 46.9346ZM149.905 45.0593C149.988 44.9326 150.068 44.8022 150.151 44.6755C149.717 44.3786 149.26 43.8175 148.848 43.8501C148.2 43.9007 147.584 44.3461 146.954 44.6284C147.012 44.7733 147.07 44.9181 147.128 45.0629C148.055 45.0593 148.978 45.0593 149.905 45.0593Z" fill="#BCBCBC"/>
<path d="M116.431 45.0734C116.453 43.2053 117.611 42.5935 118.795 42.3364C119.754 42.1264 120.859 42.293 121.836 42.5392C122.853 42.7962 123.393 43.6542 123.215 44.7223C122.94 46.3731 122.585 48.0095 122.198 49.6387C122.118 49.9718 121.742 50.4967 121.536 50.4823C120.916 50.4424 120.008 51.0253 119.78 49.9826C119.077 50.1673 118.393 50.4642 117.691 50.5076C116.308 50.5945 115.479 49.9428 115.211 48.7481C114.979 47.7127 115.671 46.279 116.742 45.9097C117.622 45.6092 118.592 45.5767 119.505 45.345C119.993 45.2219 120.442 44.925 120.906 44.7078C120.804 44.4942 120.703 44.1032 120.598 44.0995C120.048 44.0923 119.476 44.1213 118.947 44.2588C118.096 44.4833 117.267 44.7983 116.431 45.0734ZM120.41 46.6664C119.657 46.8402 118.922 46.9126 118.284 47.195C117.962 47.3362 117.81 47.8611 117.578 48.2123C117.98 48.3897 118.426 48.7734 118.777 48.701C119.733 48.5092 120.352 47.8756 120.41 46.6664Z" fill="#BCBCBC"/>
<path d="M91.7146 48.245C91.0738 49.733 89.8429 50.4064 88.2825 50.5186C86.8959 50.6164 85.6034 50.3557 84.8106 49.0379C83.92 47.5535 84.4449 44.6174 85.8786 43.2888C87.2109 42.0578 89.6836 41.732 91.1679 42.8C92.2142 43.553 92.8985 45.3813 92.3771 46.5C92.2649 46.739 91.7689 46.891 91.4359 46.9164C90.6575 46.9779 89.8755 46.9345 89.0935 46.9381C88.3187 46.9381 87.5403 46.9381 86.371 46.9381C86.7511 47.626 86.8995 48.274 87.2905 48.5021C87.6924 48.7338 88.3513 48.6433 88.8618 48.5347C89.7705 48.3392 90.6539 48.0206 91.5481 47.7527C91.606 47.912 91.6603 48.0785 91.7146 48.245ZM90.0746 45.3668C90.1542 45.251 90.2303 45.1351 90.3099 45.0193C89.8936 44.6391 89.4302 43.9078 89.0681 43.9549C88.3404 44.049 87.6671 44.5667 86.9719 44.9107C87.0299 45.0446 87.0914 45.1786 87.1493 45.3125C87.4824 45.3306 87.8155 45.3596 88.1486 45.3668C88.7894 45.3741 89.4338 45.3668 90.0746 45.3668Z" fill="#BCBCBC"/>
<path d="M133.66 42.17C136.137 42.1483 137.563 43.4009 137.599 45.6238C137.646 48.397 135.655 50.4679 132.893 50.5222C130.63 50.5693 129.171 49.1935 129.153 46.996C129.128 44.0055 130.818 42.1954 133.66 42.17ZM135.713 45.7397C135 44.9867 134.584 44.1902 134.004 44.0417C133.483 43.9078 132.64 44.3422 132.187 44.7839C131.492 45.4646 131.271 47.8033 131.814 48.1219C132.328 48.4224 133.306 48.6794 133.628 48.4115C134.41 47.7599 134.931 46.7896 135.713 45.7397Z" fill="#BCBCBC"/>
<path d="M100.042 50.2685C99.2562 50.2685 98.619 50.2685 97.8406 50.2685C98.1085 48.8674 98.3801 47.5459 98.6081 46.2173C98.7276 45.5294 99.1403 44.5953 98.1483 44.3347C97.1165 44.0631 96.6206 44.8669 96.3852 45.7864C96.0087 47.2708 95.6394 48.7551 95.2557 50.2721C94.528 50.2721 93.8437 50.2721 93.1016 50.2721C93.6084 47.7776 94.0863 45.3375 94.6257 42.9119C94.6837 42.6512 95.1072 42.3036 95.3752 42.2928C95.9399 42.2674 96.5156 42.4376 97.0876 42.5281C97.0659 42.644 97.0478 42.7598 97.026 42.8757C97.417 42.7055 97.7972 42.4955 98.2027 42.3652C99.8137 41.8547 101.428 43.0531 101.179 44.6677C100.9 46.525 100.44 48.3569 100.042 50.2685Z" fill="#BCBCBC"/>
<path d="M152.932 50.0373C153.496 47.3076 154.014 44.795 154.593 42.0037C155.354 42.2065 156.023 42.4237 156.715 42.5504C156.95 42.5938 157.233 42.4164 157.482 42.3115C158.409 41.9205 159.318 41.8734 160.172 42.4852C161.117 43.1586 161.201 44.118 160.983 45.1498C160.643 46.7717 160.288 48.3937 159.93 50.0699C159.199 50.0699 158.521 50.0699 157.747 50.0699C157.986 48.5638 158.181 47.0976 158.471 45.6531C158.605 44.9905 158.851 44.2556 157.986 44.1035C157.193 43.966 156.498 44.357 156.291 45.3019C155.955 46.8478 155.582 48.3864 155.198 50.0373C154.503 50.0373 153.764 50.0373 152.932 50.0373Z" fill="#BCBCBC"/>
<path d="M128.429 40.3267C128.331 41.0399 128.262 41.5432 128.186 42.1116C128.512 42.2093 128.816 42.3034 129.211 42.4229C128.86 43.1868 129.182 44.2512 127.875 44.3562C127.701 44.3707 127.546 45.0911 127.455 45.5002C127.263 46.38 127.122 47.267 126.945 48.23C127.238 48.3422 127.538 48.4581 127.926 48.6101C127.705 49.1785 127.607 50.0728 127.26 50.185C126.575 50.4058 125.71 50.3189 125.004 50.0981C124.725 50.0112 124.512 49.2075 124.544 48.7513C124.628 47.6906 124.935 46.6443 125.033 45.5835C125.08 45.0947 125.681 44.3308 124.617 44.1209C124.765 43.5235 124.845 42.8936 125.091 42.3396C125.283 41.9052 125.822 41.612 125.971 41.1775C126.431 39.8199 127.506 40.6598 128.429 40.3267Z" fill="#BCBCBC"/>
<path d="M106.363 40.5737C106.287 41.1819 106.218 41.7213 106.131 42.3911C106.374 42.4454 106.678 42.5106 107.094 42.6011C106.971 43.3288 107.319 44.2664 105.99 44.3063C105.831 44.3099 105.621 44.7516 105.552 45.0231C105.346 45.8087 105.132 46.6016 105.06 47.4017C105.031 47.742 105.465 48.1076 105.491 48.4733C105.53 49.0707 105.538 50.1423 105.335 50.2002C104.6 50.3993 103.706 50.4355 103.011 50.1713C102.692 50.0518 102.518 49.067 102.587 48.5131C102.757 47.1627 103.105 45.8341 103.405 44.3895C103.116 44.2954 102.822 44.2013 102.105 43.9659C102.696 43.3541 103.152 42.8979 103.586 42.42C103.724 42.268 103.901 42.0616 103.901 41.8806C103.901 40.1501 105.078 40.4506 106.363 40.5737Z" fill="#BCBCBC"/>
<path d="M113.372 50.2793C112.427 50.2793 111.783 50.2793 111.066 50.2793C111.823 46.6264 112.565 43.0241 113.307 39.4327C114.074 39.4327 114.712 39.4327 115.581 39.4327C114.827 43.1219 114.096 46.706 113.372 50.2793Z" fill="#BCBCBC"/>
<path d="M138.244 50.2144C138.769 47.4231 139.25 44.8708 139.728 42.3257C141.278 42.0179 142.751 42.981 144.351 42.065C144.272 42.8723 144.319 43.4516 144.127 43.9295C143.978 44.2988 143.547 44.773 143.204 44.8056C141.944 44.9287 141.393 45.5912 141.227 46.7787C141.104 47.6693 140.926 48.5636 140.677 49.4288C140.307 50.7177 139.236 49.914 138.244 50.2144Z" fill="#BCBCBC"/>
<path d="M109.201 50.2757C108.332 50.2757 107.644 50.2757 106.862 50.2757C107.416 47.7016 107.959 45.1927 108.52 42.5897C109.212 42.5897 109.925 42.5897 110.79 42.5897C110.258 45.1529 109.733 47.6908 109.201 50.2757Z" fill="#BCBCBC"/>
<path d="M108.712 41.1632C108.868 40.6093 109.024 40.0482 109.194 39.4327C109.932 39.4327 110.653 39.4327 111.37 39.4327C111.026 41.6737 110.696 41.8982 108.712 41.1632Z" fill="#BCBCBC"/>
</svg>
