<svg width="200" height="32" viewBox="0 0 200 32" fill="none" xmlns="http://www.w3.org/2000/svg">
<path d="M0 30.8288C0.93183 29.1516 1.73615 27.6606 2.5797 26.1893C3.47229 24.6395 4.46297 23.1388 5.28691 21.5498C5.71849 20.7062 6.24816 20.4806 7.13095 20.4904C10.1913 20.5297 13.2516 20.5101 16.3021 20.5003C16.6847 20.5003 17.0672 20.5003 17.6655 20.5003C16.4198 18.3521 15.282 16.3806 14.1442 14.409C13.5066 13.2908 12.8298 12.1923 12.2511 11.0446C12.0647 10.6817 11.9667 10.0834 12.1432 9.7695C13.8695 6.66994 15.6645 3.61942 17.4399 0.549289C17.5086 0.431584 17.6165 0.313879 17.8519 0C18.921 1.84404 19.9019 3.53114 20.873 5.22806C21.7656 6.77783 22.6778 8.32761 23.541 9.89701C23.6783 10.1422 23.7175 10.564 23.59 10.7896C21.7754 13.9578 19.9313 17.0966 17.9794 20.4316C18.4993 20.4708 18.9014 20.5199 19.3036 20.5199C22.2462 20.5297 25.1888 20.5689 28.1216 20.5003C29.2006 20.4806 29.8676 20.6866 30.4267 21.746C31.898 24.5218 33.5655 27.2094 35.1349 29.9264C35.2624 30.152 35.3212 30.4169 35.4488 30.7798C34.9681 30.8092 34.5856 30.8485 34.2129 30.8485C31.0348 30.8485 27.8568 30.819 24.6886 30.8681C23.8745 30.8779 23.4331 30.6032 23.0407 29.9068C21.3732 26.925 19.6371 23.9627 17.8127 20.7945C16.8024 22.511 15.8803 24.0706 14.9681 25.64C14.0951 27.1506 13.2516 28.6905 12.359 30.1913C12.2021 30.4561 11.8588 30.7994 11.5939 30.7994C7.81756 30.8485 4.03139 30.8288 0 30.8288Z" fill="#BCBCBC"/>
<path d="M45.7187 12.4371C46.729 10.2203 47.7295 8.32719 48.4357 6.33602C48.8673 5.10993 49.5245 4.91375 50.6623 5.19821C50.6623 9.03342 50.6623 12.8981 50.6623 16.8216C50.1032 16.8216 49.5637 16.8216 48.9261 16.8216C48.9261 14.4969 48.9261 12.1624 48.9261 9.81812C48.8477 9.7985 48.7594 9.76908 48.6809 9.74946C47.9158 11.4464 47.1507 13.1531 46.3759 14.85C45.4048 15.1443 44.934 14.801 44.5809 13.8103C44.0708 12.3586 43.3155 10.9854 42.521 9.26883C42.521 11.9859 42.521 14.3694 42.521 16.8216C41.8638 16.8216 41.3342 16.8216 40.7358 16.8216C40.7358 12.9373 40.7358 9.08246 40.7358 5.22763C42.4328 4.97261 42.4622 5.03146 43.0801 6.50277C43.8746 8.38604 44.7476 10.2497 45.7187 12.4371Z" fill="#BCBCBC"/>
<path d="M156.744 16.7924C156.744 12.918 156.744 9.05335 156.744 5.21813C157.98 4.79636 158.627 5.25737 159.078 6.38537C159.863 8.35693 160.785 10.2696 161.746 12.4374C162.727 10.25 163.698 8.31769 164.453 6.29709C164.875 5.15928 165.493 4.88464 166.631 5.20833C166.631 9.02392 166.631 12.8689 166.631 16.8022C166.101 16.8022 165.581 16.8022 164.963 16.8022C164.963 14.4678 164.963 12.1235 164.963 9.789C164.885 9.75958 164.797 9.73996 164.718 9.71053C164.061 11.1622 163.433 12.6237 162.737 14.046C162.57 14.3991 162.158 14.8797 161.883 14.8699C161.53 14.8601 161.05 14.4776 160.863 14.1343C160.098 12.663 159.412 11.1524 158.578 9.38685C158.578 12.0058 158.578 14.3501 158.578 16.7924C157.911 16.7924 157.352 16.7924 156.744 16.7924Z" fill="#BCBCBC"/>
<path d="M154.007 30.8096C152.888 31.2019 152.251 30.7409 151.849 29.7797C151.731 29.4952 151.594 29.2206 151.427 28.9459C150.27 26.994 149.092 25.0421 147.739 22.7762C147.739 25.6698 147.739 28.2299 147.739 30.8488C147.082 30.8488 146.552 30.8488 145.944 30.8488C145.944 26.9548 145.944 23.0999 145.944 19.2549C147.248 18.6664 147.817 19.402 148.376 20.4319C149.524 22.5506 150.77 24.6007 152.182 26.6703C152.182 24.2083 152.182 21.7561 152.182 19.1666C152.859 19.1372 153.389 19.1176 153.997 19.0882C154.007 23.0313 154.007 26.8861 154.007 30.8096Z" fill="#BCBCBC"/>
<path d="M85.3262 16.8709C85.3262 16.4197 85.3262 16.1156 85.3262 15.8017C85.3262 12.2902 85.3262 8.76888 85.3262 5.12003C87.0917 5.12003 88.8377 4.89443 90.4954 5.16907C93.3007 5.63989 94.36 8.58251 92.1334 10.8483C93.1928 11.839 93.8107 12.9768 93.3497 14.5168C92.9672 15.7919 91.9667 16.8022 90.6425 16.8611C88.9358 16.9199 87.2193 16.8709 85.3262 16.8709ZM86.9642 15.2132C87.4252 15.2328 87.8078 15.2623 88.1805 15.2721C88.8377 15.2819 89.5145 15.3211 90.1619 15.2524C91.0447 15.1642 91.9176 14.2029 91.6332 13.3692C91.4174 12.7218 90.7406 11.9469 90.1128 11.7703C89.1516 11.5055 88.053 11.7017 86.9544 11.7017C86.9642 12.9082 86.9642 13.9871 86.9642 15.2132ZM86.9838 10.0636C88.0236 10.0636 88.9946 10.1323 89.9559 10.044C90.8877 9.96554 91.4566 9.34759 91.4566 8.40595C91.4566 7.47412 90.8485 6.85617 89.9559 6.75809C88.9946 6.65019 88.0236 6.73847 86.9838 6.73847C86.9838 7.85666 86.9838 8.86696 86.9838 10.0636Z" fill="#BCBCBC"/>
<path d="M59.1269 29.6217C59.3328 29.7689 59.6173 29.965 59.8821 30.1612C59.3132 31.456 59.2053 31.4658 58.0577 30.7988C57.8223 30.6615 57.4201 30.7105 57.1357 30.7988C55.0268 31.4462 52.8002 31.1911 51.7114 29.3961C51.2897 28.6997 50.9954 27.8169 50.966 27.0028C50.8973 25.3353 50.9267 23.6384 51.1131 21.9807C51.378 19.558 53.8007 18.636 55.5761 18.8027C58.5285 19.0872 59.6761 20.9704 59.48 23.3049C59.3917 24.3545 59.5094 25.4236 59.4505 26.4731C59.4015 27.4736 59.2544 28.4643 59.1269 29.6217ZM56.2627 29.1705C55.4682 28.5428 54.3696 27.9346 55.9881 26.9243C56.4098 27.248 56.9003 27.6011 57.3907 27.9739C57.479 27.8562 57.5967 27.7679 57.5967 27.6796C57.6065 25.8846 57.7144 24.0896 57.5575 22.3142C57.4496 21.1372 56.3706 20.4702 55.223 20.4898C54.1342 20.5094 53.016 21.2255 52.9277 22.2848C52.7904 24.0896 52.7316 25.9337 52.9375 27.7287C53.1239 29.2196 54.811 29.8768 56.2627 29.1705Z" fill="#BCBCBC"/>
<path d="M93.644 24.885C93.9383 23.5804 94.1051 22.2268 94.5464 20.9713C95.0565 19.5392 97.0182 18.5584 98.5288 18.7545C100.795 19.0586 102.364 20.2945 102.492 22.1582C102.619 24.0513 102.619 25.964 102.492 27.8472C102.374 29.652 100.52 31.0645 98.519 31.0743C96.106 31.0939 94.3503 29.8286 94.0756 27.8276C93.9383 26.8664 93.8795 25.8953 93.7912 24.934C93.7421 24.9242 93.6931 24.9046 93.644 24.885ZM95.7235 24.9439C95.802 25.7384 95.8216 26.6408 95.9785 27.5137C96.2041 28.7987 97.2046 29.5736 98.4307 29.5147C99.5489 29.4657 100.598 28.4554 100.657 27.2293C100.716 25.7286 100.736 24.218 100.657 22.7173C100.579 21.3146 99.7451 20.5397 98.4503 20.4809C97.1948 20.422 96.1551 21.1479 95.9589 22.3053C95.8118 23.1489 95.802 24.012 95.7235 24.9439Z" fill="#BCBCBC"/>
<path d="M144.012 25.0418C143.923 26.0423 143.953 27.082 143.737 28.0531C143.217 30.3189 141.736 31.2017 138.97 31.084C137.136 31.0055 135.478 29.6029 135.341 27.6313C135.203 25.699 135.243 23.7176 135.547 21.8147C135.861 19.8824 137.92 18.5877 139.784 18.774C142.266 19.0192 143.845 20.5494 143.943 22.8152C143.972 23.5607 143.943 24.3062 143.943 25.0516C143.953 25.032 143.982 25.032 144.012 25.0418ZM137.038 24.9928C137.067 24.9928 137.096 25.0026 137.126 25.0026C137.126 25.4734 137.096 25.9442 137.136 26.415C137.165 26.876 137.234 27.3469 137.342 27.7981C137.587 28.8182 138.509 29.544 139.568 29.5244C140.637 29.5048 141.677 29.0143 141.775 27.9746C141.962 25.9834 141.971 23.9432 141.746 21.9619C141.628 20.9123 140.598 20.3925 139.402 20.4709C138.303 20.5396 137.616 21.1379 137.371 22.109C137.145 23.0408 137.146 24.0315 137.038 24.9928Z" fill="#BCBCBC"/>
<path d="M64.9532 13.3495C65.473 13.3495 65.9046 13.3495 66.3264 13.3495C67.3073 15.4192 68.4941 16.0666 70.0831 15.2524C70.5736 14.9974 71.0934 14.2814 71.0934 13.7713C71.0934 13.2613 70.5834 12.5354 70.0929 12.2902C69.1023 11.79 67.9644 11.6134 66.9345 11.2014C65.6202 10.6718 64.6883 9.08275 64.8845 7.87627C65.1297 6.36573 66.4048 5.00231 67.8762 4.91404C68.857 4.85518 69.9262 4.90423 70.8384 5.22791C72.1528 5.68892 72.5647 6.88559 72.6138 8.27843C72.0743 8.27843 71.5741 8.27843 71.0836 8.27843C70.3676 6.74827 69.8575 6.40496 68.4549 6.51286C67.5623 6.58152 66.8953 7.08176 66.7874 7.88608C66.6697 8.73944 67.1896 9.45548 68.0723 9.74974C68.9551 10.044 69.8673 10.2402 70.7305 10.5639C72.3195 11.1524 73.2808 12.5747 73.0748 13.9283C72.7805 15.8802 71.8291 16.8513 69.9654 17.1259C68.3862 17.3613 66.8953 17.273 65.7084 16.0175C65.0218 15.2721 64.7079 14.4481 64.9532 13.3495Z" fill="#BCBCBC"/>
<path d="M98.6855 13.5166C99.9999 13.1634 100.696 13.2321 101 14.4484C101.226 15.3508 102.717 15.7922 103.943 15.4391C104.836 15.184 105.542 14.5857 105.277 13.5852C105.13 13.0555 104.62 12.4572 104.12 12.212C103.198 11.7608 102.148 11.5842 101.167 11.2311C99.4801 10.623 98.9504 9.23995 99.0877 7.8373C99.2446 6.23848 100.422 5.05162 102.079 4.9143C103.256 4.81621 104.473 4.6887 105.532 5.54206C106.405 6.23848 106.856 7.03299 106.66 8.20022C105.826 8.40621 105.189 8.56315 104.777 7.41553C104.404 6.39542 103.286 6.38561 102.334 6.54255C101.569 6.67006 100.912 7.1605 100.912 7.98443C100.922 8.98492 101.569 9.57345 102.54 9.82848C103.404 10.0541 104.267 10.2895 105.091 10.623C106.739 11.29 107.15 12.1139 107.052 14.2816C106.994 15.6843 106.346 16.4396 104.738 16.93C102.943 17.4793 101.197 17.4204 99.8724 15.9295C99.3329 15.3116 99.1073 14.3993 98.6855 13.5166Z" fill="#BCBCBC"/>
<path d="M74.5269 5.15004C75.1841 5.15004 75.6843 5.15004 76.3121 5.15004C76.3121 7.80821 76.3219 10.4271 76.3121 13.0461C76.3023 14.0564 76.5965 14.8999 77.5382 15.3805C79.2939 16.3026 81.0889 15.1648 81.1184 13.0853C81.1478 10.8489 81.1282 8.62233 81.1282 6.38594C81.1282 6.0034 81.1282 5.62086 81.1282 5.16966C81.7461 5.16966 82.266 5.16966 82.9036 5.16966C82.9036 8.16132 83.0605 11.1432 82.8545 14.0956C82.7074 16.2045 80.5789 17.4894 78.1659 17.3325C76.2042 17.205 74.625 15.665 74.5661 13.5757C74.4582 10.7999 74.5269 8.024 74.5269 5.15004Z" fill="#BCBCBC"/>
<path d="M108.975 5.15004C109.505 5.15004 109.966 5.15004 110.535 5.15004C110.535 6.77829 110.535 8.3673 110.535 10.0152C112.075 10.0152 113.507 10.0152 115.066 10.0152C115.066 8.38692 115.066 6.79791 115.066 5.15985C115.724 5.15985 116.253 5.15985 116.842 5.15985C116.842 9.04411 116.842 12.9087 116.842 16.8224C116.273 16.8224 115.743 16.8224 115.076 16.8224C115.076 15.1353 115.076 13.4678 115.076 11.7513C113.517 11.7513 112.085 11.7513 110.535 11.7513C110.535 13.458 110.535 15.1157 110.535 16.8224C109.956 16.8224 109.505 16.8224 108.965 16.8224C108.975 12.9676 108.975 9.11277 108.975 5.15004Z" fill="#BCBCBC"/>
<path d="M143.492 9.97589C143.492 8.37707 143.492 6.78806 143.492 5.15981C144.139 5.15981 144.669 5.15981 145.258 5.15981C145.258 9.04406 145.258 12.8695 145.258 16.7832C144.708 16.7832 144.159 16.7832 143.521 16.7832C143.521 15.1353 143.521 13.4972 143.521 11.7807C142.021 11.7807 140.598 11.7807 139.088 11.7807C139.088 13.4482 139.088 15.0862 139.088 16.793C138.509 16.793 138.019 16.793 137.42 16.793C137.42 12.9872 137.42 9.13234 137.42 5.18923C137.901 5.18923 138.421 5.18923 139.029 5.18923C139.029 6.76844 139.029 8.32803 139.029 9.97589C140.54 9.97589 141.962 9.97589 143.492 9.97589Z" fill="#BCBCBC"/>
<path d="M84.3944 27.3368C85.3262 27.1407 85.9147 27.1799 86.2678 28.2981C86.719 29.7302 89.3086 29.9852 90.2404 28.8082C91.0741 27.7586 90.721 26.5816 89.3576 26.0813C88.5239 25.7675 87.6313 25.6301 86.7877 25.3555C84.9142 24.7572 84.2374 23.5605 84.4827 21.3633C84.62 20.1078 85.7872 19.1367 87.3664 18.921C89.0045 18.7052 90.5739 18.7346 91.5842 20.3236C91.8784 20.7944 91.9863 21.3829 92.2119 22.0107C91.5351 22.0107 90.9957 22.0107 90.466 22.0107C89.7598 20.5688 89.181 20.2746 87.7392 20.4609C86.8858 20.5786 86.3855 21.02 86.2678 21.8341C86.1501 22.6581 86.5327 23.2957 87.3076 23.5801C88.21 23.9234 89.1516 24.1588 90.0736 24.4433C91.8686 25.0024 92.722 26.2873 92.4768 28.0627C92.2217 29.8773 90.9858 31.0151 89.181 31.0642C88.5533 31.0838 87.9255 31.1132 87.2978 31.0544C85.3654 30.8778 84.1688 29.3574 84.3944 27.3368Z" fill="#BCBCBC"/>
<path d="M163.698 22.0017C163.158 22.0017 162.619 22.0017 162.06 22.0017C161.265 20.5205 160.716 20.2263 159.284 20.4715C158.519 20.599 157.999 20.9423 157.871 21.7466C157.734 22.5902 158.038 23.2376 158.833 23.5416C159.735 23.8849 160.667 24.14 161.599 24.4244C163.433 24.9737 164.335 26.2881 164.1 28.1125C163.874 29.8584 162.56 31.0453 160.736 31.0649C159.5 31.0845 158.254 31.2219 157.155 30.3391C156.155 29.5348 155.919 28.5441 155.968 27.318C156.557 27.318 157.057 27.318 157.607 27.318C157.616 28.6029 158.352 29.2993 159.5 29.4955C160.441 29.6525 161.373 29.5348 161.952 28.5637C162.57 27.5338 162.285 26.5333 161.147 26.1213C160.235 25.7976 159.254 25.6701 158.352 25.317C156.38 24.5519 155.547 22.8256 156.194 20.9031C156.743 19.265 158.46 18.6078 160.333 18.853C162.854 19.1964 163.384 19.7947 163.698 22.0017Z" fill="#BCBCBC"/>
<path d="M118.891 19.1557C119.549 19.1557 120.039 19.1557 120.657 19.1557C120.657 22.2062 120.785 25.2175 120.618 28.2092C120.5 30.3573 117.871 31.7698 115.527 31.191C113.408 30.6712 112.477 29.4745 112.477 27.2872C112.477 24.629 112.477 21.961 112.477 19.195C113.006 19.195 113.487 19.195 114.085 19.195C114.085 21.5098 114.066 23.8051 114.095 26.1003C114.105 26.7085 114.193 27.3264 114.33 27.9247C114.605 29.0724 115.674 29.808 116.763 29.6707C118.166 29.4843 118.882 28.7487 118.901 27.3754C118.931 25.1096 118.911 22.834 118.911 20.5584C118.891 20.1366 118.891 19.7148 118.891 19.1557Z" fill="#BCBCBC"/>
<path d="M50.564 30.7996C49.2202 31.2214 48.4845 30.7702 48.2687 29.4754C48.1412 28.6809 47.7096 28.3671 46.8857 28.4651C46.2285 28.5436 45.5419 28.5632 44.8945 28.4651C43.7077 28.2886 43.0505 28.6809 42.923 29.9168C42.8837 30.2405 42.7072 30.5544 42.6091 30.8389C41.9421 30.8389 41.3438 30.8389 40.6768 30.8389C41.8342 27.6216 42.9524 24.5122 44.0706 21.393C44.2275 20.9517 44.3845 20.5103 44.512 20.0689C44.6787 19.4607 44.9043 19.0488 45.689 19.0782C46.3854 19.1076 46.562 19.4117 46.768 20.01C47.9156 23.345 49.1319 26.6505 50.3187 29.9659C50.4266 30.2307 50.4855 30.525 50.564 30.7996ZM47.3761 26.8565C46.817 25.189 46.2972 23.6491 45.7675 22.0993C45.689 22.0993 45.6106 22.1091 45.5223 22.1091C45.0024 23.6883 44.4924 25.2577 43.9627 26.8565C45.1593 26.8565 46.1598 26.8565 47.3761 26.8565Z" fill="#BCBCBC"/>
<path d="M191.663 16.8317C190.957 16.8317 190.378 16.8317 189.76 16.8317C189.525 16.0764 189.289 15.3408 189.024 14.5168C187.681 14.5168 186.317 14.4874 184.954 14.5463C184.708 14.5561 184.395 14.8798 184.277 15.1348C184.032 15.6546 183.894 16.2334 183.698 16.8219C183.1 16.8219 182.521 16.8219 181.825 16.8219C182.197 15.6841 182.531 14.5561 182.923 13.4575C183.816 10.9366 184.728 8.4158 185.67 5.91457C185.787 5.59088 186.16 5.1593 186.425 5.14949C186.837 5.13968 187.524 5.34567 187.631 5.63012C189.015 9.32801 190.319 13.0455 191.663 16.8317ZM186.709 7.82728C186.092 9.70074 185.581 11.2211 185.042 12.8199C186.268 12.8199 187.298 12.8199 188.455 12.8199C187.896 11.2113 187.357 9.68113 186.709 7.82728Z" fill="#BCBCBC"/>
<path d="M80.1276 30.79C78.2835 31.0549 78.2345 31.0647 77.8029 29.4757C77.5871 28.691 77.2242 28.3575 76.4101 28.4556C75.8706 28.5242 75.3017 28.534 74.772 28.4556C73.3497 28.2398 72.5258 28.6517 72.2806 30.2113C72.0942 31.408 71.0839 30.79 70.2109 30.8881C70.8877 28.946 71.5057 27.1314 72.1433 25.3168C72.771 23.5218 73.4478 21.7464 74.0363 19.9416C74.2227 19.3923 74.3993 19.0686 75.0564 19.0882C75.6842 19.098 76.0079 19.255 76.2335 19.9121C77.4792 23.5218 78.8034 27.102 80.1276 30.79ZM76.9201 26.8567C76.3218 25.1892 75.7627 23.6297 75.1153 21.7954C74.4974 23.6395 73.9873 25.1892 73.4282 26.8567C74.6641 26.8567 75.694 26.8567 76.9201 26.8567Z" fill="#BCBCBC"/>
<path d="M154.772 16.8223C152.467 16.8223 150.172 16.8223 147.798 16.8223C147.798 12.9381 147.798 9.09306 147.798 5.16957C150.113 5.16957 152.398 5.16957 154.782 5.16957C154.782 5.6502 154.782 6.12102 154.782 6.70954C153.065 6.70954 151.358 6.70954 149.563 6.70954C149.563 7.84736 149.563 8.88708 149.563 10.0347C151.152 10.0347 152.741 10.0347 154.419 10.0347C154.419 10.6134 154.419 11.0842 154.419 11.663C152.83 11.663 151.241 11.663 149.563 11.663C149.563 12.8694 149.563 13.9876 149.563 15.2333C151.251 15.2333 152.957 15.2333 154.762 15.2333C154.772 15.8219 154.772 16.2927 154.772 16.8223Z" fill="#BCBCBC"/>
<path d="M133.742 13.3891C134.35 13.3891 134.88 13.3891 135.517 13.3891C135.36 14.6348 135.037 15.6647 133.967 16.3906C131.349 18.1464 126.905 17.3224 126.905 12.32C126.905 10.8781 126.886 9.41659 127.121 8.00413C127.376 6.45435 128.504 5.52252 129.985 5.07132C131.545 4.59069 132.967 4.86533 134.222 5.92468C135.027 6.60148 135.537 7.43522 135.498 8.60246C134.585 8.70055 133.83 8.985 133.34 7.73929C132.957 6.77804 131.868 6.2876 130.78 6.57205C129.74 6.8467 129.004 7.6412 128.945 8.74959C128.857 10.319 128.867 11.908 128.945 13.4774C128.994 14.5564 129.946 15.3901 131.025 15.4882C132.437 15.5961 133.173 15.0566 133.742 13.3891Z" fill="#BCBCBC"/>
<path d="M61.5595 19.1664C62.1284 19.1664 62.6188 19.1664 63.2662 19.1664C63.2662 21.7363 63.2466 24.2767 63.276 26.8074C63.2858 27.2978 63.3741 27.8275 63.5899 28.2493C64.149 29.3773 65.1004 29.8187 66.15 29.5636C67.3761 29.2596 68.1117 28.4062 68.1215 27.1605C68.1411 24.5318 68.1313 21.9128 68.1313 19.1958C68.7199 19.1958 69.2299 19.1958 69.838 19.1958C69.838 22.2071 69.9656 25.1889 69.789 28.1414C69.6811 30.0737 67.8469 31.2802 65.6301 31.2704C63.3545 31.2605 61.736 30.1325 61.6085 28.0237C61.4222 25.1007 61.5595 22.158 61.5595 19.1664Z" fill="#BCBCBC"/>
<path d="M181.451 13.3992C181.324 15.3217 180.294 16.4792 178.646 16.9892C176.832 17.5581 175.086 17.1952 173.83 15.6945C173.34 15.1158 173.016 14.2232 172.987 13.4581C172.908 11.7121 172.918 9.93674 173.163 8.2104C173.516 5.72879 174.958 4.77735 177.744 4.87543C179.735 4.94409 181.167 6.37617 181.412 8.57333C180.471 8.7695 179.696 8.86759 179.225 7.65131C178.862 6.70967 177.861 6.38598 176.871 6.53311C175.811 6.69005 174.997 7.35704 174.929 8.41639C174.801 10.1525 174.831 11.9083 174.938 13.6543C174.997 14.6253 175.674 15.2923 176.665 15.4591C177.744 15.6454 178.833 15.4198 179.245 14.3409C179.676 13.1442 180.451 13.2815 181.451 13.3992Z" fill="#BCBCBC"/>
<path d="M59.284 6.71944C58.1364 6.71944 57.2046 6.71944 56.2041 6.71944C56.2041 6.17015 56.2041 5.68952 56.2041 5.15004C58.8917 5.15004 61.5401 5.15004 64.2473 5.15004C64.2473 5.66009 64.2473 6.1113 64.2473 6.69001C63.2272 6.69001 62.2365 6.69001 61.1183 6.69001C61.1183 10.1231 61.1183 13.4384 61.1183 16.8028C60.4709 16.8028 59.9412 16.8028 59.2742 16.8028C59.284 13.4875 59.284 10.1819 59.284 6.71944Z" fill="#BCBCBC"/>
<path d="M106.523 29.338C108.455 29.338 110.201 29.338 112.035 29.338C112.035 29.8481 112.035 30.2993 112.035 30.8289C109.623 30.8289 107.219 30.8289 104.738 30.8289C104.738 26.9545 104.738 23.1094 104.738 19.1761C105.307 19.1761 105.866 19.1761 106.513 19.1761C106.523 22.5602 106.523 25.8755 106.523 29.338Z" fill="#BCBCBC"/>
<path d="M194.478 15.2726C196.43 15.2726 198.176 15.2726 200 15.2726C200 15.8317 200 16.2829 200 16.8027C197.636 16.8027 195.253 16.8027 192.791 16.8027C192.791 12.9675 192.791 9.11268 192.791 5.16957C193.301 5.16957 193.82 5.16957 194.478 5.16957C194.478 8.46531 194.478 11.7807 194.478 15.2726Z" fill="#BCBCBC"/>
<path d="M130.26 19.1761C130.26 19.7156 130.26 20.1374 130.26 20.6671C129.21 20.6671 128.21 20.6671 127.101 20.6671C127.101 24.1001 127.101 27.4155 127.101 30.8191C126.513 30.8191 126.022 30.8191 125.375 30.8191C125.375 27.5136 125.375 24.1786 125.375 20.7161C124.227 20.7161 123.227 20.7161 122.148 20.7161C122.148 20.1472 122.148 19.696 122.148 19.1761C124.826 19.1761 127.513 19.1761 130.26 19.1761Z" fill="#BCBCBC"/>
<path d="M131.564 19.146C132.163 19.146 132.653 19.146 133.242 19.146C133.242 23.0498 133.242 26.8949 133.242 30.8282C132.692 30.8282 132.173 30.8282 131.564 30.8282C131.564 26.9635 131.564 23.1087 131.564 19.146Z" fill="#BCBCBC"/>
<path d="M95.5469 5.15981C96.1648 5.15981 96.6945 5.15981 97.2732 5.15981C97.2732 9.07349 97.2732 12.9185 97.2732 16.8224C96.6847 16.8224 96.155 16.8224 95.5469 16.8224C95.5469 12.9479 95.5469 9.10292 95.5469 5.15981Z" fill="#BCBCBC"/>
<path d="M121.089 5.19887C121.089 9.09294 121.089 12.9183 121.089 16.8124C120.52 16.8124 119.99 16.8124 119.362 16.8124C119.362 12.9968 119.362 9.14198 119.362 5.19887C119.872 5.19887 120.431 5.19887 121.089 5.19887Z" fill="#BCBCBC"/>
<path d="M53.1733 5.14027C53.7619 5.14027 54.2621 5.14027 54.8408 5.14027C54.8408 9.02453 54.8408 12.8794 54.8408 16.8127C54.2915 16.8127 53.7717 16.8127 53.1733 16.8127C53.1733 12.9578 53.1733 9.103 53.1733 5.14027Z" fill="#BCBCBC"/>
<path d="M170.79 16.8223C170.231 16.8223 169.74 16.8223 169.191 16.8223C169.191 12.9185 169.191 9.07345 169.191 5.16957C169.73 5.16957 170.211 5.16957 170.79 5.16957C170.79 9.0244 170.79 12.8596 170.79 16.8223Z" fill="#BCBCBC"/>
</svg>
