<svg width="70" height="70" viewBox="0 0 70 70" fill="none" xmlns="http://www.w3.org/2000/svg">
<path d="M0.00365184 61.5774C0.513084 60.2189 1.4936 59.6456 2.9306 59.7679C3.46925 59.8136 4.01703 59.7752 4.6634 59.7752C4.6634 59.1215 4.6634 58.5172 4.6634 57.9128C4.66523 55.3291 6.04563 53.9377 8.6147 53.925C8.81738 53.925 9.02005 53.925 9.28846 53.925C9.30307 53.673 9.32498 53.4557 9.32498 53.2366C9.32681 48.9292 9.32681 44.6219 9.32681 40.3164C9.32681 39.9749 9.33228 39.7083 8.93789 39.4801C6.28482 37.9354 6.35786 34.5264 9.07666 33.0309C12.9257 30.9147 16.793 28.8331 20.6512 26.7352C21.7504 26.1381 22.8423 25.5228 23.9561 24.9531C24.3468 24.754 24.4984 24.5203 24.5404 24.073C25.0005 19.1284 28.2087 15.4564 32.9396 14.4723C35.4211 13.9555 37.7929 14.3426 40.0041 15.566C40.477 15.8271 40.7966 15.7961 41.2348 15.5496C43.0808 14.5161 44.9432 13.51 46.8093 12.5131C47.1435 12.3341 47.3041 12.1442 47.3279 11.7389C47.474 9.17893 47.9889 6.6902 48.8215 4.26537C49.0753 3.52587 49.4989 2.93975 50.1489 2.50153C51.0929 1.86611 52.0169 1.19965 52.9627 0.56423C54.3193 -0.345079 55.844 -0.151531 56.8647 1.11748C64.2779 10.3256 66.2554 20.5982 62.8592 31.9171C62.4867 33.1588 61.7381 34.0206 60.4197 34.1959C59.0996 34.3712 58.13 33.7558 57.48 32.6274C55.7436 29.611 54.0181 26.5873 52.2889 23.5654C52.1666 23.3499 52.057 23.129 51.9146 22.8606C49.8404 23.7333 47.788 24.5879 45.7503 25.4753C45.5805 25.5483 45.4362 25.8459 45.4088 26.0541C45.177 27.8307 44.5543 29.4503 43.4916 30.8873C43.2141 31.2634 43.163 31.5519 43.3602 31.9883C47.4758 41.0632 51.5768 50.1453 55.6687 59.2329C55.8549 59.6492 56.0759 59.7898 56.5342 59.788C60.1112 59.7661 63.6881 59.7752 67.2651 59.777C69.1221 59.7789 69.9949 60.6444 69.9967 62.4812C69.9985 63.8488 70.004 65.2165 69.9949 66.5823C69.9857 68.1416 69.0363 69.0965 67.4751 69.0965C45.8306 69.1002 24.188 69.0965 2.54351 69.1057C1.24528 69.1057 0.483869 68.4374 0 67.3218C0.00365184 65.4064 0.00365184 63.4928 0.00365184 61.5774ZM67.6376 62.158C45.8471 62.158 24.1113 62.158 2.39013 62.158C2.39013 63.721 2.39013 65.2311 2.39013 66.7301C24.1661 66.7301 45.8854 66.7301 67.6376 66.7301C67.6376 65.2 67.6376 63.7046 67.6376 62.158ZM62.1252 22.0535C62.1379 17.7918 61.3254 13.8752 59.7241 10.1229C58.5829 7.44795 57.0728 4.99392 55.2049 2.76081C54.9548 2.46136 54.7265 2.24043 54.2883 2.47414C51.5585 3.92758 50.8282 4.88984 50.1873 7.95008C50.1544 8.10529 50.1252 8.26231 50.0887 8.41752C49.5464 10.7949 49.6066 12.9878 50.8044 15.3067C53.578 20.6804 56.0375 26.2184 59.3936 31.2781C59.5616 31.53 59.8811 31.6798 60.1294 31.877C60.3047 31.6305 60.5512 31.4077 60.6425 31.1338C61.6358 28.1302 62.1398 25.0425 62.1252 22.0535ZM25.7747 33.88C25.3913 34.0352 25.1831 34.1174 24.9768 34.2032C20.7461 35.9835 16.5191 37.7729 12.2811 39.5312C11.8137 39.7248 11.6403 39.9366 11.6439 40.4588C11.6676 44.7168 11.6585 48.9731 11.6585 53.2311C11.6585 53.4502 11.6585 53.6675 11.6585 53.9469C13.4132 53.7935 14.8904 54.1258 15.8946 55.7436C19.1977 48.4326 22.4497 41.2385 25.7747 33.88ZM37.1758 35.2093C37.2342 35.3444 37.32 35.5525 37.4131 35.757C38.7954 38.8246 40.1794 41.894 41.5635 44.9615C43.7053 49.7089 45.8416 54.4581 47.998 59.1982C48.1021 59.4265 48.3614 59.7423 48.5549 59.7478C50.1179 59.7935 51.6827 59.7734 53.368 59.7734C49.3364 50.8501 45.3468 42.0181 41.3991 33.2793C39.953 33.9402 38.5799 34.5684 37.1758 35.2093ZM28.6012 33.2793C24.6463 42.0364 20.6621 50.8556 16.6323 59.7752C18.1752 59.7752 19.6013 59.7515 21.0273 59.788C21.5568 59.8026 21.8198 59.6511 22.0462 59.1471C25.5538 51.3248 29.0888 43.5136 32.6146 35.6986C32.7023 35.5032 32.768 35.2969 32.8063 35.1965C31.3876 34.5501 30.0328 33.9329 28.6012 33.2793ZM35.0175 32.9068C39.5312 32.9123 43.1885 29.2604 43.1867 24.7486C43.1867 20.2568 39.5111 16.594 35.0011 16.5903C30.5038 16.5867 26.8137 20.2732 26.8264 24.7595C26.8374 29.2622 30.4984 32.9031 35.0175 32.9068ZM24.3286 59.7423C31.4752 59.7423 38.5196 59.7423 45.6681 59.7423C45.1532 58.6066 44.6803 57.5312 44.1672 56.4721C44.107 56.348 43.8386 56.264 43.6651 56.264C37.8806 56.253 32.0961 56.253 26.3097 56.264C26.1399 56.264 25.877 56.3571 25.8167 56.4849C25.3091 57.5421 24.8362 58.6176 24.3286 59.7423ZM26.4375 31.0462C25.8331 29.7516 25.2543 28.51 24.6591 27.23C24.4966 27.314 24.2957 27.4126 24.1003 27.5185C20.6822 29.3754 17.2659 31.2342 13.8496 33.0912C12.5916 33.7759 11.3244 34.4479 10.0754 35.1508C9.39071 35.5361 9.16978 36.1916 9.4528 36.827C9.74312 37.4771 10.4351 37.7363 11.1819 37.4734C11.3098 37.4278 11.4339 37.3675 11.5581 37.3146C15.0346 35.8483 18.513 34.3821 21.9896 32.9177C23.4923 32.2841 24.995 31.6524 26.4375 31.0462ZM26.978 53.8757C32.3699 53.8757 37.6578 53.8757 43.0242 53.8757C42.5257 52.7728 42.0729 51.7357 41.5762 50.7168C41.5032 50.5689 41.2275 50.4375 41.0431 50.4356C37.0133 50.4192 32.9834 50.4192 28.9555 50.4356C28.771 50.4356 28.4935 50.5653 28.4205 50.7132C27.9275 51.7339 27.4746 52.7728 26.978 53.8757ZM50.9067 20.748C49.8915 18.6354 48.9201 16.6141 47.9304 14.5526C46.1228 15.535 44.3717 16.4881 42.5549 17.4741C44.0631 19.0791 44.9578 20.9342 45.3741 23.0778C47.2512 22.2872 49.0461 21.5313 50.9067 20.748ZM29.611 48.0382C33.2373 48.0382 36.7649 48.0382 40.3821 48.0382C39.8854 46.9353 39.4363 45.8964 38.9433 44.8812C38.872 44.7351 38.589 44.6182 38.4028 44.6164C36.1277 44.5982 33.8526 44.6 31.5775 44.6146C31.4022 44.6164 31.132 44.7022 31.0699 44.83C30.5714 45.8672 30.1113 46.9226 29.611 48.0382ZM13.9884 59.7332C13.9884 58.9499 14.0085 58.2049 13.9829 57.4618C13.9573 56.7131 13.5301 56.2768 12.7796 56.264C11.2586 56.2402 9.73581 56.2457 8.21482 56.2621C7.56662 56.2694 7.09371 56.6218 7.03345 57.2664C6.96041 58.0698 7.01519 58.886 7.01519 59.7314C9.3542 59.7332 11.6348 59.7332 13.9884 59.7332ZM32.2257 42.2372C34.1082 42.2372 35.8885 42.2372 37.771 42.2372C36.8526 40.2032 35.9652 38.2312 35.0011 36.0967C34.0388 38.2275 33.1478 40.1977 32.2257 42.2372Z" fill="#0E2240"/>
<path d="M59.5034 52.8349C55.5155 52.8404 52.7292 48.9931 54.0347 45.2263C54.8911 42.754 56.2733 40.5537 57.8162 38.4612C58.605 37.3912 60.2356 37.2799 61.0371 38.3152C62.8375 40.645 64.4553 43.1228 65.1783 46.0132C66.0347 49.4368 63.1424 52.8294 59.5034 52.8349ZM59.4997 40.0717C58.1522 42.0273 56.9361 43.9609 56.1857 46.1465C55.7328 47.4648 56.2532 48.8982 57.4236 49.7582C58.6178 50.6365 60.3579 50.6383 61.5721 49.7619C62.7352 48.9201 63.2757 47.4648 62.8247 46.1575C62.0706 43.9773 60.8582 42.04 59.4997 40.0717Z" fill="#0E2240"/>
<path d="M34.9881 30.5769C31.7964 30.5568 29.1598 27.9129 29.1616 24.7321C29.1634 21.4984 31.8056 18.8837 35.0502 18.9038C38.2273 18.9239 40.8366 21.5313 40.8402 24.6938C40.8439 27.9275 38.1872 30.597 34.9881 30.5769ZM35.0082 28.2416C36.9309 28.2379 38.4811 26.7041 38.503 24.7833C38.5249 22.8606 36.9236 21.2483 34.9954 21.2538C33.091 21.2574 31.5262 22.8149 31.5006 24.7303C31.4732 26.6585 33.0581 28.2452 35.0082 28.2416Z" fill="#0E2240"/>
</svg>
