<svg width="70" height="70" viewBox="0 0 70 70" fill="none" xmlns="http://www.w3.org/2000/svg">
<path d="M0.685187 70C0.221267 69.6621 -0.162289 69.2749 0.069671 68.6393C0.297978 68.0128 0.825824 67.9215 1.41029 67.9471C1.81759 67.9635 2.22671 67.9507 2.73812 67.9507C2.73812 67.2274 2.73812 66.5316 2.73812 65.8357C2.73812 65.0832 2.72168 64.3307 2.74543 63.58C2.76552 62.9499 3.20752 62.5134 3.76642 62.5134C4.32714 62.5152 4.77097 62.9499 4.78193 63.5818C4.80202 64.7654 4.78923 65.9507 4.78923 67.1361C4.78923 67.3809 4.78923 67.6274 4.78923 67.9124C7.75357 67.9124 10.6595 67.9124 13.6786 67.9124C13.6786 67.7133 13.6786 67.4977 13.6786 67.2822C13.6786 65.7097 13.6731 64.1389 13.6804 62.5663C13.6877 61.1873 14.4073 60.4659 15.7973 60.4604C17.779 60.4513 19.7607 60.4495 21.7442 60.4604C23.0994 60.4677 23.8081 61.1782 23.8172 62.528C23.8282 64.3015 23.8191 66.0749 23.8191 67.8996C26.7889 67.8996 29.7112 67.8996 32.6719 67.8996C32.6719 63.2531 32.6719 58.6194 32.6719 53.9436C23.3752 53.9436 14.1169 53.9436 4.79106 53.9436C4.79106 55.1619 4.79106 56.3399 4.79106 57.5198C4.79106 58.1353 4.80384 64.0786 4.78558 64.6923C4.76549 65.3498 4.38011 65.759 3.79929 65.7754C3.18743 65.7918 2.75456 65.3754 2.74725 64.6887C2.73082 63.1398 2.74178 56.2632 2.73995 54.7144C2.73995 54.4696 2.73995 54.2249 2.73995 53.9929C1.37924 53.7518 1.045 53.5162 1.06692 52.8478C1.08883 52.1994 1.42125 51.9802 2.73995 51.7793C2.73995 50.972 2.74725 50.1556 2.73812 49.3373C2.70707 46.0862 3.55455 43.089 5.30247 40.342C5.46137 40.0918 5.55452 39.7539 5.55634 39.4562C5.56913 31.323 5.56913 23.1898 5.55634 15.0566C5.55634 14.7917 5.43397 14.4958 5.28603 14.2675C4.98832 13.8073 4.98466 13.4 5.2842 12.9397C5.43214 12.7114 5.54356 12.4192 5.55452 12.1525C5.58922 11.3342 5.55269 10.5123 5.57278 9.69226C5.60931 8.30233 6.50245 7.39276 7.89603 7.35257C8.93711 7.32335 9.98002 7.3471 11.0978 7.3471C11.0978 6.67679 11.096 6.09049 11.0978 5.5042C11.1124 2.21476 13.3078 0.00657173 16.5827 0.00474527C29.2016 -0.000734096 41.8243 -0.000734096 54.4451 0.00109236C57.7345 0.00109236 59.9098 2.18188 59.9117 5.49507C59.9171 17.5698 59.9135 29.6445 59.9135 41.7192C59.9135 42.0132 59.9135 42.3055 59.9135 42.5831C61.6687 43.047 62.1856 43.7155 62.1618 45.531C62.1545 46.1374 62.1966 46.5282 62.9198 46.7857C63.4495 46.9739 63.95 47.5437 64.2312 48.0679C64.7353 49.0031 65.0458 50.0405 65.4787 51.0158C65.5901 51.2697 65.8184 51.5199 66.0577 51.6569C66.6714 52.0076 66.907 52.6615 66.4577 53.1948C66.1892 53.5126 66.2275 53.7683 66.275 54.119C66.4358 55.3372 66.6239 57.5892 66.7243 58.813C66.3426 62.9426 66.412 60.097 65.7782 60.1371C65.1043 60.1791 64.7481 59.7499 64.6787 58.886C64.5983 57.8888 64.4486 55.8614 64.3299 54.8678C64.2824 54.466 64.1655 54.0733 64.0687 53.6185C63.8148 53.6185 63.592 53.6185 63.3673 53.6185C59.0167 53.6185 54.6643 53.6295 50.3136 53.6039C49.7365 53.6003 49.5575 53.7719 49.4424 54.3327C48.5328 58.7655 49.3036 64.0713 51.4753 67.9288C52.8725 67.9288 54.2825 67.9288 55.804 67.9288C55.804 67.4758 55.7967 67.032 55.8058 66.59C55.8241 65.7973 56.2204 65.3389 56.8633 65.3535C57.477 65.3681 57.8405 65.8101 57.8514 66.5736C57.8587 67.0028 57.8532 67.4302 57.8532 67.9471C59.2669 67.9471 60.6258 67.9635 61.9829 67.9251C62.1491 67.9197 62.3883 67.6493 62.4577 67.4539C63.0751 65.6749 64.5125 62.5755 64.602 60.696C64.8741 54.9628 65.1609 57.2897 65.4239 59.8486C65.6924 59.7609 66.3572 60.5554 66.4011 60.2303C66.6805 58.15 66.8084 56.6285 66.5508 61.1764C66.0668 62.9481 65.2084 66.1151 64.6677 67.9471C65.9079 67.9471 67.2339 67.9726 68.5581 67.9361C69.1864 67.9178 69.6686 68.0877 69.9973 68.6302C69.9973 69.0849 69.9973 69.5415 69.9973 69.9963C46.8963 70 23.7898 70 0.685187 70ZM57.8642 42.6269C57.8642 42.3274 57.8642 42.1009 57.8642 41.8726C57.8642 29.776 57.866 17.6794 57.8624 5.58274C57.8624 3.27227 56.6313 2.05038 54.3172 2.05038C46.8909 2.05038 39.4645 2.05038 32.0381 2.05038C26.8437 2.05038 21.6511 2.04672 16.4566 2.0522C14.7215 2.05403 13.4265 3.09328 13.211 4.74988C13.1051 5.56995 13.1928 6.4156 13.1928 7.23568C13.264 7.27221 13.3042 7.30874 13.3443 7.31057C14.232 7.32335 15.1197 7.31605 16.0073 7.34527C17.4374 7.39093 18.3269 8.2932 18.3616 9.72879C18.3799 10.5032 18.3379 11.2795 18.3799 12.052C18.3963 12.3644 18.5187 12.695 18.6758 12.9689C18.9333 13.4164 18.9297 13.8036 18.663 14.2456C18.5114 14.4977 18.3835 14.8118 18.3835 15.0986C18.3781 17.7634 18.4036 20.4282 18.4219 23.0948C18.4237 23.2921 18.4493 23.4911 18.4657 23.7194C22.4419 23.7194 26.3706 23.7194 30.3925 23.7194C30.3925 22.6893 30.4199 21.6939 30.3779 20.7003C30.3633 20.3442 30.1459 20.0008 30.0893 19.641C30.0308 19.283 30.0071 18.9031 30.0582 18.5451C30.1203 18.1195 30.3413 17.7141 30.3779 17.2885C30.4345 16.6328 30.3834 15.968 30.3961 15.3086C30.4254 13.7616 31.3276 12.8484 32.8637 12.81C33.4098 12.7972 33.9577 12.8064 34.5038 12.8064C34.9239 12.8064 35.344 12.8064 35.8006 12.8064C35.8006 11.9498 35.7988 11.2228 35.8006 10.4959C35.8061 7.7544 37.3787 6.18912 40.1366 6.18912C43.9868 6.1873 47.837 6.1873 51.6871 6.18912C54.478 6.19095 56.056 7.7617 56.056 10.5416C56.056 20.9743 56.056 31.4088 56.056 41.8415C56.056 42.1045 56.056 42.3657 56.056 42.6269C56.6989 42.6269 57.2396 42.6269 57.8642 42.6269ZM54.0049 42.6214C54.0049 42.3511 54.0049 42.1265 54.0049 41.9018C54.0049 31.4435 54.0049 20.9871 54.0049 10.5288C54.0049 8.9215 53.3273 8.24023 51.7237 8.23841C49.1484 8.23475 46.5749 8.23658 43.9996 8.23841C42.6096 8.23841 41.2197 8.22379 39.8298 8.24389C38.7723 8.26032 37.9558 8.88132 37.8901 9.7982C37.8207 10.768 37.8736 11.747 37.8736 12.6986C37.9558 12.7443 37.9942 12.7826 38.0344 12.7845C38.9914 12.7972 39.9485 12.7845 40.9037 12.8192C42.2827 12.8685 43.1905 13.8036 43.2124 15.1771C43.2252 15.9734 43.1905 16.7734 43.2288 17.5679C43.2434 17.8565 43.3585 18.1688 43.5119 18.4172C43.7841 18.8574 43.7914 19.2446 43.532 19.6921C43.3731 19.9643 43.2306 20.2985 43.2306 20.6035C43.216 32.0189 43.2179 43.4324 43.2197 54.8477C43.2197 55.087 43.2416 55.3263 43.2526 55.5692C44.5968 55.5692 45.8626 55.5692 47.1539 55.5692C47.2105 55.2203 47.2543 54.9062 47.3164 54.5938C47.4278 54.0423 47.5612 53.5418 47.1192 53.0048C46.7776 52.5902 47.0552 51.8998 47.5904 51.708C48.0013 51.5619 48.1237 51.2934 48.257 50.9428C48.6296 49.9656 49.0242 48.9976 49.4333 48.035C49.7255 47.3501 50.2406 46.846 50.9547 46.6652C51.4387 46.5428 51.5976 46.3346 51.5337 45.8725C51.5063 45.6716 51.5282 45.4634 51.5301 45.2588C51.5337 43.6022 52.2752 42.7876 54.0049 42.6214ZM32.6482 51.814C33.2162 45.2132 31.1979 39.8544 25.2072 36.7055C19.9159 33.9257 14.6758 34.5083 9.97819 38.2197C5.59653 41.6808 4.35819 46.4478 4.86046 51.8121C14.1425 51.814 23.3844 51.814 32.6482 51.814ZM16.2685 14.6639C13.3918 14.6639 10.5371 14.6639 7.66225 14.6639C7.66225 15.7817 7.66225 16.8611 7.66225 18.0154C8.40744 18.0154 9.11428 17.9625 9.8065 18.0373C10.1462 18.0739 10.5718 18.2675 10.7672 18.5305C11.2567 19.1898 10.7161 20.019 9.7992 20.0556C9.08323 20.0848 8.3636 20.0611 7.66407 20.0611C7.66407 22.5633 7.66407 24.945 7.66407 27.3303C10.5645 27.3303 13.4174 27.3303 16.2722 27.3303C16.2722 24.892 16.2722 22.5122 16.2722 20.0611C15.5525 20.0611 10.0805 20.0738 9.40286 20.0574C8.65401 20.0391 8.2047 19.641 8.20288 19.0291C8.19922 18.4172 8.65036 18.0264 9.39738 18.0136C10.075 18.0026 15.5471 18.0118 16.2685 18.0118C16.2685 16.8593 16.2685 15.7817 16.2685 14.6639ZM32.4637 38.8553C32.4527 39.8397 32.3979 40.7091 32.8966 41.6041C33.4646 42.6233 33.8609 43.7593 34.186 44.8862C34.5038 45.9858 34.6372 47.1401 34.8527 48.2816C36.9257 48.2816 39.0079 48.2816 41.1174 48.2816C41.1174 45.1218 41.1174 42.0004 41.1174 38.8553C38.2316 38.8553 35.3933 38.8553 32.4637 38.8553ZM32.4454 36.7366C35.4098 36.7366 38.2645 36.7366 41.1156 36.7366C41.1156 34.2928 41.1156 31.8947 41.1156 29.4399C40.8197 29.4399 40.5731 29.4399 40.3266 29.4399C38.1421 29.4399 35.9577 29.4399 33.7733 29.4399C32.4454 29.4399 32.4454 29.4399 32.4454 30.7677C32.4454 32.7421 32.4454 34.7184 32.4454 36.7366ZM32.4838 20.1323C32.4838 22.5487 32.4838 24.9249 32.4838 27.3322C35.3897 27.3322 38.2572 27.3322 41.1211 27.3322C41.1211 24.8975 41.1211 22.5213 41.1211 20.1323C38.2243 20.1323 35.3696 20.1323 32.4838 20.1323ZM18.4073 33.0179C23.0739 32.9942 27.0044 34.6563 30.3395 37.953C30.3395 34.9795 30.3395 32.1504 30.3395 29.292C26.3469 29.292 22.3963 29.292 18.4073 29.292C18.4073 30.5212 18.4073 31.7175 18.4073 33.0179ZM7.66407 37.4818C10.1645 35.1494 13.0138 33.754 16.263 33.1987C16.263 31.9312 16.263 30.7184 16.263 29.4983C13.3626 29.4983 10.5152 29.4983 7.66407 29.4983C7.66407 32.1595 7.66407 34.7567 7.66407 37.4818ZM41.1467 61.1654C38.9969 61.1654 36.9148 61.1654 34.818 61.1654C34.818 63.443 34.818 65.6804 34.818 67.8996C36.9604 67.8996 39.0462 67.8996 41.1467 67.8996C41.1467 65.6439 41.1467 63.4375 41.1467 61.1654ZM63.5153 51.5272C63.1189 50.6012 62.7792 49.7373 62.3701 48.9081C62.2787 48.7254 61.9354 48.5684 61.7071 48.5665C58.4523 48.5446 55.1958 48.5465 51.9392 48.5629C51.7401 48.5647 51.4314 48.6707 51.3602 48.8186C50.9419 49.6862 50.5785 50.5793 50.1712 51.5254C54.677 51.5272 59.035 51.5272 63.5153 51.5272ZM21.7387 62.5627C19.6913 62.5627 17.726 62.5627 15.7772 62.5627C15.7772 64.3855 15.7772 66.1498 15.7772 67.8996C17.7954 67.8996 19.7643 67.8996 21.7387 67.8996C21.7387 66.0987 21.7387 64.3489 21.7387 62.5627ZM48.984 67.9215C48.3265 65.6585 47.6781 63.4248 47.026 61.1782C45.826 61.1782 44.542 61.1782 43.258 61.1782C43.258 63.454 43.258 65.6749 43.258 67.9215C45.2087 67.9215 47.1173 67.9215 48.984 67.9215ZM34.7924 55.5673C36.9348 55.5673 39.0188 55.5673 41.1247 55.5673C41.1247 53.8304 41.1247 52.1354 41.1247 50.4186C38.9987 50.4186 36.9148 50.4186 34.8052 50.4186C34.8052 50.9081 34.8052 51.3482 34.8052 51.7848C36.0344 51.9601 36.4508 52.1939 36.4527 52.8057C36.4563 53.9089 35.5924 53.9071 34.7924 53.9327C34.7924 54.497 34.7924 54.992 34.7924 55.5673ZM32.4491 17.9953C35.4098 17.9953 38.2663 17.9953 41.1649 17.9953C41.1649 17.0638 41.1868 16.1798 41.1448 15.2977C41.1375 15.1461 40.8581 14.8812 40.701 14.8794C38.1074 14.8538 35.5139 14.852 32.9203 14.8794C32.7614 14.8812 32.4783 15.1497 32.471 15.305C32.4253 16.1853 32.4491 17.0693 32.4491 17.9953ZM7.62024 12.5342C10.5736 12.5342 13.4119 12.5342 16.3142 12.5342C16.3142 11.6119 16.3361 10.7279 16.2941 9.84569C16.2868 9.68861 16.0146 9.41282 15.863 9.41099C13.2658 9.38359 10.6686 9.38359 8.0732 9.41099C7.9216 9.41282 7.64946 9.68679 7.64216 9.84386C7.59832 10.7242 7.62024 11.61 7.62024 12.5342ZM46.9877 57.708C42.9001 57.708 38.8636 57.708 34.8015 57.708C34.8015 58.1737 34.8015 58.592 34.8015 59.0321C38.8837 59.0321 42.9201 59.0321 46.9877 59.0321C46.9877 58.5901 46.9877 58.1883 46.9877 57.708ZM18.4511 27.1678C22.4675 27.1678 26.3999 27.1678 30.3486 27.1678C30.3486 26.7094 30.3486 26.2911 30.3486 25.86C26.356 25.86 22.409 25.86 18.4511 25.86C18.4511 26.3203 18.4511 26.724 18.4511 27.1678ZM53.6634 46.446C55.8204 46.446 57.9464 46.446 60.1217 46.446C60.1217 46.0771 60.0906 45.7575 60.129 45.447C60.2057 44.826 59.9372 44.678 59.3509 44.6945C57.9409 44.7346 56.5291 44.7072 55.119 44.7072C53.446 44.7072 53.446 44.7072 53.6067 46.3711C53.6067 46.3894 53.6305 46.4058 53.6634 46.446Z" fill="#0E2240"/>
<path d="M18.7614 48.3163C16.9368 48.3236 15.4336 46.888 15.4263 45.0615C15.419 43.4999 15.9688 42.1173 17.019 40.9684C17.9469 39.9529 19.2162 39.8123 20.1751 40.6908C21.5943 41.9894 22.2792 43.6533 22.0217 45.5839C21.8062 47.1893 20.3852 48.309 18.7614 48.3163ZM17.3076 44.7693C17.3642 44.7949 17.419 44.8222 17.4756 44.8478C17.4537 45.6679 17.9578 46.2378 18.7176 46.256C19.4719 46.2743 20.1806 45.6661 20.0272 44.93C19.85 44.0844 19.4573 43.2752 19.1012 42.4771C18.9459 42.1319 18.5989 42.1191 18.4144 42.4698C18.0181 43.2223 17.6729 44.0022 17.3076 44.7693Z" fill="#0E2240"/>
</svg>
