<svg width="70" height="70" viewBox="0 0 70 70" fill="none" xmlns="http://www.w3.org/2000/svg">
<path d="M1.91032 69.9964C1.27415 69.9964 0.636165 69.9964 0 69.9964C0 69.4951 0 68.9938 0 68.4925C0.267955 68.0532 0.576012 67.6668 1.15567 67.6704C2.30587 67.6759 3.19176 67.1327 3.9537 66.3234C4.48414 65.7601 5.04193 65.2242 5.55049 64.6427C5.70908 64.4604 5.81845 64.1688 5.82209 63.9264C5.84214 61.8319 5.83485 59.7393 5.83121 57.6449C5.83121 57.4936 5.78928 57.3423 5.76012 57.1528C4.95625 57.1528 4.1852 57.171 3.41415 57.1491C2.07802 57.109 1.0864 56.4728 0.424717 55.319C0.258841 55.031 0.140357 54.7156 0.00182282 54.4112C0.00182282 53.1808 0.00182282 51.9504 0.00182282 50.72C0.324462 49.7211 0.798396 48.8079 1.77361 48.323C2.24572 48.0879 2.33868 47.8071 2.33686 47.3259C2.32227 38.8042 2.32957 30.2825 2.31863 21.7627C2.31863 21.338 2.24754 20.9005 2.13452 20.4903C1.60226 18.5618 1.02807 16.6442 0.49763 14.7138C0.0601531 13.1243 1.05177 11.7681 2.69413 11.6624C2.93839 11.646 3.18447 11.6606 3.50346 11.6606C3.50346 11.3361 3.50346 11.09 3.50346 10.8458C3.50346 9.22895 3.49435 7.61028 3.50893 5.99344C3.51622 5.17681 3.98104 4.66642 4.66278 4.67007C5.33905 4.67372 5.80933 5.1914 5.82938 6.00073C5.84761 6.79366 5.83303 7.59205 5.83303 8.39045C5.83303 9.45498 5.83303 10.5177 5.83303 11.5986C6.64419 11.5986 7.37696 11.5986 8.16989 11.5986C8.16989 10.7492 8.14619 9.95625 8.17536 9.16333C8.23733 7.36785 9.65366 5.93693 11.4473 5.86037C12.2421 5.82574 13.0386 5.83668 13.8352 5.84761C16.0153 5.87496 17.4517 7.32592 17.4663 9.50784C17.4717 10.206 17.4663 10.9041 17.4663 11.5986C18.2865 11.5986 19.0211 11.5986 19.7904 11.5986C19.7904 9.81407 19.7904 8.08421 19.7904 6.35618C19.7904 5.25155 20.1768 4.68283 20.9369 4.66642C21.7189 4.65002 22.1145 5.22603 22.1163 6.38352C22.1163 7.90922 22.1163 9.43675 22.1163 10.9625C22.1163 11.1794 22.1163 11.3963 22.1163 11.6551C22.4244 11.6551 22.6285 11.6533 22.8308 11.6551C24.7485 11.6697 25.6252 12.5465 25.6289 14.4568C25.6307 15.9825 25.6289 17.51 25.6289 19.0357C25.6289 21.09 25.2479 21.626 23.3613 22.2494C23.3613 28.8243 23.3613 35.3919 23.3613 41.9577C24.7065 42.0397 24.7065 42.0397 24.9508 41.0572C26.5549 34.6117 28.1517 28.1662 29.7721 21.7262C29.9435 21.0445 30.113 20.4502 29.4933 19.8852C29.2855 19.6956 29.1925 19.3164 29.1615 19.012C29.0995 18.4032 29.1305 17.7853 29.0977 17.171C29.0303 15.9442 29.2362 14.8432 30.4429 14.2162C28.7167 11.6132 28.6894 9.33103 30.3281 7.13817C30.6143 6.75538 30.9242 6.39081 31.2413 6.03354C32.2293 4.92344 32.2858 3.73132 31.6424 2.42982C31.0572 1.24499 31.2322 0.705432 32.3405 0C32.6139 0 32.8855 0 33.159 0C35.8987 1.26868 37.9202 3.32483 39.393 5.90777C40.9369 8.61466 41.482 11.3945 39.5789 13.9974C39.9872 14.7029 40.5432 15.2953 40.6635 15.9643C40.8421 16.9541 40.7364 18.0022 40.6981 19.023C40.6872 19.3219 40.5742 19.7029 40.3664 19.8943C39.774 20.4393 39.8469 21.0226 40.0893 21.6715C40.1768 21.903 40.206 22.1582 40.2661 22.4007C40.6872 24.0868 41.1119 25.7711 41.5567 27.5465C41.8702 27.304 42.1017 27.1272 42.3296 26.9486C48.7787 21.8684 55.2242 16.7864 61.6788 11.7116C63.8206 10.0273 66.5421 10.1203 68.3759 11.914C70.2151 13.7113 70.3627 16.4182 68.7331 18.6201C68.0696 19.517 67.3715 20.3864 66.7426 21.307C66.5294 21.6187 66.3781 22.0452 66.3762 22.4189C66.3562 30.6398 66.3598 38.8626 66.3598 47.0835C66.3598 47.3241 66.3598 47.5647 66.3598 47.7871C68.7824 48.1681 69.8596 49.4368 69.8615 51.7991C69.8615 52.3004 69.8615 52.8017 69.8615 53.303C69.8578 55.7474 68.4542 57.1546 66.0135 57.16C65.3664 57.1619 64.7193 57.16 64.0303 57.16C64.0303 59.5498 64.0248 61.8246 64.0412 64.0995C64.043 64.2782 64.1579 64.4878 64.2836 64.6263C64.8524 65.2461 65.4429 65.8476 66.0281 66.451C66.7536 67.1965 67.6066 67.6504 68.673 67.6868C68.9446 67.696 69.2636 67.8199 69.4714 67.9949C70.1349 68.5563 69.9471 69.3693 69.043 70C68.6785 70 68.3157 70 67.9511 70C66.1812 69.5789 64.6555 68.7696 63.5691 67.2494C63.4251 67.047 63.2355 66.8775 63.0623 66.6971C61.2924 64.8487 59.2034 64.8487 57.4298 66.6971C57.2876 66.8447 57.1345 66.9832 57.0142 67.1473C55.8841 68.6766 54.3456 69.5516 52.5319 70C52.0324 70 51.5312 70 51.0317 70C50.9533 69.9599 50.8786 69.9016 50.7948 69.8852C49.1633 69.5716 47.86 68.7331 46.8265 67.4371C46.502 67.0306 46.1374 66.6478 45.7547 66.296C44.3347 65 42.4462 64.9818 41.008 66.265C40.5523 66.6715 40.1476 67.14 39.7539 67.6085C38.8644 68.6657 37.7725 69.3967 36.4382 69.763C36.2049 69.8268 35.9789 69.918 35.7492 69.9964C35.2042 69.9964 34.6573 69.9964 34.1123 69.9964C32.6796 69.5935 31.3325 69.0357 30.319 67.8801C29.9745 67.4863 29.6464 67.0798 29.2873 66.7007C27.5118 64.8341 25.4466 64.8396 23.6602 66.7098C23.5035 66.8739 23.3267 67.0252 23.1972 67.2093C22.1181 68.7331 20.5997 69.5607 18.8298 69.9964C18.3303 69.9964 17.829 69.9964 17.3296 69.9964C15.3354 69.5662 13.7824 68.4652 12.5611 66.8556C12.4936 66.7663 12.4079 66.6879 12.3296 66.6059C10.6453 64.8815 8.57273 64.8761 6.89027 66.5913C6.79548 66.6879 6.69158 66.7809 6.61137 66.8903C5.42289 68.5016 3.88808 69.5862 1.91032 69.9964ZM58.1918 44.3201C57.8163 44.3201 57.5228 44.3201 57.2293 44.3201C43.0879 44.3201 22.1017 44.3201 7.96209 44.3201C7.71236 44.3201 7.46081 44.3274 7.21108 44.3164C6.44185 44.2873 5.96974 43.8407 5.97339 43.1571C5.97703 42.4882 6.46373 42.0124 7.22384 41.9942C8.13343 41.9723 15.8877 41.9887 16.7973 41.9869C18.1571 41.9869 19.5188 41.9869 20.9205 41.9869C20.9205 39.2545 20.9205 36.5822 20.9205 33.8261C20.6343 33.8261 20.3901 33.8261 20.1458 33.8261C18.8735 33.8243 17.5993 33.8498 16.327 33.817C14.9435 33.7805 14.0139 32.8782 13.9756 31.4947C13.9318 29.9471 13.9318 28.3959 13.9756 26.8483C14.0157 25.4138 14.9927 24.5078 16.4455 24.4914C17.7178 24.4769 18.992 24.4896 20.2643 24.486C20.4812 24.486 20.6981 24.4604 20.9223 24.4459C20.9223 23.6621 20.9223 22.9439 20.9223 22.2074C15.4849 22.2074 10.0911 22.2074 4.68465 22.2074C4.68465 22.9767 4.68465 23.6949 4.68465 24.4878C4.96354 24.4878 5.20598 24.4878 5.45024 24.4878C6.72257 24.4878 7.99672 24.4677 9.26905 24.4951C10.638 24.5242 11.5968 25.4648 11.6205 26.8174C11.6478 28.4105 11.6515 30.0073 11.615 31.6004C11.5877 32.8308 10.6908 33.7331 9.45133 33.8061C8.63471 33.8534 7.81444 33.8243 6.99599 33.8279C6.22858 33.8298 5.463 33.8279 4.69923 33.8279C4.69923 36.5986 4.69923 39.2727 4.69923 41.9887C5.8385 41.9887 6.92855 41.9741 8.01859 41.9942C8.82428 42.0088 9.31097 42.4882 9.29457 43.1954C9.27816 43.8808 8.81517 44.3055 8.02406 44.3164C6.91761 44.331 5.81298 44.3201 4.69741 44.3201C4.69741 45.5396 4.69741 46.6642 4.69741 47.7889C22.5538 47.7889 40.3627 47.7889 58.1918 47.7889C58.1918 46.6278 58.1918 45.5213 58.1918 44.3201ZM34.8542 54.8268C43.9464 54.8268 53.0386 54.8268 62.1309 54.8268C63.4944 54.8268 64.8578 54.8359 66.2231 54.8232C67.0817 54.8159 67.5118 54.3748 67.5337 53.5108C67.5465 53.0095 67.5374 52.5082 67.5374 52.0069C67.5374 50.4521 67.2585 50.1677 65.7255 50.1677C45.2005 50.1677 24.6755 50.1677 4.14874 50.1677C3.94459 50.1677 3.73861 50.1604 3.53445 50.1713C2.79985 50.2096 2.36055 50.6362 2.33139 51.3799C2.30952 51.9486 2.32592 52.5191 2.32592 53.0879C2.32592 54.5042 2.64127 54.825 4.0339 54.825C14.3073 54.8268 24.5808 54.8268 34.8542 54.8268ZM46.9832 41.9869C48.0131 42.3587 48.6329 41.6132 49.3019 40.7127C54.63 33.5363 59.9964 26.389 65.35 19.2326C65.9224 18.467 66.5257 17.7233 67.0543 16.9304C68.086 15.3773 67.315 13.3485 65.545 12.9129C64.5826 12.6759 63.7787 13.0131 63.0222 13.611C56.2596 18.9482 49.4914 24.28 42.7087 29.5935C42.2822 29.9271 42.1892 30.2114 42.3223 30.7255C43.1517 33.9373 43.9482 37.16 44.7503 40.3792C45.1495 41.9869 45.1422 41.9869 46.9832 41.9869ZM18.6657 67.5884C19.9417 67.2621 20.7856 66.5312 21.5093 65.5797C24.074 62.2147 28.7277 62.1728 31.3781 65.4575C31.79 65.9679 32.2439 66.4601 32.747 66.8793C34.0102 67.9311 35.7382 67.9584 37.0197 66.9286C37.5629 66.4911 38.0405 65.9552 38.4834 65.4138C39.7065 63.9227 41.2395 63.0623 43.1808 63.015C45.3664 62.9621 47.0999 63.8589 48.3795 65.6234C49.0813 66.5913 49.9417 67.2949 51.1775 67.5757C51.1775 64.0722 51.1775 60.6453 51.1775 57.2001C40.319 57.2001 29.5078 57.2001 18.6657 57.2001C18.6657 60.6544 18.6657 64.0649 18.6657 67.5884ZM51.2413 41.9869C53.5509 41.9869 55.6854 41.9851 57.8217 41.9869C59.6373 41.9887 60.5523 42.9001 60.5578 44.7084C60.5614 45.7273 60.5578 46.7444 60.5578 47.7835C61.7499 47.7835 62.8673 47.7835 63.961 47.7835C63.961 40.1969 63.961 32.6631 63.961 24.9891C59.6919 30.6945 55.514 36.2778 51.2413 41.9869ZM2.71783 14.0321C3.22093 15.7893 3.73314 17.479 4.17426 19.1888C4.31097 19.7193 4.53883 19.8414 5.05468 19.8396C10.8932 19.8214 16.7317 19.8287 22.5702 19.8268C22.7907 19.8268 23.0095 19.8068 23.2446 19.7958C23.2446 17.8509 23.2446 15.9552 23.2446 14.0339C16.3945 14.0321 9.59351 14.0321 2.71783 14.0321ZM8.20999 57.1965C8.20999 59.2016 8.20999 61.1648 8.20999 63.128C10.8987 62.7014 13.0095 63.5891 14.6701 65.6726C15.0948 66.2049 15.6362 66.646 16.2577 67.2603C16.2577 63.7623 16.2577 60.4995 16.2577 57.1983C13.5746 57.1965 10.9278 57.1965 8.20999 57.1965ZM53.5928 67.0033C53.6766 67.0634 53.7605 67.1236 53.8443 67.1819C54.3347 66.626 54.8451 66.0846 55.3099 65.5086C56.3689 64.1943 57.7087 63.3412 59.373 63.097C60.1148 62.9876 60.8877 63.0787 61.6606 63.0787C61.6606 61.1247 61.6606 59.1779 61.6606 57.202C58.9555 57.202 56.2887 57.202 53.5928 57.202C53.5928 60.5013 53.5928 63.7532 53.5928 67.0033ZM34.3857 3.48159C34.4349 5.50128 33.6985 6.98505 32.4134 8.27014C31.7207 8.96281 31.3635 9.86876 31.4728 10.8804C31.6843 12.84 33.3467 14.1524 35.3427 13.961C37.1764 13.786 38.5709 12.0835 38.4014 10.1878C38.148 7.38243 36.4564 5.42836 34.3857 3.48159ZM30.9661 41.8319C30.9734 41.8739 30.9825 41.914 30.9898 41.9559C34.8797 41.9559 38.7714 41.9559 42.7415 41.9559C42.3004 40.1932 41.8702 38.4743 41.4218 36.6879C37.8746 38.4342 34.4203 40.1331 30.9661 41.8319ZM38.6675 25.6398C38.2975 24.1487 37.9566 22.7397 37.5829 21.338C37.5465 21.2012 37.3095 21.0262 37.1637 21.0244C35.6635 21.0026 34.1633 21.0044 32.6631 21.0244C32.5319 21.0262 32.3186 21.183 32.2876 21.3051C31.9121 22.7269 31.564 24.1579 31.194 25.6398C33.7076 25.6398 36.1301 25.6398 38.6675 25.6398ZM37.9676 33.7933C37.9821 33.7477 37.9985 33.7003 38.0131 33.6548C35.5086 32.0179 33.004 30.3828 30.4247 28.6967C29.9964 30.4211 29.5844 32.078 29.1579 33.7933C32.171 33.7933 35.0693 33.7933 37.9676 33.7933ZM16.3434 31.4419C17.8837 31.4419 19.3875 31.4419 20.9114 31.4419C20.9114 29.887 20.9114 28.3795 20.9114 26.852C19.3675 26.852 17.8801 26.852 16.3434 26.852C16.3434 28.3941 16.3434 29.9034 16.3434 31.4419ZM4.69012 26.8556C4.69012 28.4324 4.69012 29.9234 4.69012 31.44C6.23405 31.44 7.7397 31.44 9.249 31.44C9.249 29.8852 9.249 28.3795 9.249 26.8556C7.70689 26.8556 6.21947 26.8556 4.69012 26.8556ZM36.8447 36.3398C36.8356 36.2833 36.8265 36.2286 36.8192 36.1721C34.1688 36.1721 31.5166 36.1648 28.8662 36.1903C28.7277 36.1921 28.5144 36.4382 28.4652 36.6077C28.2282 37.4371 28.035 38.2793 27.8272 39.1159C27.6832 39.6938 27.5428 40.2734 27.3642 41.0044C30.6343 39.3966 33.7386 37.8691 36.8447 36.3398ZM31.4655 18.611C33.8279 18.611 36.1065 18.611 38.3832 18.611C38.3832 17.8345 38.3832 17.1199 38.3832 16.3762C36.0572 16.3762 33.7805 16.3762 31.4655 16.3762C31.4655 17.14 31.4655 17.8545 31.4655 18.611ZM15.1331 11.6205C15.1331 10.7984 15.1695 10.0292 15.1221 9.2654C15.0838 8.65658 14.7211 8.23004 14.0868 8.20088C13.2264 8.16077 12.3624 8.1626 11.5038 8.2027C10.9388 8.23004 10.5578 8.60007 10.5213 9.15603C10.4666 9.96354 10.5067 10.7765 10.5067 11.6205C12.058 11.6205 13.5472 11.6205 15.1331 11.6205ZM33.6876 28.0423C35.9533 29.5188 38.0678 30.8968 40.3482 32.3843C39.9581 30.8148 39.6154 29.4349 39.269 28.0423C37.4444 28.0423 35.6635 28.0423 33.6876 28.0423Z" fill="#0E2240"/>
</svg>
