<svg width="70" height="70" fill="none" xmlns="http://www.w3.org/2000/svg"><path d="M.685 70c-.464-.338-.847-.725-.615-1.36.228-.627.756-.719 1.34-.693.408.016.817.004 1.328.004v-2.115c0-.753-.016-1.505.007-2.256.02-.63.463-1.067 1.021-1.067.561.002 1.005.437 1.016 1.069.02 1.183.007 2.369.007 3.554v.776h8.89v-.63c0-1.572-.006-3.143.001-4.716.008-1.379.727-2.1 2.117-2.106 1.982-.009 3.964-.01 5.947 0 1.355.008 2.064.718 2.073 2.068.011 1.774.002 3.547.002 5.372h8.853V53.944H4.792v3.576c0 .615.012 6.559-.006 7.172-.02.658-.406 1.067-.987 1.083-.612.017-1.044-.4-1.052-1.086-.016-1.55-.005-8.426-.007-9.975v-.721c-1.36-.241-1.695-.477-1.673-1.145.022-.649.354-.868 1.673-1.069 0-.807.007-1.623-.002-2.442-.03-3.25.817-6.248 2.564-8.995.16-.25.253-.588.254-.886.013-8.133.013-16.266 0-24.4 0-.264-.122-.56-.27-.788-.298-.46-.301-.868-.002-1.328.148-.229.26-.52.27-.787.035-.819-.001-1.64.019-2.46.036-1.39.93-2.3 2.323-2.34 1.041-.03 2.084-.006 3.202-.006 0-.67-.002-1.257 0-1.843.014-3.29 2.21-5.497 5.485-5.5C29.202 0 41.824 0 54.445.002c3.29 0 5.465 2.18 5.467 5.494.005 12.075.002 24.15.002 36.224v.864c1.755.464 2.272 1.133 2.248 2.948-.008.606.035.997.758 1.255.53.188 1.03.758 1.311 1.282.504.935.815 1.973 1.248 2.948.111.254.34.504.579.64.613.352.849 1.005.4 1.539-.269.318-.23.573-.183.924.16 1.218.349 3.47.45 4.694-.382 4.13-.313 1.284-.947 1.324-.674.042-1.03-.387-1.1-1.251-.08-.997-.23-3.025-.348-4.018-.048-.402-.165-.795-.261-1.25h-.702c-4.35 0-8.703.011-13.053-.014-.578-.004-.757.168-.872.729-.91 4.433-.138 9.738 2.033 13.596h4.329c0-.453-.007-.897.002-1.339.018-.793.414-1.251 1.057-1.237.614.015.977.457.988 1.22.008.43.002.857.002 1.374 1.414 0 2.773.016 4.13-.022.166-.005.405-.276.475-.471.617-1.78 2.055-4.878 2.144-6.758.272-5.733.559-3.406.822-.847.268-.088.933.706.977.381.28-2.08.407-3.601.15.946-.484 1.772-1.343 4.94-1.883 6.771 1.24 0 2.566.026 3.89-.01.628-.02 1.11.15 1.44.693v1.366C46.895 70 23.79 70 .684 70Zm57.18-27.373v-.754c0-12.097.001-24.194-.003-36.29 0-2.31-1.23-3.533-3.545-3.533H32.038c-5.194 0-10.387-.003-15.581.002-1.736.002-3.03 1.041-3.246 2.698-.106.82-.018 1.666-.018 2.486.071.036.111.073.151.075.888.012 1.776.005 2.663.034 1.43.046 2.32.948 2.355 2.384.018.774-.024 1.55.018 2.323.016.312.139.643.296.917.257.447.254.835-.013 1.277-.152.252-.28.566-.28.853-.005 2.664.02 5.33.039 7.996.002.197.027.396.044.624h11.926c0-1.03.028-2.025-.014-3.019-.015-.356-.232-.7-.289-1.059a3.678 3.678 0 0 1-.03-1.096c.061-.426.282-.83.319-1.257.056-.655.005-1.32.018-1.98.03-1.546.932-2.46 2.468-2.498.546-.013 1.094-.004 1.64-.004H35.8c0-.856-.002-1.583 0-2.31.005-2.742 1.578-4.307 4.336-4.307 3.85-.002 7.7-.002 11.55 0 2.791.002 4.369 1.573 4.369 4.353v32.085h1.808Zm-3.86-.006V10.53c0-1.607-.678-2.289-2.281-2.29-2.576-.004-5.15-.002-7.724 0-1.39 0-2.78-.015-4.17.005-1.058.016-1.874.637-1.94 1.554-.07.97-.016 1.949-.016 2.9.082.046.12.085.16.086.957.013 1.915 0 2.87.035 1.379.05 2.286.985 2.308 2.358.013.796-.022 1.596.017 2.39.014.29.13.602.283.85.272.44.28.828.02 1.275-.159.272-.301.607-.301.912-.015 11.415-.013 22.828-.011 34.244 0 .239.022.478.033.721h3.9c.058-.349.101-.663.163-.975.112-.552.245-1.052-.197-1.59-.341-.414-.064-1.104.471-1.296.411-.146.534-.415.667-.765.373-.977.767-1.945 1.176-2.908.292-.685.808-1.189 1.522-1.37.484-.122.643-.33.579-.792-.028-.201-.006-.41-.004-.614.004-1.657.745-2.471 2.475-2.638Zm-21.357 9.193c.568-6.6-1.45-11.96-7.44-15.108-5.292-2.78-10.532-2.198-15.23 1.514-4.381 3.46-5.62 8.228-5.118 13.592 9.282.002 18.524.002 27.788.002Zm-16.38-37.15H7.662v3.351c.745 0 1.452-.053 2.144.022.34.037.766.23.961.494.49.659-.05 1.488-.968 1.525-.716.029-1.435.005-2.135.005v7.27h8.608v-7.27c-.72 0-6.191.013-6.87-.004-.748-.018-1.197-.416-1.2-1.028-.003-.612.448-1.003 1.195-1.015.678-.011 6.15-.002 6.871-.002v-3.348Zm16.196 24.191c-.011.985-.066 1.854.433 2.75.568 1.018.964 2.154 1.289 3.281.318 1.1.451 2.254.667 3.396h6.264v-9.427h-8.653Zm-.019-2.118h8.67V29.44h-7.341c-1.328 0-1.328 0-1.328 1.328v5.969Zm.039-16.605v7.2h8.637v-7.2h-8.637ZM18.407 33.018c4.667-.024 8.597 1.638 11.933 4.935v-8.661H18.407v3.726ZM7.664 37.482c2.5-2.333 5.35-3.728 8.599-4.283v-3.7H7.664v7.983Zm33.483 23.683h-6.329V67.9h6.329v-6.735Zm22.368-9.638c-.396-.926-.736-1.79-1.145-2.619-.091-.183-.435-.34-.663-.342-3.255-.021-6.511-.02-9.768-.003-.199.002-.508.108-.579.256-.418.867-.782 1.76-1.189 2.706 4.506.002 8.864.002 13.344.002ZM21.74 62.563h-5.962V67.9h5.962v-5.337Zm27.245 5.358-1.958-6.743h-3.768v6.743h5.726ZM34.792 55.567h6.333V50.42h-6.32v1.366c1.23.175 1.646.409 1.648 1.02.003 1.104-.86 1.102-1.66 1.128v1.634ZM32.45 17.995h8.716c0-.931.022-1.815-.02-2.697-.008-.152-.287-.417-.444-.419a380.76 380.76 0 0 0-7.78 0c-.16.002-.443.27-.45.426-.046.88-.022 1.764-.022 2.69Zm-24.83-5.46h8.694c0-.923.022-1.807-.02-2.69-.007-.156-.28-.432-.431-.434a369.116 369.116 0 0 0-7.79 0c-.151.002-.424.276-.43.433-.045.88-.023 1.766-.023 2.69Zm39.368 45.173H34.8v1.324h12.187v-1.324ZM18.45 27.168h11.9V25.86h-11.9v1.308Zm35.212 19.278h6.459c0-.369-.031-.688.007-.999.077-.621-.192-.769-.778-.753-1.41.04-2.822.013-4.232.013-1.673 0-1.673 0-1.512 1.664 0 .018.023.035.056.075Z" fill="#0E2240"/><path d="M18.761 48.316c-1.824.008-3.327-1.428-3.335-3.255-.007-1.561.543-2.944 1.593-4.093.928-1.015 2.197-1.156 3.156-.277 1.42 1.298 2.104 2.962 1.847 4.893-.216 1.605-1.637 2.725-3.26 2.732Zm-1.453-3.547.168.079c-.022.82.482 1.39 1.242 1.408.754.018 1.463-.59 1.31-1.326-.178-.846-.57-1.655-.927-2.453-.155-.345-.502-.358-.687-.007-.396.752-.741 1.532-1.106 2.3Z" fill="#0E2240"/></svg>