<svg width="70" height="70" fill="none" xmlns="http://www.w3.org/2000/svg"><path d="M.004 61.577c.51-1.358 1.49-1.931 2.927-1.81.538.047 1.086.008 1.732.008v-1.862c.002-2.584 1.383-3.975 3.952-3.988h.673c.015-.252.037-.47.037-.688.002-4.308.002-8.615.002-12.92 0-.342.005-.609-.39-.837-2.652-1.545-2.58-4.954.14-6.45 3.849-2.115 7.716-4.197 11.574-6.295 1.1-.597 2.191-1.212 3.305-1.782.39-.199.542-.433.584-.88.46-4.945 3.669-8.617 8.4-9.6 2.481-.518 4.853-.13 7.064 1.093.473.261.793.23 1.23-.016a321.683 321.683 0 0 1 5.575-3.037c.335-.179.495-.369.519-.774.146-2.56.66-5.049 1.493-7.474.254-.74.678-1.325 1.328-1.763.944-.636 1.868-1.302 2.814-1.938 1.356-.91 2.881-.716 3.902.553 7.413 9.209 9.39 19.481 5.994 30.8-.372 1.242-1.12 2.104-2.44 2.279-1.32.175-2.289-.44-2.939-1.569-1.736-3.016-3.462-6.04-5.191-9.062-.122-.215-.232-.436-.374-.704-2.075.872-4.127 1.727-6.165 2.614-.17.073-.314.37-.341.58-.232 1.776-.855 3.395-1.917 4.832-.278.376-.329.665-.132 1.101 4.116 9.075 8.217 18.157 12.309 27.245.186.416.407.557.865.555 3.577-.022 7.154-.013 10.731-.011 1.857.002 2.73.867 2.732 2.704.002 1.368.007 2.735-.002 4.101-.01 1.56-.959 2.515-2.52 2.515-21.644.003-43.287 0-64.931.009-1.299 0-2.06-.669-2.544-1.784.004-1.916.004-3.83.004-5.745Zm67.634.581H2.39v4.572h65.248v-4.572Zm-5.513-40.105c.013-4.261-.8-8.178-2.4-11.93a29.407 29.407 0 0 0-4.52-7.362c-.25-.3-.478-.52-.917-.287-2.73 1.454-3.46 2.416-4.1 5.476-.034.155-.063.312-.1.468-.542 2.377-.481 4.57.716 6.889 2.774 5.373 5.233 10.911 8.59 15.971.168.252.487.402.735.599.176-.246.422-.47.514-.743.993-3.004 1.497-6.091 1.482-9.08ZM25.775 33.88c-.384.155-.592.237-.798.323-4.23 1.78-8.458 3.57-12.696 5.328-.467.194-.64.406-.637.928.024 4.258.014 8.514.014 12.772v.716c1.755-.154 3.232.179 4.237 1.797l9.88-21.864Zm11.4 1.33c.06.134.145.343.238.547 1.382 3.068 2.766 6.137 4.15 9.205 2.142 4.747 4.279 9.496 6.435 14.236.104.228.363.544.557.55 1.563.046 3.128.025 4.813.025L41.399 33.28c-1.446.661-2.82 1.29-4.223 1.93Zm-8.574-1.93L16.632 59.774c1.543 0 2.97-.023 4.395.013.53.015.793-.137 1.02-.64 3.507-7.823 7.042-15.634 10.568-23.45.087-.195.153-.401.191-.502-1.418-.646-2.773-1.263-4.205-1.917Zm6.416-.373a8.154 8.154 0 0 0 8.17-8.158c0-4.492-3.676-8.155-8.186-8.159-4.497-.003-8.187 3.683-8.175 8.17.011 4.502 3.672 8.143 8.191 8.147ZM24.33 59.742h21.34c-.516-1.135-.989-2.21-1.502-3.27-.06-.124-.328-.208-.502-.208a4563.79 4563.79 0 0 0-17.355 0c-.17 0-.433.093-.493.22-.508 1.058-.98 2.134-1.488 3.258Zm2.108-28.696c-.604-1.294-1.183-2.536-1.778-3.816-.162.084-.363.183-.559.288-3.418 1.857-6.834 3.716-10.25 5.573-1.258.685-2.526 1.357-3.775 2.06-.684.385-.905 1.04-.622 1.676.29.65.982.91 1.729.646.128-.045.252-.105.376-.158a23868.306 23868.306 0 0 1 14.88-6.269Zm.541 22.83h16.046c-.498-1.103-.951-2.14-1.448-3.16-.073-.147-.349-.279-.533-.28-4.03-.017-8.06-.017-12.087 0-.185 0-.462.13-.535.277-.494 1.02-.946 2.06-1.443 3.163Zm23.929-33.128-2.977-6.195c-1.807.982-3.558 1.935-5.375 2.921 1.508 1.605 2.403 3.46 2.82 5.604l5.532-2.33ZM29.61 48.038h10.771c-.497-1.103-.946-2.142-1.439-3.157-.071-.146-.354-.263-.54-.265-2.275-.018-4.55-.016-6.825-.001-.176.001-.446.087-.508.215-.499 1.037-.959 2.093-1.459 3.208ZM13.988 59.733c0-.783.02-1.528-.005-2.271-.026-.749-.453-1.185-1.203-1.198a172.787 172.787 0 0 0-4.565-.002c-.648.007-1.121.36-1.182 1.004-.073.804-.018 1.62-.018 2.465 2.34.002 4.62.002 6.973.002Zm18.238-17.496h5.545c-.918-2.034-1.806-4.006-2.77-6.14l-2.775 6.14Z" fill="#0E2240"/><path d="M59.503 52.835c-3.987.005-6.774-3.842-5.468-7.609.856-2.472 2.238-4.672 3.781-6.765.789-1.07 2.42-1.181 3.221-.146 1.8 2.33 3.418 4.808 4.141 7.698.857 3.424-2.036 6.816-5.675 6.822ZM59.5 40.072c-1.348 1.955-2.564 3.889-3.314 6.075-.453 1.318.067 2.751 1.238 3.611 1.194.878 2.934.88 4.148.004 1.163-.842 1.704-2.297 1.253-3.605-.754-2.18-1.967-4.117-3.325-6.085Zm-24.512-9.495c-3.192-.02-5.828-2.664-5.826-5.845.001-3.234 2.644-5.848 5.888-5.828 3.177.02 5.787 2.627 5.79 5.79.004 3.233-2.653 5.903-5.852 5.883Zm.02-2.335a3.49 3.49 0 0 0 3.495-3.459c.022-1.922-1.58-3.535-3.508-3.53-1.904.004-3.469 1.562-3.494 3.477-.028 1.928 1.557 3.515 3.507 3.512Z" fill="#0E2240"/></svg>