<svg width="70" height="70" fill="none" xmlns="http://www.w3.org/2000/svg"><path d="M1.91 69.996H0v-1.503c.268-.44.576-.826 1.156-.823 1.15.006 2.036-.537 2.798-1.347.53-.563 1.088-1.099 1.596-1.68.16-.183.268-.474.272-.717.02-2.094.013-4.187.01-6.281 0-.151-.043-.303-.072-.492-.804 0-1.575.018-2.346-.004-1.336-.04-2.328-.676-2.99-1.83-.165-.288-.284-.603-.422-.908V50.72c.322-.999.796-1.912 1.772-2.397.472-.235.565-.516.563-.997-.015-8.522-.007-17.044-.018-25.563a4.86 4.86 0 0 0-.184-1.273c-.533-1.928-1.107-3.846-1.637-5.776-.438-1.59.554-2.946 2.196-3.052.244-.016.49-.001.81-.001v-.815c0-1.617-.01-3.236.005-4.853.007-.816.472-1.327 1.154-1.323.676.004 1.146.521 1.166 1.33.019.794.004 1.592.004 2.39v3.21H8.17c0-.85-.024-1.643.005-2.436a3.41 3.41 0 0 1 3.272-3.303 42.246 42.246 0 0 1 2.388-.012c2.18.027 3.617 1.478 3.631 3.66.006.698 0 1.396 0 2.09h2.324V6.357c0-1.104.387-1.673 1.147-1.69.782-.016 1.177.56 1.18 1.718v5.271c.307 0 .511-.002.714 0 1.918.015 2.794.892 2.798 2.802.002 1.525 0 3.053 0 4.579 0 2.054-.381 2.59-2.268 3.213v19.709c1.345.082 1.345.082 1.59-.9 1.604-6.446 3.2-12.892 4.821-19.332.172-.681.341-1.276-.279-1.84-.207-.19-.3-.57-.331-.874-.063-.609-.031-1.227-.064-1.841-.068-1.227.138-2.328 1.345-2.955-1.726-2.603-1.754-4.885-.115-7.078.286-.383.596-.747.913-1.104.988-1.11 1.045-2.303.401-3.604-.585-1.185-.41-1.725.698-2.43h.819c2.74 1.269 4.761 3.325 6.234 5.908 1.544 2.707 2.089 5.487.186 8.09.408.705.964 1.297 1.084 1.966.18.99.073 2.038.035 3.059-.01.299-.124.68-.332.871-.592.545-.52 1.129-.277 1.778.088.231.117.486.177.729.421 1.686.846 3.37 1.29 5.146.314-.243.546-.42.774-.598 6.449-5.08 12.894-10.163 19.349-15.237 2.142-1.685 4.863-1.592 6.697.202 1.84 1.797 1.987 4.504.357 6.706-.663.897-1.362 1.766-1.99 2.687-.214.312-.365.738-.367 1.112-.02 8.22-.016 16.444-.016 24.665v.703c2.422.381 3.5 1.65 3.502 4.012v1.504c-.004 2.444-1.408 3.852-3.849 3.857-.647.002-1.294 0-1.983 0 0 2.39-.005 4.665.011 6.94.002.178.117.388.243.526.568.62 1.159 1.222 1.744 1.825.726.746 1.579 1.2 2.645 1.236.272.009.59.133.798.308.664.561.476 1.374-.428 2.005h-1.092c-1.77-.421-3.295-1.23-4.382-2.75-.144-.203-.334-.373-.507-.553-1.77-1.848-3.859-1.848-5.632 0-.142.148-.295.286-.416.45-1.13 1.53-2.668 2.405-4.482 2.853h-1.5c-.079-.04-.153-.098-.237-.115-1.632-.313-2.935-1.152-3.968-2.448a10.33 10.33 0 0 0-1.072-1.141c-1.42-1.296-3.309-1.314-4.747-.031-.456.406-.86.875-1.254 1.344-.89 1.057-1.981 1.788-3.316 2.154-.233.064-.46.155-.689.233h-1.637c-1.432-.402-2.78-.96-3.793-2.116-.345-.394-.673-.8-1.032-1.18-1.775-1.866-3.84-1.86-5.627.01-.157.164-.333.315-.463.5-1.079 1.523-2.597 2.35-4.367 2.786h-1.5c-1.995-.43-3.548-1.53-4.769-3.14-.067-.09-.153-.168-.231-.25-1.685-1.724-3.757-1.73-5.44-.015-.095.097-.198.19-.279.3-1.188 1.61-2.723 2.695-4.7 3.105ZM58.192 44.32H7.962c-.25 0-.501.007-.75-.004-.77-.029-1.242-.475-1.239-1.159.004-.669.49-1.145 1.25-1.163.91-.022 8.665-.005 9.574-.007h4.123v-8.16h-.774c-1.273-.003-2.547.023-3.819-.01-1.384-.036-2.313-.939-2.351-2.322a82.166 82.166 0 0 1 0-4.647c.04-1.434 1.017-2.34 2.47-2.357 1.272-.014 2.546-.001 3.818-.005.217 0 .434-.026.658-.04v-2.239H4.685v2.28h.765c1.273 0 2.547-.02 3.819.008 1.369.03 2.328.97 2.351 2.322.028 1.593.032 3.19-.005 4.783-.027 1.23-.924 2.133-2.164 2.206-.816.047-1.637.018-2.455.022-.767.002-1.533 0-2.297 0v8.16c1.14 0 2.23-.014 3.32.006.805.015 1.292.494 1.276 1.201-.017.686-.48 1.11-1.27 1.121-1.107.015-2.212.004-3.328.004v3.469h53.495V44.32ZM34.854 54.827h27.277c1.363 0 2.727.009 4.092-.004.859-.007 1.289-.448 1.31-1.312.013-.502.004-1.003.004-1.504 0-1.555-.279-1.84-1.812-1.84H4.15c-.204 0-.41-.007-.615.004-.734.039-1.173.465-1.203 1.209-.021.569-.005 1.14-.005 1.708 0 1.416.315 1.737 1.708 1.737 10.273.002 20.547.002 30.82.002Zm12.13-12.84c1.03.372 1.649-.374 2.318-1.274 5.328-7.177 10.694-14.324 16.048-21.48.572-.766 1.176-1.51 1.704-2.303 1.032-1.553.261-3.582-1.509-4.017-.962-.237-1.766.1-2.523.698A7170.987 7170.987 0 0 1 42.71 29.593c-.427.334-.52.618-.387 1.133.83 3.211 1.626 6.434 2.428 9.653.4 1.608.392 1.608 2.233 1.608ZM18.665 67.588c1.276-.326 2.12-1.057 2.843-2.008 2.565-3.365 7.219-3.407 9.87-.123.411.51.865 1.003 1.368 1.422 1.263 1.052 2.991 1.08 4.273.05.543-.438 1.02-.974 1.463-1.515 1.224-1.491 2.757-2.352 4.698-2.399 2.185-.053 3.919.844 5.199 2.608.701.968 1.562 1.672 2.797 1.953V57.2h-32.51v10.388ZM51.24 41.987c2.31 0 4.444-.002 6.58 0 1.816.002 2.731.913 2.737 2.721.003 1.02 0 2.036 0 3.075h3.403V24.99L51.24 41.988ZM2.718 14.032c.503 1.757 1.015 3.447 1.456 5.157.137.53.365.652.88.65 5.84-.018 11.678-.01 17.516-.012.22 0 .44-.02.675-.031v-5.762c-6.85-.002-13.651-.002-20.527-.002ZM8.21 57.197v5.931c2.689-.427 4.8.461 6.46 2.545.425.532.966.973 1.588 1.587V57.198c-2.683-.002-5.33-.002-8.048-.002Zm45.383 9.806.251.179c.49-.556 1.001-1.097 1.466-1.673 1.059-1.315 2.399-2.168 4.063-2.412.742-.11 1.515-.018 2.288-.018v-5.877h-8.068v9.801ZM34.386 3.482c.049 2.02-.688 3.503-1.973 4.788-.692.693-1.05 1.599-.94 2.61.211 1.96 1.874 3.272 3.87 3.081 1.833-.175 3.228-1.877 3.058-3.773-.253-2.806-1.945-4.76-4.015-6.706Zm-3.42 38.35c.007.042.017.082.024.124h11.752a7436.47 7436.47 0 0 0-1.32-5.268l-10.456 5.144Zm7.701-16.192c-.37-1.491-.71-2.9-1.084-4.302-.036-.137-.273-.312-.42-.314-1.5-.021-3-.02-4.5 0-.131.002-.344.159-.375.281-.376 1.422-.724 2.853-1.094 4.335h7.473Zm-.7 8.153.046-.138-7.588-4.958-1.267 5.096h8.81Zm-21.624-2.351h4.568v-4.59h-4.568v4.59ZM4.69 26.856v4.584h4.56v-4.584H4.69Zm32.155 9.484a4.874 4.874 0 0 1-.026-.168c-2.65 0-5.302-.007-7.953.018-.138.002-.352.248-.4.418-.238.83-.431 1.671-.639 2.508-.144.578-.284 1.157-.463 1.888 3.27-1.607 6.375-3.135 9.48-4.664Zm-5.38-17.729h6.918v-2.235h-6.918v2.235Zm-16.332-6.99c0-.823.037-1.592-.01-2.356-.04-.608-.402-1.035-1.036-1.064-.86-.04-1.725-.038-2.583.002-.565.027-.946.397-.983.953-.054.808-.014 1.62-.014 2.464h4.626Zm18.555 16.421 6.66 4.342-1.079-4.342h-5.581Z" fill="#0E2240"/></svg>