<svg width="54" height="58" viewBox="0 0 54 58" fill="none" xmlns="http://www.w3.org/2000/svg">
<path d="M46.3571 54.3105C46.3571 55.3371 46.3619 56.1114 46.3555 56.8857C46.3491 57.7271 46.0809 57.9921 45.2427 57.9953C44.1044 57.9985 42.9676 58.0017 41.8293 57.9937C41.1364 57.9889 40.8666 57.7095 40.8522 57.0071C40.8459 56.6718 40.8506 56.3381 40.8506 56.0715C39.8145 55.9805 38.839 55.9581 37.8875 55.7921C37.2521 55.6803 36.6342 55.3993 36.0387 55.1295C34.1197 54.2578 32.2214 54.261 30.3215 55.1742C27.8964 56.3413 25.484 56.3173 23.0669 55.1327C21.2564 54.245 19.3981 54.2003 17.586 55.08C16.1076 55.7985 14.5893 56.1385 12.9561 55.9789C12.8619 55.9693 12.7661 55.9773 12.608 55.9773C12.608 56.3668 12.6176 56.7213 12.6064 57.0757C12.5873 57.6999 12.3063 57.9873 11.682 57.9921C10.4846 58.0033 9.28722 58.0017 8.08823 57.9937C7.4097 57.9889 7.11754 57.6936 7.10636 56.9975C7.09359 56.1848 7.10317 55.3706 7.10317 54.526C6.09735 54.4446 5.24321 54.7464 4.42259 55.1631C3.44711 55.658 2.42214 55.9517 1.33171 56.0044C1.11298 56.0156 0.889467 56.0252 0.677128 55.9853C0.22052 55.9007 -0.017363 55.6053 0.00658495 55.1391C0.0305329 54.7017 0.281188 54.3935 0.713848 54.3935C2.01023 54.3951 3.14856 53.9066 4.31562 53.4164C5.16338 53.0604 6.10374 52.9247 7.06325 52.6757C7.06325 51.7098 7.06325 50.6417 7.06325 49.5161C6.14525 49.4666 5.30388 49.7221 4.50721 50.1324C3.42476 50.6896 2.28484 51.0105 1.06668 51.0296C0.365805 51.0408 -0.0061873 50.7343 0.00179536 50.1851C0.00977801 49.6582 0.354629 49.4347 1.03156 49.3549C1.73722 49.2719 2.48121 49.2 3.11982 48.9222C4.38587 48.3698 5.63755 47.8286 7.07124 47.8254C7.07124 46.6966 7.07124 45.6286 7.07124 44.5174C6.15163 44.503 5.32144 44.7233 4.53594 45.1273C3.41837 45.702 2.24492 46.0469 0.977276 46.0261C0.34505 46.0165 0.00977801 45.7403 0.000198824 45.223C-0.00938036 44.7169 0.327488 44.3737 0.943749 44.3753C2.01183 44.3753 2.95698 44.0017 3.92767 43.6074C4.91113 43.2082 5.96324 42.9799 7.06166 42.6542C7.06166 42.0635 7.06166 41.3339 7.06166 40.5069C6.60665 40.5069 6.13886 40.5069 5.66948 40.5069C4.95104 40.5069 4.2326 40.5165 3.51416 40.5037C2.86597 40.4925 2.56263 40.194 2.54667 39.549C2.5307 38.9503 2.54347 38.3516 2.54347 37.7529C2.54347 35.1984 2.54347 32.644 2.54347 30.0895C2.54347 29.9299 2.5323 29.7686 2.55146 29.6106C2.60574 29.13 2.87875 28.8426 3.36409 28.8075C3.81272 28.7756 4.18471 29.1364 4.20067 29.6393C4.22302 30.3929 4.20706 31.1464 4.20706 31.9351C5.81477 31.9351 7.3634 31.9351 8.99346 31.9351C9.0653 31.1768 9.14513 30.412 9.2074 29.6457C9.62409 24.4953 10.0376 19.3449 10.4527 14.1961C10.5197 13.3611 10.5932 12.5261 10.6714 11.6927C10.7273 11.1116 11.0115 10.821 11.6006 10.8178C14.155 10.8066 16.7111 10.8082 19.2655 10.8162C19.8371 10.8178 20.1388 11.1339 20.1867 11.7039C20.3272 13.4138 20.4725 15.1236 20.6146 16.8319C20.6274 16.99 20.6402 17.1464 20.6625 17.4099C20.918 17.4099 21.1654 17.4099 21.4145 17.4099C27.9028 17.4099 34.3895 17.4099 40.8778 17.4099C41.9922 17.4099 42.1949 17.6158 42.1949 18.7382C42.1949 22.8892 42.1949 27.0402 42.1949 31.1911C42.1949 31.4258 42.1949 31.6589 42.1949 31.9319C44.561 31.9319 46.8664 31.9319 49.2516 31.9319C49.2516 31.2279 49.2468 30.5382 49.2532 29.8469C49.258 29.1971 49.5645 28.8107 50.0674 28.8027C50.5751 28.7947 50.9136 29.1811 50.9136 29.8213C50.9184 33.0351 50.92 36.2473 50.9136 39.4612C50.912 40.2147 50.6134 40.5021 49.8535 40.5069C48.7184 40.5133 47.5832 40.5085 46.4018 40.5085C46.4018 41.2908 46.4018 42.0348 46.4018 42.8682C47.9648 42.8219 49.3123 43.5403 50.722 44.0799C51.2664 44.2891 51.8891 44.3082 52.4814 44.3705C53.136 44.4392 53.4824 44.7281 53.4553 45.2566C53.4297 45.7675 53.096 46.0229 52.4494 46.0277C51.2888 46.0389 50.1983 45.7563 49.1654 45.2422C48.3017 44.8127 47.4044 44.5222 46.3906 44.5302C46.3906 45.6254 46.3906 46.6935 46.3906 47.8222C47.8626 47.8621 49.1702 48.4241 50.4937 48.9845C51.0988 49.2415 51.806 49.2846 52.475 49.3597C53.1232 49.4315 53.4776 49.7029 53.4553 50.2378C53.4361 50.7375 53.0801 51.0344 52.459 51.0312C51.3239 51.0248 50.2446 50.7726 49.2276 50.2649C48.3464 49.8243 47.43 49.5273 46.3938 49.5034C46.3938 50.5986 46.3938 51.6698 46.3938 52.7906C46.6844 52.8305 47.0037 52.8369 47.299 52.9215C48.1388 53.1626 48.9626 53.4532 49.8024 53.6895C50.6965 53.9401 51.5921 54.1956 52.5037 54.36C53.1248 54.4734 53.4601 54.6841 53.4553 55.2014C53.4505 55.7091 53.1008 56.0172 52.4846 56.0172C51.2872 56.0188 50.176 55.6851 49.0808 55.2078C48.2586 54.8469 47.3677 54.6362 46.3571 54.3105ZM4.23739 38.7954C19.2639 38.7954 34.241 38.7954 49.2276 38.7954C49.2276 37.06 49.2276 35.3693 49.2276 33.6434C34.2234 33.6434 19.2432 33.6434 4.23739 33.6434C4.23739 35.3693 4.23739 37.0584 4.23739 38.7954ZM20.8174 19.1022C20.9116 20.1878 21.0042 21.1984 21.0872 22.209C21.3251 25.0876 21.5518 27.9661 21.796 30.8431C21.8886 31.9287 21.9062 31.9271 23.0094 31.9271C24.1988 31.9271 25.3882 31.9271 26.6319 31.9271C26.6319 31.6318 26.6319 31.4162 26.6319 31.2007C26.6319 29.1061 26.6287 27.0114 26.6335 24.9168C26.6351 24.1169 26.9161 23.8423 27.7176 23.8407C29.6526 23.8359 31.5876 23.8375 33.5226 23.8407C34.4597 23.8423 34.6769 24.061 34.6785 25.0126C34.6817 27.0865 34.6801 29.1619 34.6801 31.2358C34.6801 31.4466 34.6801 31.6573 34.6801 31.8824C36.6757 31.8824 38.5772 31.8824 40.4946 31.8824C40.4946 27.6021 40.4946 23.3649 40.4946 19.1022C33.9441 19.1022 27.4302 19.1022 20.8174 19.1022ZM10.6858 31.8713C13.8884 31.8713 17.0065 31.8713 20.1468 31.8713C19.628 25.3861 19.1123 18.9585 18.5966 12.5117C16.4684 12.5117 14.3849 12.5117 12.2648 12.5117C11.7379 18.9745 11.2142 25.4037 10.6858 31.8713ZM40.8235 45.9654C39.1072 46.1554 37.541 45.8872 36.0467 45.1656C34.1484 44.2492 32.2374 44.2715 30.3407 45.1847C27.8948 46.3614 25.4697 46.3278 23.0334 45.1352C21.2005 44.2396 19.3358 44.23 17.503 45.1368C16.2034 45.7802 14.8527 46.1027 13.4047 46.0245C13.1556 46.0117 12.905 46.0229 12.6128 46.0229C12.6128 47.0415 12.5936 47.9962 12.6336 48.9478C12.6399 49.0883 12.9066 49.3182 13.071 49.3341C14.2397 49.4475 15.3828 49.3325 16.4461 48.7881C18.9893 47.4853 21.5151 47.5077 24.0759 48.7769C25.757 49.6119 27.5436 49.671 29.2215 48.852C31.8893 47.5508 34.4821 47.5061 37.1435 48.8216C38.2898 49.3884 39.5367 49.5225 40.8235 49.2447C40.8235 48.1575 40.8235 47.107 40.8235 45.9654ZM12.6383 54.2099C13.7607 54.5356 15.2551 54.3824 16.4876 53.7597C19.0197 52.4809 21.523 52.5096 24.0631 53.7645C25.765 54.6059 27.5611 54.6586 29.2646 53.8268C31.9117 52.532 34.4949 52.5112 37.1355 53.806C38.285 54.3696 39.5255 54.5181 40.8235 54.2371C40.8235 53.145 40.8235 52.077 40.8235 50.9498C38.9029 51.242 37.1962 50.672 35.4863 49.9328C33.7892 49.1984 32.0538 49.3485 30.3918 50.1563C27.9523 51.3426 25.5239 51.3442 23.086 50.1515C21.1894 49.224 19.3039 49.2719 17.3848 50.1579C16.5818 50.5283 15.7037 50.7854 14.8336 50.9418C14.1279 51.0679 13.3823 50.9674 12.6399 50.9674C12.6383 52.1169 12.6383 53.1674 12.6383 54.2099ZM40.8522 40.5388C31.4151 40.5388 22.0451 40.5388 12.6671 40.5388C12.6671 41.8129 12.6671 43.0518 12.6671 44.2987C14.0321 44.4679 15.3045 44.3817 16.5083 43.7718C19.0149 42.4994 21.5151 42.5313 24.0344 43.7686C25.7858 44.6291 27.6106 44.6563 29.3508 43.8133C31.9436 42.5552 34.4821 42.5377 37.0557 43.7989C38.1046 44.313 39.2254 44.436 40.3813 44.3434C40.6766 44.3194 40.865 44.2667 40.8586 43.9011C40.8411 42.8027 40.8522 41.7059 40.8522 40.5388ZM28.337 25.5314C28.337 27.6915 28.337 29.775 28.337 31.8744C29.9064 31.8744 31.4343 31.8744 32.9925 31.8744C32.9925 29.7463 32.9925 27.6484 32.9925 25.5314C31.4199 25.5314 29.8921 25.5314 28.337 25.5314ZM44.6951 44.6052C43.9735 44.9117 43.3508 45.164 42.7409 45.4434C42.6404 45.4897 42.527 45.6445 42.5238 45.7515C42.5063 46.703 42.5142 47.6546 42.5142 48.6284C43.2135 48.4113 43.8585 48.2245 44.4907 47.9994C44.5897 47.9643 44.6839 47.7583 44.6855 47.6306C44.7015 46.6759 44.6951 45.7196 44.6951 44.6052ZM44.6791 49.6103C43.9527 49.9153 43.3157 50.1771 42.6835 50.4549C42.61 50.4868 42.527 50.6018 42.527 50.6784C42.5158 51.6587 42.5206 52.6389 42.5206 53.6384C43.3013 53.3717 43.9894 53.1371 44.6791 52.9024C44.6791 51.8471 44.6791 50.8125 44.6791 49.6103ZM10.9524 48.6141C10.9524 47.6657 10.9556 46.7318 10.9492 45.7978C10.9492 45.7068 10.9205 45.5615 10.8614 45.5328C10.1988 45.2183 9.5283 44.9213 8.77154 44.5796C8.77154 45.7164 8.76356 46.6711 8.78112 47.6274C8.78272 47.7504 8.88969 47.9451 8.99186 47.9819C9.6209 48.2054 10.2643 48.397 10.9524 48.6141ZM10.9492 53.6224C10.9492 52.6453 10.9524 51.6954 10.9444 50.7455C10.9444 50.6576 10.8949 50.5235 10.8295 50.4932C10.1765 50.1883 9.51712 49.9025 8.7891 49.58C8.7891 50.7965 8.7891 51.8487 8.7891 52.8864C9.50435 53.1291 10.1941 53.3638 10.9492 53.6224ZM42.5334 43.6489C43.2901 43.395 43.9798 43.1619 44.652 42.9368C44.652 42.1242 44.652 41.3355 44.652 40.558C43.9208 40.558 43.2343 40.558 42.5334 40.558C42.5334 41.5989 42.5334 42.592 42.5334 43.6489ZM10.9189 43.6297C10.9189 42.5824 10.9189 41.5782 10.9189 40.542C10.2004 40.542 9.51712 40.542 8.80028 40.542C8.80028 41.3578 8.80028 42.1433 8.80028 42.9081C9.50435 43.1476 10.1733 43.3759 10.9189 43.6297ZM8.80986 54.5691C8.80986 55.2365 8.80986 55.7649 8.80986 56.2998C9.53788 56.2998 10.2244 56.2998 11.0594 56.2998C10.9269 55.9533 10.9013 55.5622 10.7097 55.4472C10.135 55.1088 9.49796 54.8773 8.80986 54.5691ZM44.6344 56.3173C44.6344 55.7346 44.6344 55.2221 44.6344 54.6138C44.0549 54.8581 43.5743 55.1072 43.0666 55.262C42.4791 55.4425 42.4264 55.8017 42.5717 56.3173C43.2694 56.3173 43.9415 56.3173 44.6344 56.3173Z" fill="white"/>
<path d="M25.6679 8.44846C24.8329 9.51654 23.7585 10.0258 22.419 9.58679C21.8937 9.41436 21.477 8.87314 20.9534 8.74861C20.4473 8.62887 19.8565 8.92582 19.3185 8.87473C18.1355 8.76298 17.2127 7.7859 16.9924 6.55018C16.7816 5.36236 17.3548 4.15219 18.4548 3.59979C18.8156 3.41779 18.9689 3.20066 19.0471 2.8159C19.4031 1.07248 21.1226 0.116162 22.7957 0.722844C23.0911 0.829812 23.2779 0.820232 23.5381 0.619069C24.5487 -0.164827 25.7302 -0.188775 26.8382 0.459416C27.017 0.564787 27.3203 0.590332 27.5135 0.515295C29.0094 -0.0658426 30.6092 0.521681 31.2637 1.92503C31.9295 3.35233 31.3308 4.96642 29.8716 5.72318C29.7183 5.80301 29.5379 5.95308 29.4948 6.10635C28.9312 8.09722 27.7642 8.82364 25.6679 8.44846ZM29.8684 2.9979C29.8652 2.63389 29.6401 2.2603 29.1771 2.04956C28.6869 1.82605 28.2463 1.92982 27.8536 2.28425C27.1319 2.93244 26.8286 2.91329 26.257 2.18527C25.6663 1.4349 24.726 1.49876 24.2294 2.32257C23.7824 3.06496 23.3194 3.15277 22.7047 2.5844C22.2561 2.1693 21.7644 2.03519 21.2343 2.35131C20.7171 2.65944 20.5446 3.12882 20.6963 3.7371C20.8767 4.46192 20.5798 4.86425 19.8406 4.90576C19.2211 4.94088 18.8188 5.22347 18.6655 5.81738C18.525 6.36499 18.7278 6.81042 19.2036 7.0946C19.7336 7.41231 20.2189 7.29097 20.6787 6.89184C21.2535 6.39532 21.8107 6.51506 22.1044 7.20476C22.3407 7.75876 22.6984 8.10042 23.3226 8.07168C23.95 8.04294 24.2709 7.65818 24.445 7.08502C24.6733 6.32986 25.2033 6.15265 25.8563 6.61564C26.3049 6.93335 26.7615 7.03234 27.2501 6.75454C27.7434 6.47355 27.8807 6.02652 27.8168 5.47731C27.7195 4.62956 27.9031 4.41562 28.7492 4.31983C29.4198 4.24479 29.8604 3.7802 29.8684 2.9979Z" fill="white"/>
<path d="M30.6202 22.3192C29.0635 22.3192 27.5069 22.3224 25.9519 22.3176C25.2654 22.316 24.9173 22.0478 24.9014 21.5305C24.8854 20.9877 25.251 20.6764 25.9551 20.6764C29.1082 20.6716 32.2598 20.67 35.4129 20.678C36.1809 20.6795 36.6263 21.2048 36.3852 21.7971C36.2208 22.2026 35.8871 22.3256 35.4688 22.324C33.8531 22.3144 32.2374 22.3192 30.6202 22.3192Z" fill="white"/>
</svg>
