<svg width="58" height="58" viewBox="0 0 58 58" fill="none" xmlns="http://www.w3.org/2000/svg">
<path d="M3.0899 28.7665C3.0899 28.5119 3.0899 28.3189 3.0899 28.1276C3.0899 22.5061 3.08673 16.8846 3.0978 11.2615C3.09938 10.8725 3.00134 10.6147 2.67876 10.3743C1.98299 9.85726 1.32833 9.28483 0.648367 8.7456C0.215091 8.40404 -0.00312871 7.98025 3.38873e-05 7.42205C0.00952169 5.39008 -0.00154741 3.35811 0.00635909 1.32614C0.00952169 0.418473 0.439636 0.00575318 1.36628 0.00417188C2.98395 -0.000572021 4.60162 -0.00215332 6.21929 0.00417188C7.157 0.00733448 7.58237 0.442192 7.59344 1.38623C7.59819 1.74044 7.59344 2.09307 7.59344 2.47416C9.79619 3.16677 11.9736 3.8499 14.1511 4.53618C17.494 5.59091 20.8368 6.64247 24.175 7.71143C24.5339 7.82687 24.7616 7.80473 25.0542 7.52484C27.7898 4.91411 32.1732 6.18073 33.0872 9.84935C33.19 10.2652 33.3781 10.4234 33.7497 10.5309C40.1793 12.3968 46.6041 14.2754 53.0353 16.135C53.2899 16.2093 53.6235 16.2062 53.8623 16.1034C55.3329 15.4709 56.9253 16.0259 57.561 17.4301C58.2014 18.8406 57.5847 20.3935 56.1172 21.0734C56.0113 21.1224 55.9085 21.1794 55.8121 21.2284C55.8121 25.0283 55.8121 28.8107 55.8121 32.6327C55.9639 32.647 56.0951 32.6596 56.2264 32.6691C56.987 32.7244 57.4202 33.1546 57.4218 33.9278C57.4297 38.327 57.4313 42.7262 57.4202 47.1238C57.4187 47.886 56.968 48.3303 56.1979 48.3556C55.4294 48.3793 54.6593 48.3762 53.8908 48.3588C53.0305 48.3382 52.5973 47.8939 52.5957 47.0131C52.5894 42.693 52.5894 38.3729 52.5957 34.0527C52.5973 33.0439 52.9989 32.7181 54.3652 32.6422C54.3652 32.462 54.3652 32.2769 54.3652 32.0903C54.3652 28.6384 54.3588 25.1864 54.3746 21.7344C54.3762 21.3438 54.2308 21.1873 53.9129 20.9754C53.4385 20.6575 53.0732 20.18 52.6526 19.7783C52.4945 19.6265 52.3316 19.4257 52.1371 19.3719C45.649 17.5708 39.1562 15.7808 32.6586 14.0098C32.4705 13.9592 32.2001 14.0825 32.0071 14.1932C31.1137 14.7055 31.0078 15.5294 31.0821 16.4655C31.1453 17.2577 31.0963 17.2609 31.8885 17.2609C32.7567 17.2609 33.6248 17.2514 34.493 17.2641C35.6141 17.2799 36.536 17.9772 36.827 19.0114C37.1211 20.0582 36.7273 21.1572 35.7817 21.7312C35.4449 21.9352 35.4006 22.1424 35.4449 22.4903C36.1154 27.8683 36.7748 33.2494 37.4358 38.629C38.0351 43.4994 38.6328 48.3714 39.2321 53.2418C39.2558 53.4347 39.2985 53.6245 39.3365 53.8348C39.4725 53.8443 39.5879 53.8585 39.7033 53.8617C40.9431 53.887 41.019 53.9613 41.019 55.1742C41.019 55.7861 41.0237 56.3965 41.0174 57.0085C41.0095 57.7928 40.8087 58.0031 40.0402 58C34.7143 57.9778 29.3885 57.9494 24.0627 57.9241C21.9912 57.9146 19.9197 57.9067 17.8498 57.8972C17.0306 57.894 16.8314 57.6979 16.8282 56.8962C16.8251 56.2257 16.8267 55.5553 16.8282 54.8848C16.8298 53.955 16.9816 53.8016 17.9288 53.7684C18.0063 53.7652 18.0854 53.7542 18.234 53.7383C19.3472 43.1879 20.4605 32.6296 21.5737 22.0696C20.5016 21.6411 19.828 20.9327 19.7853 19.7689C19.7363 18.39 20.7673 17.2925 22.1446 17.2672C23.3258 17.2451 24.507 17.2625 25.78 17.2625C25.78 16.5398 25.7974 15.8551 25.7658 15.1752C25.7594 15.0392 25.5839 14.8874 25.4542 14.783C24.5102 14.024 23.9188 13.061 23.6674 11.8718C23.6278 11.6868 23.4381 11.4433 23.2657 11.388C18.147 9.74815 13.022 8.13048 7.89705 6.50964C7.82431 6.48592 7.74525 6.48276 7.67251 6.47011C7.64246 6.51281 7.60135 6.54601 7.60451 6.5729C7.81008 7.85533 7.20128 8.69658 6.17818 9.37338C5.58993 9.76238 4.86728 10.164 4.59055 10.7444C4.31382 11.3247 4.5099 12.1359 4.5099 12.8443C4.50832 17.8934 4.50832 22.9441 4.50832 27.9932C4.50832 28.2272 4.50832 28.4597 4.50832 28.7633C4.8989 28.7633 5.24837 28.7538 5.59626 28.7649C6.35844 28.7902 6.82967 29.2155 6.84865 29.973C6.87711 31.1163 6.87869 32.2611 6.84549 33.4044C6.82493 34.135 6.35686 34.5619 5.62472 34.5698C4.40238 34.5841 3.17845 34.5856 1.9561 34.5698C1.19075 34.5603 0.746408 34.1128 0.735339 33.3475C0.719526 32.2437 0.722688 31.1384 0.733757 30.0331C0.743245 29.2393 1.19075 28.7902 1.97982 28.7633C2.33245 28.757 2.68192 28.7665 3.0899 28.7665ZM28.7481 29.5223C28.5773 29.5903 28.533 29.5966 28.5077 29.6219C26.2164 31.9038 23.9204 34.1824 21.6386 36.4753C21.2306 36.8848 21.2907 37.938 21.7018 38.3349C23.8603 40.4143 26.0203 42.4937 28.182 44.5716C28.3069 44.6917 28.4445 44.7993 28.59 44.9258C28.7449 44.785 28.8778 44.6712 29.0058 44.5494C31.1438 42.5048 33.2817 40.4602 35.4196 38.414C36.0521 37.8083 36.0521 36.9513 35.4196 36.3203C33.4667 34.3674 31.5106 32.4177 29.564 30.46C29.2588 30.1533 28.9948 29.8069 28.7481 29.5223ZM36.1422 39.6901C33.8984 41.8359 31.7684 43.8742 29.6052 45.9425C32.3614 48.5928 35.078 51.2067 37.8927 53.9139C37.3013 49.1162 36.7305 44.4704 36.1422 39.6901ZM35.709 53.789C33.2927 51.4644 30.9429 49.2032 28.5741 46.9245C26.1911 49.2063 23.8666 51.4312 21.5421 53.6561C21.5642 53.7004 21.5864 53.7447 21.6069 53.789C26.267 53.789 30.9271 53.789 35.709 53.789ZM19.7157 53.2687C19.7568 53.2829 19.7979 53.2987 19.839 53.313C22.396 50.8667 24.9545 48.4204 27.551 45.9362C25.4131 43.8805 23.3211 41.8675 21.1389 39.7691C20.655 44.3581 20.1853 48.8142 19.7157 53.2687ZM1.42479 1.4479C1.42479 3.42294 1.42162 5.33474 1.43111 7.24653C1.43111 7.38727 1.48804 7.57544 1.58766 7.65925C2.30557 8.26489 3.04088 8.84997 3.79041 9.45719C4.502 8.88318 5.19144 8.35818 5.8382 7.78575C6.01372 7.63079 6.15446 7.33666 6.1592 7.10421C6.18608 5.36953 6.17501 3.63484 6.17185 1.90015C6.17185 1.74993 6.14497 1.60129 6.13074 1.4479C4.55734 1.4479 3.02664 1.4479 1.42479 1.4479ZM33.7814 22.1772C30.3215 22.1772 26.8521 22.1772 23.4792 22.1772C25.1965 23.896 26.9391 25.6418 28.6247 27.3306C30.3152 25.6418 32.0498 23.9087 33.7814 22.1772ZM21.7319 34.1429C23.6215 32.2469 25.5412 30.3193 27.3391 28.5166C25.8638 27.0397 24.3299 25.5026 22.804 23.9735C22.4482 27.3385 22.0861 30.7794 21.7319 34.1429ZM28.3101 18.6825C26.3208 18.6825 24.3299 18.6778 22.3407 18.6857C21.5895 18.6888 21.1404 19.1474 21.21 19.8021C21.2701 20.3761 21.7145 20.7097 22.4513 20.7097C26.373 20.7129 30.293 20.7129 34.2146 20.7097C35.0353 20.7097 35.5287 20.3033 35.5097 19.6629C35.4923 19.0415 35.0274 18.6841 34.2225 18.6825C32.2507 18.6809 30.2804 18.6825 28.3101 18.6825ZM39.5673 55.2691C32.4547 55.2691 25.3736 55.2691 18.283 55.2691C18.283 55.6581 18.283 56.0423 18.283 56.5025C25.3957 56.5025 32.4768 56.5025 39.5673 56.5025C39.5673 56.1182 39.5673 55.7324 39.5673 55.2691ZM34.2225 24.0779C32.7092 25.5849 31.2133 27.0729 29.8597 28.4217C31.7099 30.2798 33.5979 32.1757 35.4449 34.0306C35.0464 30.781 34.6337 27.4223 34.2225 24.0779ZM55.9686 46.9024C55.9686 42.6171 55.9686 38.3729 55.9686 34.1239C55.3092 34.1239 54.6893 34.1239 54.06 34.1239C54.06 38.4013 54.06 42.6424 54.06 46.9024C54.7241 46.9024 55.3456 46.9024 55.9686 46.9024ZM7.65511 3.98114C7.48908 4.65161 7.63139 4.95681 8.28289 5.15605C12.0432 6.30566 15.783 7.51851 19.5307 8.70765C20.8922 9.13935 22.2568 9.5663 23.6547 10.0075C23.7575 9.68015 23.8413 9.41291 23.9346 9.11721C18.476 7.39517 13.0806 5.69369 7.65511 3.98114ZM28.4381 7.5707C26.5358 7.56437 25.002 9.08558 25.0036 10.9752C25.0067 12.8412 26.5232 14.364 28.386 14.3719C30.2819 14.3798 31.8221 12.8554 31.8269 10.9657C31.8332 9.11563 30.2962 7.57702 28.4381 7.5707ZM52.5087 17.4744C46.0617 15.5926 39.648 13.722 33.19 11.837C33.1188 12.1011 33.0555 12.3383 32.986 12.5961C33.2295 12.6704 33.4145 12.7336 33.6011 12.7842C37.0721 13.7378 40.543 14.6897 44.0124 15.6448C46.6484 16.3706 49.2829 17.0996 51.9173 17.827C52.1956 17.9045 52.515 18.0531 52.5087 17.4744ZM2.1759 33.1214C3.27965 33.1214 4.33122 33.1214 5.40018 33.1214C5.40018 32.1299 5.40018 31.1779 5.40018 30.2212C4.30434 30.2212 3.25119 30.2212 2.1759 30.2212C2.1759 31.1937 2.1759 32.1315 2.1759 33.1214ZM55.0831 17.2625C54.3573 17.2641 53.7658 17.8571 53.7785 18.5702C53.7896 19.2549 54.3762 19.8463 55.0594 19.8606C55.7757 19.8764 56.3718 19.2913 56.3797 18.5639C56.3876 17.8286 55.8231 17.2609 55.0831 17.2625ZM29.6447 15.7365C28.8351 15.7365 28.0586 15.7365 27.2553 15.7365C27.2553 16.222 27.2553 16.7169 27.2553 17.2166C28.0776 17.2166 28.8509 17.2166 29.6447 17.2166C29.6447 16.6837 29.6447 16.1999 29.6447 15.7365Z" fill="white"/>
</svg>
