<svg width="200" height="65" fill="none" xmlns="http://www.w3.org/2000/svg"><path d="M61.804 34.586h7.327V63.61c-.384.02-.804.055-1.22.055-2.768.004-5.54-.044-8.309.028-1.005.027-1.536-.337-2.059-1.169-3.944-6.245-7.948-12.459-11.932-18.68a1.436 1.436 0 0 0-.74-.626v20.36h-7.264v-28.97c.36-.02.736-.055 1.117-.055 2.847-.004 5.699.032 8.546-.024.82-.016 1.271.265 1.699.939 3.952 6.241 7.937 12.467 11.917 18.692.23.36.47.713.922 1.386-.004-7.188-.004-14.02-.004-20.961Zm99.4 29.781c-1.833-.289-3.984-.423-6.012-.994-6.015-1.683-7.888-6.221-7.235-11.623.507-4.186 3.061-6.756 6.978-7.944 4.329-1.315 8.736-1.323 13.081-.1 5.263 1.482 7.734 5.173 7.469 10.86-.222 4.697-3.267 8.055-8.348 9.041-1.846.364-3.743.491-5.933.76Zm6.198-10.954c-.051-.59-.059-1.188-.162-1.766-.559-3.046-2.701-4.8-5.731-4.713-3.105.087-5.018 1.861-5.41 5.018a20.07 20.07 0 0 0-.107 1.061c-.277 4.4 2.099 6.863 6.412 6.665 2.966-.138 4.958-2.653 4.998-6.265ZM98.14 55.33H80.45c.071 2.44 1.568 4.162 3.913 4.61 2.859.546 4.811-.321 5.797-2.603h7.474c-.123 1.996-.947 3.62-2.594 4.586a16.293 16.293 0 0 1-4.345 1.755c-3.105.752-6.28.709-9.417.146-6.67-1.196-9.98-6.42-8.321-13.037.93-3.723 3.402-5.984 6.958-7.093a19.508 19.508 0 0 1 10.65-.313c4.277 1.062 6.958 4.285 7.37 8.681.103 1.046.134 2.1.206 3.268Zm-7.805-4.19c.02-2.622-1.96-4.175-5.14-4.107-2.82.06-4.725 1.734-4.614 4.107h9.754Zm27.817-7.628h7.758v20.095h-7.592c-.079-.978-.159-1.905-.246-2.978-.352.285-.621.487-.879.705-3.239 2.724-6.974 3.41-11.005 2.498-3.208-.724-5.335-3.124-5.569-6.42-.221-3.144-.178-6.312-.229-9.468-.024-1.454-.004-2.903-.004-4.491 2.522 0 4.918-.024 7.318.047.194.004.523.681.527 1.05.044 3.12.024 6.245.024 9.366v.946c.016 3.141 1.152 4.614 3.699 4.8 3.441.25 5.675-1.212 5.948-4.297.281-3.176.182-6.384.242-9.58.019-.74.008-1.485.008-2.273Zm81.316 5.999h-7.314c-.769-2.337-3.442-3.394-5.672-2.17-.415.23-.875.82-.875 1.247 0 .42.471 1.097.875 1.224 1.684.527 3.418.899 5.137 1.31 1.493.357 3.01.646 4.491 1.046 1.952.527 3.505 1.565 3.798 3.743.325 2.396-.167 4.57-2.182 6.158-1.683 1.327-3.719 1.89-5.751 1.933-3.14.067-6.328.023-9.421-.464-3.418-.534-5.331-3.053-5.228-6.118h7.422c1.085 2.435 3.37 3.346 5.98 2.348.824-.317 1.489-.78 1.513-1.758.023-.974-.701-1.454-1.462-1.64-1.718-.416-3.485-.657-5.219-1.017-1.351-.282-2.701-.579-4.02-.967-1.905-.562-3.109-1.822-3.41-3.833-.317-2.123-.004-4.167 1.858-5.406 1.334-.891 2.946-1.588 4.522-1.854 3.802-.641 7.648-.621 11.339.725 2.597.939 3.896 2.994 3.619 5.493Zm-61.4-2.507c1.976-3.152 5.037-3.857 8.546-3.845v6.463c-.784 0-1.56-.004-2.337 0-3.849.016-6.162 2.36-6.225 6.38-.04 2.487-.008 4.974-.008 7.56h-7.766V43.456c2.222 0 4.578-.02 6.93.04.186.003.484.558.507.875.072.847.024 1.703.024 2.554.115.028.222.052.329.08Zm47.452-21.757v1.366h-3.374c-.289 1.762-.274 1.786 1.239 1.79.903.004 1.806 0 2.769 0 .031.46.051.8.083 1.24h-9.83c-.023-.345-.043-.717-.075-1.208h4.087c.032-.63.056-1.149.087-1.822-.899 0-1.679-.028-2.455.008-.749.035-1.109-.246-1.089-1.018.023-.863.004-1.727.004-2.796h4.079c.594 0 1.2.075 1.774-.028.404-.071.768-.38 1.152-.582-.368-.174-.732-.487-1.104-.499-1.933-.051-3.866-.024-5.842-.024v-1.212h8.471v3.604h-5.326c-.317 0-.658-.067-.943.024-.273.091-.495.349-.737.535.258.206.511.578.777.59 1.699.055 3.402.028 5.1.028.345.004.694.004 1.153.004ZM31.013 56.609c1.96-.012 3.355 1.378 3.35 3.342-.003 1.897-1.52 3.414-3.373 3.374-1.846-.04-3.264-1.485-3.272-3.338-.012-1.996 1.327-3.366 3.295-3.378Zm-8.597.415a3.175 3.175 0 0 1-3.24 3.2c-1.782-.031-3.093-1.39-3.097-3.2 0-1.833 1.406-3.24 3.216-3.212 1.71.028 3.12 1.478 3.12 3.212ZM7.105 50.145c-.008-1.735 1.216-2.998 2.935-3.018 1.762-.02 3.108 1.291 3.093 3.014a3.054 3.054 0 0 1-3.034 3.006c-1.671 0-2.982-1.315-2.994-3.002Zm.198-9.319c.004 1.672-1.125 2.832-2.765 2.84-1.623.008-2.87-1.192-2.879-2.776-.012-1.632 1.16-2.808 2.82-2.828 1.703-.016 2.82 1.077 2.824 2.764Zm152.079-20.419v1.268h-3.62c.832 1.69 2.333 1.382 3.616 1.81l.095 1.43c-1.679-.42-3.192-.8-4.693-1.177-1.382.36-2.871.745-4.483 1.164v-1.417c1.232-.404 2.749-.091 3.628-1.767h-3.584c-.111-.709-.317-1.303.59-1.307 2.8-.012 5.596-.004 8.451-.004ZM80.363 40.154c-1.208.087-2.372.202-3.537.237-.372.012-.792-.119-1.12-.305-1.45-.816-2.016-3.299-1.2-5.105.708-1.572 2.44-2.253 4.205-1.604.891.33 1.533.923 1.675 2.333-.704-.337-1.207-.57-1.698-.816-.31-.154-.59-.408-.915-.47-.828-.171-1.462.17-1.881.902-.507.891-.52 2.681.186 3.236.519.407 1.338.633 2 .586.451-.032.855-.678 1.287-1.058-.646-.645-1.988.163-1.632-1.366h2.638c-.008 1.109-.008 2.23-.008 3.43Zm94.056-14.512c.028.404.056.745.083 1.177-.669.055-1.275.106-2 .17v3.156h-1.576v-3.144h-2.764v3.14h-1.592c0-.685-.056-1.35.012-2.004.107-.998-.293-1.382-1.267-1.243-.187.027-.385-.02-.65-.036v-1.22c3.244.004 6.42.004 9.754.004ZM2.745 33.489C1.176 33.504.015 32.403 0 30.887c-.012-1.454 1.244-2.725 2.693-2.721a2.66 2.66 0 0 1 2.65 2.618c.035 1.592-1.018 2.685-2.598 2.705Zm163.738 2.181c-.642-.371-1.061-.668-1.525-.866-.475-.202-.998-.408-1.497-.4-.269.004-.713.431-.744.7-.028.25.348.666.641.793.571.25 1.208.356 1.818.51 1.054.27 1.656.884 1.564 2.028-.083 1.058-.804 1.794-1.893 1.953-2.055.297-3.271-.317-3.56-1.806-.012-.068.032-.147.111-.503.487.241.907.467 1.343.661.443.198.922.535 1.354.487.451-.047.867-.471 1.295-.732-.337-.321-.626-.74-1.026-.939-.519-.253-1.128-.333-1.699-.487-.93-.254-1.358-.86-1.338-1.83.019-.994.487-1.6 1.417-1.948 1.446-.523 3.711.095 3.739 2.38ZM28.7 51.52c.008-1.569 1.002-2.555 2.578-2.559 1.549-.008 2.753 1.14 2.737 2.614-.012 1.49-1.232 2.618-2.788 2.586-1.52-.032-2.535-1.085-2.527-2.641Zm123.859-16.04c0 1.216-.028 2.555.008 3.893.027 1.085-.341 1.834-1.458 2.115-1.465.372-2.554.028-3.358-1.347.828.175 1.422.313 2.024.424.653.119 1.259.111 1.489-.828-.206 0-.341-.031-.452.004-1.069.365-2.028.325-2.685-.748-.594-.974-.515-2.63.277-3.31.412-.353 1.042-.623 1.577-.63.792-.005 1.588.253 2.578.427Zm-.796 2.111a506.167 506.167 0 0 0-1.648-1.418c-.348.46-.966.915-.97 1.374-.004.428.59 1.105 1.034 1.208.328.075.831-.582 1.584-1.164ZM22.954 51.967c-1.481.02-2.547-1.01-2.558-2.475-.012-1.433 1.093-2.554 2.518-2.542a2.517 2.517 0 0 1 2.523 2.447c.051 1.434-1.026 2.55-2.483 2.57Zm67.068-18.574h1.191v1.87c.884 0 1.72-.195 2.4.043 1.094.384 1.501 2.487.915 3.909-.487 1.184-1.315 1.417-2.84.994-.478-.135-1.053.087-1.666.15v-6.966Zm1.203 4.317c-.011.903.179 1.687 1.137 1.671.88-.012 1.077-.828 1.101-1.548.024-.78-.206-1.624-1.125-1.64-.934-.016-1.14.788-1.113 1.517ZM4.36 23.31c-1.433-.011-2.47-1.045-2.459-2.45.012-1.395 1.073-2.432 2.491-2.44 1.43-.008 2.515 1.021 2.539 2.4.02 1.433-1.082 2.499-2.57 2.49Zm155.387 2.567v1.267c-1.05 0-2.064.044-3.069-.011-.832-.048-1.141.257-1.066 1.08.06.662.012 1.331.012 2.036h-1.564c0-.768-.04-1.469.012-2.166.051-.737-.266-.97-.967-.942-1.017.035-2.039.007-3.14.007v-1.267c3.235-.004 6.439-.004 9.782-.004Zm37.706-1.814c-.032.55-.052.93-.08 1.398-1.746-.178-3.203-.732-4.336-2.146-1.172 1.322-2.63 2.059-4.491 2.126v-1.378c2.162-.253 3.489-1.445 3.667-3.718h1.596c.115 2.241 1.406 3.41 3.644 3.718ZM18.823 44.502c.036 1.22-1.14 2.443-2.38 2.475-1.283.032-2.42-1.07-2.443-2.372-.028-1.347 1.002-2.42 2.336-2.444 1.311-.02 2.452 1.054 2.487 2.34ZM122.77 33.393l1.144-.051.151 2.095c.384-.143.697-.293 1.029-.377 1.018-.245 1.996.38 2.048 1.39.063 1.252.016 2.511.016 3.775-.872.28-1.268.083-1.204-.82.043-.59.043-1.188-.004-1.774-.052-.646.019-1.501-.947-1.47-.859.028-1.01.74-1.01 1.47v2.653c-.463.024-.8.04-1.223.06v-6.95ZM11.758 12.008c.024 1.362-.883 2.3-2.257 2.325-1.378.023-2.349-.891-2.368-2.226-.016-1.255 1.041-2.38 2.269-2.416 1.22-.04 2.336 1.062 2.356 2.317Zm178.613 28.407c-1.572-.008-2.459-.978-2.451-2.665.008-1.703 1.026-2.785 2.574-2.737 1.442.044 2.42 1.188 2.4 2.804-.016 1.68-.919 2.606-2.523 2.598Zm-1.116-2.618c.071.772.178 1.56 1.219 1.509.959-.047 1.034-.788 1.054-1.533.02-.823-.19-1.608-1.133-1.608-.958 0-1.097.84-1.14 1.632ZM14.637 38c-.016 1.307-.926 2.158-2.277 2.135-1.326-.024-2.202-.923-2.182-2.246.02-1.299.95-2.178 2.285-2.154 1.315.027 2.19.938 2.174 2.265Zm85.004 2.173c-.835.091-1.798.238-2.764.29-.788.043-1.394-.286-1.52-1.161-.131-.887.154-1.569 1.04-1.881.33-.115.714-.087 1.046-.194.313-.103.606-.282.872-.476.031-.023-.167-.526-.274-.534a2.853 2.853 0 0 0-1.093.142c-.455.159-.879.408-1.493.701.38-1.643 1.184-2.202 2.547-2.04 1.299.155 1.64.587 1.643 2.092-.004 1.045-.004 2.09-.004 3.061Zm-1.489-2.436c-.499.373-.998.749-1.497 1.121.206.23.42.662.622.658.863-.032 1.188-.602.875-1.779Zm75.935-15.068v1.354c-2.836 0-5.628.02-8.42-.032-.241-.003-.649-.447-.677-.712-.087-.892-.032-1.794-.032-2.785h1.501c.04.733.079 1.387.123 2.17 2.507.005 4.974.005 7.505.005Zm-1.608 15.124c-.004 1.672-.907 2.626-2.487 2.622-1.592-.004-2.455-.93-2.459-2.641-.004-1.695 1.014-2.8 2.538-2.757 1.481.04 2.412 1.113 2.408 2.776Zm-3.616.012c.044.701.107 1.505 1.149 1.505.95 0 1.121-.736 1.14-1.481.02-.788-.138-1.616-1.097-1.66-.974-.043-1.164.75-1.192 1.636Zm-30.268-.064c.008 1.719-.848 2.665-2.424 2.673-1.588.008-2.519-.938-2.538-2.586-.02-1.647 1.025-2.824 2.514-2.816 1.493.004 2.44 1.058 2.448 2.73Zm-3.62.004c.04.733.123 1.533 1.145 1.556 1.033.024 1.188-.807 1.2-1.56.008-.725-.218-1.532-1.097-1.576-.947-.044-1.224.697-1.248 1.58Zm12.15.008c0 1.742-.827 2.653-2.419 2.661-1.573.008-2.499-.95-2.519-2.602-.02-1.683.994-2.807 2.519-2.8 1.461.008 2.419 1.093 2.419 2.741Zm-1.342-.016c.008-.82-.171-1.612-1.153-1.572-.954.04-1.128.871-1.105 1.655.02.733.179 1.481 1.133 1.49 1.065.007 1.113-.789 1.125-1.573Zm-59.139 2.678c-1.557 0-2.507-.99-2.527-2.626-.016-1.64 1.057-2.8 2.57-2.776 1.43.023 2.471 1.192 2.463 2.764-.008 1.655-.942 2.638-2.507 2.638Zm1.374-2.943c-.448-.447-.864-1.22-1.35-1.271-1.034-.103-1.193.843-1.18 1.655.007.74.209 1.481 1.167 1.45 1.026-.028 1.09-.828 1.363-1.834Zm25.318.578c.36 1.458.804 1.648 1.754 1.098.388-.226.876-.282 1.446-.452-.531 1.565-1.454 2.02-2.959 1.663-1.199-.285-1.849-1.726-1.54-3.43.23-1.259 1.319-2.07 2.578-1.912 1.347.166 2.032 1.16 1.968 3.03-1.037.004-2.079.004-3.247.004Zm1.869-.89.143-.333c-.369-.234-.737-.642-1.109-.65-.309-.008-.63.456-.947.713l.175.27h1.738Zm62.303-2.02c0 .86-.015 1.719.004 2.578.016.69-.122 1.572.931 1.576 1.085.004 1.026-.887 1.038-1.64.016-.823.004-1.647.004-2.574l1.227-.067v5.153c-1.045.083-2.083.293-3.085.182-.463-.052-1.156-.678-1.227-1.129-.191-1.192-.151-2.436-.084-3.651.016-.254.547-.48.84-.717.123.095.238.194.352.289Zm20.65 5.151h-1.113c-.028-.293-.079-.594-.087-.898-.016-.67.095-1.363-.04-2.004-.099-.452-.467-1.137-.804-1.193-.748-.122-1.077.507-1.093 1.22-.02.939-.004 1.878-.004 2.867h-1.22v-4.875c.923-.134 1.814-.356 2.705-.372.907-.02 1.628.408 1.652 1.454.027 1.22.004 2.44.004 3.801Zm-68.605-.055c-.978.277-1.327 0-1.303-.867.04-1.33.012-2.666.012-3.929 1.026-.154 1.909-.38 2.8-.404.99-.023 1.659.539 1.703 1.576.051 1.177.012 2.357.012 3.656l-1.299.071c0-1.081.087-2.071-.04-3.03-.055-.42-.546-.784-.839-1.172-.349.368-.931.701-.994 1.117-.155.958-.052 1.956-.052 2.982Zm26.134-2.086c.222-.706.515-1.402.649-2.123.167-.895.587-1.228 1.636-.895-.721 1.897-1.35 3.833-2.218 5.655-.245.515-1.196.69-1.821 1.022l-.392-.503c.213-.246.475-.467.637-.749.194-.336.499-.784.408-1.08-.444-1.462-.998-2.892-1.544-4.413h1.386l1.013 3.125a5.04 5.04 0 0 0 .246-.04ZM19.334 5.513c.004 1.243-.907 2.122-2.174 2.102-1.235-.02-2.043-.851-2.043-2.098 0-1.236.827-2.092 2.043-2.115 1.267-.028 2.17.851 2.174 2.11Zm89.875 34.807c-.369-.02-.709-.04-1.196-.072 0-1.544-.052-3.025.02-4.506.043-.939-.191-1.418-1.22-1.28-.788.103-.978-.297-.697-1.06h5.303v.918c-.068.04-.135.11-.202.115-1.838.127-1.834.127-1.838 1.976-.004 1.18-.016 2.36-.028 3.54-.004.076-.055.147-.142.369Zm-75.622 4.372c.008 1.231-.84 2.075-2.067 2.06-1.144-.017-2.035-.868-2.067-1.985a2.095 2.095 0 0 1 2.051-2.135c1.196-.015 2.076.856 2.083 2.06Zm164.376-14.998h-9.916c-.02-.408-.04-.776-.068-1.283 3.189 0 6.293-.012 9.398.008.951.004.586.68.586 1.275Zm-76.275 7.516c-.574-.3-.97-.577-1.409-.712-.385-.115-.927-.238-1.212-.06-.67.424-.709 2.25-.06 2.674.281.186.84.063 1.228-.06.451-.142.851-.44 1.446-.76-.198 1.687-.951 2.277-2.361 2.17-1.433-.107-2.123-1.022-2.075-2.744.047-1.703.895-2.681 2.333-2.705 1.235-.02 1.992.65 2.11 2.198Zm-93.815 6.147c-.02 1.058-.93 1.949-1.976 1.937-1.121-.012-1.98-.939-1.937-2.083.044-1.11.875-1.858 2.024-1.826 1.128.032 1.909.843 1.889 1.972ZM24.843 1.96c.012-1.112.852-1.968 1.925-1.96 1.002.008 2 .97 2.02 1.949.02 1.089-.911 1.964-2.071 1.948-1.196-.02-1.886-.733-1.874-1.937ZM12.99 30.878c-.024 1.065-.847 1.877-1.893 1.865-1.109-.012-1.913-.867-1.877-1.992.036-1.081.804-1.77 1.952-1.75 1.133.02 1.842.752 1.818 1.877Zm160.538 2.472h1.386v6.914h-1.386V33.35ZM21.497 41.8c-1.109-.015-1.846-.78-1.806-1.876.036-1.018.812-1.775 1.826-1.786 1.065-.008 1.857.788 1.85 1.86-.005 1.118-.733 1.819-1.87 1.803Zm160.887-8.022h.507c.467.598.843 1.005 1.12 1.473.107.178.076.574-.059.732-.839.994-.851 2.666-.051 3.573.126.142.015.764-.135.831-.848.388-1.683-.142-1.731-1.069-.039-.745.036-1.497-.035-2.238-.036-.368-.317-.704-.424-1.069-.075-.253-.139-.574-.048-.8.171-.424.46-.796.856-1.433ZM12.336 25.516c-1.025-.008-1.83-.764-1.861-1.742-.032-1.03.78-1.826 1.87-1.834 1.116-.008 1.825.717 1.801 1.833-.02 1.034-.768 1.75-1.81 1.743ZM38.72 1.968c-.012.946-.9 1.838-1.814 1.818-.966-.024-1.782-.872-1.774-1.846A1.779 1.779 0 0 1 36.934.158a1.787 1.787 0 0 1 1.786 1.81ZM20.558 35.603c-.012 1.034-.67 1.676-1.719 1.672-.998-.004-1.73-.71-1.746-1.675-.016-1.018.768-1.775 1.805-1.75 1.01.023 1.672.724 1.66 1.753Zm80.568-2.261h1.228v6.898h-1.228v-6.898Zm-19.393.011h1.196v6.883h-1.196v-6.883Zm59.274 6.883h-1.196v-6.855c.368-.028.736-.051 1.196-.083v6.938ZM17.631 17.44c0 .96-.65 1.593-1.647 1.605-1.066.016-1.747-.622-1.743-1.632.004-1.006.697-1.643 1.755-1.62.946.028 1.635.717 1.635 1.648ZM46.466 6.926c-.927-.015-1.58-.653-1.588-1.544-.008-.88.772-1.648 1.663-1.632.95.016 1.569.701 1.533 1.7-.032.93-.646 1.496-1.608 1.476ZM22.954 12.61c.004 1.088-.48 1.6-1.426 1.647-.942.047-1.604-.575-1.608-1.477-.004-.943.606-1.537 1.569-1.513.954.023 1.437.53 1.465 1.342Zm162.479 22.688h1.232v4.88c-.868.324-1.276.134-1.244-.848.044-1.33.012-2.665.012-4.032Zm-37.239-15.033c.741.634.773 9.49 0 10.254V20.265Zm13.572.099v10l-.249.106c-.123-.202-.349-.404-.349-.606a674.1 674.1 0 0 1-.004-8.994c0-.198.171-.4.262-.598.114.036.229.064.34.092ZM18.76 24.601c.891.04 1.43.543 1.47 1.379.04.867-.559 1.425-1.383 1.457-.835.028-1.437-.515-1.457-1.378-.024-.852.499-1.359 1.37-1.458Zm36.985-12.629c-.071.768-.535 1.271-1.41 1.307-.824.036-1.465-.681-1.406-1.525.063-.903.634-1.322 1.47-1.35.776-.028 1.366.665 1.346 1.568Zm-28.922-1.688c.072-.89.543-1.366 1.426-1.382.844-.016 1.327.42 1.354 1.268.028.879-.4 1.425-1.306 1.449-.888.024-1.343-.491-1.474-1.335Zm3.545 29.541c.051-1.232.471-1.707 1.319-1.723.839-.015 1.354.444 1.382 1.26.027.823-.539 1.413-1.303 1.33-.547-.063-1.042-.633-1.398-.867Zm-7.691-17.758c-.468.332-.895.847-1.41.958-.73.155-1.295-.281-1.331-1.113-.036-.855.436-1.43 1.26-1.319.518.068.977.579 1.465.892.004.194.008.388.015.582Zm36.636-2.701c.955.016 1.382.448 1.378 1.248-.004.732-.384 1.18-1.148 1.223-.824.044-1.287-.412-1.319-1.18-.031-.772.42-1.232 1.09-1.29ZM28.495 37.117c.336.467.895.902.962 1.405.099.725-.48 1.375-1.22 1.208-.515-.115-1.188-.728-1.263-1.204-.064-.408.622-.934.974-1.406.186 0 .368 0 .547-.003ZM36.91 9.913c-.214 1.11-.661 1.66-1.43 1.474-.483-.12-1.1-.674-1.203-1.133-.167-.733.443-1.343 1.184-1.26.507.06.966.599 1.45.92Zm-17.584 21.16c-.443.313-.93.923-1.318.864-.44-.064-1.006-.674-1.125-1.145-.178-.697.372-1.263 1.089-1.156.483.071.903.558 1.354.86-.003.193 0 .387 0 .577Zm7.331-12.369c-.816.547-1.319 1.141-1.75 1.093-.428-.047-1.082-.748-1.082-1.16 0-.388.71-1.053 1.14-1.081.432-.028.908.582 1.692 1.148Zm-2.46 17.493c.444-.305.86-.796 1.339-.867.689-.1 1.29.424 1.113 1.137-.123.479-.685 1.089-1.133 1.168-.376.067-.871-.55-1.315-.868 0-.186 0-.376-.004-.57Zm16.899-23.881c.436-.253.927-.768 1.291-.693.424.087.737.697 1.097 1.081-.396.353-.764.947-1.196.99-.372.04-.812-.538-1.22-.84.012-.181.02-.36.028-.538ZM24.194 32.494c.26.444.76.92.712 1.327-.043.384-.732 1.026-1.021.97-.424-.083-.979-.661-1.034-1.085-.047-.372.51-.828.8-1.243.182.012.364.02.543.031Zm5.315-17.025c.487.736.986 1.156.942 1.505-.052.392-.539.93-.93 1.025-.674.163-1.161-.348-1.046-1.03.075-.42.515-.776 1.034-1.5Zm31.749 16.625c-.495-.736-.927-1.105-.986-1.528-.1-.701.42-1.172 1.089-.978.388.11.863.66.895 1.045.028.357-.487.753-.998 1.461ZM47.971 15.83c.424.72.868 1.144.812 1.48-.06.36-.594.642-.923.959-.3-.345-.811-.673-.84-1.038-.023-.34.464-.72.951-1.402ZM34.28 18.376c-.42-.736-.82-1.129-.792-1.485.024-.3.606-.835.828-.784.364.083.847.535.887.88.04.312-.432.692-.923 1.39Zm-9.132 9.405c-.602.432-.95.872-1.283.86-.305-.012-.816-.5-.828-.792-.012-.285.476-.8.78-.832.33-.032.705.38 1.331.764Zm13.81-10.431c.372.61.756.958.744 1.295-.012.277-.49.535-.764.804-.285-.297-.74-.562-.808-.903-.048-.258.4-.61.828-1.196ZM25.33 26.375c-.376-.49-.804-.804-.796-1.108.008-.305.447-.598.697-.896.313.286.8.527.883.868.06.245-.412.621-.784 1.136Zm26.21-4.135c.42.634.78.947.78 1.256 0 .258-.464.749-.662.72-.317-.043-.76-.399-.82-.688-.055-.273.321-.634.701-1.287Zm-22.903 1.035c-.468.32-.769.685-1.018.653-.281-.035-.515-.431-.768-.67.25-.26.479-.692.756-.724.25-.027.554.376 1.03.74Zm-4.273 7.421c-.468.392-.745.8-1.002.792-.273-.012-.53-.424-.792-.657.233-.258.44-.67.717-.721.25-.052.574.293 1.077.586ZM42.68 20.72c.32.444.654.705.634.939-.02.245-.373.467-.582.7-.246-.233-.614-.431-.697-.712-.052-.182.32-.483.645-.927Zm11.16 9.952c-.479.31-.764.638-.986.602-.241-.04-.586-.42-.59-.657-.004-.206.396-.555.642-.582.221-.02.479.312.934.637Zm-23.393-9.386c.313.416.665.678.653.927-.008.218-.42.57-.661.578-.214.008-.61-.372-.618-.594-.012-.25.325-.507.626-.91Zm156.214 13.118c-1.184.114-1.184.114-1.129-.97.764-.195 1.374-.242 1.129.97ZM45.96 25.935c-.389.294-.714.642-.809.587a1.296 1.296 0 0 1-.554-.721c-.028-.103.38-.456.598-.464.198-.004.408.301.764.598Zm-11.6-3.769c-.444.305-.674.595-.876.575-.237-.024-.447-.313-.67-.488.199-.201.37-.522.595-.566.206-.04.471.222.95.48Z" fill="#BCBCBC"/></svg>