<svg width="200" height="43" fill="none" xmlns="http://www.w3.org/2000/svg"><path d="M6.118 6.683c-.18.57-.24 1.215-.56 1.69C.65 15.69 1.052 25.99 6.881 32.754c7.68 8.913 21.506 9.148 28.78-.605 4.028-5.4 4.168-12.684.502-18.323-4.461-6.86-13.844-8.936-20.441-3.87-6.741 5.174-6.579 15.058.361 19.438 4.845 3.052 11.55 1.075 13.514-4.113 1.545-4.078-.379-8.837-5.052-9.478-1.775-.244-3.305.33-4.434 1.775-.845 1.079-1.183 2.352-.492 3.544.374.65 1.21 1.165 1.95 1.427.348.122.957-.51 1.197-.655-.425-.934-1.07-1.657-.935-2.18.32-1.224 1.454-1.342 2.57-1.157 2.569.425 3.693 3.992 2.031 6.412-2.727 3.97-8.71 3.44-11.216-.984-2.899-5.12.398-11.835 6.407-13.054 6.706-1.363 13.302 4.01 13.402 10.886.063 4.61-1.72 8.331-5.441 11.004-6.186 4.439-14.043 3.193-18.942-1.982C2.19 21.91 6.651 6.945 18.738 3.572 29.878.466 41.125 8.164 42.741 19.638c1.64 11.631-7.658 21.452-17.89 22.806-7.716 1.02-14.186-1.377-19.392-7.048-6.584-7.17-7.265-18.355-1.757-26.378a16.267 16.267 0 0 1 1.612-1.991c.194-.208.6-.213.908-.312a1.191 1.191 0 0 0-.104-.032ZM148.412 8.86v1.544c0 3.73-.041 7.463.014 11.193.018 1.097-.258 1.526-1.436 1.49-2.732-.086-2.736-.027-2.732-2.772 0-5.003.023-10.01-.018-15.014-.009-.934.226-1.3 1.215-1.26 1.634.073 3.278.068 4.912-.004.944-.04 1.481.32 1.969 1.097 2.519 3.996 5.089 7.96 7.644 11.934.267.416.551.813 1.125 1.197.031-.452.085-.908.09-1.36.009-3.82.045-7.644-.018-11.464-.018-1.092.32-1.404 1.39-1.4 2.782.014 2.782-.035 2.782 2.687 0 4.958-.027 9.92.022 14.878.014 1.115-.289 1.562-1.449 1.472-1.174-.09-2.384-.153-3.544.01-1.816.256-2.768-.556-3.662-2.046-2.366-3.929-4.908-7.758-7.383-11.627-.158-.248-.338-.488-.51-.727-.135.059-.271.117-.411.171Zm29.864 14.503c-1.77-.081-3.558-.023-5.305-.275-2.804-.407-4.326-2.06-4.371-4.877-.059-3.36.027-6.728.253-10.078.176-2.605 1.648-3.942 4.267-4.032 3.54-.122 7.111-.357 10.624-.059 4.154.357 5.337 1.635 5.568 5.798.171 3.106-.059 6.267-.416 9.369-.289 2.51-1.693 3.58-4.213 3.824a56.02 56.02 0 0 1-3.26.23c-1.047.041-2.095.01-3.142.01-.005.027-.005.058-.005.09Zm.474-4.52v.005h1.775c.591 0 1.183.018 1.774-.014 1.703-.081 2.556-.826 2.628-2.488a66.696 66.696 0 0 0 0-5.459c-.068-1.734-.785-2.51-2.524-2.582-2.316-.1-4.637-.077-6.958-.01-1.097.032-2.253.48-2.312 1.707-.122 2.389-.049 4.791.086 7.18.068 1.187.984 1.657 2.122 1.661 1.138.005 2.276 0 3.409 0ZM56.504 3.716c1.68.113 3.467.077 5.197.384 2.018.361 3.5 2.89 3.097 4.908-.031.163-.13.438-.221.447-.808.077-1.621.14-2.43.136-.758-.005-1.63.311-1.932-.921-.1-.398-.89-.872-1.372-.881-2.177-.05-4.362.014-6.539.113-1.034.05-1.715.61-1.652 1.752.063 1.205.745 1.81 1.937 1.815 2.23.009 4.461-.032 6.687.014.993.018 1.996.121 2.971.316 1.766.352 2.88 1.54 3.048 3.54a18.923 18.923 0 0 1-.203 4.6c-.307 1.856-1.481 2.967-3.355 3.021-4.082.122-8.168.158-12.25.018-2.307-.08-4-3.31-3.003-5.382.1-.207.492-.352.763-.38.633-.053 1.274.019 1.91-.026.845-.059 1.405.054 1.685 1.065.13.47.966 1.025 1.508 1.053 2.221.108 4.456.085 6.682 0 1.472-.06 1.924-.62 1.883-1.933-.04-1.233-.627-1.73-2.059-1.765a1455.41 1455.41 0 0 1-8.859-.271c-1.824-.06-3.179-.949-3.409-2.714a22.84 22.84 0 0 1-.018-5.662c.199-1.662 1.788-2.705 3.856-2.881 1.991-.154 3.987-.235 6.078-.366Zm33.359.374c5.314 0 10.407-.085 15.496.042 2.185.054 3.513 1.729 3.68 4.18.081 1.224.059 2.457-.004 3.685-.077 1.45-.669 2.614-2.087 3.229-.32.14-.614.334-1.128.618.578.24.97.397 1.354.57.994.437 1.621 1.141 1.648 2.284.027 1.093.045 2.185.086 3.273.032.822-.361 1.08-1.16 1.111-3.143.127-3.143.15-3.387-2.998-.113-1.44-.582-1.937-2.027-1.955-2.321-.036-4.642.013-6.963-.018-.858-.014-1.291.298-1.255 1.183.014.316-.004.636-.004.957-.014 2.926-.565 3.382-3.509 2.786-.284-.059-.709-.488-.709-.75-.04-6.014-.031-12.015-.031-18.196Zm8.944 4.232V8.29c-1.178 0-2.361.023-3.54-.009-.78-.018-1.2.253-1.173 1.093.036 1.133-.028 2.275.085 3.4.036.366.501.98.777.984 2.763.032 5.527-.027 8.29-.095.953-.022 1.327-.677 1.377-1.544.032-.497.027-.998.018-1.499-.018-1.662-.46-2.176-2.158-2.28-1.219-.081-2.452-.018-3.676-.018Zm-30.252 5.256c0-2.773.027-5.55-.014-8.322-.013-.876.258-1.215 1.165-1.206 4.14.045 8.277.005 12.417.054 2.917.037 4.47 1.3 4.719 4.195.19 2.194.054 4.452-.212 6.647-.253 2.095-1.522 3.097-3.63 3.16-2.818.082-5.64.082-8.458.059-1.11-.009-1.765.294-1.553 1.544.014.09.004.18 0 .271-.005 3.292-.325 3.585-3.648 3.012-.312-.054-.736-.714-.745-1.097-.068-2.768-.036-5.545-.041-8.317Zm4.43.343c2.641 0 5.088.045 7.526-.018 1.463-.037 1.987-.723 2.118-2.434.14-1.81-.375-2.854-1.788-2.967-2.384-.185-4.79-.167-7.188-.167-.226 0-.628.497-.641.772-.06 1.54-.028 3.07-.028 4.814Zm46.137 9.134c.776-1.774 1.453-3.341 2.149-4.904 1.901-4.267 3.842-8.515 5.689-12.805.434-1.002.993-1.436 2.059-1.287.402.059.831.086 1.224 0 2.691-.564 3.987.628 4.962 3.138 2 5.157 4.375 10.164 6.592 15.235.05.117.045.262.095.605-1.418 0-2.808.108-4.163-.063-.429-.055-.88-.817-1.115-1.346-.908-2.068-.876-2.081-3.134-2.077-2.321.005-4.637.014-6.958.01-.677 0-1.242.053-1.418.902-.451 2.222-1.869 2.976-4.036 2.61-.556-.1-1.143-.018-1.946-.018Zm15.04-7.279c-1.174-2.709-2.28-5.26-3.386-7.807l-.38.055-3.337 7.752h7.103ZM46.76 26.654c.546-.05 1.093-.149 1.634-.149 36.326-.009 72.651-.005 108.976-.005h30.181c.365 0 .736-.036 1.088.037.158.031.379.28.384.433.004.131-.249.357-.416.384-.352.063-.727.023-1.088.023-45.929 0-91.859.004-137.788.004H46.76c-.005-.244 0-.483 0-.727Zm94.238 15.406c-1.043 0-2.099.108-3.129-.022-1.919-.24-2.817-1.107-2.876-3.008-.063-2.077.117-4.163.248-6.244.064-1.02.696-1.815 1.68-1.87a97.856 97.856 0 0 1 7.721-.103c1.549.04 2.438 1.178 2.565 2.569.176 1.932.203 3.92-.05 5.838-.289 2.176-1.115 2.727-3.431 2.88-.904.06-1.82.01-2.728.01v-.05Zm0-2.46c.637 0 1.269-.014 1.906.004 1.309.04 1.928-.578 1.892-1.892-.027-.998 0-1.996-.023-2.994-.022-.98-.56-1.517-1.522-1.571-.903-.05-1.815-.032-2.722-.032-2.849-.004-3.021.163-3.048 2.953-.032 3.531-.032 3.531 3.517 3.531Zm-23.759-8.996c.727 0 1.454-.009 2.185 0 2.759.037 3.91.962 4.055 3.658.099 1.847-.118 3.711-.276 5.563-.09 1.047-.736 1.91-1.774 1.968a91.315 91.315 0 0 1-7.861.122c-1.423-.04-2.231-1.093-2.303-2.438-.113-2.036-.158-4.1.009-6.127.163-1.946 1.142-2.66 3.237-2.75.908-.04 1.82-.005 2.728-.005v.01Zm.022 9.013v-.01c.547 0 1.093.01 1.639 0 1.63-.04 2.109-.51 2.127-2.117.009-.862.027-1.73-.023-2.592-.063-1.106-.623-1.779-1.801-1.788-1.319-.009-2.637-.036-3.956.005-.876.023-1.449.465-1.53 1.409-.054.587-.167 1.17-.185 1.76-.1 2.85.379 3.342 3.187 3.337.177-.004.357-.004.542-.004Zm40.809-2.031c-.871 0-1.698.099-2.479-.045-.37-.068-.645-.61-.966-.94.312-.27.614-.758.939-.78a28.59 28.59 0 0 1 4.087.004c.361.027.966.555.975.862.027 1.26-.005 2.551-.258 3.78-.203.984-.97 1.657-2.068 1.67-2.135.023-4.276.086-6.407-.027-1.878-.1-2.953-1.328-2.993-3.215-.036-1.59-.059-3.183.013-4.773.1-2.212.89-3.246 2.922-3.422a34.429 34.429 0 0 1 5.987.014c2.077.185 2.257.541 2.822 3.418-.984.158-1.933.636-2.714-.542-.18-.276-.7-.438-1.07-.452-1.364-.054-2.741-.13-4.082.04-.492.064-1.192.728-1.282 1.21-.203 1.094-.059 2.25-.104 3.374-.059 1.4.732 1.982 1.978 2.059 1.043.063 2.095.086 3.133-.01 1.107-.112 1.879-.64 1.567-2.225Zm-58.811-4.078v8.33c-2.059.412-2.262.272-2.267-1.512-.013-2.817.018-5.64-.022-8.457-.014-.921.284-1.188 1.237-1.296 2.145-.244 3.567.375 4.538 2.425.871 1.833 2.108 3.49 3.206 5.215.212.334.505.618.984 1.183.077-.655.153-1.02.153-1.386.014-2.09.027-4.181-.004-6.276-.014-.79.212-1.16 1.084-1.143.835.018 1.228.226 1.214 1.16a317.97 317.97 0 0 0 .014 9.004c.013.962-.398 1.16-1.292 1.264-2.013.235-3.386-.293-4.393-2.221-1.165-2.23-2.682-4.28-4.046-6.407-.13.036-.266.076-.406.117Zm89.515.393c-1.038.01-1.973.28-2.727-.78-.248-.349-1.183-.24-1.806-.267-.817-.036-1.671-.136-2.447.05-.506.117-.899.69-1.346 1.06.451.416.867 1.138 1.359 1.197 1.391.167 2.818.095 4.226.054 2.84-.09 3.531 1.508 3.297 4.1-.181 1.982-.732 2.447-2.8 2.623-1.901.163-3.815.19-5.725.163-2.168-.036-2.858-.917-2.601-3.174.953-.217 1.91-.6 2.583.623.122.226.623.33.952.339 1.228.031 2.457-.005 3.689-.005.772 0 1.387-.235 1.396-1.124.009-.917-.578-1.256-1.423-1.283a262.188 262.188 0 0 1-5.319-.216c-.393-.023-.885-.055-1.142-.29-1.404-1.268-.948-2.984-.718-4.478.095-.633 1.174-1.49 1.883-1.58 2.199-.267 4.443-.312 6.664-.254 1.531.04 2.154 1.156 2.005 3.242Zm-72.036-10.908h-4.213c-.036-.38-.095-.727-.095-1.07-.018-5.59-.009-11.185-.059-16.775-.009-.858.267-1.083 1.088-1.102 3.292-.072 3.288-.099 3.288 3.247-.005 4.682-.005 9.365-.005 14.047-.004.492-.004.984-.004 1.653ZM68.447 37.261H63.48c-2.131 0-2.15.027-1.788 2.52 2.081 0 4.2.022 6.321-.01.876-.013 1.36.344 1.125 1.202-.104.388-.583.939-.912.952-2.768.118-5.54.118-8.309.176-.736.014-.912-.347-.907-1.011a593.3 593.3 0 0 0 0-9.405c-.01-.85.343-1.093 1.147-1.084 2.637.036 5.274.059 7.906 0 1.106-.027 1.11.569 1.124 1.373.014.867-.347 1.06-1.156 1.038-2.086-.059-4.172-.018-6.375-.018v2.348c1.734 0 3.486.059 5.233-.018 1.707-.081 1.883.059 1.558 1.937Zm13.121-2.877c-.935.063-1.964.537-2.492-.83-.086-.217-.52-.412-.8-.416-1.363-.036-2.736-.104-4.081.059-.447.054-1.098.736-1.156 1.196-.158 1.242-.095 2.515-.037 3.775.046.989.691 1.427 1.644 1.436 1.093.009 2.19.09 3.27-.036.496-.06 1.196-.425 1.363-.831.456-1.125 1.34-.84 2.04-.678.263.064.443.949.461 1.464.05 1.363-.573 2.361-2.014 2.397-2.433.059-4.885.086-7.3-.153-.66-.064-1.635-1.039-1.762-1.725-.442-2.439-.61-4.926.018-7.396.348-1.373 1.319-1.942 2.574-2 1.815-.086 3.635-.068 5.45-.023 2.32.054 3.269 1.318 2.822 3.761Zm87.475 1.035c2 0 4-.045 5.992.045.343.014.659.61.988.935-.356.284-.7.794-1.074.817-1.59.095-3.184.072-4.777.04-.926-.017-1.147.466-1.179 1.274-.036.885.348 1.246 1.201 1.242 1.549-.01 3.098.004 4.642.013 1.901.01 1.946.068 1.558 2.19-3.012 0-6.046.018-9.081-.036-.234-.005-.659-.492-.663-.763-.045-3.233-.05-6.466.013-9.694.005-.294.569-.818.885-.827 2.682-.068 5.373-.022 8.055-.05.836-.008.971.425.976 1.12.004.723-.091 1.26-1.003 1.247-1.594-.019-3.187 0-4.781.013-1.779.014-1.843.086-1.784 1.856.009.244.027.492.032.578Zm-73.87.938c0 1.549-.032 3.098.013 4.642.023.763-.239 1.129-1.011 1.047-.646-.072-1.445.073-1.39-1.015.04-.818-.014-1.64-.014-2.457 0-.7-.244-1.106-1.039-1.088a120.77 120.77 0 0 1-4.777.009c-.75-.009-1.088.289-1.075 1.043.019.863.082 1.738-.036 2.587-.045.339-.51.876-.79.88-.582.01-1.549.312-1.562-.776a281.74 281.74 0 0 1 .063-9.96c.005-.226.79-.624 1.197-.601.383.023.984.433 1.06.768.163.736.077 1.535.05 2.311-.027.822.235 1.27 1.165 1.242 1.59-.05 3.188.04 4.777-.059.344-.022.858-.56.93-.93.15-.745.082-1.54.041-2.312-.045-.848.334-1.092 1.143-1.088.812.005 1.295.15 1.26 1.115-.055 1.545-.014 3.093-.014 4.642h.009Zm-41.265 5.46c-2.204.402-2.348.285-2.353-1.747-.004-1.82-.045-3.64.01-5.46.027-.984-.326-1.449-1.328-1.4-.497.023-1.007-.058-1.5.01-1.259.163-1.566-.443-1.494-1.58.05-.768.316-1.034 1.07-1.03 2.958.023 5.915.027 8.868-.004.885-.01 1.08.433 1.052 1.192-.022.709.05 1.431-.993 1.395-.045 0-.09.004-.135.004-3.215.23-3.21.23-3.197 3.504.004 1.716 0 3.432 0 5.116Zm80.163.207c-2.776 0-5.49.027-8.199-.045-.258-.01-.709-.637-.714-.984-.054-3.134-.004-6.268-.036-9.401-.009-.926.483-1.034 1.21-1.007.7.027 1.364-.068 1.332 1.011-.058 2.041-.018 4.087-.018 6.132v1.747c1.517 0 2.913.041 4.303-.009 2.407-.08 2.407-.104 2.122 2.556Zm30.56-5.662c0 1.499-.009 2.998.005 4.497.004.704-.059 1.328-1.003 1.21-.686-.086-1.44.036-1.408-1.147.081-3.038.045-6.086.004-9.13-.009-.862.253-1.192 1.165-1.21.998-.022 1.26.38 1.233 1.287-.045 1.5-.014 2.998-.014 4.498.009-.005.014-.005.018-.005Zm32.208-27.764c-1.215.952-3.044.74-4.502-.52-1.526-1.318-2.005-3.431-1.201-5.305.745-1.734 2.614-2.917 4.443-2.759.307.027.596.28.898.425l-.013-.014c-.316-.014-.632-.036-.948-.045-2.014-.04-3.811 1.3-4.213 3.138-.479 2.185.375 4.14 2.393 4.872.966.348 2.113.19 3.179.262l-.036-.054Z" fill="#BCBCBC"/><path d="M196.464.42s.013.01.013.014c.791.389 1.743.605 2.335 1.188 2.005 1.982 1.368 5.635-1.124 6.944-.226.118-.565.027-.854.032l.036.05c.623-.506 1.377-.917 1.847-1.54 1.77-2.362.808-5.13-2.253-6.687ZM6.118 6.684l.104.031c.1-.338.1-.78.32-.997.93-.894 1.924-1.72 3.08-2.375-1.228 1.06-1.68 2.894-3.504 3.34Z" fill="#BCBCBC"/><path d="m196.085 4.873 1.133 2.068c-.077.05-.154.104-.23.153-.56-.84-1.116-1.68-1.499-2.257.438-.614.988-1.088 1.083-1.64.05-.284-.659-.875-1.124-1.033-.713-.24-1.192.058-1.142.98.067 1.25.018 2.506.018 3.756-.122.005-.244.005-.366.01 0-1.576-.248-3.211.081-4.715.249-1.137 1.486-.406 2.199-.216.908.239 1.048 1.074.691 1.887-.149.348-.506.614-.844 1.007Z" fill="#BCBCBC"/></svg>