<svg width="200" height="33" fill="none" xmlns="http://www.w3.org/2000/svg"><path d="M66.495 13.535H89.87c2.277 0 2.888.62 2.891 2.915 0 2.164 0 4.329-.006 6.493-.006 1.778-.769 2.544-2.562 2.58-.59.012-1.177.003-2.01.003 1.624 2.496 3.104 4.77 4.657 7.152-.334.05-.571.11-.805.11-2.733.006-5.469-.018-8.201.021-.724.012-1.183-.197-1.599-.802-1.228-1.781-2.526-3.514-3.787-5.27-.955-1.33-.952-1.332-2.766-1.098v7.064H66.5c-.006-6.35-.006-12.694-.006-19.168Zm9.137 9.131c2.523 0 4.87.034 7.21-.04.304-.009.827-.559.848-.88a34.69 34.69 0 0 0 0-4.427c-.021-.319-.568-.85-.89-.86-2.156-.079-4.317-.064-6.475-.015-.234.006-.656.407-.663.635-.054 1.806-.03 3.617-.03 5.587Zm19.943 10.03v-1.48l-.003-14.466c0-2.477.717-3.21 3.152-3.212 6.796-.003 13.593-.006 20.389-.003 1.897 0 2.785.62 2.818 2.495.097 5.532.037 11.07.037 16.684h-9.064v-7.182c-2.608 0-5.034-.024-7.457.04-.234.006-.638.568-.647.88-.058 2.046-.03 4.095-.03 6.241-3.052.003-6.028.003-9.195.003Zm9.201-9.99c2.599 0 5.094.014 7.586-.031.186-.003.511-.429.517-.666.046-1.556.07-3.116-.021-4.669-.018-.325-.541-.875-.848-.884a82.784 82.784 0 0 0-6.265-.003c-.334.012-.909.55-.924.869-.094 1.733-.045 3.474-.045 5.383Zm56.484 3.999h8.806c0 .736.043 1.48-.012 2.222-.061.794.273 1.131 1.036 1.131 2.544-.003 5.089-.009 7.636.003.781.003 1.079-.346 1.045-1.122-.042-1.024-.063-2.054 0-3.076.067-1.085-.519-1.261-1.407-1.258-4.216.018-8.432.006-12.648.006-.304 0-.608.003-.912 0-2.79-.027-3.501-.739-3.501-3.51 0-1.596-.009-3.192.003-4.788.012-1.568.684-2.377 2.234-2.66.48-.088.979-.118 1.471-.118 6.76-.006 13.523-.006 20.283-.003 2.684 0 3.341.668 3.341 3.377v2.787h-8.873c0-.711-.024-1.42.006-2.122.037-.766-.322-1.16-1.057-1.164-2.545-.015-5.092-.042-7.633.043-.337.012-.878.593-.939.97-.14.89-.052 1.814-.049 2.726.003 1.422.149 1.59 1.551 1.593 4.367.009 8.735.003 13.103.015.529 0 1.064.036 1.584.134 1.517.285 2.149.915 2.213 2.437.079 1.934.079 3.876.012 5.81-.049 1.437-.76 2.194-2.195 2.507a8.548 8.548 0 0 1-1.805.17c-6.684.01-13.371.006-20.056.003-2.34 0-3.209-.878-3.231-3.243-.012-.9-.006-1.812-.006-2.87ZM8.75 32.736H.247v-19.14c.355-.022.687-.055 1.015-.055 7.362-.003 14.724-.003 22.085 0 1.973 0 2.736.763 2.748 2.763.012 2.24.006 4.477.003 6.718 0 1.78-.69 2.498-2.462 2.501-4.553.012-9.106.04-13.66-.018-1.033-.012-1.289.316-1.252 1.295.076 1.93.024 3.866.024 5.936Zm.005-10.073c2.693 0 5.228.027 7.763-.04.253-.006.681-.568.697-.89.076-1.438.024-2.885.04-4.326.005-.647-.241-.994-.931-.99-2.277.009-4.556-.022-6.833.03-.25.006-.696.45-.702.702-.061 1.772-.034 3.556-.034 5.514Zm32.457 10.012v-19.08H63.82v2.782H49.774v5.118H61.75v2.84H49.78v5.592h14.031v2.748h-22.6ZM147.114 29.9v2.806h-22.176V13.602h8.902V29.9h13.274ZM99.973 8.982h98.58c.152 0 .319-.043.453.009.34.125.663.292.994.44-.328.147-.647.39-.988.42-.714.064-1.441.018-2.164.018H1.399c-.228 0-.47.049-.68-.015-.213-.064-.393-.24-.587-.368C.323 9.32.49 9.082.715 9c.238-.085.526-.018.79-.018h98.468Zm-70.788 4.592h8.875v19.122h-8.875V13.574Zm120.136.009h8.888v19.128h-8.888V13.583Zm42.345-.014h8.213c.027.362.075.69.075 1.018.007 5.7-.012 11.396.022 17.095.006.83-.195 1.134-1.073 1.112-2.383-.054-4.769-.018-7.237-.018V13.57ZM8.156 6.176c-2.04.973-4.155 1.034-6.222.055C-.503 5.076-.68 2.304 1.65.936 3.819-.341 6.153-.256 8.396.854c.45.222.742.763 1.11 1.155l-.255.401c-.478-.213-1.055-.322-1.414-.663C6.53.51 3.436.513 2.2 1.827c-1.022 1.085-.96 2.55.149 3.513 1.23 1.07 4.127 1.125 5.34.058.313-.277.493-.702.873-1.261H5.196c-.058-.104-.119-.207-.176-.31.2-.18.398-.505.604-.511 1.28-.049 2.56-.024 3.997-.024 0 1.045.016 1.978-.015 2.914-.006.183-.255.53-.292.517-.361-.13-.702-.319-1.158-.547ZM11.621.288c2.076 0 3.97-.003 5.86.006.186 0 .377.052.557.104.796.224 1.675.562 1.596 1.492-.055.623-.66 1.198-.918 1.63.364.95.769 2.005 1.194 3.12-1.067.25-1.696.22-1.693-1.008.003-1.076-.647-1.657-1.744-1.666-1.128-.01-2.256-.003-3.52-.003 0 .805.057 1.483-.03 2.143-.031.24-.43.62-.627.599-.246-.025-.644-.392-.65-.62-.049-1.888-.025-3.782-.025-5.797Zm1.405 3.015c1.498-.079 2.924-.09 4.325-.267.337-.043.842-.608.848-.942.006-.323-.502-.9-.836-.94-1.428-.17-2.878-.185-4.34-.258.003.906.003 1.565.003 2.407Zm42.262 3.842c-1.158-.401-2.453-.639-3.52-1.265-1.793-1.057-1.809-3.374-.185-4.684 1.766-1.422 5.596-1.51 7.41-.17 1.958 1.444 1.851 3.982-.316 5.094-.973.499-2.128.657-3.39 1.025Zm.091-.921c.596-.107 1.13-.14 1.63-.301 1.081-.353 1.847-1.024 1.93-2.252.075-1.156-.472-2.207-1.727-2.469-1.198-.249-2.529-.203-3.739.037-1.064.213-1.68 1.155-1.65 2.304.03 1.2.757 1.954 1.845 2.331.562.198 1.173.246 1.711.35ZM28.665.289h1.243c0 1.51.146 3-.067 4.434-.094.639-.803 1.429-1.429 1.702-1.687.736-3.495.639-5.237.089-1.082-.34-1.666-1.107-1.623-2.32.046-1.28.01-2.562.01-3.896h1.38c0 1.291.039 2.535-.013 3.775-.046 1.124.544 1.732 1.541 1.92.733.14 1.517.177 2.258.086 1.335-.164 1.79-.778 1.8-2.155.006-1.1.015-2.204.027-3.304.003-.067.046-.137.11-.331Zm4.833 3.814v2.529c-.997.288-1.48.14-1.432-.997.073-1.733.018-3.475.018-5.22 2.137 0 4.161-.081 6.176.037.912.055 1.584.672 1.572 1.757-.01 1.043-.669 1.52-1.541 1.669-.96.16-1.951.17-2.93.219-.56.03-1.125.006-1.863.006Zm.063-.7c1.395-.066 2.678-.051 3.93-.237.371-.054.852-.647.912-1.051.04-.274-.529-.873-.887-.927C36.23.99 34.92.966 33.56.872v2.532Zm9.386.797v2.477H41.61V.37c2.021 0 3.982-.085 5.933.036.93.058 1.727.602 1.724 1.763-.004 1.158-.77 1.645-1.73 1.754-1.459.167-2.936.186-4.59.277Zm.064-.797c1.401-.07 2.687-.066 3.945-.243.36-.048.882-.61.897-.954.015-.338-.483-.955-.824-1.006-1.313-.2-2.656-.228-4.018-.323v2.526Z" fill="#BCBCBC"/></svg>