<svg width="200" height="25" fill="none" xmlns="http://www.w3.org/2000/svg"><path d="M.212 24.01c-.06-.71-.166-1.375-.173-2.032C.03 15.495.084 9.004 0 2.52-.022.708.484.012 2.41.005c6.732-.03 6.74-.098 9.453 6.03 1.458 3.294 2.901 6.588 4.571 10.381.695-1.488 1.209-2.53 1.677-3.596 1.633-3.725 3.182-7.488 4.942-11.145.355-.733 1.458-1.481 2.274-1.55C27.701-.077 30.104.05 32.62.05v23.93h-5.063V6.367c-.166-.06-.332-.12-.49-.181-.303.506-.65.982-.9 1.51-2.237 4.86-4.526 9.695-6.65 14.599-.649 1.496-1.518 1.896-3.067 1.912-1.624.015-2.569-.37-3.264-1.98-2.29-5.297-4.768-10.518-7.17-15.77l-.598.069V24.01H.212Zm118.455-9.15c3.672 2.35 4.42 4.534 3.28 9.188h-5.093c-.121-1.345-.076-2.705-.408-3.966-.189-.718-.967-1.806-1.527-1.83-3.589-.165-7.185-.082-10.986-.082v5.78h-5.72v-5.183c0-5.577.046-11.153-.03-16.73-.015-1.473.468-2.01 1.934-1.994 5.282.053 10.564-.068 15.838.053 4.692.113 6.332 1.889 6.468 6.536.015.453 0 .907.015 1.36.121 2.984-.204 5.765-3.771 6.868Zm-8.969-2.357v-.023c1.587 0 3.166.03 4.753-.007 2.433-.053 2.357-1.905 2.433-3.56.076-1.707-.249-3.256-2.441-3.279-3.014-.037-6.029.016-9.044-.03-1.209-.015-1.489.552-1.557 1.655-.317 5.251-.34 5.251 4.957 5.251.302-.007.597-.007.899-.007ZM42.677 9.828h14.258v4.458h-7.17c-1.58 0-3.166-.008-4.746 0-2.455.015-3.589 1.67-2.523 3.921.211.454 1.201.741 1.836.756 3.695.068 7.382.03 11.077.038.808 0 1.624.075 2.561.128v4.813c-.514.069-1.08.197-1.654.204-5.803.016-11.607-.037-17.41.038-1.54.023-2.13-.415-2.115-2.017.068-6.702.053-13.404.007-20.107C36.791.625 37.29.035 38.763.05c5.803.046 11.606.084 17.409-.015 2.184-.037 1.965 1.277 1.934 2.653-.03 1.314.37 2.765-1.889 2.682-3.46-.129-6.929-.03-10.397-.03-3.846-.008-3.96.128-3.143 4.488Zm105.089-4.443h-15.694v4.33h14.469v4.579H135.85c-4.232 0-4.232 0-3.657 4.662h15.467v5.198h-20.809c-.129-.514-.288-.861-.288-1.209-.022-7.012 0-14.024-.045-21.036-.007-1.367.529-1.866 1.866-1.858 5.887.037 11.773.03 17.659.007 1.209-.007 1.836.386 1.73 1.708-.075 1.028-.007 2.078-.007 3.62Zm-67.422 9.951h5.01c1.616 5.266-.666 8.72-6 8.87-3.839.107-7.685.061-11.523-.09-3.922-.151-5.977-1.73-6.18-5.493-.243-4.556-.046-9.166.407-13.707.31-3.098 1.995-4.488 5.176-4.654 4.352-.234 8.735-.302 13.08-.076 3.377.174 4.54 1.602 5.009 4.965.136.96.197 1.934.287 2.87-3.037 1.006-4.17.635-5.886-1.473-.446-.544-1.398-.906-2.138-.944-2.403-.113-4.821-.053-7.231-.038-1.995.008-3.129 1.005-3.181 3.015-.06 2.327-.069 4.67.015 6.997.06 1.836 1.095 2.984 2.947 3.083 2.478.12 4.971.143 7.45.075 1.95-.068 2.69-1.428 2.758-3.4ZM200 24.147c-1.232 0-2.07-.099-2.879.022-2.267.34-3.793-.355-4.277-2.743-.279-1.352-1.171-1.73-2.485-1.707-3.091.068-6.189-.053-9.272.075-.74.03-1.964.59-2.1 1.126-.786 3.128-2.902 3.604-5.614 3.234-.514-.068-1.043-.007-1.852-.007.212-.71.318-1.262.537-1.761 3.007-6.816 6.06-13.616 9.029-20.446.582-1.338 1.323-1.927 2.864-1.935 5.599-.03 5.607-.09 7.828 4.972a4617.913 4617.913 0 0 1 7.299 16.767c.295.68.529 1.383.922 2.403Zm-9.883-9.166c-1.496-3.498-2.811-6.596-4.398-10.314-1.594 3.808-2.894 6.921-4.322 10.314h8.72Zm-33.3 3.385h13.095v5.629h-18.731V16.96c0-4.972.045-9.936-.023-14.908-.023-1.435.408-2.138 1.904-2.01a7.876 7.876 0 0 0 1.579-.007c1.632-.174 2.26.43 2.214 2.16-.113 4.444-.038 8.887-.038 13.33v2.84Zm-69.371.129v-5.94h8.803v5.94h-8.803Z" fill="#BCBCBC"/></svg>