<svg width="200" height="51" fill="none" xmlns="http://www.w3.org/2000/svg"><path d="M13.146 26.713c-4.638-.047-8.83 1.042-13.13 2.694 0-2.143-.06-4.163.055-6.174.021-.342.734-.769 1.208-.94 3.45-1.246 6.99-2.122 10.68-2.216a42.097 42.097 0 0 1 4.086.094c.798.056 1.26-.17 1.584-.918 1.085-2.485 2.22-4.949 3.343-7.438 1.256 2.797 2.515 5.61 3.933 8.77 2.327-3.57 4.611-6.73 6.524-10.098C33.355 7.101 34.91 3.506 36.626 0c.773 1.768 1.456 3.72 2.442 5.508 2.024 3.68 4.031 7.396 6.388 10.863 2.118 3.113 3.967 6.208 4.01 10.29l7.737-1.43c0 1.102.017 2.344-.005 3.587-.055 3.441.56 2.69-2.852 3.62-1.456.398-3.019.641-4.522.586-2.024-.073-3.253.854-4.342 2.741 2.066-.158 3.97-.218 5.854-.47 1.921-.256 3.817-.696 5.854-1.08 0 1.909.056 3.86-.051 5.803-.017.35-.658.811-1.098.965-2.882 1.016-5.91 1.14-8.92 1.29-4.543.221-8.966-.539-13.339-1.756-.49 1.247-.88 2.451-1.43 3.583-1.79 3.68-4.894 5.649-8.835 6.093-3.437.389-6.883.312-9.983-1.712-3.501-2.289-5.034-5.62-5.354-9.637-.064-.803-.022-1.619-.035-2.426 0-.034-.047-.072-.264-.392L.015 38.25c0-1.968-.042-3.915.039-5.854.013-.329.504-.82.858-.918 3.066-.816 6.119-1.793 9.245-2.233 1.712-.244 2.186-1.226 2.989-2.532Zm7.694-8.72c-.068.129-.21.334-.299.56-1.857 4.684-4.15 9.112-7.263 13.109-2.31 2.967-3.036 6.358-1.849 9.953 2.306 6.994 10.376 7.656 14.932 5.098 4.518-2.532 6.08-8.647 3.484-13.151-.973-1.687-2.301-3.173-3.262-4.868-1.977-3.501-3.813-7.088-5.743-10.7Zm88.025 14.835c-.004 3.424-1.648 6.182-4.296 7.19-3.219 1.23-6.947.457-8.958-1.802-2.588-2.908-2.494-10.308 1.682-12.438 4.757-2.43 11.764-.513 11.572 7.05Zm-12.046-.111c.33 1.123.56 2.28 1.008 3.356.752 1.802 2.28 2.173 4.095 2.08 1.584-.082 2.545-.957 3.125-2.247.931-2.062.918-4.206.047-6.307-1.012-2.438-4.099-3.262-6.174-1.605-1.469 1.174-1.913 2.835-2.1 4.723Zm-23.856-.253c.18.098.308.184.449.24 1.874.734 2.553 1.797 2.433 3.82-.098 1.662-1.2 3.203-2.894 3.417-2.306.294-4.655.282-6.986.337-.24.004-.7-.427-.7-.662-.043-4.803-.03-9.607-.03-14.675 2.485.115 4.855.11 7.19.375 1.529.175 2.673 1.119 2.912 2.784.295 2.054-.217 2.98-2.1 4.023-.099.055-.15.183-.274.341Zm-4.765 1.025v2.43c0 2.31.282 2.54 2.545 2.036.286-.064.576-.15.841-.273.841-.38 1.37-1 1.302-1.973-.068-.96-.435-1.768-1.49-1.934-.982-.15-1.981-.18-3.198-.286Zm.021-6.149c0 1.213-.03 2.178.022 3.139.013.23.29.649.431.644.96-.038 1.981.005 2.844-.333.444-.175.837-1.084.82-1.648-.017-.495-.547-1.242-1.012-1.396-.923-.303-1.952-.278-3.105-.406Zm60.339.107c-2.131 0-4.053-.26-5.867.068-2.075.376-3.45 2.392-3.591 4.462-.188 2.759.828 4.988 3.001 5.778 1.145.414 2.498.264 3.762.32.158.008.461-.312.47-.491.047-1.02.102-2.05-.038-3.053-.035-.24-.773-.427-1.213-.555-.551-.163-1.255-.077-1.644-.397-.265-.218-.226-.99-.081-1.44.081-.251.649-.46 1.012-.478 1.234-.055 2.472 0 3.706-.03.735-.017 1.106.235 1.097 1.025-.021 2.131.026 4.262-.038 6.388-.009.333-.384.859-.687.944-2.409.692-4.872.845-7.306.188-4.155-1.123-5.615-4.467-5.107-8.63.692-5.666 5.393-7.195 10.038-6.652.295.034.585.106.88.132 2.024.17 2.353.769 1.606 2.421Zm9.035-2.348c.29-.017.619-.056.952-.056 2.592-.004 5.18-.004 7.853-.004v2.344h-5.705v3.736h5.179V33.6c-1.4 0-2.75.034-4.103-.013-.846-.03-1.268.201-1.204 1.145.068 1.05.017 2.105.017 3.343 1.699 0 3.262.03 4.825-.013.781-.021 1.178.163 1.17 1.047-.009.858-.282 1.238-1.183 1.225-2.301-.034-4.603-.013-6.904-.013-.59 0-1.081-.038-1.076-.867.034-4.684.029-9.368.042-14.052.005-.073.069-.15.137-.303Zm25.252 2.463c-1.085-.136-2.041-.32-3.006-.367-1.102-.055-2.05.325-2.353 1.503-.294 1.162.269 1.9 1.683 2.447.674.26 1.349.52 2.007.811 2.092.931 3.159 2.554 2.941 4.454-.256 2.233-1.562 3.668-3.975 3.996-1.332.184-2.715.026-4.073-.025-1.204-.043-1.768-.645-1.503-1.892.068-.32.055-.653.072-.841 1.401.166 2.72.367 4.044.465 1.123.086 1.926-.52 2.199-1.571.273-1.05-.5-1.674-1.32-2.088-.982-.5-2.049-.837-3.035-1.332-1.815-.914-2.52-2.421-2.221-4.569.248-1.78 1.448-3.24 3.25-3.467 1.575-.197 3.194-.073 4.79.021.274.017.684.577.726.922.064.517-.145 1.064-.226 1.533Zm7.409-.132v-2.315h11.708v2.298h-4.231v12.835h-2.964v-1.332c0-3.403-.03-6.81.022-10.214.012-1.003-.299-1.37-1.311-1.294-1.017.081-2.046.022-3.224.022Zm29.71-1.691c.419 3.018-2.869 6.43-6.251 6.332-3.574-.098-6.409-2.835-6.392-6.396.017-3.463 2.895-6.286 6.383-6.286 3.519.009 6.568 3.19 6.26 6.35Zm-6.332 5.175c2.716.008 4.915-2.259 4.936-5.099.026-2.92-2.122-5.196-4.928-5.226-2.656-.03-4.876 2.314-4.88 5.15-.009 2.826 2.195 5.166 4.872 5.175ZM86.247 40.218c-3.066.388-3.066.388-3.066-2.536v-12.55h3.066v15.086Z" fill="#BCBCBC"/><path d="M191.232 29.134v-6.91c1.277 0 2.541-.196 3.698.078.649.153 1.422.995 1.597 1.67.286 1.105-.427 1.912-1.789 2.202.589 1.034 1.118 1.965 1.652 2.891-.077.111-.149.222-.226.333-.461-.311-.999-.555-1.367-.952-.397-.427-.602-1.02-.952-1.499-.243-.328-.589-.585-.888-.87-.111.046-.218.089-.329.136-.047.944-.089 1.887-.141 2.92h-1.255Zm2.652-6.299-.231.282c-.863-.15-1.127.218-1.136 1.05-.008.872.359 1.14 1.145 1.072.738-.064 1.639-.14 1.503-1.093-.069-.49-.829-.88-1.281-1.31Z" fill="#BCBCBC"/></svg>