<svg width="200" height="51" fill="none" xmlns="http://www.w3.org/2000/svg"><path d="M21.776 18.203c.46-1.955.924-3.906 1.384-5.861.854-3.613 1.726-7.223 2.548-10.847.149-.648.34-.977 1.076-.963 1.907.044 3.819.015 5.872.015-.583 2.624-1.13 5.17-1.713 7.707-1.209 5.26-2.433 10.514-3.656 15.77-.42 1.804-.822 3.614-1.318 5.399-.09.326-.587.764-.902.77-3.254.059-6.509.037-9.923.037-.188-5.192.127-10.354-.177-15.495-.178-.018-.352-.04-.529-.058-1.466 5.206-2.936 10.412-4.41 15.647H0C.007 20.422.007 10.586.007.648H6.18v17.925c.134.021.264.047.398.068A39222.74 39222.74 0 0 0 11.223.605h10.101V18.13c.152.025.304.05.452.072Zm164.695 11.795c-1.235-4.811-2.437-9.507-3.639-14.202l-.307.003c-.547 2.317-1.115 4.634-1.637 6.955-.481 2.143-.887 4.304-1.408 6.437-.08.33-.594.771-.92.782-2.121.069-4.246.036-6.545.036.452-2.11.869-4.109 1.314-6.104 1.676-7.541 3.374-15.079 5.025-22.627.195-.898.481-1.322 1.506-1.274 2.031.094 4.073.028 6.194.028l3.313 14.138c.188-.405.319-.594.366-.804.956-4.156 1.886-8.32 2.885-12.465.083-.347.634-.818.985-.832 2.074-.08 4.156-.04 6.397-.04-.619 2.838-1.216 5.56-1.803 8.287-1.1 5.101-2.187 10.206-3.294 15.307a131.66 131.66 0 0 1-1.304 5.539c-.083.326-.492.793-.767.804-2.118.061-4.24.032-6.361.032ZM141.404.26c2.129 0 4.254-.004 6.383 0 2.114.004 3.294 1.441 2.845 3.573-.763 3.628-1.582 7.245-2.389 10.865-.815 3.66-1.683 7.313-2.451 10.984-.594 2.839-2.545 4.721-5.615 4.59-3.986-.17-7.987.026-11.976-.082-.96-.026-1.981-.486-2.828-.992-.742-.442-1.061-1.25-.84-2.245 1.676-7.494 3.287-15 4.971-22.493.557-2.477 2.737-4.15 5.26-4.196 1.13-.022 2.256-.004 3.385-.004h3.255Zm-5.344 22.946v.004c.652 0 1.311-.058 1.955.014 1.097.12 1.485-.358 1.698-1.412a396.826 396.826 0 0 1 2.669-12.124c.655-2.77.716-2.756-2.057-2.763h-.651c-3.643 0-3.697-.014-4.533 3.526-.902 3.823-1.691 7.676-2.52 11.517-.17.782.047 1.27.967 1.242.822-.026 1.647-.004 2.472-.004Zm32.942 6.73h-6.936l2.509-11.62c-2.205 0-4.189-.04-6.162.046-.268.011-.641.634-.735 1.028-.804 3.31-1.539 6.636-2.35 9.945-.083.344-.532.848-.825.858-2.118.073-4.24.04-6.524.04 2.266-10.024 4.496-19.9 6.752-29.875h7.107c-.797 3.631-1.586 7.234-2.411 11.01 2.132 0 4.134.04 6.133-.048.271-.01.658-.622.749-1.013.735-3.1 1.39-6.216 2.14-9.308.072-.304.622-.692.963-.706 1.991-.065 3.986-.033 6.176-.033-2.205 9.924-4.384 19.75-6.586 29.676Zm-67.773.229a5760.3 5760.3 0 0 0 1.535-6.951h9.858c.782 0 1.597.12 2.335-.058.565-.138 1.362-.583 1.467-1.032.119-.518-.239-1.39-.681-1.752-2.208-1.81-4.417-3.657-6.806-5.206-4.033-2.614-4.073-7.4-2.089-10.869 1.448-2.534 3.74-3.808 6.491-3.902 4.898-.17 9.804-.047 14.876-.047-.416 2.085-.775 4.065-1.252 6.013-.062.257-.728.521-1.119.525-3.172.047-6.343.033-9.511.036-.391 0-.782 0-1.173.011-1.061.029-2.346.069-2.52 1.285-.083.59.793 1.481 1.434 1.984 2.625 2.057 5.362 3.964 7.983 6.025 2.169 1.708 2.436 4.152 1.919 6.617-.692 3.306-2.422 5.909-5.804 7.06-.525.178-1.093.312-1.64.315-4.822.025-9.644.015-14.463.011-.217.004-.427-.029-.84-.065ZM86.954.543c-.416 2.027-.84 4.084-1.285 6.234h-6.922c-1.778 7.849-3.534 15.622-5.297 23.41h-7.183l5.09-23.41h-4.739c.456-2.118.866-4.084 1.333-6.039.043-.18.456-.387.698-.387C74.645.34 80.636.354 86.632.373c.072 0 .148.076.322.17ZM47.999 30.238c1.673-7.838 3.313-15.543 4.989-23.406h-7.049c.434-2.028.807-3.921 1.274-5.79.073-.289.565-.676.866-.676 5.857-.04 11.715-.03 17.84-.03-.198 1.112-.365 2.133-.564 3.15-.637 3.255-.64 3.292-3.986 3.277-.901-.004-1.267.257-1.466 1.159-1.553 7.081-3.164 14.148-4.743 21.226-.17.771-.474 1.158-1.372 1.122-1.857-.087-3.725-.032-5.789-.032Zm23.938 9.529v10.672H37.344V39.767h34.593Zm-6.596 7.077-.837-5.959c-.575 0-1.144.076-1.68-.014-1.303-.221-1.803.409-2.136 1.578-.42 1.474-1.053 2.89-1.596 4.327l-.24-.033-.669-5.785h-1.959c.312 2.787.616 5.492.927 8.301.518 0 .952-.061 1.369.011 1.415.242 2.07-.37 2.429-1.734.38-1.452 1.035-2.835 1.568-4.25.134.018.264.032.398.05.134 1.043.297 2.086.398 3.132.279 2.827.268 2.791 2.665 2.813.796.007 1.137-.254 1.38-1.003.785-2.426 1.654-4.826 2.483-7.223-1.517-.503-2.234.04-2.632 1.35l-1.868 4.44Zm-14.446 1.742-.072.402c.612.14 1.224.282 1.883.434.372-1.64.691-3.045 1.013-4.482h-3.244c-.416.88-.355 1.488.728 1.56-.424 1.029-1.068 1.5-2.046 1.46-1.002-.04-1.701-.547-2.049-1.481-.416-1.126-.43-2.198.525-3.107.909-.865 2.27-1.013 3.494-.463.63.282 1.332.413 2.002.608 0-.612-.109-.905-.3-1.115-1.065-1.144-2.346-1.825-3.936-1.394-1.777.485-3.02 1.651-3.588 3.414-.514 1.586-.322 3.186.949 4.276 1.242 1.064 2.766.663 4.17.065.15-.065.312-.12.471-.177Zm-11.176.622c1.962.2 1.955.2 2.328-1.444.207-.916.464-1.818.652-2.737.275-1.343.507-2.697.76-4.07h-1.991a7508.28 7508.28 0 0 1-1.749 8.251Zm58.918-27.019c-.532 1.043-1.057 1.883-1.386 2.795-.17.474-.163 1.162.061 1.604.547 1.071 1.267 2.056 2.075 3.32-1.633 0-3.078.003-4.519-.008-.108 0-.275-.083-.322-.173-.753-1.546-1.749-.771-2.759-.337-3.03 1.3-5.984 1.34-8.685-.793-3.12-2.462-2.98-7.414.445-9.348.895-.503 1.807-.977 2.701-1.459-1.8-4.978-1.426-7.005 1.517-8.435 2.857-1.387 6.868-.569 8.316 1.803.949 1.556 1.253 3.363.188 4.905-.94 1.362-2.31 2.426-3.725 3.86.597.608 1.274 1.774 2.26 2.168 1.038.42 2.374.098 3.833.098Zm-13.681 2.02c-.004 1.405 1.184 2.636 2.57 2.668 1.445.037 2.77-1.245 2.777-2.682.007-1.34-1.3-2.621-2.675-2.625-1.637-.004-2.669 1.017-2.672 2.64Zm7.805-10.332c-.021-1.086-.836-1.948-1.832-1.945-1.06.004-1.918.931-1.882 2.032.036 1.075.861 1.875 1.908 1.846 1.06-.025 1.828-.85 1.806-1.933ZM37.942.402h7.349c-.37 1.81-.699 3.526-1.072 5.228a4410.439 4410.439 0 0 1-5.235 23.753c-.076.333-.56.804-.869.811-2.157.073-4.315.036-6.658.036 2.18-10.003 4.327-19.886 6.485-29.828ZM77.18 50.128V39.759h2.186v6.542l.246.076c.916-1.553 1.933-3.059 2.723-4.677.803-1.644 1.857-2.53 3.87-1.887-.992 1.597-1.999 3.226-3.012 4.852-.797 1.274-1.702 2.494-2.372 3.83-.756 1.532-1.766 2.288-3.642 1.633Zm69.351-3.193c.17 1.422 1.111 1.958 2.226 1.451.851-.387 1.767-.619 2.654-.923l.286.406c-.217.369-.384.789-.663 1.104-1.451 1.636-4.087 1.872-5.865.554-1.328-.985-1.433-3.61-.22-5.424 1.198-1.792 3.073-2.465 5.18-1.86 1.289.369 2.451 1.926 2.285 3.218-.109.865-.348 1.63-1.597 1.51-1.412-.145-2.849-.036-4.286-.036Zm3.374-1.876c.083-.126.163-.257.246-.383-.434-.297-.891-.858-1.303-.826-.648.05-1.264.496-1.894.778l.174.435c.927-.004 1.85-.004 2.777-.004Zm-33.474.014c.022-1.868 1.18-2.48 2.364-2.737.959-.21 2.064-.043 3.041.203 1.017.257 1.557 1.115 1.379 2.183a73.686 73.686 0 0 1-1.017 4.917c-.08.333-.456.858-.662.843-.62-.04-1.528.543-1.756-.5-.703.185-1.387.482-2.089.526-1.383.086-2.212-.565-2.48-1.76-.232-1.035.46-2.469 1.531-2.838.88-.3 1.85-.333 2.763-.565.488-.123.937-.42 1.401-.637-.102-.214-.203-.605-.308-.608-.55-.008-1.122.021-1.651.159-.851.224-1.68.54-2.516.814Zm3.979 1.593c-.753.174-1.488.247-2.126.529-.322.141-.474.666-.706 1.017.402.178.848.561 1.199.489.956-.192 1.575-.825 1.633-2.035Zm-28.695 1.579c-.641 1.488-1.872 2.161-3.433 2.274-1.386.097-2.679-.163-3.471-1.481-.891-1.484-.366-4.42 1.068-5.75 1.332-1.23 3.805-1.556 5.289-.488 1.046.753 1.73 2.581 1.21 3.7-.113.239-.61.391-.942.416-.779.062-1.56.019-2.343.022h-2.722c.38.688.529 1.336.92 1.564.401.232 1.06.141 1.57.033.91-.196 1.793-.514 2.687-.782.058.159.112.325.167.492Zm-1.64-2.878c.08-.116.155-.232.235-.348-.416-.38-.88-1.111-1.242-1.064-.728.094-1.4.612-2.096.956.058.134.12.268.177.401.333.019.666.048 1 .055.64.007 1.285 0 1.926 0Zm43.585-3.197c2.477-.022 3.903 1.23 3.939 3.454.047 2.773-1.944 4.844-4.706 4.898-2.263.047-3.722-1.328-3.74-3.526-.025-2.99 1.665-4.8 4.507-4.826Zm2.053 3.57c-.713-.753-1.129-1.55-1.709-1.698-.521-.134-1.364.3-1.817.742-.695.68-.916 3.02-.373 3.338.514.3 1.492.557 1.814.29.782-.652 1.303-1.622 2.085-2.672Zm-35.671 4.529h-2.201c.268-1.402.54-2.723.767-4.052.12-.688.532-1.622-.46-1.882-1.031-.272-1.527.532-1.763 1.451-.376 1.485-.746 2.97-1.13 4.486h-2.153c.506-2.494.984-4.934 1.524-7.36.058-.26.481-.608.75-.62.564-.025 1.14.146 1.712.236-.022.116-.04.232-.062.348.391-.17.771-.38 1.177-.51 1.61-.511 3.225.687 2.976 2.302-.279 1.857-.739 3.689-1.137 5.6Zm52.89-.232c.564-2.73 1.082-5.242 1.661-8.033.761.203 1.43.42 2.122.546.235.044.518-.134.767-.238.927-.392 1.836-.439 2.69.173.945.674 1.029 1.633.811 2.665-.34 1.622-.695 3.244-1.053 4.92h-2.183c.239-1.506.434-2.972.724-4.417.134-.663.38-1.397-.485-1.55-.793-.137-1.488.254-1.695 1.199-.336 1.546-.709 3.084-1.093 4.735h-2.266Zm-24.503-9.71c-.098.713-.167 1.216-.243 1.785.326.097.63.191 1.025.31-.351.765-.029 1.83-1.336 1.934-.174.015-.329.735-.42 1.144-.192.88-.333 1.767-.51 2.73.293.112.593.228.981.38-.221.569-.319 1.463-.666 1.575-.685.22-1.55.134-2.256-.087-.279-.087-.492-.89-.46-1.347.084-1.06.391-2.107.489-3.167.047-.49.648-1.253-.416-1.463.148-.598.228-1.227.474-1.781.192-.435.731-.728.88-1.163.46-1.357 1.535-.517 2.458-.85Zm-22.066.247c-.076.608-.145 1.147-.232 1.817l.963.21c-.123.728.225 1.665-1.104 1.705-.159.004-.369.446-.438.717-.206.786-.42 1.579-.492 2.379-.029.34.405.706.431 1.071.039.598.047 1.67-.156 1.727-.735.2-1.629.235-2.324-.029-.319-.12-.493-1.104-.424-1.658.17-1.35.518-2.679.818-4.123-.289-.095-.583-.189-1.3-.424.591-.612 1.047-1.068 1.481-1.546.138-.152.315-.358.315-.54 0-1.73 1.177-1.43 2.462-1.306Zm7.009 9.706h-2.306c.757-3.654 1.499-7.256 2.241-10.847h2.274c-.754 3.689-1.485 7.273-2.209 10.846Zm24.872-.066 1.484-7.888c1.55-.308 3.023.655 4.623-.261-.079.807-.032 1.387-.224 1.864-.149.37-.58.844-.923.877-1.26.123-1.811.785-1.977 1.973-.123.89-.301 1.785-.55 2.65-.37 1.289-1.441.485-2.433.785Zm-29.043.062h-2.339c.554-2.574 1.097-5.083 1.658-7.686h2.27c-.532 2.563-1.057 5.1-1.589 7.686Zm-.489-9.113c.156-.554.312-1.115.482-1.73h2.176c-.344 2.24-.674 2.465-2.658 1.73Z" fill="#BCBCBC"/></svg>