<svg width="200" height="52" fill="none" xmlns="http://www.w3.org/2000/svg"><path d="M45.634 28.844c-.018 5.133-1.863 10.04-5.453 14.314-.422.501-.786.66-1.468.494-7.357-1.766-14.642-3.745-21.357-7.364-2.134-1.15-4.138-2.49-5.663-4.43-1.947-2.47-1.98-5.014-.05-7.509 1.787-2.31 4.235-3.781 6.783-5.068 6.305-3.183 13.067-5.043 19.89-6.697.642-.155 1.064.029 1.493.522 3.843 4.373 5.825 9.445 5.825 15.738Z" fill="#BCBCBC"/><path d="M36.385 10.075c-2.945.898-5.811 1.709-8.637 2.646-5.032 1.665-9.982 3.565-14.325 6.68-1.532 1.099-2.978 2.418-4.163 3.878-2.477 3.05-2.365 6.618.057 9.714 1.95 2.495 4.517 4.218 7.253 5.703 6.08 3.31 12.638 5.346 19.277 7.148.332.09.66.191 1.028.3-7.04 6.152-19.869 7.392-29-.603-9.512-8.33-10.536-22.471-2.368-32.013 8.222-9.606 22.021-10.222 30.878-3.453Zm32.052 11.473c.076-3.893 1.056-7.432 3.832-10.284 5.41-5.558 14.613-4.217 18.192 2.754 2.437 4.751 2.545 9.765.325 14.606-2.116 4.61-5.868 7.019-11.041 6.788-4.982-.22-8.15-3.039-10.082-7.433a12.45 12.45 0 0 1-.822-2.786c-.213-1.2-.274-2.43-.404-3.645Zm3.911.148c.314 2.055.494 4.142.97 6.157.562 2.397 1.907 4.354 4.149 5.53 3.327 1.74 7.328.201 9.217-3.519 1.049-2.065 1.344-4.307 1.453-6.589.14-2.967.021-5.904-.985-8.738-1.077-3.042-3.738-5.208-6.463-5.295-3.038-.097-5.735 1.838-6.978 5.003-.938 2.387-1.15 4.888-1.363 7.451ZM115.449 7.75v8.72c-.332-.304-.656-.484-.815-.765-.508-.908-.876-1.903-1.434-2.772-2.401-3.72-7.13-4.589-10.749-2.026-1.572 1.114-2.79 2.523-3.353 4.38-1.323 4.343-1.59 8.723.152 13.013 2.011 4.963 7.339 6.953 12.18 4.678.732-.346 1.099-.847 1.088-1.676-.025-2.307.018-4.61-.028-6.917-.044-2.105-.393-2.462-2.434-2.859-.277-.054-.537-.198-.803-.299l.054-.306h9.429c-.41.288-.623.555-.865.584-1.222.155-1.78.894-1.809 2.04-.065 2.736-.061 5.472-.152 8.204-.014.465-.245 1.154-.587 1.341-4.621 2.502-9.441 3.4-14.368 1.046-4.063-1.94-6.301-5.332-6.9-9.798-.457-3.406-.093-6.69 1.55-9.747 3.007-5.594 8.659-7.901 14.74-6.06.551.167 1.103.332 1.647.513 1.009.331 1.911.382 2.484-.768.09-.188.429-.245.973-.527Zm24.35.721h19.281c0 1.734.007 3.45-.014 5.166-.004.147-.213.393-.354.41-.162.026-.396-.111-.515-.252-.101-.119-.076-.342-.119-.519-.681-2.635-1.388-3.255-4.117-3.36a83.578 83.578 0 0 0-6.16-.006c-.407.014-1.135.493-1.143.77-.083 3.159-.05 6.316-.05 9.405 2.541 0 4.985.101 7.411-.04 1.402-.082 1.64-1.398 1.972-2.523.122-.418-.087-1.312.948-1.023v9.386c-.4-.382-.739-.548-.782-.771-.61-3.14-1.511-3.378-4.632-3.33-1.55.02-3.097.017-4.647.032-.061 0-.122.057-.303.144v5.533c0 1.478.011 2.956.004 4.43-.004.826.397 1.345 1.208 1.352 2.159.025 4.322.061 6.474-.054 2.775-.144 4.397-1.857 5.439-4.282.151-.35.555-.588.843-.88l.365.249c-.512 2.076-1.013 4.152-1.554 6.221-.04.155-.375.328-.57.328-6.268 0-12.537-.018-18.805-.04-.061 0-.123-.068-.404-.234.375-.187.613-.37.88-.436 2.036-.48 2.44-.81 2.458-2.905.054-6.413.058-12.83 0-19.242-.018-1.986-.505-2.397-2.437-2.808-.281-.061-.53-.263-.793-.4.033-.104.072-.213.116-.32ZM58.553 34.878h-7.865c-.54 0-1.081.03-1.619-.007-.165-.01-.32-.195-.479-.3.137-.129.256-.32.418-.374 2.628-.84 2.715-.908 2.722-3.64.018-5.98.007-11.96.007-17.941 0-.325-.01-.649-.036-.973-.123-1.572-.656-2.138-2.228-2.423-.335-.06-.649-.234-.973-.356.036-.116.069-.235.105-.35h19.324c0 1.68.014 3.327-.022 4.97-.003.199-.28.39-.428.585-.18-.177-.494-.336-.523-.534-.45-2.985-1.485-3.547-4.975-3.644-1.726-.05-3.46.021-5.187-.029-1.038-.032-1.434.429-1.43 1.41.01 2.739.007 5.475-.004 8.214-.004.52.126.819.717.804 1.87-.043 3.742-.068 5.616-.09 1.54-.018 2.376-.84 2.686-2.292.075-.354.13-.721.284-1.039.105-.216.372-.353.566-.526l.26.13v9.015l-.249.216c-.202-.198-.537-.364-.587-.594-.617-2.834-1.09-3.403-4.64-3.331-1.503.032-3.006.004-4.65.004v2.563c0 2.162-.025 4.322.011 6.484.04 2.455.35 2.797 2.714 3.349.213.05.4.21.599.317-.043.126-.09.252-.134.382ZM182.982 7.693c.123 3.28.235 6.185.343 9.087l-.289.191c-.227-.26-.53-.483-.667-.782-.392-.847-.634-1.767-1.081-2.581-2.92-5.35-9.743-5.63-13.099-.544-2.084 3.157-2.43 6.719-2.228 10.37.119 2.141.624 4.203 1.741 6.067 2.823 4.693 8.547 5.738 13.107 2.383.807-.595 1.535-1.298 2.368-2.005l.584.635c-3.215 4.253-8.031 5.944-13.067 4.635-4.463-1.157-8.013-5.385-8.691-10.295-.602-4.365-.083-8.492 2.632-12.115 3.035-4.055 7.775-5.656 12.771-4.383.836.213 1.669.45 2.487.724.941.318 1.683.137 2.249-.713.13-.199.382-.317.84-.674Zm-44.485.792c0 2.066.007 4.074-.014 6.082-.004.187-.209.37-.321.558-.188-.17-.465-.303-.544-.512-.238-.638-.397-1.304-.592-1.96-.439-1.464-1.423-2.354-2.937-2.47-1.352-.104-2.718-.021-4.164-.021-.018.313-.05.663-.05 1.012-.004 6.377 0 12.757 0 19.134 0 .288.003.577.014.865.083 2.206.44 2.613 2.581 2.974.317.054.627.133.927.44-3.501.346-6.986.256-10.468.288l-.098-.342c.227-.12.44-.303.682-.346 2.404-.458 2.768-.822 2.786-3.385.04-5.656.018-11.315.022-16.97V9.894c-1.799.173-3.497.173-5.112.54-1.838.415-2.116 2.156-2.527 3.692-.122.461-.018 1.193-.861.966V8.485h20.676Zm36.908 34.111v5.638h-2.487v-8.89c1.085 0 2.123-.043 3.15.03.278.02.592.352.79.616 1.139 1.528 2.246 3.082 3.478 4.787v-5.364h2.538v8.9c-1.031 0-2.033.047-3.028-.03-.281-.02-.595-.352-.789-.62-1.183-1.607-2.336-3.236-3.652-5.067Zm-64.253 5.905c-.638-.09-1.283-.14-1.914-.277-1.881-.408-3.031-1.54-3.334-3.475-.288-1.846.299-3.385 1.835-4.405 2.339-1.558 4.898-1.673 7.378-.436 2.906 1.452 2.877 5.882-.061 7.548-1.143.649-2.534.858-3.81 1.265-.032-.072-.061-.144-.094-.22Zm-2.422-4.636c.014 1.756 1.006 2.776 2.707 2.79 1.734.015 2.959-1.171 2.963-2.862.004-1.78-1.013-2.79-2.815-2.79-1.835-.003-2.869 1.035-2.855 2.862Zm56.298 4.589c-1.925-.061-3.774-.343-4.813-2.239-1.438-2.627-.133-5.634 2.844-6.65 1.54-.526 3.104-.566 4.672-.162 1.748.45 2.956 1.492 3.259 3.327.306 1.842-.224 3.42-1.781 4.556-1.244.905-2.667 1.193-4.181 1.168Zm.385-7.45c-1.795.003-2.855 1.023-2.865 2.757-.011 1.82.984 2.876 2.721 2.894 1.723.015 2.949-1.171 2.96-2.866.007-1.777-1.017-2.79-2.816-2.786ZM63.207 48.223v-8.838c2.195-.087 4.38-.372 6.514.274.94.284 1.593.944 1.64 2.047.047 1.078-.49 1.77-1.38 2.246-.34.18-.704.317-1.147.515 1.067 1.237 2.105 2.448 3.313 3.846-1.125 0-2.015.05-2.895-.029-.295-.025-.616-.328-.833-.58-.782-.919-1.528-1.87-2.476-3.046v3.569c-.973-.004-1.842-.004-2.736-.004Zm2.56-4.996c1.802.21 2.757-.23 2.793-1.114.032-.771-.782-1.402-1.907-1.218-1.647.274-.296 1.568-.887 2.332Zm30.542-3.867c1.784 0 3.47-.022 5.161.014.455.01.92.165 1.356.324.919.339 1.499.991 1.571 1.997.073 1.013-.45 1.716-1.29 2.195-.371.213-.782.35-1.283.57 1.067 1.225 2.116 2.437 3.345 3.85-1.15 0-2.066.04-2.974-.026-.26-.018-.541-.313-.735-.544-.801-.944-1.572-1.918-2.588-2.808v3.323h-2.563V39.36Zm2.577 2.952c.036.353-.274 1.092.782 1.045 1.132-.047 1.986-.559 1.9-1.316-.119-1.052-.999-1.07-1.78-1.171-1.04-.134-.938.59-.902 1.442Zm-9.664 3.277v2.645h-2.657v-9.04c1.96.126 3.89.148 5.789.407 1.103.152 1.99.855 2.148 2.113.163 1.268-.342 2.386-1.586 2.898-1.103.457-2.325.63-3.694.977Zm.086-1.95c.92.04 1.78.014 2.235-.804.191-.346.155-1.175-.083-1.334-.584-.397-1.344-.534-2.152-.818v2.955Zm38.17-4.254h6.521v1.611H130.2v1.802h3.568v1.68h-3.565v2.058h3.832v1.716h-6.553c-.004-2.945-.004-5.868-.004-8.867Zm-53.728-.011h6.467v1.655H76.39v1.766h3.644c.033.577.062 1.052.094 1.65h-3.706v2.095h3.807v1.73h-6.477v-8.896Zm70.446.169c-.104.584-.198 1.099-.299 1.661-.786-.054-1.528-.158-2.267-.147-1.831.028-2.884 1.066-2.884 2.771-.004 1.727.908 2.654 2.768 2.726.783.029 1.568-.08 2.452-.13.086.497.183 1.045.313 1.78-1.759 0-3.41.163-5.014-.04-2.011-.251-3.223-1.589-3.428-3.333-.26-2.206.624-3.962 2.437-4.845 1.47-.725 3.868-.92 5.922-.443Zm-94.73 8.637v-8.767h6.416v1.593h-3.727v1.99h3.51v1.64H52.17v3.544h-2.703Zm68.222-8.785h8.287v1.612h-2.787v7.242h-2.692v-7.214h-2.808v-1.64Zm27.716 1.658v-1.647h8.283v1.59h-2.743v7.245h-2.743v-7.188h-2.797Zm43.631-35.595A5.43 5.43 0 0 1 194.546 0c2.974.022 5.432 2.477 5.454 5.443.022 3.01-2.473 5.512-5.493 5.515-3.057.004-5.476-2.43-5.472-5.5Zm5.515 4.675c2.494-.025 4.61-2.156 4.614-4.647.003-2.516-2.206-4.696-4.719-4.66-2.566.036-4.643 2.184-4.592 4.758.047 2.501 2.188 4.574 4.697 4.549Zm-39.399 29.262h2.631v8.778c-.054.04-.079.072-.111.075-2.52.346-2.52.346-2.52-2.137v-6.716Zm-97.319 0h2.66v8.843h-2.66v-8.843Z" fill="#BCBCBC"/><path d="M193.018 5.937c0 .71.047 1.283-.022 1.838-.029.238-.299.447-.461.667-.141-.202-.4-.397-.404-.602-.032-1.683-.018-3.363-.018-5.155 1.027 0 1.983-.04 2.931.015.771.043 1.387.393 1.524 1.25.134.83-.266 1.374-.969 1.742-.126.065-.256.126-.372.18.566.815 1.125 1.622 1.684 2.433l-.26.314c-.371-.26-.8-.462-1.095-.786-.476-.523-.808-1.179-1.313-1.666-.216-.212-.706-.144-1.225-.23Zm.039-.469c.963-.299 1.738-.508 2.48-.807.087-.036.047-.793-.061-.83-.757-.252-1.55-.4-2.419-.605v2.242Z" fill="#BCBCBC"/></svg>