<svg width="200" height="32" fill="none" xmlns="http://www.w3.org/2000/svg"><path d="M0 30.829c.932-1.677 1.736-3.168 2.58-4.64.892-1.55 1.883-3.05 2.707-4.64.431-.843.961-1.068 1.844-1.059 3.06.04 6.12.02 9.171.01h1.364c-1.246-2.148-2.384-4.12-3.522-6.091-.637-1.118-1.314-2.217-1.893-3.364-.186-.363-.284-.962-.108-1.275 1.726-3.1 3.521-6.15 5.297-9.22.069-.118.176-.236.412-.55 1.069 1.844 2.05 3.531 3.021 5.228.893 1.55 1.805 3.1 2.668 4.669.137.245.177.667.049.893-1.815 3.168-3.659 6.307-5.61 9.642.52.039.921.088 1.324.088 2.942.01 5.885.049 8.818-.02 1.079-.02 1.746.187 2.305 1.246 1.471 2.776 3.139 5.463 4.708 8.18.127.226.186.49.314.854-.48.03-.863.069-1.236.069-3.178 0-6.356-.03-9.524.02-.814.009-1.256-.266-1.648-.962-1.668-2.982-3.404-5.944-5.228-9.113-1.01 1.717-1.933 3.277-2.845 4.846-.873 1.51-1.716 3.05-2.609 4.551-.157.265-.5.608-.765.608-3.776.05-7.563.03-11.594.03Zm45.719-18.392c1.01-2.217 2.01-4.11 2.717-6.101.431-1.226 1.089-1.422 2.226-1.138v11.624h-1.736V9.818c-.078-.02-.167-.049-.245-.069-.765 1.697-1.53 3.404-2.305 5.101-.971.294-1.442-.049-1.795-1.04-.51-1.451-1.266-2.825-2.06-4.541v7.553h-1.785V5.228c1.697-.255 1.726-.197 2.344 1.275.795 1.883 1.668 3.747 2.639 5.934Zm111.025 4.355V5.218c1.236-.422 1.883.04 2.334 1.167.785 1.972 1.707 3.885 2.668 6.052.981-2.187 1.952-4.12 2.707-6.14.422-1.138 1.04-1.412 2.178-1.089v11.594h-1.668V9.79c-.078-.03-.166-.049-.245-.078-.657 1.451-1.285 2.913-1.981 4.335-.167.353-.579.834-.854.824-.353-.01-.833-.392-1.02-.736-.765-1.471-1.451-2.982-2.285-4.747v7.405h-1.834Zm-2.737 14.018c-1.119.392-1.756-.07-2.158-1.03a6.055 6.055 0 0 0-.422-.834c-1.157-1.952-2.335-3.904-3.688-6.17v8.073h-1.795V19.255c1.304-.589 1.873.147 2.432 1.177a70.978 70.978 0 0 0 3.806 6.238v-7.503c.677-.03 1.207-.05 1.815-.079.01 3.943.01 7.798.01 11.722ZM85.326 16.87V5.12c1.766 0 3.512-.226 5.17.05 2.805.47 3.864 3.413 1.637 5.678 1.06.991 1.678 2.129 1.217 3.669-.383 1.275-1.383 2.285-2.707 2.344-1.707.059-3.424.01-5.317.01Zm1.638-1.657c.461.02.844.05 1.216.06.658.009 1.334.048 1.982-.02.883-.089 1.756-1.05 1.471-1.884-.216-.647-.892-1.422-1.52-1.599-.961-.264-2.06-.068-3.159-.068.01 1.206.01 2.285.01 3.511Zm.02-5.15c1.04 0 2.01.07 2.972-.019.932-.078 1.5-.696 1.5-1.638 0-.932-.608-1.55-1.5-1.648-.961-.108-1.932-.02-2.972-.02v3.326ZM59.127 29.622c.206.147.49.343.755.54-.569 1.294-.677 1.304-1.824.637-.236-.137-.638-.088-.922 0-2.11.647-4.336.392-5.425-1.403-.421-.696-.716-1.58-.745-2.393-.069-1.668-.04-3.365.147-5.022.265-2.423 2.688-3.345 4.463-3.178 2.953.284 4.1 2.167 3.904 4.502-.088 1.05.03 2.119-.03 3.168-.049 1-.196 1.991-.323 3.149Zm-2.864-.451c-.795-.628-1.893-1.236-.275-2.247.422.324.912.677 1.403 1.05.088-.118.206-.206.206-.294.01-1.795.117-3.59-.04-5.366-.107-1.177-1.186-1.844-2.334-1.824-1.089.02-2.207.736-2.295 1.795-.138 1.805-.196 3.649.01 5.444.186 1.49 1.873 2.148 3.325 1.442Zm37.381-4.286c.294-1.305.461-2.658.902-3.914.51-1.432 2.472-2.413 3.983-2.216 2.266.304 3.835 1.54 3.963 3.403a42.52 42.52 0 0 1 0 5.69c-.118 1.804-1.972 3.216-3.973 3.226-2.413.02-4.169-1.245-4.443-3.246-.138-.962-.197-1.933-.285-2.894-.049-.01-.098-.03-.147-.049Zm2.08.059c.078.794.098 1.697.254 2.57.226 1.285 1.227 2.06 2.453 2 1.118-.048 2.167-1.059 2.226-2.285.059-1.5.079-3.011 0-4.512-.078-1.402-.912-2.177-2.207-2.236-1.255-.059-2.295.667-2.491 1.824-.147.844-.157 1.707-.236 2.639Zm48.288.098c-.089 1-.059 2.04-.275 3.011-.52 2.266-2.001 3.149-4.767 3.031-1.834-.078-3.492-1.481-3.629-3.453-.138-1.932-.098-3.913.206-5.816.314-1.933 2.373-3.227 4.237-3.041 2.482.245 4.061 1.775 4.159 4.041.029.746 0 1.491 0 2.237.01-.02.039-.02.069-.01Zm-6.974-.05c.029 0 .058.01.088.01 0 .471-.03.942.01 1.413.029.461.098.932.206 1.383a2.25 2.25 0 0 0 2.226 1.726c1.069-.02 2.109-.51 2.207-1.55.187-1.99.196-4.03-.029-6.012-.118-1.05-1.148-1.57-2.344-1.491-1.099.069-1.786.667-2.031 1.638-.226.932-.225 1.922-.333 2.884ZM64.953 13.35h1.373c.981 2.07 2.168 2.717 3.757 1.902.49-.255 1.01-.97 1.01-1.48s-.51-1.237-1-1.482c-.99-.5-2.129-.677-3.159-1.089-1.314-.53-2.246-2.118-2.05-3.325.246-1.51 1.52-2.874 2.992-2.962.981-.059 2.05-.01 2.962.314 1.315.46 1.727 1.658 1.776 3.05h-1.53c-.716-1.53-1.227-1.873-2.63-1.765-.892.069-1.559.569-1.667 1.373-.117.853.403 1.57 1.285 1.864.883.294 1.795.49 2.659.814 1.589.588 2.55 2.01 2.344 3.364-.294 1.952-1.246 2.923-3.11 3.198-1.579.235-3.07.147-4.257-1.109-.686-.745-1-1.569-.755-2.667Zm33.733.167c1.314-.354 2.01-.285 2.314.931.226.903 1.717 1.344 2.943.991.893-.255 1.599-.853 1.334-1.854-.147-.53-.657-1.128-1.157-1.373-.922-.451-1.972-.628-2.953-.98-1.687-.609-2.217-1.992-2.08-3.395.158-1.599 1.335-2.785 2.992-2.923 1.177-.098 2.394-.225 3.453.628.873.696 1.324 1.491 1.128 2.658-.834.206-1.471.363-1.883-.784-.373-1.02-1.491-1.03-2.443-.873-.765.127-1.422.617-1.422 1.441.01 1 .657 1.59 1.628 1.844.864.226 1.727.462 2.551.795 1.648.667 2.059 1.49 1.961 3.659-.058 1.402-.706 2.158-2.314 2.648-1.795.55-3.541.49-4.866-1-.54-.618-.765-1.53-1.186-2.413ZM74.527 5.15h1.785c0 2.658.01 5.277 0 7.896-.01 1.01.285 1.854 1.226 2.335 1.756.922 3.55-.216 3.58-2.296.03-2.236.01-4.463.01-6.7V5.17h1.776c0 2.991.157 5.973-.05 8.926-.147 2.108-2.275 3.393-4.688 3.236-1.962-.127-3.541-1.667-3.6-3.756-.108-2.776-.04-5.552-.04-8.426Zm34.448 0h1.56v4.865h4.531V5.16h1.776v11.662h-1.766v-5.07h-4.541v5.07h-1.57c.01-3.854.01-7.71.01-11.672Zm34.517 4.826V5.16h1.766v11.623h-1.737v-5.002h-4.433v5.012h-1.668V5.189h1.609v4.787h4.463ZM84.394 27.337c.932-.196 1.52-.157 1.874.961.451 1.432 3.04 1.687 3.972.51.834-1.05.481-2.226-.882-2.727-.834-.314-1.727-.45-2.57-.726-1.874-.598-2.55-1.794-2.305-3.992.137-1.255 1.304-2.226 2.883-2.442 1.638-.216 3.208-.186 4.218 1.403.294.47.402 1.059.628 1.687h-1.746c-.706-1.442-1.285-1.736-2.727-1.55-.853.118-1.354.559-1.471 1.373-.118.824.265 1.462 1.04 1.746.902.343 1.844.579 2.766.863 1.795.56 2.648 1.844 2.403 3.62-.255 1.814-1.491 2.952-3.296 3.001-.628.02-1.255.05-1.883-.01-1.933-.176-3.13-1.697-2.904-3.717Zm79.304-5.335h-1.638c-.795-1.482-1.344-1.776-2.776-1.53-.765.127-1.285.47-1.413 1.275-.137.843.167 1.49.962 1.795.902.343 1.834.598 2.766.882 1.834.55 2.736 1.864 2.501 3.689-.226 1.745-1.54 2.932-3.364 2.952-1.236.02-2.482.157-3.581-.726-1-.804-1.236-1.795-1.187-3.021h1.639c.009 1.285.745 1.981 1.893 2.177.941.157 1.873.04 2.452-.931.618-1.03.333-2.03-.805-2.443-.912-.323-1.893-.45-2.795-.804-1.972-.765-2.805-2.491-2.158-4.414.549-1.638 2.266-2.295 4.139-2.05 2.521.343 3.051.942 3.365 3.149Zm-44.807-2.846h1.766c0 3.05.128 6.062-.039 9.053-.118 2.148-2.747 3.56-5.091 2.982-2.119-.52-3.05-1.716-3.05-3.904v-8.092h1.608c0 2.315-.019 4.61.01 6.905a8.89 8.89 0 0 0 .235 1.825c.275 1.147 1.344 1.883 2.433 1.746 1.403-.187 2.119-.922 2.138-2.296.03-2.265.01-4.541.01-6.817-.02-.421-.02-.843-.02-1.402ZM50.564 30.8c-1.344.421-2.08-.03-2.295-1.325-.128-.794-.56-1.108-1.383-1.01-.658.079-1.344.098-1.992 0-1.186-.176-1.843.216-1.971 1.452-.04.323-.216.637-.314.922h-1.932c1.157-3.217 2.275-6.327 3.394-9.446.157-.441.314-.883.441-1.324.167-.608.392-1.02 1.177-.99.696.029.873.333 1.079.931 1.148 3.335 2.364 6.64 3.55 9.956.109.265.168.559.246.834Zm-3.188-3.944a853.044 853.044 0 0 0-1.608-4.757c-.079 0-.157.01-.246.01-.52 1.58-1.03 3.149-1.56 4.747h3.414Zm144.287-10.024h-1.903c-.235-.756-.471-1.491-.736-2.315-1.343 0-2.707-.03-4.07.03-.246.01-.559.333-.677.588-.245.52-.383 1.098-.579 1.687h-1.873c.372-1.138.706-2.266 1.098-3.364a407.05 407.05 0 0 1 2.747-7.543c.117-.324.49-.756.755-.766.412-.01 1.099.197 1.206.481 1.384 3.698 2.688 7.416 4.032 11.202Zm-4.954-9.005a709.14 709.14 0 0 1-1.667 4.993h3.413c-.559-1.609-1.098-3.139-1.746-4.993ZM80.128 30.79c-1.844.265-1.894.275-2.325-1.314-.216-.785-.579-1.118-1.393-1.02a6.112 6.112 0 0 1-1.638 0c-1.422-.216-2.246.196-2.491 1.755-.187 1.197-1.197.579-2.07.677.677-1.942 1.295-3.757 1.932-5.571.628-1.795 1.305-3.57 1.893-5.375.187-.55.363-.873 1.02-.854.628.01.952.167 1.178.824 1.245 3.61 2.57 7.19 3.894 10.878Zm-3.208-3.933a983.948 983.948 0 0 1-1.805-5.062c-.618 1.845-1.128 3.394-1.687 5.062h3.492Zm77.852-10.035h-6.974V5.17h6.984v1.54h-5.219v3.325h4.856v1.628h-4.856v3.57h5.199c.01.589.01 1.06.01 1.59Zm-21.03-3.432h1.775c-.157 1.245-.48 2.275-1.55 3-2.618 1.756-7.062.932-7.062-4.07 0-1.442-.019-2.903.216-4.316.255-1.55 1.383-2.481 2.864-2.933 1.56-.48 2.982-.206 4.237.854.805.676 1.315 1.51 1.276 2.677-.913.099-1.668.383-2.158-.863-.383-.961-1.472-1.451-2.56-1.167-1.04.275-1.776 1.07-1.835 2.178a44.915 44.915 0 0 0 0 4.727c.049 1.08 1.001 1.913 2.08 2.011 1.412.108 2.148-.431 2.717-2.099ZM61.56 19.166h1.706c0 2.57-.02 5.11.01 7.641.01.49.098 1.02.314 1.442.559 1.128 1.51 1.57 2.56 1.315 1.226-.304 1.962-1.158 1.971-2.404.02-2.628.01-5.247.01-7.964h1.707c0 3.011.128 5.993-.049 8.945-.108 1.933-1.942 3.14-4.159 3.13-2.275-.01-3.894-1.139-4.021-3.247-.187-2.923-.05-5.866-.05-8.858ZM181.451 13.4c-.127 1.922-1.157 3.08-2.805 3.59-1.814.568-3.56.205-4.816-1.295-.49-.58-.814-1.472-.843-2.237-.079-1.746-.069-3.521.176-5.248.353-2.481 1.795-3.433 4.581-3.335 1.991.07 3.423 1.501 3.668 3.698-.941.197-1.716.295-2.187-.922-.363-.941-1.364-1.265-2.354-1.118-1.06.157-1.874.824-1.942 1.883-.128 1.736-.098 3.492.009 5.238.059.971.736 1.638 1.727 1.805 1.079.186 2.168-.04 2.58-1.118.431-1.197 1.206-1.06 2.206-.942ZM59.284 6.72h-3.08V5.15h8.043v1.54h-3.129v10.113h-1.844c.01-3.316.01-6.621.01-10.084Zm47.239 22.618h5.512v1.49h-7.297V19.177h1.775c.01 3.384.01 6.7.01 10.162Zm87.955-14.065H200v1.53h-7.209V5.17h1.687v10.103Zm-64.218 3.903v1.491h-3.159V30.82h-1.726V20.716h-3.227v-1.54h8.112Zm1.304-.03h1.678v11.682h-1.678V19.146ZM95.547 5.16h1.726v11.662h-1.726V5.16Zm25.542.039v11.613h-1.727V5.2h1.727ZM53.173 5.14h1.668v11.673h-1.668V5.14ZM170.79 16.822h-1.599V5.17h1.599v11.652Z" fill="#BCBCBC"/></svg>