<svg width="54" height="58" fill="none" xmlns="http://www.w3.org/2000/svg"><path d="M46.357 54.31c0 1.027.005 1.801-.002 2.576-.006.841-.274 1.106-1.112 1.11-1.139.002-2.275.006-3.414-.002-.693-.005-.962-.285-.977-.987-.006-.335-.001-.669-.001-.935-1.036-.092-2.012-.114-2.963-.28-.636-.112-1.254-.393-1.85-.663-1.918-.871-3.817-.868-5.716.045-2.426 1.167-4.838 1.143-7.255-.041-1.81-.888-3.669-.933-5.481-.053-1.478.718-2.997 1.059-4.63.899-.094-.01-.19-.002-.348-.002 0 .39.01.744-.002 1.099-.019.624-.3.911-.924.916-1.197.011-2.395.01-3.594.002-.678-.005-.97-.3-.982-.996-.012-.813-.003-1.627-.003-2.472-1.006-.081-1.86.22-2.68.637-.976.495-2 .789-3.091.841a2.753 2.753 0 0 1-.655-.019c-.456-.084-.694-.38-.67-.846.024-.437.274-.745.707-.745 1.296.001 2.435-.487 3.602-.978.847-.356 1.788-.491 2.747-.74v-3.16c-.918-.05-1.76.206-2.556.616-1.082.558-2.222.879-3.44.898-.701.01-1.073-.296-1.065-.845.008-.527.353-.75 1.03-.83.705-.083 1.45-.155 2.088-.433 1.266-.552 2.518-1.093 3.951-1.097v-3.308a5.255 5.255 0 0 0-2.535.61c-1.118.575-2.291.92-3.559.9-.632-.01-.967-.287-.977-.804-.01-.506.327-.85.944-.848 1.068 0 2.013-.373 2.984-.768.983-.399 2.035-.627 3.134-.953v-2.147H5.669c-.718 0-1.436.01-2.155-.003-.648-.011-.951-.31-.967-.955-.016-.599-.004-1.197-.004-1.796V30.09c0-.16-.01-.321.008-.48.055-.48.328-.767.813-.802.449-.032.82.328.837.831.022.754.006 1.507.006 2.296h4.786c.072-.758.152-1.523.214-2.29.417-5.15.83-10.3 1.246-15.449.067-.835.14-1.67.218-2.503.056-.581.34-.872.93-.875 2.554-.011 5.11-.01 7.664-.002.572.002.874.318.922.888.14 1.71.285 3.42.428 5.128.012.158.025.314.048.578h20.215c1.114 0 1.317.206 1.317 1.328v13.193h7.057c0-.703-.005-1.393.001-2.084.005-.65.312-1.036.814-1.044.508-.008.847.378.847 1.018.004 3.214.006 6.426 0 9.64-.002.754-.3 1.041-1.06 1.046-1.136.006-2.27.002-3.452.002v2.36c1.563-.047 2.91.671 4.32 1.21.544.21 1.167.23 1.76.291.654.07 1 .358.973.887-.025.51-.359.766-1.006.77-1.16.012-2.25-.27-3.284-.785-.863-.43-1.76-.72-2.774-.712v3.292c1.472.04 2.78.602 4.103 1.162.605.258 1.312.3 1.981.376.648.072 1.003.343.98.878-.019.5-.375.796-.996.793a7.235 7.235 0 0 1-3.231-.766c-.882-.44-1.798-.738-2.834-.762v3.288c.29.04.61.046.905.13.84.242 1.664.532 2.503.769.895.25 1.79.506 2.702.67.62.113.956.324.951.841-.005.508-.354.816-.97.816-1.198.002-2.309-.332-3.404-.81-.822-.36-1.713-.57-2.724-.897ZM4.237 38.795h44.99v-5.152H4.238v5.152Zm16.58-19.693c.095 1.086.187 2.096.27 3.107.238 2.879.465 5.757.709 8.634.093 1.086.11 1.084 1.213 1.084h3.623v-.726c0-2.095-.003-4.19.002-6.284.001-.8.282-1.075 1.084-1.076 1.935-.005 3.87-.004 5.805 0 .937.001 1.154.22 1.155 1.172.004 2.073.002 4.149.002 6.223v.646h5.815v-12.78H20.817Zm-10.131 12.77h9.46c-.518-6.486-1.034-12.913-1.55-19.36h-6.331c-.527 6.462-1.05 12.892-1.58 19.36Zm30.138 14.093c-1.717.19-3.283-.078-4.777-.8-1.899-.916-3.81-.893-5.706.02-2.446 1.176-4.871 1.143-7.308-.05-1.832-.895-3.697-.905-5.53.002-1.3.643-2.65.966-4.098.888-.25-.013-.5-.002-.792-.002 0 1.018-.02 1.973.02 2.925.007.14.274.37.438.386 1.169.113 2.312-.002 3.375-.546 2.543-1.303 5.07-1.28 7.63-.011 1.681.835 3.468.894 5.145.075 2.668-1.301 5.261-1.346 7.923-.03 1.146.566 2.393.7 3.68.423v-3.28ZM12.638 54.21c1.123.326 2.617.172 3.85-.45 2.532-1.28 5.035-1.25 7.575.005 1.702.84 3.498.894 5.202.062 2.647-1.295 5.23-1.316 7.87-.021 1.15.564 2.39.712 3.689.431V50.95c-1.921.292-3.628-.278-5.338-1.017-1.697-.735-3.432-.584-5.094.223-2.44 1.187-4.868 1.188-7.306-.005-1.897-.927-3.782-.88-5.701.007a10.63 10.63 0 0 1-2.551.784c-.706.126-1.452.025-2.194.025-.002 1.15-.002 2.2-.002 3.243Zm28.214-13.671H12.667v3.76c1.365.169 2.638.083 3.841-.527 2.507-1.273 5.007-1.24 7.526-.003 1.752.86 3.577.887 5.317.044 2.593-1.258 5.131-1.275 7.705-.014 1.049.514 2.17.637 3.325.544.296-.024.484-.076.478-.442-.018-1.098-.007-2.195-.007-3.362ZM28.337 25.53v6.343h4.655V25.53h-4.655Zm16.358 19.074c-.721.307-1.344.559-1.954.838-.1.047-.214.202-.217.309-.018.951-.01 1.903-.01 2.876.7-.217 1.344-.404 1.977-.629.099-.035.193-.24.194-.368.017-.955.01-1.911.01-3.026Zm-.016 5.005c-.726.305-1.363.567-1.995.845-.074.032-.157.147-.157.223-.011.98-.006 1.96-.006 2.96l2.158-.736V49.61Zm-33.727-.996c0-.948.004-1.882-.003-2.816 0-.091-.028-.236-.088-.265-.662-.315-1.333-.612-2.09-.953 0 1.136-.007 2.091.01 3.047.002.123.109.318.21.355.63.223 1.273.415 1.961.632Zm-.003 5.008c0-.977.003-1.927-.005-2.877 0-.087-.05-.221-.115-.252-.652-.305-1.312-.59-2.04-.913v3.306l2.16.736Zm31.584-9.973 2.119-.712v-2.379h-2.119v3.09Zm-31.614-.02v-3.087H8.8v2.366l2.119.722Zm-2.11 10.94v1.73h2.25c-.132-.346-.158-.737-.35-.852-.574-.338-1.211-.57-1.9-.878Zm35.825 1.748v-1.703c-.58.244-1.06.493-1.567.648-.588.18-.64.54-.495 1.055h2.062ZM25.668 8.448c-.835 1.069-1.91 1.578-3.249 1.139-.525-.173-.942-.714-1.466-.838-.506-.12-1.096.177-1.634.126-1.183-.112-2.106-1.09-2.327-2.325a2.754 2.754 0 0 1 1.463-2.95c.36-.182.514-.4.592-.784.356-1.744 2.076-2.7 3.749-2.093.295.107.482.097.742-.104 1.01-.784 2.192-.808 3.3-.16a.88.88 0 0 0 .675.056c1.496-.58 3.096.007 3.75 1.41.666 1.427.068 3.041-1.391 3.798-.154.08-.334.23-.377.383-.564 1.991-1.73 2.718-3.827 2.342Zm4.2-5.45c-.003-.364-.228-.738-.69-.948-.491-.224-.932-.12-1.324.234-.722.648-1.025.63-1.597-.099-.59-.75-1.531-.686-2.028.138-.447.742-.91.83-1.524.261-.449-.415-.94-.549-1.47-.233-.518.308-.69.778-.539 1.386.18.725-.116 1.127-.855 1.169-.62.035-1.022.317-1.175.911-.141.548.062.993.538 1.278.53.317 1.015.196 1.475-.203.575-.497 1.132-.377 1.425.313.237.554.594.895 1.219.867.627-.03.948-.414 1.122-.987.228-.755.758-.932 1.411-.47.449.318.905.417 1.394.14.493-.281.63-.728.567-1.278-.098-.847.086-1.061.932-1.157.67-.075 1.111-.54 1.12-1.322Z" fill="#fff"/><path d="M30.62 22.32c-1.556 0-3.113.002-4.668-.002-.687-.002-1.035-.27-1.05-.788-.017-.542.349-.854 1.053-.854 3.153-.004 6.305-.006 9.458.002.768.002 1.213.527.972 1.12-.164.405-.498.528-.916.526-1.616-.01-3.232-.005-4.849-.005Z" fill="#fff"/></svg>