<svg width="47" height="58" fill="none" xmlns="http://www.w3.org/2000/svg"><path d="M3.457 52.517v-18.29c-1.087.067-2.133-.064-2.776-.992a3.94 3.94 0 0 1-.65-1.78c-.084-.863.288-1.691 1.05-2.12.69-.39 1.51-.548 2.369-.84v-18.05c-.26 0-.525.009-.79 0A2.745 2.745 0 0 1 0 7.73a2.723 2.723 0 0 1 2.604-2.76c.61-.033 1.222-.016 1.833-.016 6.488-.001 12.976-.005 19.462.01.44.001.71-.13.986-.478C27.836.757 32.823-.852 37.353.441c4.633 1.322 8.032 5.257 8.607 9.962.793 6.49-3.652 12.276-10.193 13.273l-.315.049v4.982c1.155-.029 2.295.131 2.925 1.226.297.517.484 1.183.471 1.778-.03 1.535-1.067 2.278-3.39 2.563v18.241c.3 0 .573-.012.843.002a2.72 2.72 0 0 1 2.582 2.775c-.016 1.468-1.182 2.681-2.666 2.694-2.662.025-5.323.01-7.985.01-8.42 0-16.841 0-25.26-.003-1.59 0-2.717-.911-2.93-2.349a2.712 2.712 0 0 1 2.546-3.129c.27-.012.544.002.87.002Zm30.485-.008V34.27H4.95v18.24c.31 0 .583-.016.854.003.41.03.666.252.674.676.01.457-.263.68-.696.72-.196.017-.393.006-.59.009-.868.01-1.737-.016-2.601.038-.699.044-1.187.65-1.17 1.326a1.328 1.328 0 0 0 1.226 1.289c.177.016.354.008.533.008h32.527c.217 0 .437.01.65-.02a1.32 1.32 0 0 0 1.103-1.337 1.299 1.299 0 0 0-1.166-1.274c-.234-.025-.473-.019-.71-.019-8.754-.002-21.334 0-30.086-.002-.237 0-.476.01-.708-.023-.403-.056-.65-.286-.638-.713.012-.422.256-.645.671-.675.196-.014.394-.008.591-.008h27.721c.254.002.507.002.806.002Zm-29-23.777h.76c6.684 0 13.37 0 20.053.002.217 0 .478-.062.64.034.24.146.553.397.568.622.014.225-.253.54-.48.688-.187.122-.495.072-.75.072-7.453.003-14.906.001-22.36.003-.255 0-.513-.007-.767.02a1.3 1.3 0 0 0-1.179 1.323 1.321 1.321 0 0 0 1.215 1.297c.176.016.354.01.533.01h32.533c.177 0 .356.007.533-.008a1.312 1.312 0 0 0 1.218-1.291 1.3 1.3 0 0 0-1.168-1.33c-.214-.026-.432-.021-.649-.021-1.951-.002-12.91.004-14.862-.007-.586-.003-.893-.28-.863-.74.035-.533.392-.675.86-.674 1.183.003 11.373.002 12.555-.001.209 0 .416-.023.634-.034v-4.892c-3.488-.172-6.449-1.467-8.748-4.097-2.299-2.629-3.187-5.735-2.877-9.223H4.943v18.247Zm39.69-16.775c.092-5.573-4.563-10.421-10.098-10.516-5.956-.103-10.728 4.412-10.826 10.244-.097 5.82 4.495 10.586 10.29 10.683 5.8.096 10.535-4.54 10.633-10.411ZM22.564 9.03l.983-2.623c-.19-.012-.359-.031-.528-.031a26469.7 26469.7 0 0 0-19.926 0c-1.063 0-1.668.49-1.668 1.327 0 .836.611 1.322 1.666 1.329h18.863c.215-.002.43-.002.61-.002Z" fill="#B5038D"/><path d="M28.44 14.118c-.017-.893.264-1.847.78-2.732 1.396-2.399 2.8-4.792 4.212-7.183.45-.763 1.017-.758 1.47.011 1.409 2.392 2.834 4.775 4.204 7.188 1.112 1.96 1.107 3.97-.071 5.89-1.18 1.923-2.976 2.807-5.23 2.72-2.974-.114-5.385-2.709-5.365-5.894Zm5.718-8.387c-1.36 2.353-2.717 4.546-3.913 6.823-.922 1.75-.302 3.928 1.26 5.146a4.317 4.317 0 0 0 5.363-.043c1.552-1.237 2.114-3.458 1.165-5.222-1.201-2.23-2.531-4.394-3.875-6.704Z" fill="#B5038D"/></svg>