<svg width="58" height="58" fill="none" xmlns="http://www.w3.org/2000/svg"><path d="M3.09 28.767v-.64c0-5.62-.003-11.242.008-16.866.001-.388-.097-.646-.42-.887-.695-.517-1.35-1.09-2.03-1.628C.215 8.404-.003 7.98 0 7.422.01 5.39-.002 3.358.006 1.326.01.418.44.006 1.366.004a785.38 785.38 0 0 1 4.854 0c.938.003 1.363.438 1.374 1.382.005.354 0 .707 0 1.088 2.203.693 4.38 1.376 6.558 2.062 3.343 1.055 6.686 2.106 10.024 3.175.359.116.587.094.88-.186 2.735-2.61 7.118-1.344 8.032 2.324.103.416.291.574.663.682 6.43 1.866 12.854 3.744 19.285 5.604.255.074.589.071.827-.032 1.47-.632 3.063-.077 3.699 1.327.64 1.41.024 2.963-1.444 3.643-.106.05-.209.106-.305.155v11.405c.152.014.283.027.414.036.761.055 1.194.486 1.196 1.259.008 4.399.01 8.798-.002 13.196-.001.762-.452 1.206-1.222 1.232-.769.023-1.539.02-2.307.003-.86-.02-1.294-.465-1.295-1.346-.007-4.32-.007-8.64 0-12.96.001-1.01.403-1.335 1.77-1.41v-.553c0-3.452-.007-6.904.009-10.356.001-.39-.144-.547-.462-.759-.474-.318-.84-.795-1.26-1.197-.158-.151-.321-.352-.516-.406A4313.468 4313.468 0 0 0 32.66 14.01c-.188-.05-.459.072-.652.183-.893.513-1 1.336-.925 2.272.063.793.014.796.806.796.869 0 1.737-.01 2.605.003 1.121.016 2.043.713 2.334 1.747.294 1.047-.1 2.146-1.045 2.72-.337.204-.381.411-.337.76.67 5.377 1.33 10.758 1.99 16.138.6 4.87 1.198 9.742 1.797 14.613.024.193.066.383.105.593.135.01.25.023.366.027 1.24.025 1.316.1 1.316 1.312 0 .612.005 1.223-.002 1.834-.008.785-.208.995-.977.992-5.326-.022-10.651-.05-15.977-.076-2.072-.01-4.143-.017-6.213-.027-.82-.003-1.019-.2-1.022-1-.003-.671-.001-1.342 0-2.012.002-.93.154-1.083 1.1-1.117.078-.003.157-.014.306-.03l3.34-31.668c-1.072-.429-1.746-1.137-1.789-2.301-.049-1.379.982-2.476 2.36-2.502 1.18-.022 2.362-.005 3.635-.005 0-.722.017-1.407-.014-2.087-.007-.136-.182-.288-.312-.392a4.923 4.923 0 0 1-1.787-2.911c-.04-.185-.229-.429-.401-.484-5.12-1.64-10.245-3.258-15.37-4.878-.073-.024-.152-.027-.224-.04-.03.043-.072.076-.068.103.205 1.282-.404 2.124-1.427 2.8-.588.39-1.31.791-1.587 1.371-.277.58-.081 1.392-.081 2.1-.002 5.05-.002 10.1-.002 15.15v.77c.39 0 .74-.01 1.088 0 .762.026 1.234.451 1.253 1.209a63.3 63.3 0 0 1-.004 3.431c-.02.731-.488 1.158-1.22 1.166a149.05 149.05 0 0 1-3.669 0c-.765-.01-1.21-.457-1.22-1.223a135.587 135.587 0 0 1-.002-3.314c.01-.794.457-1.243 1.246-1.27.352-.006.702.003 1.11.003Zm25.658.755c-.17.068-.215.075-.24.1-2.292 2.282-4.588 4.56-6.87 6.853-.407.41-.347 1.463.064 1.86 2.158 2.08 4.318 4.159 6.48 6.237.125.12.263.227.408.354.155-.141.288-.255.416-.377l6.414-6.135c.632-.606.632-1.463 0-2.094-1.953-1.953-3.91-3.902-5.856-5.86-.305-.307-.57-.653-.816-.938Zm7.394 10.168-6.537 6.253 8.288 7.97c-.592-4.797-1.163-9.443-1.75-14.223Zm-.432 14.1-7.135-6.864-7.032 6.731.065.133H35.71Zm-15.993-.52.123.044 7.712-7.377-6.412-6.167-1.423 13.5ZM1.425 1.448c0 1.975-.003 3.887.006 5.799 0 .14.057.328.157.412.718.606 1.453 1.191 2.202 1.798.712-.574 1.401-1.099 2.048-1.671.176-.155.316-.45.321-.682.027-1.734.016-3.47.013-5.204 0-.15-.027-.299-.041-.452H1.425Zm32.356 20.73H23.48c1.718 1.718 3.46 3.464 5.146 5.153 1.69-1.69 3.425-3.422 5.156-5.154Zm-12.05 11.965c1.89-1.896 3.81-3.824 5.608-5.626l-4.535-4.543c-.356 3.364-.718 6.805-1.072 10.169Zm6.58-15.46c-1.99 0-3.981-.005-5.97.003-.752.003-1.2.461-1.131 1.116.06.574.505.908 1.241.908 3.922.003 7.842.003 11.764 0 .82 0 1.314-.407 1.295-1.047-.018-.622-.483-.979-1.288-.98-1.971-.002-3.942 0-5.912 0Zm11.256 36.586H18.283v1.233h21.284V55.27Zm-5.345-31.191c-1.513 1.507-3.009 2.995-4.362 4.344l5.585 5.609c-.399-3.25-.811-6.609-1.223-9.953ZM55.97 46.902V34.124h-1.91v12.778h1.909ZM7.655 3.982c-.166.67-.024.975.628 1.174 3.76 1.15 7.5 2.363 11.248 3.552 1.361.431 2.726.858 4.124 1.3.102-.328.186-.595.28-.89L7.655 3.98ZM28.438 7.57a3.405 3.405 0 0 0-3.434 3.404 3.406 3.406 0 0 0 3.382 3.397 3.42 3.42 0 0 0 3.44-3.406c.007-1.85-1.53-3.389-3.388-3.395Zm24.07 9.903L33.19 11.837l-.204.76c.244.073.428.137.615.187l10.411 2.86 7.905 2.183c.279.077.598.226.592-.353ZM2.177 33.121H5.4v-2.9H2.176v2.9Zm52.907-15.859c-.726.002-1.317.595-1.304 1.308.01.685.597 1.276 1.28 1.29a1.304 1.304 0 0 0 1.32-1.296 1.268 1.268 0 0 0-1.296-1.302Zm-25.438-1.526h-2.39v1.48h2.39v-1.48Z" fill="#fff"/></svg>